<?xml version="1.0" encoding="UTF-8"?>
<svg fill='white' version='1.1' height='200' width='200' viewBox='125 125 500 500' xmlns='http://www.w3.org/2000/svg'>
 <path d="m518.05 328c-2.0664-1.5547-4.0781-3.1914-6.0742-4.8984v-79.77c0.0625-0.26562 0.089844-0.55078 0.089844-0.83203 0-17.352-14.109-31.461-31.461-31.461-9.5234 0-18.066 4.2656-23.836 10.98v-23.77c0.050781-0.25 0.074219-0.50781 0.074219-0.77344 0-17.336-14.109-31.441-31.445-31.441-9.5078 0-18.094 4.2109-23.891 10.953-2.3398-15.035-15.391-26.574-31.078-26.574-17.348 0-31.461 14.102-31.461 31.438v2.1094c-5.8945-6.7812-14.559-10.887-23.758-10.887-17.348 0-31.461 14.109-31.461 31.449v10.562c-0.015625 0.015624-0.027344 0.027343-0.042969 0.042968-14.094 14.992-22.18 35.02-22.18 54.949 0 24.75 6.668 42.527 22.215 57.133v22.211c-0.25 0.23828-0.49219 0.46484-0.73828 0.69922-2.668-18.441-7.6094-31.953-14.734-40.215-10.973-12.738-24.855-10.207-30.656-7.0859-0.26562 0.14063-0.50781 0.3125-0.73047 0.50781-2.0039 1.7773-5.7383 5.0859-7.0742 83.734-0.12891 7.875-0.17578 13.555-0.18359 14.902-0.35547 2.2031-2.0156 14.121 0.46484 30.32 2.4805 16.227 9.7852 39.98 30.48 61.062 26.961 27.453 31.73 42.602 32.445 48.391h-13.316c-10.016 0-18.168 8.1445-18.168 18.168v23.48c0 10.016 8.1484 18.172 18.168 18.172h201.31c10.016 0 18.172-8.1562 18.172-18.172v-23.48c0-10.02-8.1562-18.168-18.172-18.168h-7.9688c0.86719-13.5 6-35.219 14.984-63.289 22.895-47.551 23.914-100.93 23.949-103.25v-21.645c2.0078-1.7109 4.0391-3.3633 6.1055-4.9258 3.3086-2.543 5.1367-6.1992 5.1367-10.316 0.003906-4.0938-1.8242-7.7539-5.1641-10.316zm-26.551 231.92v23.48c0 5.7812-4.7031 10.484-10.484 10.484h-201.31c-5.7812 0-10.484-4.7031-10.484-10.484v-23.48c0-5.7812 4.7031-10.488 10.484-10.488h201.31c5.7812-0.003906 10.484 4.707 10.484 10.488zm-10.895-341.2c12.852 0 23.352 10.254 23.766 23.008-0.046875 0.25-0.074219 0.50781-0.074219 0.77734v73.609c-13.195-12.824-25.332-28.559-37.992-44.977-3.0938-4.0156-6.2578-8.1133-9.4492-12.184v-16.453c0-13.109 10.656-23.781 23.75-23.781zm-55.203-44.992c12.863 0 23.375 10.273 23.758 23.039-0.046875 0.23828-0.074218 0.47656-0.074218 0.71875v51.723c-14.098-17.312-29.391-33.82-47.281-45.273v-9.3242c1.4258-11.918 11.539-20.883 23.598-20.883zm-54.969-15.613c12.848 0 23.352 10.238 23.766 22.988-0.050781 0.24609-0.082031 0.50781-0.082031 0.76563v12.348c-0.10938 1.0703-0.17578 2.1641-0.17578 3.2773v1.8477c-12.961-6.8867-27.273-11.039-43.41-11.039-1.3125 0-2.6055 0.023438-3.8789 0.070313v-6.5039c0-13.102 10.668-23.754 23.781-23.754zm-55.223 22.656c7.2031 0 13.969 3.3359 18.426 8.793-18.812 2.918-32.551 10.457-42.207 18.375v-3.3984c0.003906-13.109 10.668-23.77 23.781-23.77zm-23.777 152.89c2.1211 1.5898 4.3672 3.1484 6.7383 4.6758-2.3906 1.5352-4.6328 3.0938-6.7383 4.6758zm212.86 41.504c-0.007813 0.53906-1.0273 54.117-23.301 100.22-0.042969 0.085938-0.066407 0.17188-0.097657 0.25391-0.03125 0.089843-0.074219 0.16016-0.10547 0.24609-6.6016 20.609-14.387 48.07-15.445 65.867h-164.6c-0.66406-7.8008-6.2031-24.758-34.691-53.77-19.164-19.52-25.98-41.523-28.32-56.535-2.5586-16.398-0.50391-28.32-0.48438-28.434 0.039062-0.22266 0.058594-0.44141 0.0625-0.66406 0-0.0625 0.042968-6.1719 0.1875-15.141 1.0547-62.125 3.7109-75.281 4.6523-78.008 2.8711-1.1836 12.043-3.8555 20.312 5.7461 6.9297 8.0352 11.547 22.43 13.754 42.75-1.2188 1.5742-2.3555 3.1836-3.4102 4.8359-7.582 11.859-11.266 26.27-11.266 44.062 0 19.93 8.0859 39.961 22.18 54.949 11.512 12.25 32.453 26.848 66.824 26.848 43.285 0 73.449-29.898 99.59-62.199 5.4727-6.7617 10.891-13.789 16.141-20.582 12.668-16.43 24.812-32.164 38.027-45.02v14.574zm9.1406-32.625c-19.684 14.859-36.75 36.977-53.254 58.367-5.2188 6.7578-10.602 13.75-16.027 20.441-23.238 28.715-51.555 59.344-93.621 59.344-31.621 0.003906-50.75-13.277-61.223-24.422-12.77-13.582-20.09-31.688-20.09-49.684 0-20.164 4.9492-34.078 13.441-44.781 0.38672-0.32031 0.70703-0.71484 0.9375-1.1602 1.8594-2.2266 3.8789-4.3125 6.043-6.2891 0.35156-0.21875 0.65234-0.50391 0.91406-0.82031 4.9688-4.3906 10.656-8.2344 16.918-11.871 1.1836-0.6875 1.9141-1.957 1.9141-3.3242 0-1.375-0.72266-2.6367-1.9141-3.3242-6.2695-3.6406-11.961-7.4961-16.934-11.887-0.25391-0.30859-0.54297-0.57812-0.88281-0.78906-12.711-11.613-20.441-27.047-20.441-52.246 0-17.957 7.1133-36.477 20.828-50.508 0.17578-0.14844 0.33203-0.30859 0.47656-0.47656 13.719-13.789 33.891-23.129 60.008-23.129 16.969 0 31.703 4.9922 44.773 12.824 0.14844 0.12891 0.29688 0.24609 0.47266 0.34766 0.23828 0.16406 0.49219 0.29688 0.76562 0.41016 18.746 11.598 34.047 29.008 47.609 45.773 5.4336 6.707 10.84 13.719 16.07 20.496 16.488 21.391 33.543 43.504 53.184 58.289 1.4141 1.0859 2.1367 2.5039 2.1367 4.2227 0.003907 1.707-0.71875 3.125-2.1055 4.1953z"/>
</svg>
