<?xml version="1.0" encoding="UTF-8"?>
<svg fill='white' version='1.1' height='200' width='200' viewBox='125 125 500 500' xmlns='http://www.w3.org/2000/svg'>
 <g>
  <path d="m581.59 590.19c0.17578 1.1211-0.21094 2.2539-1.0352 3.0312-0.82031 0.78125-1.9727 1.1055-3.082 0.87109-0.44141 0.14844-0.90625 0.21875-1.3711 0.21875-32.652-0.27344-65.297 2.6133-98 2.8047-33.832 0.21875-67.707 0.82031-101.52 0.875h-0.003906c-0.67578 0-1.3438-0.15625-1.9453-0.46484-1.2227 0.30078-2.5117 0.039062-3.5195-0.71875-1.0039-0.75781-1.6133-1.9258-1.6602-3.1836-0.71484-20.566-8.5391-39.762-10.875-60.109-0.96094-8.5703-2.5273-17.02-4.0078-25.512v0.003906c-2.2461 8.1055-4.9883 16.066-8.207 23.836-7.9375 19.609-11.426 40.559-19.387 60.137-0.16406 0.375-0.36719 0.73438-0.60547 1.0703-0.625 1.4102-2.0586 2.2852-3.5977 2.1953-23.34-0.37109-47.066 3.6523-70.188-1.293v0.003906c-0.95313-0.17578-1.8008-0.71875-2.3594-1.5117-0.82031-0.52734-1.4141-1.3398-1.6758-2.2773-2.9531-11.984-2.1172-24.59 2.3867-36.082 1.7305-5.0039 4.0234-9.7969 6.8398-14.281 3.6172-5.4961 5.0547-12.145 4.0352-18.645-0.82812-0.35547-1.4922-1.0195-1.8477-1.8477-3.4609-7.5781-8.9492-12.52-10.625-20.949h-0.003906c-0.49609-3.3008-0.37109-6.6641 0.37109-9.9141 1.0117-6.5391 0.85547-13.207-0.46484-19.688-2.4961-17.215-5.5508-37.426 0.93359-54.02 0.054688-0.13672 0.13672-0.24609 0.19141-0.37109-3.5977-6.8359-2.0859-14.43-4.3086-22.051h-0.003906c-3.5586-10.418-5.6133-21.293-6.0977-32.293-0.023437-0.4375 0.042969-0.875 0.19141-1.2891-9.4727-14.965-9.5273-33.668-5.2422-50.965-0.90625 1.1094-1.8516 2.2188-2.8555 3.2695-0.95312 0.91016-2.3555 1.1719-3.5742 0.66797-1.2188-0.50781-2.0234-1.6836-2.0508-3.0039 0.13672-5.4648 0.32812-10.957 0.41016-16.422v0.003906c-2.6641 2.7773-6.3711 4.3125-10.215 4.2266-1.7891-0.13281-3.5078-0.75-4.9727-1.7852-3.2461 3.8047-7.1406 7.0039-11.504 9.4453-0.88672 0.5-1.9531 0.56641-2.8945 0.17969-0.94141-0.38281-1.6562-1.1797-1.9375-2.1562-0.91406-6.2734-0.52344-12.668 1.1484-18.781-4.6641 1.4297-9.4961 2.2188-14.277 3.2422v-0.003906c-0.99219 0.26172-2.0469 0.050781-2.8633-0.57422-0.81641-0.62109-1.2969-1.5859-1.3086-2.6094 0.97266-10.41 7.3438-19.543 16.777-24.051-2.3359-2.625-3.4141-6.1328-2.957-9.6172-8.7891-1.5156-17.047-5.2383-24-10.82-0.71875-0.72266-1.0664-1.7383-0.9375-2.75 0.12891-1.0117 0.71875-1.9102 1.5977-2.4297 4.4102-2.1211 9.3359-2.9414 14.195-2.3594 4.8672-0.070312 9.7344 0.12109 14.582 0.57813 0.81641-1.832 2.6055-3.0352 4.6094-3.1055 0.46875-1.3086 1.1797-2.5195 2.0898-3.5703-2.1406-4.6094-3.4336-9.8008-0.57812-13.32-4.9922-5.4023-9.6992-11.059-14.109-16.949-1.9766-2.6328 1.293-5.1797 3.7344-4.832 8.1016 1.1094 16.281 1.1797 24.305 2.9102v0.003906c1.1055-3.6484 4.1758-6.3594 7.9297-7.0039 0-0.027344 0-0.027344 0.03125-0.054688 0.10547-0.27344 0.21875-0.52344 0.32812-0.79687 0.16797-0.5 0.44922-0.94922 0.82422-1.3164 1.1641-1.0977 2.5781-1.8906 4.1211-2.3086 2.2227-0.65625 4.5703-0.73828 6.8359-0.24609 0.26172-1.668 0.65625-3.3125 1.1797-4.918 0.28906-0.97266 1.0039-1.7617 1.9414-2.1445 0.94141-0.38281 2.0039-0.32031 2.8906 0.16797 5.4805 3.2852 10.59 7.1523 15.238 11.535 1.4023-2.5 2.8555-5.0234 4.0938-7.6055v-0.003906c0.59375-1.0078 1.6758-1.6289 2.8438-1.6367 1.1719-0.007813 2.2617 0.60156 2.8672 1.6016 3.6484 5.8359 5.7383 12.508 6.0703 19.383 0.10938 0.085938 0.21875 0.13672 0.32812 0.22266 1.1992-3.5156 3.2305-6.6875 5.918-9.25 3.1289-2.6953 9.5-4.8086 10.984-8.8438h0.003906c0.42578-1.3867 1.707-2.3398 3.1641-2.3477 1.4531-0.007812 2.7422 0.92969 3.1875 2.3164 1.6016 4.7188 1.6133 9.832 0.027344 14.555 1.8086-1.6445 3.5977-3.2969 5.4336-4.9414h0.003906c2.9766-3.1484 6.9023-5.2266 11.176-5.9219 0.87891-2.3906 1.9141-4.7227 3.1016-6.9727 8.0742-15.211 21.859-19.934 38.363-22.199 16.648-2.2773 32.07 4.1758 45.582 13.402 12.684 8.707 16.309 21.418 17.52 35.973 0.36328 0.44531 0.64453 0.95703 0.82031 1.5078 2.3086 9.1094 1.0508 18.754-3.5156 26.965 0.15234 0.44141 0.22656 0.90625 0.22266 1.3711 0 0 0 1.3164-0.03125 2.9102 6.5391-3.3281 12.578-7.8008 20.156-8.4023l0.003906 0.003906c9.0078-0.75781 18.07 0.66406 26.414 4.1445 25.539-7.1289 39.156 19.383 44.293 40.473 0.3125 0.14453 0.60547 0.32812 0.875 0.54688 6.7812 5.4922 8.2969 13.688 9.5312 21.941v-0.003906c2.0312 12.359 5.3438 24.469 9.8828 36.137 5.7852 14.023 10.387 28.504 13.762 43.289 2.5234 13.203 4.0078 26.66 6.9453 39.812 6.8125 30.207 16.836 59.504 21.746 90.152 4.5859 28.398 8.0742 56.957 11.176 85.539zm-16.836-4.0938c2.7148-0.027344 5.4258-0.027344 8.1406 0-3.1055-28.254-6.5078-56.48-11.312-84.488-4.6406-27.156-13.688-53.078-19.742-79.879-5.9883-26.66-8.7617-52.906-18.344-78.727-1.4531-3.875-3.0469-7.8242-4.6133-11.84 0.57813 4.7266 1.1094 9.6211 1.5938 14.637 1.9766 19.496 2.8828 37.316 3.0195 50.141 0 12.848-0.30469 20.785-0.96094 20.816-0.66016 0.03125-1.4531-7.9102-2.3047-20.719-0.96094-12.797-2.3906-30.316-4.3672-49.785-0.87891-9.7188-2.0312-18.945-2.832-27.379-0.27344-2.5-0.46484-4.8633-0.60156-7.1953-0.37109-1.5078-0.66016-2.9922-0.90625-4.5039-1.207-7.2227-1.1094-16.34-4.75-23.039-1.4141 9.4609-5.8672 18.203-12.688 24.91-0.21094 0.32812-0.45313 0.64062-0.71484 0.92969-0.85156 0.93359-1.6719 1.8516-2.4961 2.8008l-0.24609 0.27344c-1.4297 47.312-13.59 93.234-13.207 140.84 0.37109 43.742 6.9766 92.156-4.6094 135.02 1.7578-0.03125 3.5156-0.054687 5.2734-0.054687 2.2773 0 4.5586-0.054688 6.8359-0.10938l-0.003906-0.003906c1.9023-3.5156 3.3906-7.2422 4.4414-11.098 1.1602-4.1602 2.0078-8.4023 2.5234-12.688 0.90234-7.2227 1.3594-14.496 1.375-21.773 0.082032-12.359-0.16797-19.797 0.44141-19.828 0.49219 0 1.7266 7.332 2.4414 19.773 0.42188 7.4219 0.30078 14.863-0.37109 22.27-0.41406 4.5078-1.1836 8.9805-2.3047 13.371-0.85938 3.4023-2.0273 6.7188-3.4883 9.9102 3.6523-0.082032 7.332-0.1875 10.984-0.32813l0.082031-0.082031 0.03125-0.027343h-0.003907c0.26172-0.34766 0.49219-0.71875 0.68359-1.1094 0.10938-0.27344 0.21875-0.55078 0.37109-0.82422l0.32812-1.1797c1.0391-5.8438 1.3086-11.801 0.79688-17.711-0.10938-2.9375-0.32812-5.918-0.30469-8.8984 0.03125-2.8516 0.054688-5.6836 0.082032-8.4297 0.14062-10.984 0.30469-20.871 0.49609-29.164 0.44141-16.613 1.0156-26.883 1.6445-26.883 0.62891 0 1.2109 10.27 1.6484 26.883 0.19141 8.293 0.37109 18.176 0.49219 29.164 0.03125 2.7461 0.054687 5.5742 0.085937 8.4297-0.03125 2.7734 0.24609 5.6562 0.37109 8.6797 0.125 3.0234 0.30469 6.0938 0.24609 9.25h0.003906c0.023437 3.3164-0.33203 6.6211-1.0703 9.8555l-0.49609 1.5664c-0.027344 0.082031-0.082031 0.19141-0.10938 0.27344 6.3711-0.24609 12.773-0.52344 19.141-0.79688 0.10938-0.13672 0.24609-0.24609 0.37109-0.37109l0.19141-0.19141v-0.050781c0.078125-0.125 0.125-0.26562 0.13672-0.41406 0.36328-2.0586 0.46484-4.1523 0.30078-6.2344-0.085938-2.3047-0.30469-4.6953-0.49609-7.2461-0.027344-0.68359-0.082031-1.2617-0.082031-2.0586l0.027344-1.8984c0.03125-1.2891 0.03125-2.5898 0.054687-3.8945 0.054687-2.6133 0.10938-5.3008 0.16797-8.0195 0.082031-5.4336 0.16406-11.066 0.27344-16.832v-0.003907c0.49219-19.629-0.16797-39.273-1.9805-58.828-0.41016-3.6992-0.79687-7.0859-1.1094-10.078-0.46484-2.9609-0.875-5.5195-1.207-7.6055-0.54688-2.1758-0.70703-4.4297-0.46875-6.6602 1.0938 1.9453 1.8438 4.0625 2.2188 6.2617 0.54688 2.0625 1.207 4.5586 1.9766 7.4688 0.54688 2.9922 1.1562 6.3984 1.8516 10.16 2.8086 19.641 3.9375 39.48 3.3789 59.312-0.082032 5.793-0.24609 11.422-0.37109 16.887-0.082032 2.7188-0.19141 5.4102-0.27344 8.0156-0.03125 1.3164-0.082031 2.5898-0.13672 3.8984l-0.054688 1.8945c0 0.49609 0.027344 1.1562 0.027344 1.7305 0.13672 2.4414 0.30469 4.9141 0.32812 7.3594l-0.003907 0.003906c0.10156 2.4141-0.11719 4.832-0.65625 7.1914 4.3125-0.19141 8.5938-0.37109 12.879-0.52344 1.2617-4.0781 2.1328-8.2734 2.5898-12.52 0.46484-4.1719 0.68359-7.8242 0.93359-10.82v0.003906c-0.003906-3.1484 0.48047-6.2812 1.4258-9.2852 0.53125 3.0938 0.69531 6.2344 0.49609 9.3672 0.027344 2.9922 0.10547 6.6602-0.13672 10.957v-0.003907c-0.20703 4.1172-0.80469 8.207-1.7852 12.211 4.7773-0.16797 9.5273-0.30469 14.309-0.37109h-0.003906c0.64062-6.6602 0.40625-13.379-0.6875-19.98-1.2344-8.5938-3.4297-17.574-5.1602-27.102-0.63281-3.5703-1.2344-7.1094-1.8516-10.602-0.30078-1.7305-0.60156-3.4609-0.875-5.1797l-1.0742-5.0234c-1.3438-6.6172-2.9375-13.016-4.3906-19.109-3.0469-12.164-5.9883-23.121-8.2383-32.402-1.1523-4.6133-2.0859-8.8438-2.8828-12.551-0.79688-3.707-1.4531-6.8945-1.8516-9.5547v0.003906c-0.70703-2.6953-1.0234-5.4805-0.93359-8.2656 0.71484 0 3.5391 11.395 8.8789 29.516 2.6367 9.1406 5.8789 19.98 9.2031 32.188 1.5664 6.125 3.2656 12.523 4.6953 19.305 0.37109 1.7031 0.73828 3.4023 1.1094 5.1367 0.30469 1.7031 0.60156 3.4297 0.93359 5.1602 0.60547 3.4844 1.2344 7.0312 1.8516 10.602 1.6758 9.3086 3.8711 18.395 5.0547 27.266h-0.003906c1 6.8008 1.1094 13.703 0.32812 20.535zm-65.402-309.84c-0.007812-0.53906 0.097657-1.0703 0.30078-1.5664-4.0352-16.613-13.758-40.09-34.215-34.379-0.21875 0.19141-0.41016 0.37109-0.60156 0.57812 0.21875 0.050781 0.46484 0.050781 0.71484 0.10547 6.1719 1.6797 11.859 4.8047 16.586 9.1172 3.6211 3.1875 5.3242 5.5195 4.9688 6.0156s-2.9922-1.0156-6.8945-3.3516c-4.8164-3.1797-10.086-5.6211-15.625-7.2461-0.47656-0.10547-0.96484-0.16797-1.4531-0.19531 0 0.027344-0.03125 0.054688-0.03125 0.082031-0.12891 1.7656-0.10156 3.543 0.085938 5.3047 0.26953 2.457 0.39062 4.9258 0.37109 7.3984l-0.050782 1.7852-1.8945 0.16797c-1.8125 0.16406-4.1758 3.8164-4.4766 7.2461-0.12891 0.875-0.035157 1.7734 0.27344 2.6055 0.27344 0.41406 0.24609 0.41406 1.0156 0.46484l3.5391 0.27734-1.2109 2.8008 0.003906 0.003906c-0.93359 2.4648-1.4258 5.0742-1.4531 7.7109-0.085938 2.1719 0.0625 4.3438 0.4375 6.4844 0.25781 1.3828 0.66406 2.7383 1.207 4.0352 0.37109 0.93359 0.73828 1.5352 0.49609 1.7266-0.16797 0.13672-0.76953 0.03125-1.6758-0.76562v0.003906c-1.2109-1.168-2.1406-2.5977-2.7148-4.1797-0.92578-2.3047-1.4648-4.7422-1.5938-7.2227-0.16797-2.2852-0.03125-4.5859 0.41016-6.8359-1.0469-0.44922-1.9102-1.2422-2.4414-2.25-0.82813-1.6367-1.1445-3.4805-0.90625-5.2969 0.26562-2.4609 1.1133-4.8242 2.4688-6.8945 1.0664-1.668 2.6133-2.9727 4.4414-3.7344 0.082031-1.4297 0.13672-2.8555 0.16797-4.2305l-0.37109 0.054688c-0.86719 0.03125-1.7305 0.10547-2.5898 0.22266-0.85156 0.1875-1.6641 0.5-2.4219 0.93359-0.80469 0.45312-1.5508 1.0078-2.2188 1.6445-0.69922 0.80469-1.3164 1.6719-1.8516 2.5898-1.3945 2.418-2.4023 5.0391-2.9922 7.7695 0.046875-0.14453 0.11328-0.28125 0.19141-0.41016 0.80859-1.8086 2.1758-3.3086 3.9023-4.2852 1.1797-0.52344 1.8516-0.46484 1.9453-0.27344 0.16797 0.21875-0.4375 0.66016-1.1797 1.5078v0.003906c-0.98828 1.1953-1.7109 2.5898-2.1133 4.0898-1.3477 5.9336-1.4062 12.086-0.16797 18.043l0.63281 3.5391-3.6992-0.71484c-3.1719-0.61719-6.418 0.64453-8.3477 3.2422-1.1602 1.4258-1.9883 3.0977-2.4141 4.8867-0.10156 0.42578-0.17578 0.85547-0.22266 1.293l-0.16406 1.7852v-0.003906c-0.082031 1.0625-0.082031 2.125 0 3.1875 0.21875 4.3984 2.2109 8.5195 5.5234 11.426 1.8555 1.6836 3.8711 3.1914 6.0117 4.5 1.0703 0.6875 2.3359 1.4297 3.3789 2.0039 1.2344 0.66016 2.5273 1.3984 3.7344 1.9766h-0.003907c4.6523 2.2578 9.7383 3.4844 14.91 3.5977l1.8945 0.054688 1.8516-0.19141 1.8516-0.16406 1.8125-0.32812 0.90625-0.19141 0.4375-0.085938 0.24609-0.027344 0.10938-0.027343h0.054687v0.003906c0.45312-0.10156 0.88672-0.26953 1.2891-0.49609 0.74609-0.35547 1.4023-0.87109 1.9219-1.5117 0.16797-0.19141 0.30469-0.41016 0.46484-0.60156l0.19141-0.71484h0.003906c0.023437-0.18359 0.035156-0.36719 0.03125-0.55078-0.82422 0.23047-1.6758 0.35156-2.5273 0.37109-2.8555-0.03125-5.6992-0.34375-8.4883-0.93359-2.5898-0.30469-5.1328-0.57812-7.6016-0.98828h-0.003907c-4.6211-0.46875-9.0391-2.1367-12.82-4.8359-2.5547-2.0195-4.2188-4.9531-4.6445-8.1797-0.24609-2.1719 0.054687-3.2695 0.30469-3.3516 0.37109-0.082031 0.71484 1.1094 1.4531 2.9375 0.93359 2.4531 2.6289 4.543 4.8359 5.9609 3.5234 1.9297 7.4336 3.0352 11.445 3.2422 2.3359 0.27344 4.8633 0.4375 7.5273 0.71484v-0.003906c2.5625 0.47656 5.1602 0.75391 7.7695 0.82422 1.0664 0.03125 2.1133-0.30859 2.9609-0.96484v-0.10547c-3.2109-0.60547-6.4531-0.9375-9.5-1.5664h-0.003906c-3.6172-0.55859-7.0234-2.0547-9.8867-4.3398-1.8203-1.5938-3.2031-3.6328-4.0039-5.918-0.41406-1.6211-0.49609-2.4961-0.24609-2.5898 0.66016-0.37109 1.7578 3.2695 6.0117 6.1797h-0.003906c2.6758 1.5938 5.6836 2.5469 8.7891 2.7734 1.2109 0.19141 2.4961 0.30078 3.8164 0.44141-2.0039-0.6875-3.8555-1.75-5.4648-3.1328l-0.10938-0.085937-0.027344-0.027344-0.22266-0.19141-0.10547-0.13672-0.22266-0.30469-0.4375-0.54688c-0.33203-0.44141-0.6875-1.043-1.0156-1.5664v0.003906c-0.46875-0.92578-0.85547-1.8906-1.1562-2.8867-0.46875-1.7109-0.76172-3.4688-0.875-5.2422-0.17969-2.6797-0.14453-5.3711 0.10547-8.0469 0.41406-4.3086 0.73828-6.6602 1.2109-6.6992 0.46875-0.039062 1.0703 2.3906 1.5078 6.6602 0.24609 2.1133 0.46484 4.7227 1.0156 7.5781l0.003906-0.003906c0.33203 2.9141 1.582 5.6484 3.5703 7.8008 1.4375 0.91406 3.0117 1.5938 4.6641 2.0039 1.1406 0.35938 2.25 0.78906 3.332 1.293 0.37109 0.21875 0.76953 0.4375 1.1562 0.68359 0.16797-0.082032 0.30469-0.16406 0.46484-0.24609 0.46484-0.37109 0.85156-0.76562 1.293-1.1094h-0.003907c0.55469-3.9492 0.35156-7.9688-0.60156-11.84-1.1328-4.4258-2.8203-8.6875-5.0234-12.688-3.793-6.9727-6.6172-11.203-5.8789-11.805 0.63281-0.49219 4.6445 2.5898 9.75 9.3633h-0.003906c3.0859 4.0703 5.4688 8.625 7.0586 13.48 0.47656 1.5 0.84766 3.0312 1.1094 4.5859 0.10547-0.54688 0.24609-1.0703 0.30078-1.6172 0.22266-1.4531 0.32422-2.9258 0.30078-4.3945-0.042969-1.4297-0.19922-2.8516-0.46484-4.2578-0.94531-5.0508-2.918-9.8555-5.793-14.113-5-7.4414-10.078-10.543-9.5312-11.508 0.22266-0.41016 1.7578-0.082031 4.2578 1.1094 3.4922 1.875 6.6016 4.3867 9.1719 7.4023 3.7031 4.2734 6.3867 9.3359 7.8516 14.797 0.49219-2.4805 0.77344-4.9961 0.83984-7.5234zm-17.848 53.188c-0.55078 0.24609-0.93359 0.37109-1.4023 0.52344l-2.2773 0.49219-2.1133 0.46484-2.1992 0.24609-2.2188 0.24609h-2.2539c-1.1094 0-2.2188-0.082031-3.3477-0.19141v0.003906c-1.0039 1.8242-1.3203 3.9492-0.89453 5.9844 0.89062 2.5898 2.418 4.9141 4.4414 6.7578 2.0859 2.1953 4.4414 4.3906 6.5391 6.9453h-0.003906c1.1484 1.3594 2.1484 2.832 2.9961 4.3945 1.0859-8.5938 2.0469-17.219 2.7344-25.867zm-7.6641 45.281c1.4492-2.0352 2.2539-4.4531 2.3086-6.9492-2.6055-4.875-6.332-9.0625-10.875-12.211-3.0703-2.2266-6.0039-4.6367-8.7852-7.2227-2.4531-2.2266-4.3438-5-5.5195-8.0977-0.80078-2.1523-0.97266-4.4844-0.49609-6.7305 0.37109-1.4531 0.85156-2.168 1.1562-2.1367 0.30469 0.03125 0.46484 0.90234 0.63281 2.332l-0.003907-0.003906c0.25781 1.8359 0.83203 3.6133 1.7031 5.2461 1.4141 2.4023 3.2578 4.5234 5.4336 6.2617 2.4453 2.1172 5.5195 4.2305 8.6797 6.6602 0.49219 0.37109 0.95703 0.76562 1.4297 1.1797-1.457-1.5664-3.0781-3.1289-4.75-4.8633v0.003906c-2.7812-2.6094-4.8438-5.8906-5.9883-9.5273-0.26172-1.0625-0.40234-2.1484-0.41406-3.2422 0.070313-1.0781 0.20703-2.1523 0.41406-3.2109 0.21875-0.66016 0.41016-1.3477 0.66016-2.0352-2.9297-0.71094-5.7734-1.7344-8.4883-3.0469-1.3438-0.66406-2.5234-1.3477-3.7891-2.0039-0.11719-0.082031-0.24219-0.15625-0.36719-0.22266-3.4922 2.7031-5.4453 6.9336-5.2461 11.344 0.074219 4.6836 1.5898 9.2266 4.3398 13.016 0.63672 0.87891 1.3359 1.7148 2.0898 2.5 0.73438 0.72656 1.5312 1.3867 2.3867 1.9727 1.4805 1.1094 3.875 2.1172 5.9609 3.4609h-0.003906c2.4023 1.375 4.3984 3.3555 5.7969 5.7422 1.3984 2.8125 1.3164 6.1406-0.22266 8.8789-0.78125 1.2852-1.8906 2.3359-3.2109 3.0508-1.0352 0.53906-2.1094 1-3.2109 1.3711-1.6484 0.4375-3.25 1.0352-4.7812 1.7852-2.25 1.0703-3.5117 3.5039-3.1016 5.957 0.55859 2.6016 1.6641 5.0508 3.2383 7.1953l0.55078 0.82422c0.21875 0.27344 0.32812 0.46484 0.73828 0.95703 0.6875 0.90625 1.375 1.7852 2.0625 2.6367 0.13672 0.21875 0.46484 0.44141 0.41016 0.66016l-0.57812 0.63281-1.1094 1.2344c-0.37109 0.41016-0.73828 0.79688-1.1094 1.2344l-0.57812 0.68359v0.003907c-2.582 2.7617-4.3711 6.168-5.1797 9.8594-0.37891 2.2422 0.82422 4.4531 2.9141 5.3555 1.3086 0.6875 2.6914 1.2305 4.1172 1.6211l0.24609 0.082032v-0.003907c0.42578-1.6367 1.2266-3.1562 2.3359-4.4375 1.4297-1.6484 2.9062-2.7188 4.0352-3.875 1.0508-0.96484 1.8359-2.1836 2.2812-3.5391 0.13281-1.5664-0.16406-3.1367-0.85547-4.543-0.39844-1.125-0.73047-2.2695-0.99219-3.4336-0.28906-1.4531-0.28125-2.9453 0.03125-4.3945 0.1875-0.74219 0.43359-1.4688 0.73828-2.1719 0.37109-0.66016 0.76953-1.3438 1.1562-1.9219 0.73828-0.96094 1.5078-1.9805 2.3047-2.9102 3.3594-3.5 6.5312-7.1758 9.5039-11.008zm-2.1992 34.625c0.99219-8.9258 2.1719-17.848 3.4062-26.746-2.2539 2.4961-4.5312 4.668-6.3711 6.8633-0.79688 0.85547-1.4297 1.707-2.0859 2.5273l-0.66016 1.0156h0.003906c-0.13672 0.32031-0.24609 0.65234-0.32812 0.98828-0.25781 1.6523-0.019531 3.3477 0.68359 4.8633 0.94922 2.3594 1.2148 4.9375 0.76953 7.4414-0.70312 2.3281-2.0312 4.418-3.8438 6.0391-1.5391 1.4531-3.0195 2.4727-3.8984 3.4609-0.86328 0.86719-1.4141 1.9961-1.5664 3.2109-0.42188 2.1836 0.15234 4.4375 1.5664 6.1523l0.16797 0.082032h-0.003906c0.59375-0.70312 1.4414-1.1484 2.3594-1.2344 0.21875-0.875 0.44141-1.7578 0.66016-2.5547 0.51562-2.3203 1.4844-4.5117 2.8555-6.4531 0.94922-1.3086 2.2695-2.3008 3.7891-2.8555 0.76953-0.9375 1.5391-1.7031 2.1406-2.4453h0.003906c0.13281-0.10156 0.25-0.22266 0.35156-0.35547zm-1.5078 134.26c0.16797-8.3516 0.085938-16.699 0.03125-24.965-0.13672-19.004-0.6875-37.977-0.87891-56.977-2.4141 5.2734-5.0781 10.078-7.4961 14.469-3.0195 5.4102-5.5195 10.27-7.4414 14.473v0.003906c-1.4961 3.3047-2.7734 6.707-3.8203 10.184-0.76953 2.5273-1.3477 3.8984-1.6758 3.8438-0.32812-0.054688-0.37109-1.5352-0.10547-4.1719 0.35156-3.7812 1.1914-7.5 2.4961-11.066 1.8867-5.2266 4.1133-10.324 6.6602-15.266 2.7734-5.5742 5.8477-11.508 8.457-17.988 0.58203-1.5469 1.0859-3.125 1.5078-4.7227 0.21875-0.88672 0.30469-1.8047 0.25-2.7188v-0.18359c0-5.918 0.76953-11.84 1.1094-17.738-1.3203 2.1484-3.1367 3.9453-5.2969 5.2422-0.16797 0.085937-0.30469 0.13672-0.44141 0.19141-5.4336 9.1445-15.211 16.281-21.996 24.082-7.7422 8.8125-16.004 13.922-27.594 11.84-1.4336 2.418-3.2344 4.5977-5.3398 6.4609-0.26172 0.21875-0.54688 0.41406-0.84766 0.57812-0.74609 0.92188-1.8984 1.4141-3.0781 1.3164-14.43-0.66016-29.969-0.62891-45.508-1.5664 0.87891 18.316 5.3828 36.441 7.7188 54.59 2.4727 19.027 9.2227 37.098 10.652 56.207 16.094 0 32.156-0.16406 48.219-0.37109-0.63281-0.19141-1.293-0.37109-1.9492-0.57812-1.4023-0.44141-2.8281-0.87891-4.2852-1.3203-0.73828-0.21875-1.4805-0.46484-2.2188-0.68359l-1.3164-0.41016-1.1094-0.55078c-1.4805-0.73828-2.9609-1.5078-4.5039-2.2773v0.003906c-5.4453-3.2188-10.34-7.2891-14.5-12.055-3.3477-3.7656-6.4922-7.707-9.418-11.809-4.9141-6.8359-8.0742-11.152-7.5508-11.59 0.52344-0.4375 4.4219 3.0742 10.109 9.5273 5.707 6.2617 12.949 15.625 23.68 21.914 1.4023 0.68359 2.7461 1.3984 4.0938 2.0859l0.96094 0.49219 0.13672 0.03125 0.27344 0.10547 0.55078 0.16797c0.73828 0.24609 1.4805 0.49219 2.1953 0.73828 1.457 0.46484 2.8867 0.96094 4.2852 1.4297 0.6875 0.22266 1.3711 0.46484 2.0625 0.6875 0.68359 0.13672 1.3438 0.30078 2 0.4375 2.6641 0.60547 5.1797 1.1562 7.5508 1.707 2.418 0.32812 4.6992 0.66016 6.7852 0.95703 1.9492 0.37109 3.7578 0.57812 5.3555 0.73828 5.1367-0.054687 10.27-0.10937 15.402-0.13672l-0.007813 0.003906c2.9492-10.762 4.7266-21.809 5.3047-32.949-4.8633 0.15625-9.6406-1.2891-13.594-4.125-3.6094-2.4414-6.9688-5.2383-10.023-8.3438-5.8203-5.7656-10.434-11.395-14.43-15.98-3.9961-4.5859-7.168-8.2383-9.582-10.574-2.4141-2.3359-3.9297-3.3789-3.7617-3.6992 0.13672-0.24609 2.0586 0.27734 4.9141 2.3359l-0.003906-0.003906c3.8984 2.918 7.5273 6.1719 10.848 9.7227 4.3086 4.3359 9.1719 9.7188 14.938 15.129 2.9414 2.8125 6.1289 5.3477 9.5312 7.5781 3.0586 2.1523 6.6953 3.3398 10.434 3.4102 0.46484-2.6562 0.90625-5.2734 1.2617-7.8633zm-12.273-301.79c0.29297-0.85937 0.66406-1.6875 1.1094-2.4727-8.2656-3.3281-20.047-5.2969-27.98-1.1094-6.082 3.8359-12.598 6.9336-19.414 9.2266-0.13281 0.11719-0.28125 0.21484-0.4375 0.30078-2.7305 1.4453-5.2383 3.2773-7.4414 5.4375-0.085937 0.33203-0.10547 0.67969-0.054687 1.0195 0.50391 1.3711 1.4258 2.5508 2.6367 3.3711l1.8945 1.5391-1.3711 1.4023c-2.5898 2.5898-4.5039 5.0234-5.3008 4.5039-0.54688-0.37109-0.4375-2.2773 0.96094-5.0547-0.42969-0.29688-0.83203-0.625-1.207-0.98828-0.30469-0.37109-0.63281-0.73828-0.9375-1.1562v0.003906c-0.27344 1.6055-1.0859 3.0664-2.3047 4.1484-0.70703 0.61719-1.5898 1.0039-2.5273 1.1094-4.3672 2.7461-6.7812 7.7422-10.516 11.234l-0.015625-0.003907c0.79688 5.4336 5.3828 10.074 8.9531 13.867h0.003906c0.52344 0.5625 0.88281 1.2539 1.043 2.0039 9.7461 7.1133 20.621 12.332 32.758 9.6211 0.37109-0.19141 0.76953-0.37109 1.1523-0.54688 0.085938-0.054688 0.16797-0.03125 0.24609-0.085938 0.054687-0.68359 0.10938-1.3711 0.16797-1.9766l0.21875-1.7852h-0.003906c0.11719-0.74219 0.28125-1.4766 0.49609-2.1992 0.74609-2.6523 2.0977-5.0977 3.9531-7.1367 1.7617-2.0078 4.0547-3.4727 6.6172-4.2266 0.67969-0.21484 1.3789-0.35938 2.0898-0.44141-0.63281-1.2891-1.1211-2.6406-1.457-4.0352-0.88672-3.4883-1.1719-7.1016-0.84766-10.684 0.27734-4.5547 1.6133-8.9805 3.8984-12.93 0.82812-1.375 1.8125-2.6445 2.9375-3.7891 1.1914-1.1328 2.5508-2.0703 4.0352-2.7734 1.4102-0.71094 2.9375-1.1641 4.5039-1.3477 0.41016-0.046876 0.82422-0.066407 1.2344-0.054688 0.17969-1.3555 0.48438-2.6953 0.90625-3.9922zm-0.089844 187.44c-0.32812-0.13281-0.64062-0.30078-0.93359-0.49609-1.6094-1.1641-2.7656-2.8555-3.2656-4.7773-0.60547-1.8125-0.79297-3.7383-0.55078-5.6289 0-0.082031 0.027344-0.16406 0.027344-0.24609v-0.003906c-0.074219-0.003907-0.14844 0.007812-0.21875 0.03125-1.6719 0.14453-3.3594-0.070313-4.9414-0.63281-0.63672-0.1875-1.2422-0.47656-1.7891-0.85156-0.30078-0.19141-0.62891-0.41016-0.96094-0.63281-0.27344-0.27344-0.57422-0.57812-0.85156-0.90625-1.2617-1.4883-1.9023-3.4062-1.7812-5.3555 0.45703-4.5664 2.2734-8.8867 5.2148-12.41l0.57812-0.73828c-0.71094-1.0664-1.5312-2.0586-2.4453-2.9609-1.0938-0.99609-2.2695-1.8984-3.5156-2.6914-0.4375 0.57812-0.90234 1.1562-1.3711 1.7305-0.54688 0.82031-0.93359 1.6758-1.4531 2.4727-0.27344 0.875-0.63281 1.7031-0.82422 2.5898h-0.003906c-0.16016 0.89844-0.25 1.8047-0.27344 2.7188-0.023437 1.9688 0.125 3.9336 0.44141 5.875 0.13672 1.0156 0.27344 2.0352 0.37109 3.0234 0.17578 1.0547 0.30078 2.1172 0.36719 3.1836 0.20312 2.3594-0.15625 4.7266-1.043 6.9219-0.73828 2.0312-1.5664 3.5703-1.9766 5v-0.003906c-1.0508 2.3555-0.94922 5.0625 0.27344 7.332 1.4336 1.8438 3.5234 3.0586 5.832 3.3984 2.3398 0.42188 4.7344 0.44922 7.082 0.082031 2.0273-0.30078 3.9883-0.95703 5.7891-1.9336 0.88281-1.2812 1.625-2.6523 2.2227-4.0898zm-0.42969-61.949c-0.015625-0.58594-0.16797-1.1602-0.44141-1.6797-0.94922-1.4102-2.2305-2.5703-3.7344-3.3711-0.78906-0.49609-1.6055-0.94531-2.4453-1.3477-0.13672 0.46484-0.30469 0.85156-0.46484 1.2617-0.22656 0.45312-0.49219 0.88672-0.79688 1.2891-1.8477 2.4336-3.9844 4.6289-6.3711 6.5352-1.6797 1.3398-3.1016 2.9805-4.1875 4.8359-0.63672 1.6211-0.91016 3.3672-0.79688 5.1055 0.48828 2.8867 2.1367 5.4453 4.5586 7.0859l0.57422 0.49609c-0.31641-0.88672-0.57422-1.7969-0.76562-2.7188-0.42188-2.1836-0.14453-4.4414 0.79688-6.4531 0.50391-1.043 1.1641-2.0039 1.9492-2.8555 0.80469-0.81641 1.6953-1.5352 2.6641-2.1445 1.8125-0.99219 3.7266-1.7812 5.707-2.3594 1.3164-0.30078 2.4922-1.0234 3.3516-2.0625 0.23438-0.50781 0.37109-1.0586 0.40234-1.6172zm-8.1406 73.234c-2.5 0.39844-5.0508 0.39844-7.5508 0-2.9297-0.44531-5.668-1.7305-7.8828-3.7031-0.41016 5.7695-1.1797 10.82-2.5273 10.82-0.96094-0.027344-2.0039-3.2969-2.1406-8.0156v-0.003906c-2.5469 2.0898-5.2734 3.957-8.1406 5.5781-0.625 6.457-1.8281 12.844-3.5938 19.082 9.4766 0.73828 15.168-6.1797 21.199-13.344 3.0703-3.6094 7.0234-6.9023 10.648-10.414zm-4.2734-80.082c0.63281-1.0156 0.60156-1.4531 0.46484-1.7578-0.63672-0.86719-1.4609-1.582-2.4141-2.0859-1.2344-0.79688-2.7695-1.5391-4.3672-2.3906-0.79688-0.41016-1.7266-0.93359-2.4961-1.3984s-1.5938-0.98828-2.4141-1.4805h-0.003907c-1.9688-1.1133-3.7266-2.5703-5.1797-4.3086-0.83203-1.0781-1.4805-2.2812-1.9219-3.5703-0.33203-1.2188-0.52734-2.4727-0.57422-3.7344l-0.085937-1.8516 0.085937-1.6172c0.027344-1.1094 0.10547-2.2188 0.21875-3.3516 0.10938-1.1328 0.24609-2.2773 0.44141-3.4609 0.054687-0.46484 0.19141-0.96094 0.27344-1.4531v0.003906c-2.7031 1.7461-5.6641 3.0547-8.7734 3.8789-2.4727 0.57813-4.0703 0.55078-4.3086-0.027343-0.24219-0.57812 0.98828-1.6758 3.0742-2.9922 2.0039-1.3164 4.8359-2.9922 7.8008-4.918 1.5664-1.1094 2.9922-2.1953 4.2305-3.2109l-0.003906 0.003906c0.28516-0.70312 0.60547-1.3906 0.96094-2.0625 0.20312-0.51172 0.46094-1 0.76953-1.4531-2.3086 0.32422-4.6445 0.43359-6.9727 0.32031 0.035156 2.457-0.8125 4.8438-2.3906 6.7266-2.4961 2.5156-6.5039 2.707-9.2266 0.44141-3.2734-2.0508-4.4219-6.2695-2.6367-9.6953 1.2266-2.0508 3.1914-3.5547 5.4922-4.1992-0.48828-1.7227-0.69141-3.5117-0.60547-5.3008-1.5391-0.37109-3.1055-0.76953-4.75-1.293-4.1133-1.2891-8.0938-2.9727-11.891-5.0234 0.10938 0.71484 0.27344 1.4023 0.32812 2.1406v0.003906c0.21875 3.75-0.37109 7.5039-1.7266 11.008-1.1094 2.5273-2.2188 3.875-2.832 3.6992-0.60938-0.17578-0.60156-1.9492-0.32813-4.6133 0.10938-1.8516 0.32813-4.2539 0.37109-6.8906v0.003906c-3.8047 5.1719-7.293 10.574-10.438 16.172-4.2656 8.2891-7.0977 17.172-10.527 25.855 25.977-2.3633 50.445-2.1406 64.379 22.461 0.81641-1.0117 1.707-1.957 2.6641-2.832 1.9766-1.7148 3.7578-3.6406 5.3125-5.7461zm-3.5703-38.992c-1.3398-0.9375-2.625-1.957-3.8438-3.0469-2.0859 2.5977-3.5156 5.6641-4.1641 8.9336-0.25391 1.0117-0.45703 2.0391-0.60156 3.0742-0.16797 1.0156-0.32812 2.0586-0.41016 3.0742-0.082032 1.0156-0.19141 2.0625-0.22266 3.0742l-0.082031 1.5078 0.027344 1.3203v0.003906c0.023437 0.76953 0.125 1.5312 0.30078 2.2773 0.21484 0.61328 0.51953 1.1875 0.91016 1.7031 1.0195 1.207 2.2461 2.2188 3.625 2.9922l0.66016 0.41016h-0.003907c-1.4023-3.3281-2.1484-6.8984-2.1953-10.512-0.097657-3.332 0.62891-6.6367 2.1133-9.6211 0.99219-1.9336 2.3086-3.6875 3.8867-5.1836zm-3.9375 65.801c-0.24609-0.24609-0.49609-0.49609-0.73828-0.76953-1.5156-1.668-2.5156-3.7344-2.8828-5.957-0.29297-2.0938-0.16797-4.2188 0.37109-6.2617-7.8789-15.844-19.414-23.309-37.344-23.805-9.6953-0.11328-19.391 0.38281-29.023 1.4805-4.9414 4.8359-11.203 12.164-12.211 19.523 7.1133-2.7148 14.281-5.2148 21.227-8.3203 9.8047-4.3672 29.492-14.332 38.848-3.7891 10.574 11.891 10.957 38.359 1.4023 51.871-1.2344 2.6172-2.6836 5.125-4.3398 7.4961-1.9336 2.6836-4.2539 5.0625-6.8945 7.0547-2.1953 1.5938-4.6445 2.8008-7.2461 3.5703-1.7227 0.54688-3.5234 0.79688-5.3281 0.74219-1.2344-0.054688-1.9492-0.22266-2.0039-0.55078-0.19141-0.68359 2.6641-1.4531 6.125-3.2422h-0.003906c2.0938-1.0586 4.0469-2.3672 5.8242-3.8945 1.2266-1.0898 2.3828-2.2539 3.4609-3.4922-4.3203 1.0078-8.8516 0.58203-12.906-1.207-6.875 4.9102-14.258 9.0625-22.027 12.387 13.84 5.5156 27.82 10.488 42.918 9.418v-0.003907c0.29297-0.26953 0.61719-0.51172 0.96094-0.71484 4.7383-2.4141 8.9922-5.6836 12.551-9.6367 0.50391-0.625 1.1953-1.0664 1.9727-1.2617 0.03125-0.71484 0.054688-1.4531 0.13672-2.1992 0.14844-1.0234 0.37891-2.0312 0.69141-3.0156 1.3164-4.1172 3.1055-6.7305 2.6367-9.7227v-0.003906c-0.074219-0.92969-0.19531-1.8516-0.37109-2.7695-0.13672-1.0156-0.27344-2.0312-0.41016-3.0742-0.37891-2.2578-0.5625-4.5469-0.55078-6.8359 0.03125-1.293 0.17188-2.5781 0.41406-3.8477 0.32031-1.2969 0.73438-2.5742 1.2344-3.8164 0.66016-1.1562 1.2617-2.3906 2-3.4883 0.47656-0.625 1-1.2578 1.5078-1.8633zm-5.3164-75.184c-0.41406-0.67188-0.78125-1.3672-1.1094-2.0859-0.76563-1.7539-1.3008-3.6016-1.5898-5.4922-0.16406 0.058594-0.32812 0.10547-0.49609 0.13672-3.0547 1.2227-6.3359 1.7539-9.6211 1.5664 0 3.5156 0.93359 6.2031 5.1055 6.2891 2.5781 0.003906 5.1523-0.13672 7.7109-0.41406zm-14.004 8.2383c0.66016-1.3242 0.90625-2.8164 0.71484-4.2812v-0.058594c-0.29688-0.19141-0.57812-0.40234-0.85156-0.63281-1.5586-0.125-3.0742 0.55859-4.0117 1.8164-0.37891 0.62109-0.47266 1.3789-0.25 2.0742 0.22266 0.69531 0.73438 1.2617 1.4062 1.5508 1.2656 0.71484 2.2773 0.92969 2.9922-0.46875zm-17.461 90.75c13.508 0.80078 18.129-25.234 14.855-35.586-6.1914-19.836-24.109-9.6914-37.238-4.0078-11.941 5.1367-24.684 8.4023-35.777 15.324-10.457 7.1836-21.586 13.336-33.227 18.371-0.082031 0.027344-0.13672 0.027344-0.21875 0.054688-0.375 4.4414-1.4805 8.793-3.2695 12.875-1.0742 2.7227-2.5078 5.2891-4.2578 7.6367-3.0469 3.9805-5.4922 5.5156-5.918 5.1797-0.57422-0.41016 1.1562-2.9922 3.1602-6.9453 2.6797-5.1562 4.3242-10.793 4.832-16.586 0.19531-2.4375 0.23438-4.8867 0.10938-7.332-1.3164-7.0547-3.1875-13.973-4.832-20.953-0.78516 0.33984-1.5938 0.625-2.418 0.85547-4.6484 1.4375-9.4961 2.1289-14.359 2.0547-2.3242-0.15625-4.625-0.55078-6.8672-1.1797 0.015624 0.14844 0.015624 0.29687 0 0.44141-1.1719 15.086-1.4883 30.223-0.95703 45.34 0.054688 10.465 4.5039 16.035 16.504 15.707h0.003907c8.0664-0.53125 16.055-1.9297 23.82-4.1641 10.215-2.4727 19.852-5.4336 29.715-8.7305 11.395-3.8164 23.066-4.1484 34.27-9.418 2.4414-1.1523 26.797-17.133 27.75-14.688 0.35938 0.91797-2.0547 2.9492-5.6797 5.75zm8.293-181.75c3.4805-6.0156 4.7891-13.043 3.6992-19.91-3.6133 7.3398-9.7852 13.102-17.352 16.203-4.0938 1.8125-15.27 0.30469-16.039 6.6602-0.66016 5.3828-5.1797 9.7734-8.2109 13.922-0.38281 0.61719-1.0586 0.98828-1.7852 0.98828-0.72266 0-1.3984-0.37109-1.7852-0.98828-2.3711-4.4805-5.4883-8.5234-9.2148-11.957 0.50391 2.2734 0.53125 4.6328 0.082031 6.918l-0.44141 2.5547-2.3047-0.85156c-1.1914-0.45312-2.2422-1.2109-3.0469-2.1992-0.66016-0.79687-1.1094-1.4297-1.5391-1.8516-1.3164-1.3477-4.2305-0.41406-3.9805 1.6719 0.30469 2.3906 3.2148 0.9375 4.6133 1.9805 0.24609 0.24609 0.49609 0.57422 0.46484 0.79688 0.089844 0.58594-0.070313 1.1836-0.4375 1.6484-0.19141 0.27344-0.37109 0.37109-0.46875 0.37109-0.10156 0-0.19141-0.24609-0.21875-0.55078-0.027344-0.30469-0.054688-0.85156-0.21875-1.0156-0.085938-0.054688 0.050781 0.13672-0.16797 0.10547-0.3125 0.058594-0.625 0.13281-0.92969 0.22266-1.1992 0.41797-2.5117 0.37891-3.6836-0.11328-0.41406-0.22266-0.78125-0.53125-1.0664-0.90625-0.25391-0.38281-0.45703-0.79688-0.60547-1.2344l-0.14062-0.44141-0.027344-0.10547h0.003906c-0.027344-0.10156-0.046875-0.20313-0.058594-0.30469l-0.027343-0.30469 0.003906 0.003907c-0.070313-0.4375-0.070313-0.88281 0-1.3203 0.23047-2 1.4727-3.7422 3.293-4.6133 2.1914-0.92188 4.7188-0.44531 6.4258 1.2109l0.27344 0.27344c-0.37109-2.4141-1.4531-4.4766-3.3281-4.1992-2.8672-0.28906-5.6602 1.0312-7.2578 3.4297-1.5938 2.4023-1.7305 5.4883-0.35156 8.0195 0.82422 1.7852 1.707 3.4336 2.5547 4.8867 1.6172 2.832 3.5664 5.1094 4.6406 5.2734 1.0742 0.16406 1.8516-1.3984 2.1133-1.1094 0.13672 0.082031 0.19141 0.37109 0.10938 0.93359l0.003907-0.003906c-0.11719 0.375-0.29297 0.72656-0.52344 1.043-0.37891 0.50781-0.94141 0.84375-1.5664 0.9375-1.5078 0.042968-2.9648-0.53906-4.0312-1.6055-1.2812-1.1016-2.4297-2.3438-3.4336-3.7031-1.1992-1.582-2.2812-3.2539-3.2383-4.9922-1.457-2.6367-2.6133-8.8789-0.03125-11.344h0.003906c-1.6875 1.6523-3.1562 3.5195-4.3672 5.5508-0.59766 0.95312-1.8477 1.2695-2.8281 0.70703-4.7031-2.5977-8.6094-6.4375-11.285-11.098-0.066406 8.5977 2.5273 17.008 7.4297 24.07 4.9023 7.0664 11.871 12.441 19.949 15.387 0.33203-0.70312 0.62109-1.4297 0.875-2.168 0.25-0.62891 0.62891-1.1992 1.1094-1.6758-3.5977-2.3047-5.4648-4.668-5-5.4648 0.66016-1.1797 5.4648 0.96094 10.711 3.3281l0.003906 0.003906c2.0234 0.91016 3.9375 2.043 5.7109 3.3789 4.5781 2.8164 9.8633 4.2812 15.242 4.2266 4.75-0.44141 3.4844-4.668 6.8906-6.5898 1.5117-0.85156 3.2969-0.9375 4.3672-2.5273 1.1562-1.7031 0.46875-2.8828 2.5273-3.7891 1.5078-0.66016 3.1602-0.054688 4.4219-1.5078 1.0742-1.2344 1.3164-3.2422 2.3906-4.6445 2.1133-2.7148 4.3672-5.4922 6.6992-7.9609h-0.003906c2.5234-2.8555 3.9961-6.4883 4.1719-10.297-0.42578-1.0977-0.34766-2.3242 0.21094-3.3594zm3.4609 218.57v0.003906c-7.0625 0.17969-14.113-0.63672-20.949-2.418 0.51562 1.9883 0.76172 4.0391 0.73828 6.0938-0.042969 1.5273-0.28516 3.0391-0.71484 4.5078-0.30078 0.85156-0.67188 1.6797-1.1094 2.4688-0.53906 0.84766-1.1836 1.625-1.918 2.3047-1.5742 1.4297-3.5156 2.3906-5.6016 2.7773-2.043 0.41016-4.1328 0.53125-6.2109 0.37109-2.9883-0.26953-5.9453-0.8125-8.8359-1.6211l-2.3359-0.63281 0.76562-2.168c1.9492-5.3828 3.8477-9.6367 5.1094-12.656 1.1562-3.1875 1.9766-5.1094 2.4961-5 0.46484 0.10937 0.60547 2.168 0.16797 5.5742-0.73047 3.7344-1.6836 7.418-2.8555 11.039 1.9219 0.38281 3.8672 0.66797 5.8203 0.84766 3.0078 0.49219 6.0977-0.13281 8.6797-1.7539 1.8359-1.6641 2.9961-3.9375 3.2656-6.3984 0.44141-2.6367 0.60156-4.8086 0.79688-6.2031-9.9414-2.9648-19.699-6.5078-29.23-10.602-4.2305 1.4297-8.5938 2.7461-13.129 3.9805-17.16 4.668-38.551 13.508-56.562 12.164-0.10938 0-0.22266-0.03125-0.32812-0.03125v0.003906c3.8438 2.9297 7.9531 5.4922 12.273 7.6602 4.832 0.51172 9.6953 0.72266 14.555 0.63281 8.7891-0.16797 16.832-0.73828 22.707-0.85156 5.875-0.10938 9.5586 0.24609 9.582 0.875 0.027344 0.63281-3.5391 1.4297-9.2773 2.3906l-0.003906 0.003907c-7.582 1.2852-15.25 2.0195-22.938 2.1953-0.68359 0.027344-1.3438 0-2.0312 0 27.543 9.25 60.109 7.6016 88.008 8.7578 6.4844-6.1914 7.9648-15.637 9.0625-24.312zm-1.6094-246.8c-0.6875-8.4609-4.1406-16.461-9.8281-22.766 0.71875 2.1953 0.67188 4.5664-0.14062 6.7266-0.65234 1.5312-1.7891 2.8047-3.2383 3.625-0.03125 0.03125-0.070313 0.046875-0.10938 0.058594 2.7266 1.7695 4.8242 4.3594 5.9844 7.3984 0.33984 1.4961-0.074219 3.0664-1.1094 4.1992-0.66016 0.52344-1.1094 0.73828-1.293 0.60156-0.17969-0.13672-0.082031-0.60156 0.27344-1.3984h0.003907c0.23438-0.88672 0.15625-1.8242-0.21875-2.6641-0.84375-1.3477-1.9805-2.4844-3.332-3.3281-1.6211-1.2344-3.5703-2.2539-5.918-4.1484l-3.3477-2.6914 4.4414-0.85156-0.003907 0.003906c1.5742-0.14062 2.9531-1.1016 3.6289-2.5273 0.46875-1.8398 0.20312-3.7891-0.74219-5.4375-0.74219-1.5742-1.8281-2.9648-3.1797-4.0664-0.85156-0.57812-1.7031-1.293-2.4727-1.7305-0.73828-0.32812-1.4531-0.68359-2.1992-1.043v-0.003906c-3-1.1211-6.1094-1.9219-9.2773-2.3906-5.5742-0.79687-9.1992-1.1094-9.2266-1.7852 0-0.60156 3.543-1.4531 9.4766-1.4805 0.13672 0 0.27344 0.03125 0.37109 0.03125l-0.003907 0.003906c-9.5664-3.5273-19.977-4.0547-29.852-1.5156-12.848 3.3281-22.938 8.7891-26.641 22.492-1.3711 5.1602-4.6953 12.211-4.1719 17.543 0.63281 5.0391 1.5586 10.035 2.7773 14.969 1.6719 4.0938 9.418 19.852 12.301 15.215v-0.003907c1.4297-2.0469 3.1523-3.8789 5.1055-5.4375 3.1602-2.4258 7.0898-3.6328 11.066-3.4023 10.133-0.60156 15.406 8.707 19.609 16.559v-0.003906c3.3125-4.4688 5.4961-9.6719 6.3711-15.168 0.37109-2.5 1.8516-3.3281 3.8711-4.2852 4.5859-2.1719 7.5508 2.9609 13.457-0.32812 8.6016-4.7891 16.457-10.535 17.566-20.969zm-18.129 95.727c-0.10938-0.49609-0.24609-0.9375-0.37109-1.4023-0.33203 0.26172-0.70703 0.46875-1.1094 0.60547-19.414 6.7578-25.645 28.613-22.57 47.121 2.457-7.418 5.3359-14.688 8.6211-21.773 4.4375-8.6406 10.531-16.207 15.43-24.551zm-11.543-5.0312c1.0664-0.67578 2.168-1.293 3.2969-1.8516-3.0352-3.3477-5.3672-7.2656-6.8672-11.531-2.6016-0.15625-5.1836-0.55859-7.7109-1.207 0.32812 0.27344 0.62891 0.57422 0.93359 0.85156h-0.003907c0.71484 0.44922 1.3867 0.96484 2.0078 1.5352 3.7656 3.2969 6.6406 7.4961 8.3438 12.203zm-3.5977 2.418h0.003906c-1.5859-4.2461-4.1172-8.0781-7.4023-11.207-1.6016-1.3359-3.3359-2.5039-5.1797-3.4844-0.76953-0.41016-1.6211-0.82422-2.3867-1.2617 3.8281 10.191 4.2617 21.344 1.2383 31.797v1.1992c0 0.054688 0.24609 0.10938 0.30078 0.16797 2.9219-6.7969 7.5508-12.723 13.43-17.211zm-16.062 25.184c-0.75-0.17188-1.4375-0.55469-1.9766-1.1094-9.2266-9.1406-21.418-15.73-31.609-23.941-12-9.668-21.227-22.16-34.598-30.098l0.003906-0.003906c-1.0742-0.58984-1.8008-1.6641-1.9492-2.8789-1.2344-0.66016-2.4453-1.3164-3.6758-2.0039 4.4414 2.4727-0.55078 14.43-0.37109 18.18 0.6875 12.77 7.3594 1.3711 14.801 6.1484h-0.003907c5.6523 4.0586 9.0078 10.59 9.0117 17.547 5.707 7.0312 12.578 12.988 18.176 20.07 4.8867 6.1484 9.2773 12.77 16.203 16.832 1.4375 0.76562 2.2148 2.3789 1.918 3.9805 0.21094 1.25-0.20312 2.5234-1.1094 3.4102-5.875 6.1484-11.172 12.879-17.352 18.727-0.37109 1.3203-0.85156 2.5898-1.2109 4.0117v-0.003906c-0.50391 2.5195-0.15625 5.1367 0.98828 7.4414 1.125 2.5625 1.9297 5.2539 2.3906 8.0156 4.8555-3.2188 9.9492-6.0625 15.238-8.5078l0.98828-0.41406c-0.37109-10.461 6.4531-20.426 13.688-27.75h0.003906c-1.9219-9.1367-1.7695-18.586 0.44531-27.652zm-1.5898-11.805v-0.003906c0.41406-11.121-0.76953-22.246-3.5156-33.031-0.27734-0.49609-0.52344-0.99219-0.80078-1.5117h0.003906c-3.7383 7.0547-6.4414 14.609-8.0352 22.43-0.09375 0.78125-0.39844 1.5234-0.87891 2.1445 4.5469 3.1836 9.0195 6.4531 13.227 9.9648zm-23.176 226.38c7.7422-19.113 13.426-34.984 13.73-55.66v-0.003907c-14.117-0.97656-28.039-3.8203-41.41-8.457 0.84766 2.4883 1.1758 5.125 0.95703 7.7461-0.054688 1.2148-0.19141 2.4219-0.41016 3.6211-0.16406 1.2344-0.41016 2.4531-0.73828 3.6562-0.37109 1.2344-0.76953 2.4961-1.1797 3.7891-0.49609 1.2617-1.1836 2.4727-1.8125 3.6992-2.5195 4.0156-5.9297 7.3984-9.9688 9.8828-3.2031 2.0117-6.5156 3.8555-9.9141 5.5195l-1.8945 0.98828-0.66016-1.8516c-0.62891-1.9805-0.94141-4.0469-0.93359-6.1211 0.027343-1.6758 0.027343-3.1289 0.027343-4.3086 0.03125-2.1992-0.37109-3.6523 0.054688-3.7617 0.27344-0.054687 1.2344 0.87891 1.9258 3.4609 0.60156 1.9258 0.73828 4.6445 1.5078 7.3047 5.2734-3.3281 12-7.0312 15.871-13.453 0.49219-1.043 1.0703-2.0312 1.5078-3.0742 0.37109-1.1094 0.73828-2.1719 1.0703-3.2422l0.003907-0.007813c0.32422-1.0938 0.58984-2.2031 0.79297-3.3281 0.22266-1.043 0.37109-2.1172 0.49609-3.1289 0.51953-3.2344-0.082031-6.5508-1.6992-9.3945-10.512-4.4297-20.02-10.941-27.953-19.137-0.17578-0.1875-0.33203-0.39062-0.47266-0.60547-5.2422-1.7578-9.5273-4.9141-9.582-10.762 0-3.2969-0.054688-6.6172-0.10547-9.9102v-0.003906c-2.2969-1.1445-4.4023-2.6445-6.2344-4.4414 0.027344 0.22266 0.054688 0.41406 0.082032 0.63281 0.13672 1.8125 0.37109 3.8164 0.60156 5.9609 0.23438 2.1602 0.66406 4.2891 1.293 6.3672 0.69531 2.3359 1.5859 4.6055 2.6641 6.7852 1.3555 2.0508 2.9609 3.9258 4.7734 5.5859 1.6094 1.582 3.125 3.2539 4.5352 5.0156 1.582 1.9336 2.582 4.2773 2.8789 6.7578l0.10938 1.5664-2.8555 0.73828c-0.10938 0.03125-0.10938 0-0.32813-0.027344l-0.52344 0.027344h0.003906c0.13672 0.76172 0.32031 1.5117 0.54688 2.25 0.44531 1.3945 0.98438 2.7539 1.6211 4.0703 1.0156 2.1914 2.3281 4.2344 3.8984 6.0703 0.95312 1.1523 2.1445 2.0898 3.4883 2.7461 0.38281 0.20312 0.78906 0.36328 1.207 0.46875 0.30469 0.10547 0.46875 0.21875 0.46875 0.32812s-0.16797 0.24609-0.46875 0.37109c-0.4375 0.20313-0.92188 0.28125-1.3984 0.22266-1.8789-0.21094-3.6445-1.0078-5.043-2.2812-2.0898-1.75-3.8633-3.8516-5.2422-6.2031-0.86328-1.4258-1.6094-2.9258-2.2188-4.4766-0.76562-1.8203-1.1836-3.7656-1.2383-5.7383l2.4961-1.3477c0.027343-0.10938 0.082031-0.24609 0.10938-0.37109h0.003906c-1.3633-2.4922-3.168-4.7148-5.3281-6.5625-2.2266-2.1641-4.1211-4.6445-5.6289-7.3594-1.1133-2.4102-1.9961-4.918-2.6367-7.4961-0.57812-2.3672-0.91797-4.7852-1.0156-7.2227-0.054687-2.1406-0.10547-4.1719-0.054687-6.043 0.03125-0.60156 0.03125-1.1562 0.054687-1.7305-3.8711 14.996-1.4805 34.039 1.457 48.469 1.7266 8.5391-0.80078 14.43-0.60547 22.938 0.35156 5.1953 2.2461 10.168 5.4375 14.281 0.63281 0.49609 1.2344 0.98828 1.8945 1.5078 2.6211 1.9844 5.1094 4.1406 7.4414 6.457 1.2188 1.207 2.3398 2.5078 3.3516 3.8945l0.37109 0.46875 0.16797 0.24609c0.21875 0.27734 0.16406 0.24609 0.27344 0.37109l0.63281 1.2109 0.62891 1.1562c0.16797 0.41016 0.27734 0.875 0.41406 1.2891l-0.003907-0.003906c0.85156 2.9766 0.53906 6.168-0.87891 8.9219-2.3594 4.2578-4.5859 5.918-5.0781 5.6562-1.8516-0.54688 7.4414-10.129-1.8125-18.809h-0.003906c1.1211 4.0625 1.2773 8.332 0.46875 12.469-2.2695 5.1289-4.9141 10.086-7.9062 14.828-5.6836 11.066-9.418 24.902-6.9727 37.367 0.79688-0.054688 1.6758-0.22266 2.6094-0.37109 1.0703-0.22266 2.168-0.44141 3.3281-0.6875 0.66016-0.10938 1.3164-0.21875 1.9766-0.37109l0.90625-0.085938 0.98828-0.050781-0.003906 0.003907c5.2031-0.14063 10.391-0.65625 15.516-1.5391 9.3359-2.3203 18.422-5.543 27.129-9.6211 2.4922-1.207 4.7031-2.9258 6.4805-5.0508 0.21875-0.37109 0.46484-0.6875 0.68359-0.98828 0.19141-0.37109 0.30469-0.71484 0.41406-0.96094 0.24609-0.52344 0.44141-0.76953 0.60156-0.73828 0.16406 0.03125 0.27344 0.32812 0.32812 0.90625 0 0.27734 0.054688 0.63281 0.03125 1.043-0.10938 0.44141-0.24609 0.96094-0.44141 1.5664l0.003906-0.003906c-1.4219 2.8867-3.6328 5.3164-6.3711 7.0039-8.5781 5.1328-17.883 8.9453-27.598 11.316-5.4883 1.0078-11.066 1.4492-16.648 1.3164l-0.85547 0.027343h-0.30078c18.344 2.0039 37.148-0.57812 55.551-0.54688 6.5664-17.348 9.6328-35.797 16.562-53.012zm3.0586-241.16c1.2812-5.8125 3.207-11.469 5.7383-16.859-8.7188-3.2539-16.352-8.8867-22.035-16.258-5.6836-7.375-9.1875-16.188-10.121-25.449-2.793 1.6289-5.7852 2.9023-8.8945 3.7891 0.53516 0.61719 0.90625 1.3633 1.0703 2.168 0.69141 3.7227-0.5625 7.543-3.3281 10.133-2.2539 2.2383-4.9492 3.9883-7.9102 5.1367 1.5078 0.82031 3.0234 1.6172 4.5859 2.332v-0.003906c0.55859 0.23438 1.0312 0.63672 1.3438 1.1562 11.312 7.5781 19.387 18.207 30.012 26.746 3.0742 2.4727 6.2891 4.8047 9.5391 7.1094zm-6.3828 54.781c1.4297-1.6211 2.8828-3.2109 4.3359-4.832-6.3398-4.9414-10.57-11.613-16.008-17.711-4.3906-4.8867-8.9766-9.5273-13.344-14.43-0.1875 9.3633-0.71094 18.562-1.7852 27.871 0.48828 0.23438 0.92969 0.55859 1.293 0.96094 5.7617 5.707 11.027 11.895 15.734 18.5 0.41016-0.37109 0.85156-0.76953 1.2617-1.1562v0.003906c-3.2031-5.7422-6.7227-11.301-10.547-16.652-3.0195-4.0078-5.6836-6.1797-5.2461-6.6992 0.30469-0.37109 3.4062 0.71484 7.5273 4.668 4.2188 4.3828 7.9141 9.2383 11.012 14.473 0.32812-0.37109 0.66016-0.76953 0.98828-1.1094 0.19141-0.24609 0.37109-0.41016 0.44141-0.54687 0.070312-0.13672 0.24609-0.27344 0.24609-0.37109s0.082031-0.10547 0.082031-0.16406c-0.050781-0.074219-0.0625-0.16797-0.027343-0.24609-0.074219-0.36719-0.17578-0.72266-0.30469-1.0703l-0.60156-1.375c-1.043-1.9219-2.0625-3.7891-2.9922-5.5703-2.1406-3.4336-4.0352-6.5391-5.6562-9.1445l-0.003906-0.003906c-1.3203-2.125-2.4688-4.3516-3.4336-6.6602-0.68359-1.6211-0.90625-2.5898-0.62891-2.7461s1.043 0.52344 2.1953 1.8516c1.1523 1.3281 2.5898 3.3281 4.5586 5.7109s4.2852 5.4102 6.6602 8.8789c1.1094 1.7852 2.1406 3.5156 3.3477 5.6289 0.24609 0.55078 0.52344 1.1094 0.79688 1.7031 0.042969 0.10156 0.070312 0.1875 0.097656 0.23828zm-8.3203 40.012c-1.043-4.2305-4.6953-7.4688-5.6836-11.562-0.15234-0.35937-0.27734-0.73047-0.36719-1.1094-0.48047-2.3789-0.16406-4.8516 0.90625-7.0312-0.37891-0.35156-0.6875-0.76953-0.90625-1.2344-3.6328-6.6758-8.293-12.738-13.812-17.961-0.21875 1.4023-0.46484 2.832-0.71484 4.2305 2.9805 2.6641 4.8203 6.375 5.1367 10.359 0.57812 4.2031 0.82422 11.012-2.6641 14.309 1.4297 5.957 2.9609 11.887 4.2031 17.875v-0.003906c4.8086-2.2969 9.457-4.9297 13.902-7.8711zm-13.648-185.05c-0.007813-3.9023 0.39844-7.7969 1.2109-11.617-3.4375 2.1094-6.5469 4.7109-9.2266 7.7188-1.9219 1.7305-3.8711 3.4336-5.918 5h-0.003906c4.2461 0.33203 8.3789 1.5352 12.141 3.5391 0.70703-1.5039 1.3047-3.0508 1.7969-4.6406zm-0.85156 25.457c0.71484-0.52344 0.76953-0.79687 0.90625-0.79687-2.3789-0.91016-4.9297-1.2773-7.4688-1.0703-1.3164-0.027344-2.5898-0.054687-3.9258 0 1.7734 1.3516 2.4531 3.7031 1.6758 5.793 1.6758-0.48047 3.3203-1.0742 4.9141-1.7852 1.3711-0.57031 2.6797-1.2891 3.8984-2.1406zm-8.9062 141.52c0.17188-1.4766 0.16406-2.9688-0.023437-4.4414-0.078125-1.5391-0.45312-3.0469-1.1094-4.4375-0.62891-1.0703-0.21875-0.73828-0.76562-0.66016-0.37109 0.042968-0.74219 0.042968-1.1133 0-6.5078 2.1406-20.871 5.6562-26.746 1.6211-0.13672 2.1992-0.32812 4.3906-0.37109 6.5898h0.003906c-0.12109 1.7266-0.066406 3.4609 0.16406 5.1797 0.082031 0.37109 0.32812 1.1094 0.52344 1.7031v-0.003907c3.9258 1.2383 8.0195 1.875 12.137 1.8945 5.3672-0.070312 10.645-1.4375 15.375-3.9805 0.34766-0.57422 0.83984-1.0469 1.4297-1.3711 0.21875-0.68359 0.38672-1.3828 0.49609-2.0938zm-5.6992-15.434c3.5156-20.156 4.9297-40.621 4.2227-61.07-0.37891-0.52734-0.80078-1.0234-1.2656-1.4805-3.1016-2.75-5.4336 0.49219-7.082 3.2656v0.003906c-0.96875 1.7188-3.0703 2.4375-4.8867 1.6758-0.60156-0.10547-1.1719-0.32813-1.6797-0.66406-3.8164-2.5234-8.0742-4.0078-12.055-6.2031-4.0703-2.1992-8.4336-5.875-12.988-4.9141 1.2734 4.2617 3.8984 7.9922 7.4766 10.633 0.99609 0.62109 1.6719 1.6445 1.8516 2.8008 4.1484 1.9766 7.168 4.1719 6.6992 5.2148-0.37109 0.93359-3.3281 0.71484-7.1406-0.54688v0.003906c-1.4023 6.6094-0.13672 13.504 3.5156 19.188 1.5977 2.7383 2.9141 5.625 3.9297 8.625 1.6211 6.4609 1.332 13.25-0.82422 19.551-1.4531 5.7109-1.9766 8.0742 4.668 8.293 5.2656-0.17188 10.477-1.1328 15.457-2.8555l0.082031-0.24609c-0.058593-0.42188-0.054687-0.85156 0.019532-1.2734zm1.5664-108.43c2.8281-3.2969 0.49609-4.3945-2.1172-6.1523-1.3047-0.80078-2.2188-2.1016-2.5352-3.5938-0.31641-1.4961-0.003906-3.0547 0.86328-4.3125 1.3164-2.1992 1.7031-1.4805-1.3203-3.0742-1.5352-0.79688-3.1289-1.5664-4.6406-2.4453v-0.003907c-0.76953 1.5508-1.7383 2.9883-2.8828 4.2852-1.0352 1.125-2.3242 1.9844-3.7617 2.5-0.007813 0.28906-0.0625 0.57812-0.16406 0.85156-1.5117 4.6641 0.46484 5.957 3.9805 8.0977v0.003906c1.3906 1.0352 2.3789 2.5156 2.8008 4.1992 1.8398 6.1758 7.3281 2.4688 9.7734-0.35547zm-4.2305-28.145c5.0898 0.25 10.125-1.1484 14.363-3.9805-4.2578-2.5938-9.1914-3.8594-14.172-3.6289 1.4531 2.4961 2.5898 5.2969-0.082032 7.4961-0.027344 0.027344-0.054687 0.082031-0.10938 0.11328zm-0.66016-28.887c-1.2656 0.82422-2.5898 1.5938-3.9805 2.4727v-0.003907c-3.543 2.3242-6.2461 5.7227-7.7188 9.6953 0.875-0.19141 1.7852-0.15234 2.6406 0.10938 1.3047 0.48438 2.543 1.1367 3.6758 1.9453 2.7266-4.3359 4.5547-9.168 5.3828-14.223zm-4.6641 24.766c-0.13672-0.19141-0.30078-0.37109-0.49219-0.68359v-0.003906c-0.71094-1.2383-1.5898-2.375-2.6094-3.375-0.80078-0.73828-1.8516-2.5273-2.1406-2.0312-2.0859 3.7344-7.1406 1.4531-9.3398-0.79688s-2.0039-3.4336-4.0703 0.21875c-0.85156 1.5078-1.7305 2.9609-2.6953 4.3672l0.003906-0.003906c1.2422 1.3672 1.9609 3.125 2.0352 4.9688 0.49609 0.28906 0.90234 0.70703 1.1797 1.2109 1.5078 2.6328 5.2734 10.656 9.4727 8.9258 3.6016-1.5078 4.3398-7.1953 6.4023-10.023h-0.003906c0.68359-0.98047 1.4375-1.9062 2.2578-2.7734zm-5.7422 54.836c-0.82422-9.3945-2.4727-18.344-9.0039-25.512-0.10938 0.27344-0.22266 0.57812-0.32812 0.82031-1.5391 3.793-2.0859 10.301-5.918 12.824 0.71484 0.99219 1.3984 2.0039 2 3.0234l-0.003906 0.003906c3.6367 3.9766 8.1836 7.0117 13.254 8.8398zm-10.906 190.62c0-0.027344-0.03125-0.054688-0.03125-0.082031v0.082031zm-1.0742-109.92c0.12109-10.043-2.6406-19.91-7.9531-28.434-1.8125-3.5703-2.6289-7.5625-2.3633-11.559-0.62891 0.082032-1.2539 0.20313-1.8672 0.37109-0.37109 0.085938-0.66016 0.24609-0.98828 0.37109-0.32812 0.24609-0.66016 0.49609-0.98828 0.76953v-0.003906c-5.0039 4.6797-8.7773 10.516-10.984 17-0.63281 1.5898-1.1562 3.1875-1.6758 4.75l-1.6445 5.0234c0.007813 1.7695 0.23828 3.5352 0.68359 5.2461 0.26953 1.2695 0.62891 2.5156 1.0703 3.7344 0.070312 0.27344 0.16016 0.53906 0.27734 0.79688l0.37109 0.71484-0.003906-0.003906c0.19141 0.50391 0.44922 0.97266 0.76562 1.4023 1.2422 1.7188 2.9219 3.0742 4.8633 3.9258 0.52344 0.30469 1.043 0.57812 1.5391 0.85156 0.55469 0.29297 1.0938 0.61328 1.6172 0.96094 0.98438 0.62891 1.9062 1.3555 2.75 2.168 1.7031 1.6953 2.7461 3.9453 2.9375 6.3438 0.11328 2.9297-0.19141 5.8633-0.90625 8.7031-0.41016 1.9258-0.71484 3.0469-1.043 3.0469-0.32813 0-0.63281-1.1094-0.76953-3.1289l-0.003906 0.003907c0.015625-2.7227-0.16016-5.4414-0.51953-8.1406-0.27734-1.4961-1.0391-2.8555-2.168-3.875-0.41406-0.30469-0.85156-0.63281-1.2656-0.96094-0.38672-0.26562-0.78906-0.50391-1.207-0.71484-0.37109-0.21875-0.85156-0.4375-1.3711-0.68359-0.37109-0.16797-0.71484-0.37109-1.0742-0.52344 0.054688 0.57812-0.050781 1.1562-0.30078 1.6758 0.12109 0.41406 0.19531 0.83594 0.21875 1.2617-0.14844 5.7578 0.39453 11.512 1.6211 17.137 1.1562 4.3086 3.4023 8.5938 4.1719 12.949 0.10938 0.63281 0.19141 1.293 0.27344 1.9805 1.5664-5.6562 3.1875-8.8984 3.7617-8.7344 0.66016 0.16797 0.13672 3.7617-0.55078 9.3633h0.003906c-1.0117 6.1406-0.84375 12.418 0.49609 18.496 0.066406 0.11719 0.13672 0.22656 0.21875 0.33594 0.25781 0.31641 0.46875 0.66797 0.62891 1.043 1.0312 1.5273 2.3047 2.8789 3.7656 4.0039 0.96875 0.6875 1.9766 1.3203 3.0195 1.8945 0.046875 0.03125 0.10547 0.050781 0.16406 0.058594-0.33203-12.188 0.039062-24.379 1.1094-36.523-5.7109-5.1055-3.2656-16.117-3.1562-22.938 0.015625-0.34375 0.0625-0.68359 0.14062-1.0195-0.019531-0.25391-0.011719-0.51172 0.023437-0.76562 0.86328-3.543 3.1484-6.5742 6.3203-8.375zm-5.5859-120.77c1.6172-0.32812 3.2734-0.38281 4.9102-0.16406-1.4062-1.5195-2.6914-3.1445-3.8438-4.8633-1.3398 1.9414-2.8984 3.7188-4.6445 5.3047 1.1797-0.070313 2.3633-0.11328 3.5781-0.27734zm1.3164 15.02c1.2344-2.3633 1.9375-4.9688 2.0625-7.6328-0.054687-1.6211 0.21875-1.2344-1.5391-1.043-4.5586 0.54688-9.2227 0-13.727 0.57812 0 3.8164-0.55078 7.7695-0.85547 10.957v-0.003906c-0.03125 0.36328-0.12109 0.71484-0.27344 1.043 2.7617 2.3672 6.2266 3.7578 9.8594 3.957 3.668-0.16797 3.3164-5.082 4.4648-7.8711zm0.03125 32.238c0.054687-1.5898 0.082031-3.1875 0-4.75-0.14453-2.5273-0.87891-4.9805-2.1445-7.168-1.8398-1.9883-3.5703-4.0781-5.1797-6.2617-2.3867-0.43359-4.6836-1.25-6.8125-2.4141 1.5391 8.0156 4.9414 17.02 11.84 21.527v-0.003906c0.72656 0.097656 1.4414 0.24219 2.1445 0.44141 0.0625-0.46484 0.11328-0.90625 0.14453-1.3711zm1.9805-77.242c-0.125-3.832-0.97266-7.6055-2.4961-11.121-3.7617 6.3398-8.1016 12.848-5.4375 19.578 0.50781 0.11328 1.0039 0.27734 1.4766 0.49219 1.625-3.332 3.8086-6.3594 6.457-8.9492zm-5.5508 17.875c0.13672-0.30078-2.1406-2.1953-2.8008-2.5547-0.097656-0.058593-0.19141-0.13281-0.27344-0.21875-0.03125 0.027344-0.03125 0.082032-0.085938 0.13672h0.003906c-0.26172 0.46875-0.5625 0.91016-0.90234 1.3164-1.0195 1.1562-2.375 1.9648-3.875 2.3086-1.5938 0.15625-3.1992-0.023437-4.7227-0.51953-1.9258-0.30469-3.1328 2.6602-2.7734 4.0898v-0.003906c0.125 0.48437 0.14453 0.98828 0.054687 1.4805 1.5547 0.80469 2.8438 2.0469 3.6992 3.5703 0.19922-0.039063 0.40234-0.066407 0.60547-0.082031 3.6602-0.23047 6.9336-2.3672 8.6211-5.6289 0.92969-1.2227 1.7539-2.5273 2.4492-3.8984zm-2.0391 88.199c0.19141-1.2109 0.44141-2.4141 0.71484-3.5977h-0.003906c-4.4023-4.2812-7.6719-9.5938-9.5-15.461-0.16406 0.066406-0.32031 0.14844-0.46484 0.25-0.16797 0.10938-0.30469 0.27344-0.46875 0.41016 0.30078 0.99219 0.20312 2.0664-0.27734 2.9922-5.3047 10.746-8.6172 22.367-9.7734 34.297 0.24609-0.73828 0.52344-1.4531 0.79688-2.1406 1.1367-2.6055 2.6289-5.0352 4.4375-7.2227 0.22266-0.24609 0.41406-0.46484 0.63281-0.68359 0.19141-0.32812 0.37109-0.63281 0.60156-1.0156l0.003907-0.003906c1.0078-1.5117 2.2305-2.8711 3.625-4.0352 0.84375-0.74219 1.7734-1.3789 2.7695-1.8945 1.082-0.57422 2.2227-1.0156 3.4102-1.3164 1.1484-0.28125 2.3164-0.47656 3.4961-0.57812zm-4.832-112.31c-0.13672-0.054687-0.26172-0.125-0.37109-0.21875-3.8164-3.0469-7.3047-6.4258-11.312-9.1719-0.76172 4.7812-0.72266 9.6602 0.10938 14.43 0.24609 1.7031 1.8516 12.715 3.0742 12.824 0.32031 0.023438 0.63672 0.097656 0.9375 0.22266 0.82422-0.14453 1.668-0.14453 2.4961 0 1.7852 0.27344 2.5898 0.60156 3.5156-0.80078-1.9648-5.7227-1.3984-12.008 1.5508-17.285zm-1.3789 84.406c-0.089843-0.09375-0.17969-0.19141-0.25781-0.29688-2.3008-2.8672-4.1445-6.0742-5.4648-9.5039-1.25 2.8711-2.8242 5.5898-4.6953 8.1016-0.74219 1.043-1.9609 1.6406-3.2422 1.5938 0.046875 1.3164-0.12109 2.6328-0.49219 3.8984-0.31641 0.99219-0.88281 1.8828-1.6445 2.5898 1.8516 1.1094 4.1445 2.2188 5.1328 1.4297 0.078125-0.054687 0.15234-0.12109 0.21875-0.19141 0.20312-0.27344 0.42969-0.51953 0.6875-0.74219 0.57031-0.8125 1.1914-1.5898 1.8477-2.3359 2.4492-2.3984 6.1719-1.7422 7.9102-4.543zm-8.8359-30.777c0.36719-4.0898 0.49219-8.1992 0.36719-12.301-0.10937-3.3281 0.24609-5.1797-3.2422-5.8477-3.2148-0.66016-12.469-4.5586-13.867 1.1094-0.87891 3.625 2.5898 4.2031 4.6406 6.3164v-0.003906c1.5234 1.7461 2.0508 4.1484 1.4023 6.3711-2.0859 6.5625 5.8203 8.2109 10.188 5 0.13672-0.23828 0.30859-0.45703 0.51172-0.64453zm-3.3516-31.078c-0.16406-0.13672-0.37109-0.27344-0.52344-0.4375-4.7227-4.918-10.16-9.7227-17.02-9.2812 0.92188 3.4844 2.7617 6.6602 5.3242 9.1992 2.5664 2.5352 5.7617 4.3398 9.2578 5.2266 0.50391 0.14453 0.96484 0.41016 1.3438 0.76953 0.0625-1.9336 0.62109-3.8242 1.6133-5.4844zm-1.2383 52.723c2.4258-4.1367 3.793-8.8047 3.9805-13.594-1.8711 0.62891-3.8477 0.87891-5.8203 0.73828-0.68359 4.375-0.042969 8.8516 1.8398 12.855zm-2.4961-64.641c-0.054688-0.32813-0.10938-0.68359-0.16797-0.98828-0.82422-4.4688-1.2461-9.0039-1.2617-13.547-2.0039-0.68359-4.8867-0.875-5.6836 1.2344-0.45703 1.25-1.4258 2.25-2.6641 2.7461-1.6758 0.6875-2.7734 0.37109-4.1484 1.7578-1.3711 1.3867-1.0703 2.4453-0.41016 4.2305v-0.003906c0.015625 0.066406 0.03125 0.12891 0.058594 0.19141 5.1172-0.21875 10.156 1.3242 14.277 4.3711zm-3.875 94.949c1.8945-2.418 4.0703-4.6133 5.918-7.0586h0.003906c-2.3867-0.6875-4.668-1.6914-6.7852-2.9922 0 0.03125 0.03125 0.054687 0.03125 0.082031-0.03125 3.793-0.11328 7.582-0.24609 11.371zm-1.4805-19.086c2.1406-0.71094 0.95703-4.1172-0.22266-6.5039v-0.003906c-0.5625 0.20312-1.1719 0.24219-1.7578 0.10938-4.4414-0.99609-9.0352-1.1445-13.535-0.44141-1.2969 0.14453-2.5547 0.53516-3.6992 1.1562-1.0703 0.71484 0.03125 0.13672 0.44141 1.1094h-0.003906c1.0234 1.6367 1.1172 3.6875 0.25 5.4102-2.6914 4.0703-0.32812 14.004 5.918 9.8867 2.9609-1.9258 4.3086-5.0234 6.8633-7.3047 1.6602-1.5234 3.6172-2.6875 5.7461-3.418zm-0.46875-12.793v-0.003906c0.17969-0.12891 0.37109-0.23828 0.57812-0.32812-0.86328-4.1914-1.0586-8.4922-0.57812-12.742 0.03125-0.078125 0.050781-0.16406 0.054687-0.25-1.9023-1.207-3.4258-2.9297-4.3906-4.9688-0.64844-1.3359-0.92188-2.8281-0.79688-4.3086-1.375 1.2344-2.6367 2.6641-3.9844 3.957v0.082031c1.293 2.2188 3.8164 3.957 4.6992 6.4531v-0.003906c1.0586 2.7539 0.45312 5.8672-1.5664 8.0195-1.2344 1.2695-2.6953 2.2969-4.3125 3.0234 3.4609-0.003907 6.9102 0.35547 10.297 1.0664zm-8.8125-41.492c1.0234-1.4766 2.3789-2.6914 3.9531-3.5547-4.8438-3.7266-8.2344-9.0312-9.582-14.992-2.6367-0.027344-1.2656 1.7305-1.9258 3.8984h0.003907c-0.41016 1.6211-1.3477 3.0586-2.6641 4.0938-1.4805 1.1094-3.4609 1.2617-4.8867 2.3359-1.2617 0.95703-0.027344 3.8984 1.0742 6.0664h-0.003906c4.7852-0.91797 9.7422-0.15625 14.031 2.1523zm1.0742 12.633-0.003907-0.003906c-0.15234-0.12109-0.28906-0.26172-0.41406-0.41406-1.332-1.6094-2.1719-3.5742-2.4141-5.6523-4.3672-2.5273-13.402-5.4961-14.223 1.7578-0.019531 1.0234-0.50391 1.9805-1.3164 2.5977-0.81641 0.62109-1.8672 0.83594-2.8555 0.58594-0.76953-0.24609 1.3438 2.75 1.6719 3.0234v-0.003906c1.1914 0.98438 2.4922 1.832 3.8711 2.5273 2.1016 1.4844 4.5547 2.3906 7.1133 2.6367 2.9609-0.38672 5.9766-4.7461 8.5664-7.0586zm-7.6914 22.461c1.4297-0.60547 6.125-1.8125 4.4414-4.1484-0.87891-1.2344-1.9258-2.3359-2.8555-3.4883h-0.003907c-3.4023 1.0586-7.0781 0.77344-10.273-0.79688-1.8906-1.0352-3.8672-1.9141-5.8984-2.6328-3.3789-0.37109-4.7266 1.2344-4.0117 4.6953 1.3242 3.1602 4.1328 5.4531 7.4961 6.1211 3.5898 1.207 7.4609 1.293 11.102 0.25zm-6.4258-56.707c0.80859-1.6875 2.3828-2.8867 4.2305-3.2109-5.043-0.89062-10.133-1.5078-15.242-1.8477 3.0195 3.7344 6.125 7.3594 9.418 10.844 1.3711-1.418 0.57812-3.6367 1.5938-5.7852zm-3.5156 77.652c0.28125-1.0078 0.50391-2.0352 0.66016-3.0742-0.30469 0.41016-0.65234 0.78516-1.043 1.1133-0.60156 0.46484-1.2109 0.87891-1.7852 1.293l-0.003906-0.003906c-2.2695 5-3.4727 10.418-3.5391 15.91 2.1875-1.7227 4.1992-3.6523 6.0117-5.7656-0.17188-0.39844-0.30859-0.8125-0.41016-1.2344-0.51562-2.7266-0.48047-5.5273 0.10938-8.2383zm-1.2383-14.246c-1.0859-0.24609-2.1523-0.57812-3.1875-0.99219-0.73828-0.30859-1.4648-0.65625-2.168-1.043-0.35547 0.34375-0.78906 0.59766-1.2656 0.73828-6.5234 2.582-11.551 7.9531-13.688 14.637 3.4414-0.57422 6.8359-1.4023 10.16-2.4688 1.3281-0.4375 2.6211-0.97266 3.8711-1.5977 1.6211-3.3828 3.7344-6.5117 6.2773-9.2734zm-6.8945-24.441c-0.73437-0.90625-1.332-1.9141-1.7812-2.9922-4.7969-0.4375-9.6133-0.60156-14.43-0.49219-1.5938-0.03125-3.1875-0.13672-4.7812-0.10938v-0.003906c5.1133 2.8359 10.688 4.7422 16.465 5.6289l0.24609 0.085937c1.1016-1.2383 2.6367-1.9961 4.2852-2.1172z"/>
  <path d="m498.31 329.64v8.9219c0 3.4844-0.60156 7.4414-1.043 11.84-0.63281 8.7305-1.8125 19.238-2.832 30.707-0.24609 2.8828-0.66016 5.8203-0.93359 8.8438-0.13672 1.4805-0.37109 3.0195-0.49219 4.5586-0.054687 1.5078-0.16797 3.0742-0.22266 4.6406-0.27344 6.2344-0.54688 12.688-0.82031 19.301-0.22266 26.719-0.44141 50.883-0.57812 68.375-0.22266 17.492-0.6875 28.312-1.3203 28.34-0.63281 0.03125-1.3438-10.82-1.9766-28.312-0.76953-17.52-0.85156-41.684-0.79688-68.402 0.32812-6.6992 0.63281-13.262 0.90625-19.609 0.082031-1.5898 0.16406-3.1562 0.24609-4.6953 0.16406-1.5664 0.32813-3.0742 0.49219-4.5859 0.30469-3.0234 0.63281-5.9883 0.93359-8.8789 1.2656-11.562 2.418-21.805 3.4883-30.453 0.63281-4.3398 0.76953-8.2969 1.1094-11.754 0.33984-3.4609 0.54688-6.4531 0.76953-8.8789h0.003907c0.007812-2.6289 0.64453-5.2148 1.8516-7.5508 1.082 2.375 1.5 5 1.2148 7.5938z"/>
  <path d="m387.73 528.46c8.7031 11.203 17.68 18.977 16.75 20.102-0.63281 0.875-11.121-5.3828-20.43-17.301h-0.003906c-3.8438-5.1172-7-10.715-9.3867-16.648-1.6758-4.5039-2.3047-7.4453-1.7578-7.7188 0.60156-0.27344 2.3047 2.2188 4.7227 6.3438 2.5 3.9922 5.7773 9.5664 10.105 15.223z"/>
  <path d="m396.49 206.45c0.13672 0.13672-0.054687 1.2344-1.3984 3.0742-1.9727 2.4062-4.3633 4.4336-7.0586 5.9844-4.1055 2.5234-8.7031 4.1328-13.484 4.7266-0.73828 0.074219-1.4805 0.09375-2.2188 0.054688l-0.57812-0.027344h-0.13672c-0.10938-0.03125 0.082031 0.027344-0.21875-0.03125l-0.085937-0.027344-0.24609-0.027343 0.003906 0.007812c-0.37891-0.0625-0.75-0.15625-1.1094-0.27734-1.7148-0.49609-3.2734-1.4219-4.5312-2.6914-0.69531-0.71484-1.2539-1.5508-1.6445-2.4727-0.48047-1.1055-0.58594-2.3398-0.30469-3.5156 0.10938-0.37109 0.24609-0.68359 0.37109-1.0156-0.24609-0.054688-0.46484-0.085938-0.71484-0.14062v0.003906c-1.1328-0.23047-2.2109-0.66406-3.1836-1.2891-0.67969-0.44922-1.2383-1.0664-1.6211-1.7852-0.082031-0.16406-0.10938-0.32812-0.16797-0.46484-3.5078-0.67969-6.9688-1.5898-10.359-2.7227-2.4219-0.75391-4.6797-1.9531-6.6602-3.5391-0.57422-0.46875-1.0742-1.0234-1.4805-1.6484-0.48438-0.67578-0.82812-1.4414-1.0156-2.25-0.14062-0.51172-0.1875-1.0391-0.13672-1.5664-1.043-0.10938-2.0625-0.24609-3.1289-0.46484-2.1016-0.36719-4.0781-1.2344-5.7695-2.5273-1.7891-1.4844-2.8477-3.6641-2.9102-5.9883-0.03125-0.98438 0.050781-1.9688 0.24609-2.9375v-0.10938l0.03125-0.027344 0.054688-0.24609 0.054688-0.16797 0.082031-0.27344 0.19141-0.57812c0.11719-0.39453 0.26562-0.77734 0.4375-1.1484 1.5352-3.1445 4.125-5.6445 7.3203-7.0664 2.4414-1.1641 5.0273-2.0039 7.6875-2.4961 3.6953-0.6875 7.4492-0.97266 11.203-0.85156 2.6094 0.082031 4.0078 0.32812 4.0352 0.60156 0.03125 0.27344-1.4023 0.57812-3.957 0.96094l0.003906 0.003906c-3.5703 0.51953-7.1094 1.2422-10.598 2.168-2.3555 0.62891-4.6211 1.543-6.7539 2.7188-0.56641 0.28906-1.1016 0.64063-1.5938 1.043-0.54688 0.34375-1.0469 0.76172-1.4805 1.2383-0.87891 0.83984-1.5977 1.8359-2.1133 2.9375-0.15234 0.34375-0.27734 0.70313-0.37109 1.0703l-0.19141 0.57422-0.16797 0.30469 0.085938 0.054688c-0.089844 0.65625-0.10156 1.3203-0.027344 1.9766 0.019532 1.1367 0.56641 2.2031 1.4805 2.8867 2.7734 1.4961 5.9102 2.1914 9.0586 2l2.6367 0.085938-0.6875 3.1836v-0.003906c-0.074219 0.30859-0.16406 0.60938-0.27344 0.90625 0.082031 0.22266-0.082031 0.46875 0.054688 0.6875l0.003906 0.003906c0.042968 0.26172 0.15625 0.50781 0.32812 0.71094 0.20312 0.29688 0.45312 0.55859 0.73828 0.76953 1.543 1.1758 3.2812 2.0664 5.1367 2.6367 3.6992 1.3164 7.332 1.9492 11.395 2.9922l0.46484 0.10938 1.1562 2.3594v0.003906c0.050781 0.046876 0.10938 0.09375 0.16797 0.13672 0.51563 0.33594 1.0938 0.57031 1.6992 0.6875 1.625 0.36719 3.2617 0.64844 4.9141 0.85156l10.434 1.7031-9.9688 2.4727c-5.1367 1.2617 0.22266 6.5898 4.7266 5.793v-0.003906c4.3242-0.34766 8.5391-1.5039 12.438-3.4023 2.6133-1.2227 5.0586-2.7734 7.2773-4.6133 1.4414-1.25 2.1797-2.2539 2.4297-2.0859z"/>
  <path d="m309.75 557.71c0.46484 0.22266-1.9258 6.4258-9.6641 13.648-2.1758 1.9609-4.582 3.6406-7.1719 5-3.1641 1.6875-6.7148 2.5117-10.297 2.3867-0.88281-0.058594-1.7617-0.16797-2.6328-0.32813-0.73828-0.16406-0.96094-0.24609-1.4805-0.37109l-1.3477-0.41016c-0.97266-0.30469-1.918-0.69141-2.8281-1.1562-1.25-0.57812-2.2852-1.5391-2.957-2.7422-0.43359-0.85938-0.5625-1.8359-0.37109-2.7773 0.14062-0.73828 0.42969-1.4375 0.85156-2.0586 0.63281-0.9375 1.3789-1.7969 2.2188-2.5547 1.5391-1.3984 3.0742-2.5547 4.5859-3.7344 1.3438-1.0742 2.6641-2.168 3.7344-3.2148 1.1562-1.1797 2.3047-2.4414 3.2969-3.6211 0.45312-0.51172 0.85547-1.0625 1.207-1.6445 0.15234-0.24609 0.25781-0.51562 0.30469-0.80078-0.16797-0.41016-0.41016-0.78906-0.71484-1.1094-0.41406-0.52344-0.96094-1.1094-1.4805-1.7305-0.51953-0.62109-1.0703-1.2344-1.5078-1.8086v-0.003907c-0.61719-0.69531-1.1367-1.4727-1.5391-2.3086-0.48828-0.98438-0.69531-2.0859-0.60547-3.1836 0.10547-0.98047 0.42188-1.9297 0.93359-2.7734 0.69922-1.0586 1.3203-2.1719 1.8477-3.3281 0.35156-0.91016 0.46875-1.8906 0.33203-2.8555v-0.13672c-0.042969-0.41016-0.20703-0.79688-0.47266-1.1094-0.49609-0.63281-0.92969-1.3125-1.2852-2.0312-0.18359-0.45312-0.32422-0.92578-0.41406-1.4023-0.050781-0.33984-0.078124-0.67969-0.082031-1.0195 0.035157-0.73438 0.10547-1.4648 0.21875-2.1953 0.59375-1.9844 1.3008-3.9375 2.1172-5.8477 1.043-2.832 0.27344-4.8086 0.73828-4.8867 0.16797-0.054687 0.44141 0.37109 0.82422 1.1797 0.48828 1.3359 0.61719 2.7734 0.37109 4.1719-0.24609 1.7852-1.043 3.7617-1.2617 5.8203 0 0.46875-0.054688 1.1562-0.027344 1.457 0.03125 0.30469 0.082031 0.68359 0.13672 0.90625 0.10547 0.13672 0.10547 0.24609 0.24609 0.44141 0.3125 0.47266 0.66016 0.92188 1.043 1.3438 0.69922 0.78516 1.1602 1.7578 1.3203 2.8008v-0.10547c0.30859 1.5625 0.23047 3.1719-0.22266 4.6953-0.51953 1.3711-1.1562 2.6914-1.8945 3.957-0.49219 1.1562-0.52344 1.4531-0.082031 2.3047 0.28125 0.5 0.62109 0.96094 1.0195 1.3711 0.49219 0.55078 0.98828 1.1289 1.4805 1.6758 0.55078 0.57812 1.0742 1.1094 1.6758 1.8125v0.003906c0.78125 0.83984 1.3555 1.8555 1.6758 2.957 0.23437 1.3398-0.007813 2.7188-0.6875 3.8984-0.48047 0.83984-1.0312 1.6406-1.6484 2.3906-1.1562 1.4023-2.3047 2.6641-3.5391 3.957v-0.003907c-1.3203 1.2891-2.7148 2.5-4.1797 3.6211-1.5352 1.2109-3.0469 2.3633-4.3086 3.5156-0.5625 0.48438-1.0664 1.0273-1.5078 1.6211-0.085938 0.13281-0.15625 0.26953-0.21875 0.41406 0.26953 0.32031 0.60547 0.57031 0.98828 0.73828 0.66016 0.375 1.3594 0.67969 2.0859 0.91016l1.1562 0.37109 1.0156 0.30469c0.82422 0.10547 1.7852 0.37109 2.4141 0.37109l-0.003906-0.003906c2.8086 0.10547 5.5977-0.46094 8.1406-1.6484 2.3906-1.082 4.6484-2.4336 6.7305-4.0352 7.7109-6.0742 11.117-11.539 11.723-11.105z"/>
 </g>
</svg>
