<?xml version="1.0" encoding="UTF-8"?>
<svg fill='white' version='1.1' height='200' width='200' viewBox='125 125 500 500' xmlns='http://www.w3.org/2000/svg'>
 <g>
  <path d="m416.7 329.75c1.0977 0 2.1406-0.48828 2.8438-1.332l18.5-22.199c1.2266-1.4688 1.1289-3.6328-0.22656-4.9844l-4.2109-4.207 7.3438-4.8984h0.003906c0.92188-0.61328 1.5195-1.6094 1.6289-2.7148 0.10938-1.1016-0.28125-2.1953-1.0664-2.9805l-7.3984-7.3984c-1.4453-1.4453-3.7852-1.4453-5.2305 0-1.4453 1.4453-1.4453 3.7852-0.003907 5.2305l4.2109 4.207-7.3438 4.8984c-0.92188 0.61719-1.5195 1.6133-1.6289 2.7148-0.10938 1.1016 0.28125 2.1953 1.0625 2.9805l5.0117 5.0117-16.336 19.605v-0.003906c-0.91797 1.1055-1.1172 2.6367-0.50781 3.9375 0.60547 1.3008 1.9141 2.1328 3.3477 2.1328z"/>
  <path d="m597.11 379.91c-0.53906-1.6875-2.1953-2.7617-3.9531-2.5586l-9.0859 1.0508c-7.9141 0.89844-15.277 4.4883-20.863 10.164 0.60547-4.8203 1.0234-9.668 1.2539-14.543 4.5078 0.65234 9.0781-0.74219 12.453-3.8047s5.2109-7.4727 5-12.027c3.2109-4.0156 4.1875-9.3789 2.5977-14.27-1.5898-4.8906-5.5312-8.6562-10.488-10.02-2.8281-4.293-7.6289-6.8789-12.77-6.8789-5.1445 0-9.9414 2.5859-12.77 6.8789-4.957 1.3633-8.8984 5.1289-10.488 10.02-1.5898 4.8906-0.61328 10.254 2.5977 14.27-0.19922 4.3789 1.4883 8.6328 4.6367 11.684 3.1445 3.0508 7.4492 4.6055 11.82 4.2695-0.48047 9.8398-1.7578 19.629-3.8125 29.266l-0.019531 0.035156h-0.003906c-0.38281 0.66406-0.55078 1.4336-0.48047 2.1953-0.16406 0.73047-0.33594 1.457-0.51172 2.1836-2.4336-7.5234-7.0391-14.16-13.242-19.07-6.1992-4.9102-13.715-7.875-21.598-8.5156l-6.2539-0.51172c-0.70312-0.070312-1.4102 0.050782-2.0469 0.35938-1.5039 0.74609-2.3164 2.4141-1.9805 4.0625l1.2812 6.2461h-0.003906c1.6016 7.8008 5.4922 14.953 11.172 20.535 5.6836 5.582 12.898 9.3438 20.727 10.809l7.5391 1.4102h0.003906c-2.3477 6.9922-5.125 13.832-8.3164 20.48-0.097656 0.19531-0.19531 0.38672-0.28516 0.58594-7.3867 15.242-16.895 29.359-28.242 41.934l-3.9414-3.3867c-8.3672-7.1914-19.629-10.02-30.398-7.6406l-8.8203 1.9492h-0.003906c-0.97656 0.19922-1.8438 0.77344-2.4023 1.5977-1.0234 1.5586-0.73047 3.6328 0.67969 4.8477l6.9375 5.9609c7.3203 6.2891 16.914 9.2773 26.512 8.2656-9.1953 8.4922-19.23 16.027-29.957 22.484-1.9648-1.4297-4.2422-2.3633-6.6445-2.7305-3.3008-3.9453-8.3633-5.9648-13.469-5.3789-5.1094 0.58594-9.582 3.7031-11.902 8.293-3.4609 1.3945-6.293 4.0039-7.9609 7.3398-1.6719 3.3359-2.0703 7.168-1.1172 10.773-17.02 5.1328-34.703 7.7344-52.484 7.7227-0.42578 0-0.84766-0.019532-1.2734-0.019532 0.027344-0.035156 0.054688-0.0625 0.082032-0.09375 5.043-1.0156 9.2344-4.4961 11.164-9.2656 1.9258-4.7656 1.3242-10.184-1.5977-14.414 0.59375-5.1094-1.418-10.172-5.3594-13.48-3.9375-3.3047-9.2734-4.4062-14.203-2.9375-4.6758-2.1406-10.113-1.793-14.473 0.93359-4.3633 2.7227-7.0625 7.4609-7.1836 12.602-3.4375 3.7305-4.7969 8.918-3.6367 13.855 1.1641 4.9336 4.6992 8.9727 9.4375 10.777-11.141-1.6641-22.098-4.3633-32.734-8.0664l2.3281-4.8945c4.7383-9.9609 4.5117-21.574-0.61328-31.34l-4.1953-8c-0.44922-0.89453-1.2266-1.5781-2.1719-1.9023-1.7734-0.57812-3.6992 0.24609-4.5 1.9297l-3.9297 8.2617v-0.003906c-4.6836 9.8359-4.5195 21.289 0.4375 30.988-5.7969-2.5312-11.457-5.3633-16.957-8.4883 1.832-3.0742 2.5156-6.6953 1.9297-10.223 2.7305-4.3594 3.0898-9.7969 0.95312-14.473-2.1367-4.6797-6.4805-7.9688-11.562-8.7578-2.3047-2.7734-5.5195-4.6328-9.0703-5.2461 0.24219-2.6914 0.21094-5.3984-0.089844-8.082h107.22v-25.746c-0.03125-1.9453 1.4062-3.6016 3.3359-3.8398 1.043-0.10156 2.0742 0.23828 2.8516 0.94141 0.77344 0.69922 1.2148 1.6953 1.2148 2.7422v25.898h73.996v-51.461c2.1602 1.4766 4.875 1.8789 7.3711 1.0938l0.011719 3.2188v0.003906c0.023438 5.6016 4.5664 10.137 10.172 10.145h20.367c5.6211 0 10.176-4.5547 10.176-10.176v-75.199c0.003906-5.1758-0.98438-10.305-2.9102-15.109l-19.98-49.938c-2.2891-5.7773-6.25-10.738-11.375-14.258-5.1211-3.5195-11.176-5.4336-17.391-5.5-0.14062-0.011719-0.28906-0.011719-0.42969-0.011719h-40.41v-4.9688c4.5117-2.1406 7.3945-6.6875 7.3984-11.684v-13.133c6.3945-1.0469 11.09-6.5625 11.102-13.043v-8.875c0.011719-0.62109-0.12891-1.2344-0.40625-1.793-0.69531-1.3359-2.1289-2.1211-3.6289-1.9883l-30.48 2.7734-0.003906 0.003906c-3.6836 0.32422-7.1094 2.0195-9.5977 4.75-2.4922 2.7305-3.8672 6.2969-3.8516 9.9961v15.762c0 0.40234 0.066406 0.80469 0.19531 1.1836 0.61719 3.9023 3.3398 7.1406 7.0742 8.418v12.598h-39.699c-0.66016-1.4609-1-3.043-1-4.6445 0.007813-3.7695-0.84375-7.4922-2.4961-10.879-2.043-4.2188-5.2344-7.7773-9.2031-10.27-3.9727-2.4883-8.5664-3.8086-13.254-3.8086h-4.7539c-4.7773 0-9.457 1.3281-13.52 3.832-4.0664 2.5039-7.3555 6.0859-9.5039 10.352-1.7969 3.5625-2.7461 7.4961-2.7656 11.488 0.035156 3.8203-1.0039 7.5703-2.9961 10.828-1.9922 3.2578-4.8594 5.8906-8.2734 7.6016l-1.4531 0.71094c-6.2383 3.0273-11.23 8.1328-14.117 14.438-4.7109 0.26953-9.1445 2.3281-12.391 5.7578-3.2422 3.4297-5.0547 7.9688-5.0625 12.691v58.746c0 5.6914 1.1953 11.324 3.5078 16.527l11.188 25.168v45.633c-1.1875-2.4336-2.6133-4.7422-4.2617-6.8906l-6.9336-9.0234c-0.54297-0.73828-1.332-1.2578-2.2227-1.4648-1.7031-0.36328-3.4336 0.50391-4.1562 2.0898l-4.7578 10.473h0.003907c-3 6.6133-4.1445 13.918-3.3125 21.129 0.24219 2.1328 0.65625 4.2383 1.2383 6.3047-5.668-6.3711-10.883-13.129-15.605-20.23 3.418-3.4531 4.9688-8.3398 4.1758-13.133 2.7305-4.3555 3.0898-9.793 0.95703-14.473-2.1367-4.6758-6.4805-7.9688-11.559-8.7578-3.2891-3.9609-8.3594-5.9844-13.473-5.3789-0.22266 0.023437-0.4375 0.0625-0.65625 0.09375v-0.003907c-3.9688-11.602-6.7461-23.578-8.2891-35.746 2.8789 2.9375 6.8203 4.5977 10.934 4.6094 2.4297 0 4.8242-0.58203 6.9805-1.7031 4.9883 1.2539 10.27-0.089844 14.059-3.5664 3.7891-3.4766 5.5742-8.625 4.7539-13.703 2.7305-4.3555 3.0859-9.793 0.94922-14.469-2.1367-4.6758-6.4805-7.9688-11.559-8.7578-3.3008-3.9414-8.3633-5.9648-13.473-5.3789-5.1094 0.58984-9.5781 3.7031-11.898 8.293-0.87109 0.34766-1.707 0.77344-2.5 1.2734-0.46094-1.082-0.95312-2.1445-1.5039-3.1719v0.003906c-4.1055-7.6445-10.578-13.746-18.445-17.398l-5.6797-2.6328c-0.63672-0.3125-1.3438-0.44141-2.0508-0.375-1.6719 0.17969-3.0156 1.4648-3.2656 3.1289l-0.94922 6.2891h-0.003906c-1.2031 7.875-0.03125 15.93 3.3672 23.137 3.3984 7.2031 8.8672 13.234 15.711 17.316l6.7812 4.043c1.1289 10.793 3.1914 21.469 6.1602 31.906-0.40234-0.28906-0.80469-0.57813-1.2227-0.84766h0.003907c-4.5586-2.9727-9.7422-4.8516-15.145-5.4844l-9.082-1.0547c-1.7617-0.20312-3.4219 0.87109-3.957 2.5625-0.30859 1.0469-0.16016 2.1719 0.41016 3.1055l4.5312 7.7695c1.3672 2.3438 3 4.5195 4.8711 6.4844 1.8672 1.9609 3.9531 3.7031 6.2188 5.1875 1.6523 1.082 3.3945 2.0195 5.207 2.8086-1.1953 1.7188-2.0273 3.6641-2.4414 5.7188-1.0391 5.0391 0.54297 10.262 4.207 13.875 0.33984 5.1367 3.2422 9.7578 7.7266 12.289 4.4805 2.5312 9.9375 2.6328 14.512 0.26562 2.75 0.70312 5.6406 0.62109 8.3438-0.23828 7.4219 11.18 16.012 21.543 25.621 30.91-0.94141 2.0938-1.3945 4.375-1.332 6.668-2.6172 0.023437-5.2227 0.33984-7.7695 0.94531-5.293 1.2617-10.227 3.7266-14.406 7.2109l-6.918 5.7773c-0.84766 0.68359-1.3672 1.6914-1.4336 2.7773-0.070312 1.7695 1.125 3.3438 2.8516 3.7539l8.9062 2.0977c8.9297 2.1133 18.332 0.62109 26.172-4.1523 2.8906 3.9375 7.4766 6.2656 12.359 6.2852 2.4297-0.003906 4.8242-0.58594 6.9805-1.7031 3.875 0.98828 7.9844 0.40234 11.43-1.6289 19.254 11.211 40.352 18.906 62.301 22.727-7.4102 4.5391-12.855 11.684-15.273 20.027l-2.5117 8.6445c-0.33594 1.0742-0.1875 2.2422 0.40625 3.1953 0.94922 1.457 2.7812 2.0586 4.4102 1.4453l8.5586-3.2266c10.32-3.8867 18.211-12.41 21.293-23l1.3984-4.8047c4.7305 0.35547 9.4844 0.53516 14.254 0.54297v-0.003906c19.051 0.015625 37.996-2.8555 56.188-8.5195 0.10156 0.10547 0.19531 0.21484 0.30078 0.31641 0 0.066406 0.015624 0.12891 0.019531 0.19531-3.3516 3.8438-5.9297 8.2969-7.5977 13.117-1.4648 4.2305-2.2109 8.6758-2.2109 13.152 0 2.7539 0.28125 5.5 0.84766 8.1953l2.3242 11.082c0.16406 0.89453 0.63281 1.6992 1.3281 2.2891 1.3711 1.1133 3.3438 1.1016 4.6992-0.035156l8.8242-7.3711c8.3828-7 13.535-17.117 14.266-28.012 4.9648 1.1523 10.172-0.24219 13.895-3.7188 3.7227-3.4766 5.4688-8.582 4.6562-13.609 2.7539-4.3516 3.1094-9.8008 0.95312-14.473-0.042969-0.09375-0.09375-0.18359-0.13281-0.27734h-0.003906c14.055-8.6016 26.926-19 38.297-30.93 1.2305-0.37891 2.1758-1.3711 2.4922-2.6211 0.007812-0.03125 0.011718-0.0625 0.015624-0.09375 1.6094-1.7539 3.1836-3.5352 4.7305-5.3477-0.75781 9.1289 2.1016 18.188 7.9609 25.223l5.8477 7.0312h-0.003906c0.65234 0.78125 1.5938 1.2617 2.6094 1.3281s2.0117-0.28906 2.7578-0.98047c0.55469-0.52344 0.9375-1.1992 1.1016-1.9414l2.1016-8.8125v-0.003906c2.5547-10.73-0.089843-22.039-7.1406-30.523l-4.4258-5.3281c2.4883-3.5547 4.8555-7.1914 7.1055-10.914 0.73828-1.2227 1.4375-2.4648 2.1445-3.6992h0.003906c0.36328 0.61719 0.76562 1.2031 1.2148 1.7578-0.24219 5.1406 2.1172 10.055 6.2773 13.078 4.1602 3.0273 9.5625 3.7578 14.379 1.9492 4.8125 1.8086 10.211 1.0781 14.371-1.9414 4.1602-3.0234 6.5234-7.9336 6.2891-13.07 3.207-4.0195 4.1797-9.3789 2.5898-14.27s-5.5312-8.6523-10.488-10.016c-2.3672-3.5898-6.1367-6.0195-10.383-6.6914-4.25-0.67188-8.582 0.47266-11.945 3.1523 2.9414-7.7109 5.375-15.605 7.2812-23.637l6.3711-0.73828v-0.003906c10.961-1.2617 20.688-7.6133 26.25-17.145l4.5391-7.7695c0.57031-0.93359 0.71484-2.0625 0.40234-3.1094zm-402.23-14.098c0.5625-2.957 2.793-5.3203 5.7109-6.0547 1.1797-0.3125 2.125-1.1836 2.5352-2.3281 0.98437-2.8477 3.5273-4.8672 6.5234-5.1719 0.32031-0.039062 0.63672-0.054687 0.95703-0.054687 2.668-0.011719 5.1523 1.3555 6.5664 3.6133 0.66406 1.0234 1.7852 1.6523 3 1.6914 3 0.089844 5.6875 1.875 6.9336 4.6016 1.25 2.7305 0.83984 5.9336-1.0586 8.2578-0.76953 0.94531-1.0234 2.207-0.68359 3.375 0.84766 2.8828-0.019531 5.9922-2.2305 8.0273-2.2109 2.0312-5.3867 2.6289-8.1836 1.543-1.1367-0.44141-2.418-0.29688-3.4258 0.39062-2.4805 1.6914-5.7031 1.8281-8.3164 0.34766-2.6133-1.4766-4.1641-4.3086-3.9922-7.3047 0.066407-1.2188-0.46875-2.3867-1.4336-3.1328-2.4023-1.8125-3.5352-4.8555-2.9023-7.8008zm27.473 83.18c-0.76953 0.94531-1.0273 2.207-0.68359 3.375 0.84375 2.8828-0.023437 5.9922-2.2344 8.0234-2.2109 2.0312-5.3867 2.6289-8.1875 1.543-1.1328-0.44141-2.4141-0.29297-3.4219 0.39453-2.4805 1.6875-5.707 1.8242-8.3203 0.34766-2.6094-1.4805-4.1602-4.3125-3.9883-7.3086 0.066407-1.2148-0.46875-2.3867-1.4336-3.1328-2.375-1.8359-3.5-4.8594-2.9023-7.8008 0.59375-2.9414 2.8086-5.2891 5.7109-6.0586 1.1758-0.30859 2.125-1.1797 2.5352-2.3281 0.58984-1.6797 1.7344-3.1055 3.2461-4.043 0.03125-0.015625 0.0625-0.027344 0.09375-0.042969s0.070313-0.058593 0.10938-0.082031v-0.003906c0.94922-0.53906 1.9961-0.87891 3.0781-1 0.31641-0.035156 0.63672-0.054688 0.95703-0.054688 2.6641-0.011718 5.1484 1.3555 6.5664 3.6133 0.66016 1.0234 1.7812 1.6562 2.9961 1.6953 3 0.089844 5.6875 1.875 6.9336 4.6055 1.25 2.7266 0.83594 5.9297-1.0586 8.2539zm275.75-20.266c0 1.5352-1.2422 2.7773-2.7773 2.7773h-20.367c-1.5312 0-2.7695-1.2383-2.7734-2.7695l-0.027344-8.3438c-0.003906-1.1875-0.57812-2.3008-1.543-2.9922-0.96484-0.69141-2.207-0.87891-3.332-0.50391l-4.7305 1.582c-0.33203 0.11719-0.70703 0.0625-0.99219-0.14453-0.10938-0.078125-0.20313-0.17578-0.27734-0.28516l9.7617-9.8359c0.69141-0.69531 1.0781-1.6367 1.0742-2.6172l-0.007812-3.6914h25.992zm-40.699-17.277v-76.848l7.1602 19.855 0.15234 49.625zm-63.164-168.66c1-0.007812 1.9492 0.45703 2.5547 1.2578 0.62109 0.81641 1.5508 1.3359 2.5703 1.4414 1.0156 0.10547 2.0352-0.21484 2.8047-0.88672 2.5781-2.2461 4.6172-5.0469 5.957-8.1953l4.8789 1.6484v14c-0.003906 3.0664-2.4844 5.5469-5.5508 5.5508-1.6719-0.003907-3.1367 1.1172-3.5742 2.7344-0.43359 1.6133 0.27344 3.3203 1.7266 4.1523v7.9141c0 1.543 0.96484 2.9219 2.4102 3.4531l-6.1133 6.1133-6.1094-6.1094v-0.003906c1.4453-0.53125 2.4102-1.9102 2.4102-3.4531v-19.445c0-1.0391-0.4375-2.0352-1.2109-2.7344-0.77344-0.70312-1.8047-1.043-2.8438-0.94531-1.668-0.039062-3.0312-1.3438-3.1445-3.0078 0-0.066407-0.011719-0.17188-0.019531-0.23438v-0.003906c0.003906-1.793 1.457-3.2461 3.2539-3.2461zm13.164 53.109-5.5 14.297-5.4961-14.297 5.4961-4.0859zm-26.539-19.793 17.586 45.727h0.003907c0.54688 1.4297 1.9219 2.3711 3.4492 2.3711 1.5312 0 2.9062-0.94141 3.4531-2.3711l17.59-45.727h30.5c0.074219 0.003906 0.14453 0.007812 0.21875 0.007812 4.7656 0.035157 9.4141 1.4922 13.348 4.1875 3.9297 2.6914 6.9727 6.4961 8.7305 10.926l19.98 49.938h-0.003906c1.5781 3.9297 2.3867 8.125 2.3828 12.359v40.977h-26.016l-0.125-40.711v0.003907c0-0.42578-0.074219-0.84766-0.21875-1.2461l-14.559-40.367c-0.60938-1.6914-2.3477-2.6992-4.1211-2.3906-1.7695 0.30859-3.0625 1.8477-3.0586 3.6484v88.461h-44.398v-59.883c0-2.043-1.6562-3.6992-3.7031-3.6992-2.043 0-3.6992 1.6562-3.6992 3.6992v47.914l-7.3984-14.801v-58.324c0.007813-3.8438-1.1836-7.5938-3.4102-10.723-2.2305-3.1328-5.3789-5.4883-9.0156-6.7383l0.35938-0.39844h0.003906c0.72656-0.79687 1.0664-1.8711 0.9375-2.9414-0.13281-1.0703-0.72656-2.0312-1.6211-2.6289l-7.3438-4.8984 4.2109-4.207h-0.003906c1.4453-1.4453 1.4453-3.7852 0-5.2305-1.4453-1.4453-3.7891-1.4453-5.2344 0l-7.3984 7.3984c-0.78516 0.78516-1.1758 1.8789-1.0664 2.9805 0.10938 1.1055 0.70703 2.1016 1.6289 2.7148l7.5195 5.0117-1.0547 1.1602h-8.0195c-2.4805-3.8633-3.7969-8.3594-3.7891-12.949v-1.0469c-0.003906-2.8438-0.65234-5.6484-1.9023-8.2031zm-67.887 29.598c0.98438 0 1.9258-0.39062 2.6172-1.082 0.69531-0.69531 1.0859-1.6367 1.0859-2.6172v-19.441c0-1.043-0.44141-2.0391-1.2148-2.7383-0.76953-0.69922-1.8047-1.043-2.8398-0.94531-0.89453-0.015625-1.7422-0.41016-2.3359-1.0781-0.64844-0.72656-0.94141-1.7031-0.79297-2.6641 0.14844-0.96094 0.71875-1.8047 1.5586-2.3008 0.83594-0.49219 1.8516-0.58594 2.7656-0.25391 0.91406 0.33594 1.6289 1.0625 1.9492 1.9805 0.47266 1.3711 1.6992 2.3398 3.1406 2.4766 1.4453 0.14063 2.8359-0.57422 3.5625-1.8281 0.49219-0.85156 0.88281-1.7539 1.1719-2.6953 2.6367 0.070313 5.2461-0.55469 7.5664-1.8125 0.17969 1.4609 0.26562 2.9297 0.26562 4.4023v6.5508c-0.003906 3.0625-2.4844 5.5469-5.5469 5.5469-1.6758-0.003906-3.1406 1.1172-3.5742 2.7344-0.43359 1.6133 0.27344 3.3203 1.7227 4.1523v7.9141c0 0.98047 0.39062 1.9219 1.082 2.6172 0.69531 0.69141 1.6367 1.082 2.6172 1.082h44.527c2.9453-0.003906 5.7734 1.1641 7.8555 3.2461s3.25 4.9102 3.2461 7.8555v59.199-0.003906c0 0.57422 0.13281 1.1406 0.39062 1.6562l17.527 35.055c0.60938 1.2188 1.8398 2.0039 3.1992 2.043l8.332 0.24609h0.003907c-0.039063 0.17969-0.10547 0.35156-0.19141 0.51172-0.28906 0.54688-0.83594 0.91016-1.457 0.96875l-2.293 0.23828c-1.207 0.125-2.2773 0.83594-2.8594 1.9023-0.58203 1.0664-0.60547 2.3477-0.0625 3.4336l3.6797 7.3477v0.003906c0.54688 1.0977 0.64062 2.3672 0.25 3.5312s-1.2266 2.125-2.3242 2.6719l-14.359 7.1875v-0.003906c-1.1328 0.5625-2.4453 0.64062-3.6328 0.21484-1.1875-0.42578-2.1523-1.3203-2.668-2.4766l-10.938-24.617v-74.812 0.003907c0.011719-3.5469-0.96875-7.0234-2.8281-10.039s-4.5273-5.4531-7.6992-7.0352l-2.4414-1.2266c-0.16016-0.082032-0.32422-0.15234-0.49609-0.20703-10.277-3.4219-21.492-2.625-31.18 2.2188l-5.3008 2.6484-5.2969-2.6484v0.003906c-5.6719-2.8438-11.93-4.3203-18.273-4.3164-5.082 0.054688-10.156 0.49219-15.176 1.3047v-5.0039c0-4.0078-1.3125-7.9062-3.7344-11.102zm-52.395 83.367 0.003906 0.003907c-1.8984-4.2578-2.875-8.8633-2.8672-13.523v-58.746c0-6.1328 4.9688-11.102 11.098-11.102 6.1328 0 11.102 4.9688 11.102 11.102v59.199-0.003906c0 0.57422 0.13281 1.1406 0.39063 1.6562l17.527 35.055c0.60938 1.2188 1.8398 2.0039 3.1992 2.043l8.332 0.24609h0.003907c-0.039063 0.17969-0.10547 0.35547-0.19531 0.51562-0.28516 0.54688-0.83203 0.91016-1.4453 0.96484l-2.2969 0.23828c-1.207 0.125-2.2773 0.83594-2.8594 1.9023-0.58594 1.0625-0.60937 2.3477-0.066406 3.4336l3.6758 7.3516c1.1406 2.2852 0.21484 5.0625-2.0664 6.207l-14.359 7.1797h-0.003906c-1.1289 0.56641-2.4414 0.64453-3.6289 0.21875s-2.1523-1.3203-2.6641-2.4766zm21.129 120.25h0.003907c-0.76563 0.94531-1.0234 2.207-0.68359 3.375 0.84375 2.8828-0.023438 5.9922-2.2344 8.0195-2.2109 2.0312-5.3828 2.6289-8.1797 1.543-1.1367-0.44141-2.418-0.29297-3.4219 0.39453-2.4805 1.6914-5.707 1.8242-8.3203 0.35156-2.6133-1.4766-4.1602-4.3086-3.9961-7.3047 0.070312-1.2148-0.46484-2.3867-1.4297-3.1328-2.375-1.8359-3.5-4.8594-2.9023-7.8008 0.59375-2.9414 2.8086-5.2891 5.7109-6.0586 1.1758-0.30859 2.125-1.1797 2.5352-2.3281 0.98438-2.8438 3.5273-4.8633 6.5234-5.1719 0.31641-0.035156 0.63672-0.054687 0.95703-0.054687 2.668-0.011719 5.1523 1.3555 6.5664 3.6172 0.66016 1.0195 1.7812 1.6523 3 1.6914 3 0.089844 5.6875 1.875 6.9336 4.6055 1.2461 2.7266 0.83594 5.9297-1.0586 8.2539zm87.754 31.508h0.003906c-1.5117 2.5938-4.3633 4.1016-7.3594 3.8906-2.9922-0.20703-5.6055-2.0977-6.7461-4.875-0.46094-1.1289-1.4453-1.957-2.6367-2.2148-2.9336-0.63672-5.25-2.8867-5.9766-5.7969-0.72656-2.9141 0.26562-5.9844 2.5547-7.9258 0.92969-0.78516 1.4102-1.9805 1.2891-3.1914-0.33594-2.9922 1.0938-5.9062 3.668-7.4727 2.5352-1.625 5.7812-1.6328 8.3242-0.019531 1.0352 0.64062 2.3203 0.73047 3.4336 0.24219 2.75-1.2109 5.9414-0.75391 8.2422 1.1758 2.3008 1.9297 3.3047 4.9961 2.5898 7.9141-0.28906 1.1797 0.023438 2.4297 0.83203 3.3398 1.9961 2.2383 2.5508 5.418 1.4258 8.1992-1.125 2.7852-3.7305 4.6875-6.7227 4.9102-1.2109 0.089844-2.3008 0.77344-2.918 1.8203zm97.238-3.2383h0.007812c-0.76953 0.94531-1.0273 2.207-0.68359 3.375 0.83984 2.8828-0.027344 5.9883-2.2383 8.0195-2.2109 2.0273-5.3828 2.6289-8.1797 1.543-1.1367-0.44141-2.418-0.29688-3.4219 0.39453-2.4805 1.6875-5.707 1.8242-8.3203 0.34766-2.6133-1.4727-4.1602-4.3047-3.9922-7.3008 0.066406-1.2188-0.46875-2.3906-1.4336-3.1367-2.375-1.8359-3.5-4.8594-2.9062-7.8008 0.59766-2.9414 2.8125-5.2891 5.7148-6.0547 1.1758-0.3125 2.125-1.1836 2.5352-2.3281 0.98047-2.8477 3.5273-4.8672 6.5234-5.1719 0.31641-0.039062 0.63672-0.058594 0.95703-0.058594 2.6641-0.007812 5.1484 1.3555 6.5664 3.6172 0.66016 1.0234 1.7812 1.6562 2.9961 1.6914 2.1914 0.042969 4.2578 1.0117 5.6914 2.6641 0.023437 0.023437 0.042969 0.050781 0.066406 0.074219 0.47656 0.56641 0.87109 1.1953 1.1797 1.8672 1.2812 2.7227 0.87109 5.9414-1.0547 8.2539zm88.051-96.824 0.007812 0.003906c1.3242-2.6914 4.0664-4.3984 7.0664-4.3984 3.0039 0 5.7422 1.707 7.0703 4.3984 0.53906 1.0898 1.582 1.8477 2.7852 2.0234 2.9727 0.42969 5.4375 2.5117 6.3672 5.3633 0.92578 2.8555 0.15234 5.9883-1.9961 8.082-0.87109 0.85156-1.2695 2.0742-1.0625 3.2773 0.50391 2.957-0.71094 5.9453-3.1367 7.7109-2.4297 1.7617-5.6484 1.9961-8.3047 0.59766-1.0781-0.56641-2.3633-0.56641-3.4414 0-2.6562 1.3984-5.875 1.1641-8.3047-0.60156-2.4258-1.7617-3.6445-4.75-3.1367-7.707 0.20703-1.2031-0.19141-2.4258-1.0625-3.2773-2.1484-2.0938-2.9219-5.2266-1.9961-8.082 0.92578-2.8516 3.3945-4.9336 6.3633-5.3633 1.207-0.17578 2.25-0.9375 2.7891-2.0312zm6.4922-75.309h0.007812c-0.60156 0-1.1914 0.14844-1.7227 0.42578-2.6562 1.3945-5.875 1.1641-8.3047-0.60156-2.4258-1.7617-3.6406-4.7539-3.1328-7.7109 0.20312-1.1992-0.19531-2.4258-1.0664-3.2734-2.1484-2.0938-2.9219-5.2266-1.9922-8.082 0.92578-2.8555 3.3945-4.9336 6.3633-5.3672 1.2031-0.17188 2.2461-0.92969 2.7852-2.0234 1.3281-2.6914 4.0664-4.3945 7.0703-4.3945 3 0 5.7422 1.7031 7.0703 4.3945 0.53906 1.0938 1.5781 1.8477 2.7852 2.0234 2.9688 0.43359 5.4375 2.5117 6.3633 5.3672 0.92578 2.8555 0.15625 5.9883-1.9961 8.082-0.87109 0.84766-1.2695 2.0742-1.0625 3.2734 0.50781 2.957-0.70703 5.9492-3.1367 7.7109-2.4258 1.7656-5.6484 2-8.3047 0.60156-0.52734-0.28125-1.1211-0.42969-1.7188-0.42969z"/>
  <path d="m568.33 351.62c0 4.0859-3.3125 7.3984-7.3984 7.3984-4.0859 0-7.3984-3.3125-7.3984-7.3984 0-4.0859 3.3125-7.3984 7.3984-7.3984 4.0859 0 7.3984 3.3125 7.3984 7.3984"/>
  <path d="m568.91 453.56c0 4.0898-3.3125 7.4023-7.4023 7.4023-4.0859 0-7.3984-3.3125-7.3984-7.4023 0-4.0859 3.3125-7.3984 7.3984-7.3984 4.0898 0 7.4023 3.3125 7.4023 7.3984"/>
  <path d="m212.13 376.73c2.9727-0.33984 5.4492-2.4375 6.2695-5.3164 0.82422-2.8789-0.16797-5.9688-2.5117-7.8281s-5.5781-2.1289-8.1953-0.67578c-2.6172 1.4531-4.0977 4.3398-3.7578 7.3125 0.22266 1.9531 1.2109 3.7344 2.75 4.9531 1.5352 1.2227 3.4961 1.7812 5.4453 1.5547z"/>
  <path d="m214.7 281.06c2.7891 1.0859 5.957 0.37891 8.0234-1.7812 2.0703-2.1641 2.6328-5.3594 1.4258-8.0977-1.207-2.7383-3.9453-4.4844-6.9375-4.4141-2.9922 0.066407-5.6484 1.9258-6.7305 4.7148-0.71094 1.832-0.66797 3.8672 0.125 5.6641 0.78906 1.7969 2.2617 3.2031 4.0938 3.9141z"/>
  <path d="m206.75 440.65c-2.9727 0.33984-5.4492 2.4375-6.2734 5.3164-0.82031 2.8789 0.17188 5.9688 2.5156 7.8281 2.3438 1.8633 5.5781 2.1289 8.1953 0.67578 2.6133-1.4531 4.0977-4.3398 3.7578-7.3164-0.46875-4.0586-4.1367-6.9727-8.1953-6.5039z"/>
  <path d="m274.36 508c0.17969 4.082-2.9805 7.5391-7.0664 7.7188-4.082 0.17969-7.5391-2.9844-7.7188-7.0664-0.17969-4.082 2.9844-7.5391 7.0664-7.7188 4.082-0.17969 7.5391 2.9805 7.7188 7.0664"/>
  <path d="m359.18 521.71c-2.5352 1.5859-3.8711 4.5469-3.375 7.4961 0.49219 2.9531 2.7148 5.3164 5.6328 5.9883 2.9141 0.67578 5.9492-0.47266 7.6875-2.9102 1.7383-2.4375 1.8398-5.6797 0.25391-8.2188-1.043-1.6641-2.6992-2.8477-4.6133-3.2891-1.9102-0.44141-3.9219-0.10547-5.5859 0.93359z"/>
  <path d="m451.11 529.24c-2.9727 0.34375-5.4492 2.4414-6.2734 5.3203-0.82031 2.875 0.17187 5.9648 2.5156 7.8281 2.3438 1.8594 5.5781 2.125 8.1914 0.67188 2.6172-1.4531 4.1016-4.3398 3.7617-7.3125-0.22656-1.9492-1.2148-3.7305-2.75-4.9492-1.5391-1.2227-3.4961-1.7812-5.4453-1.5586z"/>
  <path d="m214.32 191.71c-1.8398-2.3555-4.9219-3.375-7.8047-2.5742-2.8867 0.79688-5.0039 3.2578-5.3711 6.2266-0.36328 2.9727 1.0938 5.8711 3.6992 7.3438 2.6055 1.4727 5.8438 1.2344 8.1992-0.60938 3.2227-2.5156 3.793-7.1641 1.2773-10.387z"/>
  <path d="m285.45 213.3c2.5703-1.5312 3.9688-4.457 3.5391-7.4219-0.42578-2.9609-2.5977-5.3711-5.5-6.1094-2.8984-0.73828-5.957 0.34375-7.75 2.7422-1.793 2.3984-1.9609 5.6367-0.43359 8.2109 1.0039 1.6875 2.6367 2.9062 4.5391 3.3906 1.9023 0.48047 3.918 0.19141 5.6055-0.8125z"/>
  <path d="m163.35 272.99c1.5352 10.926 8.125 20.488 17.785 25.812l7.5195 4.1445 1.4336 7.1797v0.003906c0.39844 2.0039 2.3477 3.3047 4.3516 2.9023 2.0039-0.39844 3.3047-2.3477 2.9023-4.3516l-1.6445-8.2383v-0.003906c-0.66016-3.2969-0.98828-6.6523-0.99219-10.012 0.003907-2.457 0.18359-4.9062 0.54297-7.3359 0.41797 1.5195 1.0625 2.9688 1.918 4.293 2.7656 4.3398 7.5469 6.9805 12.695 7.0117 2.7852 2.5156 6.4062 3.9102 10.156 3.9102 1.332 0 2.6562-0.17578 3.9453-0.51563 4.9844-1.293 8.9688-5.0234 10.594-9.9062 4.4453-2.582 7.2969-7.2305 7.5859-12.363 0.28906-5.1328-2.0195-10.07-6.1484-13.137-1.082-5.0273-4.6172-9.1719-9.4141-11.035-4.793-1.8633-10.203-1.1914-14.395 1.7891-0.46094-0.050781-0.92578-0.070313-1.3867-0.074219v-0.003906c3.8125-4.3555 5.9062-9.9492 5.8945-15.738-0.003906-2.5703-0.41797-5.1289-1.2266-7.5703-1.1719-3.5078-1.793-7.1758-1.8359-10.875l0.21875-0.36328h0.003907c0.83984-0.48047 1.6289-1.0391 2.3633-1.668 5.1445 0.058594 9.9688-2.4727 12.844-6.7344 2.8789-4.2656 3.418-9.6875 1.4414-14.434 0.875-2.5586 1.0469-5.3047 0.50391-7.9531 0.78516-0.47266 1.5938-0.91797 2.418-1.332l-0.003906-0.003906c8.0273-3.9648 17.238-4.8203 25.855-2.4023 4.1562 1.1836 8.3672 2.1602 12.621 2.9219-0.55078 0.51172-1.0664 1.0625-1.5352 1.6523-5.0625 0.90234-9.332 4.2891-11.363 9.0117-2.0312 4.7266-1.5508 10.156 1.2773 14.449-0.70703 5.0938 1.1953 10.203 5.0586 13.594 3.8672 3.3906 9.1797 4.6133 14.137 3.25 3.3828 1.6406 7.2539 1.9766 10.871 0.94531s6.7305-3.3555 8.7422-6.5352c5.3594 4.0156 11.652 6.5977 18.285 7.5078l6.3164 0.88672v0.003906c1.1523 0.16016 2.3164-0.23047 3.1367-1.0547 0.82422-0.82422 1.207-1.9883 1.0391-3.1445l-0.91406-6.3125v0.003906c-1.0781-7.4102-4.2109-14.371-9.0469-20.094-4.832-5.7188-11.176-9.9688-18.305-12.27 9.1797-0.36719 18.293-1.7227 27.184-4.0391 0.058594 0.011719 0.11719 0.027343 0.17578 0.035156l9.0586 1.2539v0.003907c1.5859 0.21875 3.1797 0.32812 4.7773 0.32422 9.3594 0.011719 18.332-3.7227 24.918-10.367l6.4414-6.4961c0.98438-0.99609 1.3242-2.4648 0.875-3.7891-0.44922-1.3281-1.6094-2.2891-2.9961-2.4805l-9.0664-1.2539c-10.926-1.5117-21.926 2.207-29.691 10.043l-5.2188 5.2734c-19.293 5.2227-39.578 5.5742-59.035 1.0234 1.0625-0.52344 2.1016-1.0977 3.1055-1.7266 4.6016-2.8984 8.4688-6.8281 11.301-11.473l4.75-7.8164-0.003906-0.003906c0.72656-1.1953 0.71484-2.7031-0.03125-3.8867-0.74609-1.1875-2.0977-1.8477-3.4922-1.7148l-9.1016 0.89062c-10.98 1.0781-20.809 7.2578-26.535 16.688l-3.8945 6.4102c-4.5234 0.66797-8.9141 2.043-13.008 4.0781-0.78906 0.39844-1.5586 0.82422-2.3203 1.2617-3.1602-3.8594-8.0234-5.9141-12.996-5.4922-4.1289-3.0703-9.5195-3.8594-14.352-2.1016-4.832 1.7578-8.4609 5.8281-9.6484 10.828-4.1953 2.9766-6.6133 7.8594-6.4336 13 0.17578 5.1406 2.9258 9.8438 7.3164 12.523 0.34766 1.1211 0.82422 2.1992 1.418 3.2109-6.8047 2.8438-12.527 7.7812-16.344 14.094l-4.7539 7.8164h-0.003906c-0.69531 1.1406-0.71875 2.5703-0.0625 3.7344 0.65625 1.168 1.8867 1.8867 3.2227 1.8867 0.125 0 0.24609-0.003906 0.36328-0.015624l9.1055-0.89453v-0.003906c8.7539-0.83984 16.867-4.9609 22.711-11.535 0.30859 1.3438 0.67578 2.6758 1.1172 3.9922h-0.003907c0.97266 2.9219 1.1133 6.0547 0.40625 9.0547-0.70703 2.9961-2.2344 5.7383-4.4102 7.9141-7.7773 7.8242-13.195 17.68-15.645 28.434-0.41797-0.70703-0.85156-1.4062-1.3164-2.0859-3.0938-4.4727-7.1797-8.1719-11.938-10.805l-8.0078-4.418h-0.003906c-1.2266-0.67578-2.7305-0.60156-3.8828 0.19531-1.1562 0.79297-1.7617 2.1719-1.5664 3.5625zm112.23-79.016v0.003906c1.5703-2.5586 4.457-4.0039 7.4453-3.7305 2.9883 0.27734 5.5586 2.2227 6.6367 5.0234 0.4375 1.1367 1.4062 1.9883 2.5898 2.2695 2.918 0.70313 5.1836 3.0039 5.8438 5.9297 0.66406 2.9258-0.39453 5.9766-2.7266 7.8672-0.94531 0.76562-1.4531 1.9453-1.3594 3.1602 0.23438 2.9922-1.2539 5.8594-3.832 7.3906-2.5781 1.5352-5.8047 1.4727-8.3242-0.16406-1.0195-0.66406-2.3008-0.78125-3.4258-0.31641-2.7734 1.1484-5.957 0.62109-8.2148-1.3594-2.2539-1.9805-3.1914-5.0664-2.4141-7.9648 0.3125-1.1758 0.03125-2.4336-0.76172-3.3594-1.9453-2.2812-2.4297-5.4727-1.2422-8.2305 1.1836-2.7578 3.832-4.6016 6.8281-4.7617 1.2148-0.0625 2.3242-0.71875 2.9609-1.7539zm-71.496 18.848c-2.9062-0.79687-5.082-3.207-5.582-6.1797-0.21484-1.1992-1.0078-2.2109-2.1172-2.7109-2.7383-1.2383-4.5352-3.918-4.6367-6.918-0.10547-2.9961 1.5039-5.7969 4.1445-7.2148 1.0742-0.57812 1.7969-1.6445 1.9297-2.8555 0.29297-2.9961 2.2969-5.5508 5.1406-6.5469 0.88281-0.32422 1.8164-0.49219 2.7539-0.49609 2.0156 0.007812 3.9531 0.80078 5.3906 2.2109 0.88281 0.84375 2.1172 1.1992 3.3125 0.94922 2.9375-0.60938 5.9688 0.50391 7.8125 2.8711 1.8477 2.3633 2.1914 5.5742 0.88672 8.2773-0.52734 1.0938-0.48438 2.3828 0.12109 3.4375 1.4883 2.6094 1.3711 5.8359-0.30859 8.3242s-4.6289 3.8047-7.6016 3.4023c-1.207-0.16797-2.418 0.27344-3.2383 1.1758-2 2.25-5.1211 3.1367-8.0078 2.2734zm-0.64062 58.797c-1.2461-2.7344-0.83203-5.9336 1.0664-8.2617 1.8945-2.3242 4.9492-3.3711 7.875-2.6953 1.1875 0.26953 2.4336-0.058594 3.332-0.87891 2.2109-2.0273 5.3828-2.625 8.1797-1.5391 2.7969 1.0859 4.7383 3.668 5 6.6562 0.10547 1.2148 0.80469 2.2969 1.8633 2.8945 2.6133 1.4805 4.1602 4.3125 3.9883 7.3086-0.16797 2.9961-2.0234 5.6367-4.7812 6.8086-1.1211 0.47656-1.9375 1.4766-2.1797 2.668-0.59766 2.9414-2.8125 5.2891-5.7148 6.0547-2.9023 0.76563-5.9883-0.18359-7.957-2.4453-0.70312-0.80859-1.7188-1.2734-2.7891-1.2734-0.14062 0-0.28125 0.007813-0.42188 0.027344-2.9805 0.33984-5.8984-1.043-7.5234-3.5664-1.6211-2.5234-1.6719-5.75-0.12891-8.3242 0.625-1.043 0.69531-2.3281 0.19141-3.4336z"/>
  <path d="m387.21 176.01c6.5859 6.6484 15.562 10.383 24.918 10.371 1.5977 0 3.1953-0.10937 4.7773-0.32812l9.0586-1.2539c0.34375-0.042969 0.67578-0.13672 0.99219-0.27734 6.8242 1.832 13.785 3.0977 20.812 3.7852-6.4102 4.7734-11.258 11.34-13.938 18.867l-2.1172 6.0117v0.003906c-0.38672 1.0977-0.23438 2.3125 0.41016 3.2812 0.64844 0.96875 1.7109 1.5742 2.875 1.6406l6.3672 0.35156c0.73828 0.039062 1.4805 0.0625 2.2109 0.0625h-0.003906c9.6367 0.011718 18.949-3.4648 26.219-9.793 2.0195 3.8633 5.6016 6.6719 9.832 7.7109 1.2227 0.30469 2.4766 0.46094 3.7383 0.46094 3.8281 0.003906 7.5117-1.4453 10.316-4.0508 5.1367-0.125 9.8711-2.8281 12.594-7.1875 2.7227-4.3633 3.0703-9.8008 0.92578-14.473 0.83984-2.7773 0.86719-5.7344 0.074219-8.5234 4.875 0.27734 9.6406 1.543 14.012 3.7227 0.53516 0.26562 1.043 0.55469 1.5547 0.84375-0.13672 0.44922-0.25781 0.90625-0.35156 1.3711h0.003907c-1.0469 5.043 0.53906 10.27 4.207 13.883 0.10938 1.6523 0.48828 3.2773 1.1211 4.8086-8.543 6.0781-13.906 15.664-14.617 26.125l-0.62109 9.1289h0.003907c-0.097657 1.3984 0.60937 2.7305 1.8164 3.4414 1.207 0.70703 2.7148 0.67578 3.8906-0.089844l7.6641-4.9727v0.003906c4.5625-2.9648 8.375-6.9492 11.141-11.637 1.3789-2.3359 2.4805-4.8242 3.2812-7.418 0.26953-0.875 0.49219-1.7578 0.69531-2.6484h-0.003907c-0.078124 3.582-0.69531 7.1289-1.8281 10.523-1.4023 4.2227-1.6055 8.7539-0.58203 13.086 1.0273 4.3281 3.2344 8.2891 6.3789 11.438 0.78125 0.78125 1.5273 1.5977 2.2578 2.4297-7.4688 1.7109-14.293 5.5352-19.652 11.012-5.3633 5.4766-9.0391 12.375-10.594 19.883l-1.2969 6.2422h0.003906c-0.23047 1.0898 0.046876 2.2266 0.75 3.0898 0.70313 0.86719 1.7578 1.3672 2.8711 1.3672 0.097656 0 0.19531 0 0.29688-0.011719l6.3594-0.50781c11.516-0.90625 22.078-6.75 28.957-16.031 1.0703 2.4648 2.7773 4.5977 4.9453 6.1836 0.039062 0.82422 0.066406 1.6445 0.066406 2.4688 0 3.3672-0.33594 6.7266-0.99219 10.031l-1.6445 8.2422c-0.21094 0.96875-0.023438 1.9844 0.51953 2.8125 0.54297 0.83203 1.3984 1.4102 2.3711 1.6016 0.97266 0.19531 1.9844-0.007812 2.8047-0.56641s1.3828-1.4219 1.5586-2.3984l1.6484-8.2461c0.72266-3.6445 1.0977-7.3516 1.125-11.07 0.54297 0.058594 1.0938 0.089844 1.6406 0.089844 3.8281 0.003906 7.5156-1.4453 10.316-4.0508 5.1406-0.125 9.875-2.8281 12.598-7.1914 2.7227-4.3594 3.0703-9.8008 0.92578-14.473 1.4688-4.9297 0.36328-10.266-2.9453-14.203-3.3047-3.9375-8.3711-5.9492-13.48-5.3516-3.8398-2.6484-8.6758-3.3984-13.141-2.0391-4.4609 1.3555-8.0586 4.6758-9.7734 9.0156-1.043-1.2305-2.1289-2.4219-3.2656-3.5586h0.003907c-3.1211-3.1055-4.8711-7.3281-4.8555-11.73 0-1.7773 0.28516-3.543 0.84766-5.2305 1.4727-4.4102 2.2227-9.0273 2.2227-13.676 0-1.0273-0.039062-2.0664-0.11328-3.1016 0.18359-0.085938 0.375-0.17188 0.55859-0.26953v0.003906c4.9883 1.25 10.27-0.09375 14.059-3.5703 3.7891-3.4766 5.5742-8.625 4.7539-13.703 2.7305-4.3555 3.0898-9.793 0.95312-14.469-2.1367-4.6797-6.4805-7.9688-11.559-8.7617-3.3008-3.9414-8.3633-5.9648-13.473-5.3789-5.1094 0.58984-9.5781 3.7031-11.898 8.293-1.9336 0.76953-3.6914 1.9336-5.1562 3.4102-0.66406-0.375-1.3281-0.75-2.0195-1.0977-6.0039-2.9922-12.621-4.5547-19.332-4.5625-0.90625 0-1.793 0.035157-2.668 0.09375-3.2344-2.8516-7.5352-4.1875-11.82-3.6641-4.1523-2.8672-9.4492-3.5-14.16-1.6914-4.7109 1.8086-8.2266 5.8281-9.3906 10.738-1.5938 0.17578-3.1797 0.44531-4.7422 0.8125-12.273 0.23438-24.512-1.4102-36.285-4.875l-4.5469-4.5859-0.003907-0.003906c-7.7656-7.832-18.766-11.551-29.691-10.039l-9.0664 1.2539h0.003906c-1.3906 0.19141-2.5508 1.1484-3 2.4766s-0.10938 2.7969 0.87891 3.793zm170.87 84.543v-0.003907c1.0547-0.61328 1.7344-1.707 1.8242-2.9219 0.1875-3.0039 2.0977-5.625 4.9023-6.7227 0.95312-0.39062 1.9766-0.59375 3.0078-0.59766 1.9219 0.007812 3.7734 0.72656 5.1953 2.0195 0.90625 0.8125 2.1562 1.1211 3.3398 0.83203 2.9141-0.71094 5.9805 0.28906 7.9141 2.5898 1.9297 2.2969 2.3867 5.4922 1.1797 8.2383-0.48828 1.1172-0.39844 2.3984 0.24219 3.4336 1.582 2.5547 1.5742 5.7812-0.015625 8.3281-1.5898 2.5469-4.4883 3.9688-7.4766 3.668-1.2109-0.11719-2.4062 0.36719-3.1914 1.293-1.9375 2.293-5.0117 3.2852-7.9219 2.5586-2.9141-0.72266-5.1602-3.0391-5.8008-5.9727-0.25781-1.1875-1.0859-2.1758-2.2148-2.6367-2.7773-1.1367-4.668-3.75-4.8789-6.7422-0.21094-2.9922 1.2969-5.8477 3.8867-7.3594zm-28.336-70.477c0.5625-2.9609 2.793-5.3242 5.7109-6.0586 1.1797-0.3125 2.125-1.1836 2.5352-2.3281 0.98438-2.8477 3.5273-4.8633 6.5234-5.1719 0.32031-0.035156 0.63672-0.054687 0.95703-0.054687 2.668-0.011719 5.1523 1.3555 6.5664 3.6133 0.66016 1.0234 1.7812 1.6562 3 1.6953 3 0.089843 5.6836 1.875 6.9297 4.6016 1.25 2.7305 0.83984 5.9297-1.0547 8.2539-0.76953 0.94531-1.0234 2.207-0.68359 3.375 0.83984 2.8789-0.027343 5.9883-2.2383 8.0195-2.2109 2.0273-5.3789 2.625-8.1797 1.543-1.1367-0.44141-2.4141-0.29297-3.4219 0.39062-2.4805 1.6875-5.6992 1.8242-8.3125 0.35156-2.6133-1.4766-4.1602-4.3047-3.9961-7.2969 0.066406-1.2188-0.46875-2.3867-1.4297-3.1328-2.4062-1.8125-3.5391-4.8594-2.9062-7.8008zm-57.336-3.5234c1.0508-0.61719 1.7344-1.707 1.8242-2.9219 0.18359-3.0078 2.0977-5.6289 4.9023-6.7266 0.95313-0.39062 1.9766-0.59375 3.0078-0.59766 1.9219 0.007812 3.7695 0.72656 5.1914 2.0195 0.91016 0.8125 2.1602 1.1211 3.3398 0.83203 2.918-0.71484 5.9883 0.28906 7.918 2.5859 1.9336 2.3008 2.3906 5.4961 1.1836 8.2461-0.49219 1.1133-0.40234 2.3984 0.24219 3.4336 1.5781 2.5508 1.5703 5.7812-0.015625 8.3242-1.5898 2.5469-4.4883 3.9688-7.4727 3.6719-1.2109-0.11719-2.4062 0.36719-3.1914 1.293-1.9414 2.293-5.0117 3.2812-7.9258 2.5586-2.9102-0.72656-5.1602-3.0391-5.7969-5.9727-0.26172-1.1914-1.0898-2.1758-2.2148-2.6367-2.7773-1.1367-4.668-3.75-4.8789-6.7422-0.21094-2.9961 1.2969-5.8477 3.8867-7.3633z"/>
  <path d="m547 201c2.9727-0.34375 5.4492-2.4414 6.2695-5.3203 0.82422-2.875-0.16797-5.9648-2.5117-7.8281-2.3438-1.8594-5.5781-2.125-8.1953-0.67187-2.6172 1.4531-4.0977 4.3398-3.7578 7.3125 0.46484 4.0586 4.1367 6.9727 8.1953 6.5078z"/>
  <path d="m567.33 272.64c2.5391 1.5859 5.7852 1.4844 8.2188-0.25391 2.4375-1.7383 3.5859-4.7734 2.9102-7.6914-0.67578-2.9141-3.0391-5.1367-5.9922-5.6289-2.9492-0.49219-5.9102 0.83984-7.4922 3.3789-1.0391 1.6641-1.375 3.6758-0.93359 5.5859 0.44141 1.9141 1.625 3.5703 3.2891 4.6094z"/>
  <path d="m481.66 198.65c2.5391 1.5859 5.7812 1.4844 8.2188-0.25391 2.4336-1.7422 3.582-4.7773 2.9102-7.6914-0.67578-2.9141-3.0391-5.1367-5.9922-5.6328-2.9531-0.49219-5.9102 0.84375-7.4961 3.3828-1.0391 1.6641-1.375 3.6719-0.93359 5.5859 0.44531 1.9102 1.6289 3.5703 3.293 4.6094z"/>
 </g>
</svg>
