<?xml version="1.0" encoding="UTF-8"?>
<svg fill='white' version='1.1' height='200' width='200' viewBox='125 125 500 500' xmlns='http://www.w3.org/2000/svg'>
 <g>
  <path d="m597.99 516.6h-7.3984v-56.164c0.035156-22.867-10.105-44.562-27.676-59.199-5.1094-4.1719-10.73-7.6758-16.723-10.434l-1.4062-7.3984h16.203c5.8906 0 11.535-2.3398 15.699-6.5039 4.1641-4.1641 6.5-9.8086 6.5-15.695v-29.602c0-5.8867-2.3359-11.531-6.5-15.695-4.1641-4.1641-9.8086-6.5039-15.699-6.5039h-31.152l-5.1797-26.27v0.003907c-2.6562-13.453-9.8984-25.566-20.492-34.27-10.594-8.707-23.883-13.461-37.594-13.461h-9.918c0.47266-2.4375 0.71875-4.9141 0.74219-7.3984 0.20703-13.121-6.5508-25.367-17.758-32.188-10.043-6.0703-22.551-6.3516-32.855-0.74219l-14.801 7.9922c-4.7188-3.043-10.219-4.6602-15.836-4.6602-5.6172 0-11.113 1.6172-15.836 4.6602l-14.801-7.9922h0.003906c-10.305-5.6094-22.812-5.3281-32.855 0.74219-11.324 6.7461-18.199 19.008-18.055 32.188 0.023437 2.4844 0.26953 4.9609 0.73828 7.3984h-9.9141c-13.711 0-27 4.7539-37.594 13.461-10.594 8.7031-17.84 20.816-20.496 34.27l-5.1797 26.266h-31.152c-5.8867 0-11.531 2.3398-15.695 6.5039s-6.5039 9.8086-6.5039 15.695v29.602c0 5.8867 2.3398 11.531 6.5039 15.695 4.1641 4.1641 9.8086 6.5039 15.695 6.5039h16.578l-1.4062 7.3984c-6.1406 2.8203-11.887 6.4297-17.094 10.73-17.57 14.633-27.715 36.332-27.676 59.195v55.871h-7.3984c-4.0898 0-7.4023 3.3125-7.4023 7.3984v29.598c0 1.9648 0.78125 3.8438 2.168 5.2344 1.3867 1.3867 3.2695 2.1641 5.2344 2.1641h36.996v22.199c0 5.8906 2.3398 11.535 6.5039 15.699 4.1641 4.1641 9.8086 6.5 15.695 6.5h59.199c5.8867 0 11.535-2.3359 15.695-6.5 4.1641-4.1641 6.5039-9.8086 6.5039-15.699v-22.199h162.79v22.199c0 5.8906 2.3398 11.535 6.5 15.699 4.1641 4.1641 9.8125 6.5 15.699 6.5h59.199-0.003906c5.8906 0 11.535-2.3359 15.699-6.5 4.1641-4.1641 6.5-9.8086 6.5-15.699v-22.199h37c1.9609 0 3.8438-0.77734 5.2344-2.1641 1.3867-1.3906 2.1641-3.2695 2.1641-5.2344v-29.598c0-1.9648-0.77734-3.8438-2.1641-5.2344-1.3906-1.3867-3.2734-2.1641-5.2344-2.1641zm-22.199-56.164v56.164h-133.2v-118.4h70.965c16.512-0.019531 32.352 6.5312 44.027 18.207 11.672 11.676 18.223 27.516 18.203 44.027zm-251.59 56.164v-125.8c0-4.0859 3.3125-7.3984 7.3984-7.3984h7.3984l0.003906 133.2zm29.598-133.2h14.801v133.2h-14.801zm29.598 0h14.801v133.2h-14.797zm29.598 0h7.4023c1.9648 0 3.8477 0.77734 5.2344 2.168 1.3867 1.3867 2.168 3.2695 2.168 5.2305v125.8h-14.801zm147.99-59.199h0.003907c1.9648 0 3.8477 0.78125 5.2344 2.168 1.3867 1.3867 2.168 3.2695 2.168 5.2305v29.602c0 1.9609-0.78125 3.8438-2.168 5.2305-1.3867 1.3867-3.2695 2.168-5.2344 2.168h-19.461l-8.7305-44.398zm-110.55-73.996h16.133c9.1719 0.011719 18.117 2.8594 25.602 8.1602 7.4883 5.3008 13.148 12.789 16.207 21.438h-94.051c-5.1914-6.375-9.2695-13.578-12.062-21.312l4.5156 2.4414v0.003906c4.8203 2.6719 10.246 4.0703 15.762 4.0703 6.0273-0.023437 11.938-1.6875 17.094-4.8125 4.2656-2.5273 7.9492-5.9297 10.801-9.9883zm-84.355 5.5508 2.293 0.73828c-0.98438 15.879-5.7812 31.285-13.984 44.918l-3.4023 5.6992-12.949-6.4375-0.003907-0.003906c13.699-11.77 23.484-27.441 28.047-44.914zm19.832 0c4.5625 17.473 14.344 33.145 28.043 44.914l-12.949 6.4375-3.4023-5.6992v0.003906c-8.2812-13.613-13.156-29.02-14.207-44.918zm27.898-47.652-0.003906-0.003907c2.7617-1.6172 5.9023-2.4727 9.1016-2.4727 3.2031 0 6.3438 0.85547 9.1016 2.4727 3.3828 2.0703 6.1445 5.0078 8.0078 8.5117 1.8594 3.5 2.75 7.4336 2.5742 11.395 0.10938 3.8984-0.8125 7.7578-2.6719 11.188-1.8555 3.4297-4.5859 6.3086-7.9102 8.3477-2.7578 1.6211-5.8984 2.4727-9.1016 2.4727-3.1992 0-6.3398-0.85156-9.1016-2.4727l-11.691-6.2891c4.6328-8.4883 4.6328-18.746 0-27.23zm-37.816 5.1016c3.9258 0 7.6914 1.5586 10.465 4.3359 2.7773 2.7734 4.3359 6.5391 4.3359 10.465 0 3.9258-1.5586 7.6875-4.3359 10.465-2.7734 2.7734-6.5391 4.3359-10.465 4.3359-3.9219 0-7.6875-1.5625-10.465-4.3359-2.7734-2.7773-4.332-6.5391-4.332-10.465 0-3.9258 1.5586-7.6914 4.332-10.465 2.7773-2.7773 6.543-4.3359 10.465-4.3359zm-56.016-4.7344c2.7617-1.6211 5.9023-2.4727 9.1016-2.4727 3.2031 0 6.3438 0.85156 9.1016 2.4727l11.691 6.2891c-4.6328 8.4844-4.6328 18.746 0 27.23l-11.691 6.2891c-2.7578 1.6211-5.8984 2.4766-9.1016 2.4766-3.1992 0-6.3398-0.85547-9.1016-2.4766-3.4375-2.1016-6.2383-5.0977-8.1016-8.668-1.8633-3.5742-2.7227-7.5859-2.4805-11.605-0.10547-3.8984 0.81641-7.7578 2.6719-11.188 1.8594-3.4297 4.5859-6.3086 7.9102-8.3477zm-34.555 41.734h16.133-0.003906c2.8555 4.0586 6.5352 7.4609 10.805 9.9883 5.1562 3.125 11.066 4.7891 17.094 4.8125 5.5156 0 10.938-1.3984 15.762-4.0703l4.5156-2.4414v-0.003906c-2.7969 7.7344-6.875 14.938-12.062 21.312h-94.051c3.0586-8.6484 8.7188-16.137 16.203-21.438 7.4883-5.3008 16.434-8.1484 25.605-8.1602zm-94.422 118.39c-4.0859 0-7.3984-3.3125-7.3984-7.3984v-29.602c0-4.0859 3.3125-7.3984 7.3984-7.3984h28.191l-8.7305 44.398zm49.133-73.996h81.398l-1.9961 1.4805c-2.0391 1.5352-3.1406 4.0156-2.9141 6.5586 0.22656 2.543 1.7461 4.7891 4.0234 5.9453l29.598 14.801c1.0898 0.58594 2.3164 0.86719 3.5508 0.8125 2.6133 0 5.0312-1.3789 6.3672-3.625l6.957-11.617h-0.003906c3.5195-5.8828 6.4922-12.074 8.8789-18.5 2.3867 6.4258 5.3594 12.617 8.8828 18.5l6.957 11.617h-0.003906c1.332 2.2461 3.7539 3.625 6.3633 3.625 1.1641 0.015625 2.3086-0.26562 3.332-0.8125l29.598-14.801c2.2773-1.1562 3.7969-3.4023 4.0234-5.9453 0.22656-2.543-0.875-5.0234-2.9141-6.5586l-1.9961-1.4805h81.398l17.832 90.574v-0.003907c-5.2305-1.1328-10.562-1.7305-15.91-1.7734h-72.297c-1.5273-4.3203-4.3516-8.0586-8.0859-10.711-3.7344-2.6484-8.1992-4.0781-12.781-4.0898h-88.797c-4.5781 0.011719-9.043 1.4414-12.777 4.0898-3.7383 2.6523-6.5625 6.3906-8.0898 10.711h-72.293c-5.4258 0.027344-10.832 0.625-16.133 1.7734zm-63.93 165.83c-0.019532-16.512 6.5273-32.352 18.203-44.027 11.676-11.676 27.516-18.227 44.027-18.207h70.961v118.4h-133.19zm103.59 122.76c0 1.9648-0.77734 3.8477-2.168 5.2344-1.3867 1.3867-3.2695 2.168-5.2305 2.168h-59.199c-4.0859 0-7.3984-3.3125-7.3984-7.4023v-22.199h73.996zm266.39 0c0 1.9648-0.78125 3.8477-2.168 5.2344-1.3867 1.3867-3.2695 2.168-5.2344 2.168h-59.195c-4.0859 0-7.3984-3.3125-7.3984-7.4023v-22.199h73.996zm44.398-37-429.18 0.003906v-14.801h429.18z"/>
  <path d="m242.81 413c-11.777 0-23.07 4.6758-31.395 13.004-8.3281 8.3281-13.004 19.617-13.004 31.395 0 11.773 4.6758 23.066 13.004 31.395 8.3242 8.3242 19.617 13.004 31.395 13.004 11.773 0 23.066-4.6797 31.391-13.004 8.3281-8.3281 13.004-19.621 13.004-31.395 0-11.777-4.6758-23.066-13.004-31.395-8.3242-8.3281-19.617-13.004-31.391-13.004zm0 73.996c-7.8516 0-15.379-3.1172-20.93-8.668-5.5508-5.5508-8.6719-13.078-8.6719-20.93 0-7.8516 3.1211-15.379 8.6719-20.93 5.5508-5.5508 13.078-8.668 20.93-8.668 7.8477 0 15.375 3.1172 20.926 8.668 5.5547 5.5508 8.6719 13.078 8.6719 20.93 0 7.8516-3.1172 15.379-8.6719 20.93-5.5508 5.5508-13.078 8.668-20.926 8.668z"/>
  <path d="m464.8 457.4c0 11.773 4.6797 23.066 13.004 31.395 8.3281 8.3242 19.621 13.004 31.395 13.004 11.777 0 23.07-4.6797 31.395-13.004 8.3281-8.3281 13.004-19.621 13.004-31.395 0-11.777-4.6758-23.066-13.004-31.395-8.3242-8.3281-19.617-13.004-31.395-13.004-11.773 0-23.066 4.6758-31.395 13.004-8.3242 8.3281-13.004 19.617-13.004 31.395zm73.996 0c0 7.8516-3.1172 15.379-8.668 20.93s-13.078 8.668-20.93 8.668c-7.8477 0-15.379-3.1172-20.93-8.668s-8.668-13.078-8.668-20.93c0-7.8516 3.1172-15.379 8.668-20.93s13.082-8.668 20.93-8.668c7.8516 0 15.379 3.1172 20.93 8.668s8.668 13.078 8.668 20.93z"/>
  <path d="m593.62 154.01c-4.8008-4.5898-11.188-7.1484-17.832-7.1484-6.6406 0-13.027 2.5586-17.832 7.1484l-4.3672 4.3633-4.3672-4.3633c-4.8008-4.5898-11.188-7.1484-17.832-7.1484-6.6406 0-13.027 2.5586-17.832 7.1484-7.5742 7.4805-11.812 17.695-11.766 28.34v1.2578c0.023437 11.434 4.5742 22.395 12.652 30.488l33.891 33.965c1.3906 1.3984 3.2812 2.1875 5.2539 2.1875s3.8633-0.78906 5.2539-2.1875l33.891-33.965c8.0781-8.0938 12.629-19.055 12.652-30.488v-1.2578c0.050781-10.645-4.1914-20.859-11.766-28.34zm-3.0312 29.598c-0.035156 7.5117-3.0078 14.711-8.2891 20.055l-28.711 28.711-28.711-28.711c-5.2773-5.3438-8.2539-12.543-8.2852-20.055v-1.2578c0.007813-6.7109 2.668-13.148 7.3984-17.906 4.0977-4.0664 10.703-4.0664 14.797 0l9.5469 9.6211v-0.003906c1.3906 1.4023 3.2812 2.1914 5.2539 2.1914s3.8633-0.78906 5.2539-2.1914l9.5469-9.6172c4.1562-3.9102 10.641-3.9102 14.797 0 4.7305 4.7578 7.3906 11.195 7.4023 17.906z"/>
  <path d="m193.16 248.06c1.3867 1.3984 3.2773 2.1875 5.2539 2.1875 1.9727 0 3.8633-0.78906 5.2539-2.1875l33.891-33.965c8.0781-8.0938 12.625-19.055 12.652-30.488v-1.2578c0.046875-10.645-4.1953-20.859-11.766-28.34-4.8047-4.5898-11.191-7.1484-17.832-7.1484-6.6445 0-13.031 2.5586-17.836 7.1484l-4.3633 4.3633-4.3672-4.3633c-4.8047-4.5898-11.191-7.1484-17.832-7.1484-6.6445 0-13.031 2.5586-17.836 7.1484-7.5703 7.4805-11.812 17.695-11.766 28.34v1.2578c0.027344 11.434 4.5742 22.395 12.656 30.488zm-31.746-65.711c0.007813-6.7109 2.668-13.148 7.3984-17.906 4.0977-4.0664 10.703-4.0664 14.801 0l9.5469 9.6211v-0.003906c1.3867 1.4023 3.2773 2.1914 5.2539 2.1914 1.9727 0 3.8633-0.78906 5.2539-2.1914l9.543-9.6172c4.1602-3.9102 10.641-3.9102 14.801 0 4.7305 4.7578 7.3906 11.195 7.3984 17.906v1.2578c-0.03125 7.5117-3.0078 14.711-8.2852 20.055l-28.711 28.711-28.711-28.711c-5.2812-5.3438-8.2578-12.543-8.2891-20.055z"/>
 </g>
</svg>
