<?xml version="1.0" encoding="UTF-8"?>
<svg width="752pt" height="752pt" version="1.1" viewBox="0 0 752 752" xmlns="http://www.w3.org/2000/svg">
 <defs>
  <clipPath id="n">
   <path d="m214 200h266v162h-266z"/>
  </clipPath>
  <clipPath id="h">
   <path d="m289.33 52.539 410.13 236.79-236.79 410.13-410.13-236.79z"/>
  </clipPath>
  <clipPath id="g">
   <path d="m297 296h1v1h-1z"/>
  </clipPath>
  <clipPath id="f">
   <path d="m289.33 52.539 410.13 236.79-236.79 410.13-410.13-236.79z"/>
  </clipPath>
  <clipPath id="e">
   <path d="m214 235h187v101h-187z"/>
  </clipPath>
  <clipPath id="d">
   <path d="m289.33 52.539 410.13 236.79-236.79 410.13-410.13-236.79z"/>
  </clipPath>
  <clipPath id="c">
   <path d="m281 296h188v72h-188z"/>
  </clipPath>
  <clipPath id="b">
   <path d="m289.33 52.539 410.13 236.79-236.79 410.13-410.13-236.79z"/>
  </clipPath>
  <clipPath id="a">
   <path d="m274 363h180v163h-180z"/>
  </clipPath>
  <clipPath id="m">
   <path d="m289.33 52.539 410.13 236.79-236.79 410.13-410.13-236.79z"/>
  </clipPath>
  <clipPath id="l">
   <path d="m480 371h28v211h-28z"/>
  </clipPath>
  <clipPath id="k">
   <path d="m289.33 52.539 410.13 236.79-236.79 410.13-410.13-236.79z"/>
  </clipPath>
  <clipPath id="j">
   <path d="m454 382h32v191h-32z"/>
  </clipPath>
  <clipPath id="i">
   <path d="m289.33 52.539 410.13 236.79-236.79 410.13-410.13-236.79z"/>
  </clipPath>
 </defs>
 <g>
  <g clip-path="url(#n)">
   <g clip-path="url(#h)">
    <path d="m479.15 359.11c-1.832-5.543-3.875-11.098-5.9297-16.441-2.3828-5.5312-5.2148-10.668-7.8711-15.918-5.2734-10.371-11-20.348-17.324-30.234-12.77-20.5-28.445-38.625-47.668-53.441-19.59-15.137-41.473-26.68-65.035-34.926-10.184-3.582-20.934-6.1797-31.465-7.4453-10.812-1.543-21.859-0.59375-31.402 4.9453-9.9531 6.0664-15.441 16.895-23.84 24.625-4.8945 4.5-10.375 8.1172-16.086 11.383-5.5508 3.3594-11.297 6.4922-17.113 9.3672-1.0469 0.48828-0.27734 1.8086 0.80469 1.4492 5.4844-2.3008 11.168-4.3789 16.68-7.1055 5.2188-2.7852 10.41-5.9102 15.488-9.2109 8.6992-6.3516 15.035-15.055 23.582-21.711 8.2734-6.375 18.422-8.6094 28.934-7.6836 10.688 0.8125 20.668 4.9336 30.66 8.8438 44.32 17.387 84.461 47.121 111.48 86.895 6.082 8.9805 11.441 18.637 16.379 28.27 2.668 5.0391 4.9141 10.055 7.6641 15.141 2.668 5.0391 5.3945 9.7852 8.2891 14.629 1.082 1.7188 4.5742 0.78125 3.7734-1.4297z"/>
   </g>
  </g>
  <g clip-path="url(#g)">
   <g clip-path="url(#f)">
    <path d="m297.78 296.28c0.046875-0.082031 0.046875-0.082031 0 0z"/>
   </g>
  </g>
  <g clip-path="url(#e)">
   <g clip-path="url(#d)">
    <path d="m396.47 266.09c-3.1406 0.70312-6.4688 1.7344-9.8633 1.7422-3.3633 0.13672-6.9297-0.5-10.453-1.2227-2.8047-0.63281-5.8281-1.8359-8.5156-3.0547-2.5547-1.2578-5.9062-2.6484-7.6094-5.3828-0.57422-1.0938-2.2656-0.42969-1.875 0.78125 0.60938 3.3047 3.4023 6.2305 5.9531 8.25 0.52734 0.41406 0.89062 0.73047 1.5 1.1914-0.80859 0.078124-1.6211 0.16016-2.2656 0.33203-1.9062 0.64844-3.8672 0.82812-5.9492 0.83203-0.97656-0.015625-1.9844-0.16406-2.9141-0.26172 0 0-1.7617-0.35938-0.79688-0.13281-0.16406-0.09375-0.45703-0.15625-0.62109-0.25-2.6055-0.41016-5.3633-1.125-7.8867-1.4922-1.5156-0.21484-2.9844-0.51562-4.1914-0.88672-0.53906-0.20312-0.86719-0.39062-1.3242-0.54687-0.41016-0.23828-0.41016-0.23828-0.57422-0.33203 0.074218-1.2656-1.9336-1.7695-2.1016-0.33594-1.3633 5.0117 6.6367 8.207 10.074 9.6445 0.94531 0.4375 2.0586 0.96875 3.3047 1.4688-2.0586 0.34375-3.8945 1.2539-5.9062 1.5117-2.7734 0.25781-5.25-0.1875-7.8711-0.38672-2.6992-0.24609-5.4336-0.62109-7.9922-1.1172-2.1016-0.33594-5.6016-0.71484-6.9688-2.707-0.89844-1.2852-2.8281-0.21484-2.0117 1.0234 3.2656 4.9492 8.2969 7.4141 13.527 9.3398-0.39062 0.10547-0.89453 0.03125-1.1523 0.10156-2.7266 0.17578-5.5078-0.11719-8.1289-0.31641-3.0625-0.56641-6.1523-0.71094-9.0977-1.0977-2.7734-0.50781-7.1406-1.2773-8.3711-4.0664-0.67578-1.4844-2.5703-0.28125-2.0938 0.97656 0.625 1.5664 1.2539 3.1289 2.3633 4.4258 1.3906 1.5703 3.1016 2.7734 4.8711 3.6875s3.7656 1.625 5.5586 2.1172c-0.44922 0.39844-0.88281 0.58203-1.4844 0.67578-2.5195 0.94922-5.1953 1.043-7.6523 0.94141-6.5859-0.52344-14.395-1.9688-19.238-6.0781-1.2539-1.0508-2.9023 0.29297-1.7461 1.5078 3.1797 3.5859 7.2891 6.5039 11.629 8.4648l-0.046875 0.082032c-0.1875 0.32812-0.33203 0.57422-0.71875 0.67969-0.1875 0.32812-1.6875 1.9766-0.73047 0.89062-0.33203 0.57422-0.66406 1.1484-1.2422 1.582 0.91016-1.0078 0.09375-0.16406-0.046875 0.082031-0.14062 0.24609-1.4258 1.1445-1.4727 1.2266-0.45312 0.39062-0.80469 0.625-1.1602 0.85938-0.24609-0.14062-0.24609-0.14062-0.29297-0.058594-0.25781 0.066406-0.69531 0.25391-0.95312 0.32422-0.50391-0.074219-2.043 0.12891-1.7969 0.27344-0.71875-0.085937-1.5273-0.007812-2.2461-0.09375-3.8516-0.14453-6.1523-0.70703-9.3789-1.3672-1.7148-0.44531-3.2148-0.875-4.8477-1.2695-1.2539-0.28516-2.6758-0.66797-3.7148-1.707-0.55078-0.75391-1.6836 0.44922-1.2148 1.1562 0.99219 1.1211 1.5859 2.5547 2.4844 3.8398 1.0625 1.3828 2.4648 2.7383 3.6836 3.6602-0.55469 2.8516-0.15625 6.1445-2.0586 8.1094-2.1367 2.375-7.6562-0.375-9.9531-1.6992-4.6875-2.4883-8.7383-5.7031-12.566-9.1133-0.11719-0.17969-0.47656-0.49609-0.88672-0.73438 0.50391 0.074219 0.79688 0.13281 1.2188 0.15625 5.4141 0.28516 10.074-3.8086 10.93-8.8906 0.27734-1.8086-0.125-3.5703-0.625-5.1719 3.6914 2.1328 8.8516 3.8008 12.781 2.6758 4.9219-1.3164 6.082-6.5508 4.9883-10.902-0.39453-1.2109-0.63672-2.1172-1.1289-3.1641 3.4102 1.8594 7.4102 3.0742 11.398 2.4258 5.2656-0.78906 8.4883-6.3672 6.7812-11.18 3.6484 1.4492 7.4023 2.5234 11.207 2.7539 5.332 0.23437 10.66-3.6875 10.418-9.5156-0.070312-0.26172-0.17578-0.65234-0.16406-0.86328 2.6758 0.66797 5.457 0.96484 7.8906 0.72656 3.7852-0.11328 7.3594-1 9.9805-3.6445 1.3086-1.3203 2.4688-2.9492 2.793-4.8398 0.83594 0.26562 1.6797 0.31641 2.6094 0.41406 1.9844 0.16016 4.1133 0.078125 6.2383-0.007812 1.7031-0.10938 3.3242-0.26562 4.8086-0.94141 1.0938-0.57031 2.0742-1.3203 3.0508-2.0664 2.0859-1.5312 2.4805-5.2383-0.65234-6.0664-2.0898-0.54688-3.7891-1.2031-5.9531-1.2461-2.0312-0.078125-4.3008 0.25-6.3789 0.25391-4.1445-0.20703-8.0195-0.69531-11.895-1.1797-7.2812-1.0312-15.488-2.1602-21.824-6.1484-0.98438-0.56641-1.9531 0.73047-1.1602 1.6289 4.9883 6.707 12.645 9.9258 20.258 12.461l0.24609 0.14062c-0.39062 0.10547-0.74219 0.33594-1.1289 0.44141-0.30469 0.15234-0.85938 0.16016-1.1992 0.18359-0.25781 0.070313-1.4102 0.17188-1.457 0.25391-0.68359 0.039063-1.2344 0.050782-1.7891 0.058594-1.6562 0.027344-3.3477-0.074218-5.0742-0.30469-4.5195-0.3125-8.8281-1.3789-13.723-2.5625-3.3438-0.83594-6.8164-1.6406-9.7695-3.3438-0.98438-0.56641-2.2461 0.67188-1.4531 1.5664 3.543 3.9062 8.5469 6.793 12.941 9.2227 1.0664 0.61719 1.9688 1.1367 3.0469 1.5391 0.75781 1.5312 1.1367 2.9531 1.3906 4.4102 0.070313 0.25781-0.12109 0.58594-0.68359 0.80859-1.3906 0.51172-3.0195 0.11719-4.4062-0.13672-4.1914-0.88672-8.332-1.8555-12.578-3.2148-1.9609-0.58594-4.2148-1.2305-6.2188-1.7305-2.6172-0.96484-5.3047-1.4219-7.6953-2.5859-1.2773-0.62891-2.2266 1.0117-1.043 1.8047 2.25 1.4102 4.3789 3.4023 6.5312 4.9766 0.058594 0.46875 0.24609 0.90625 0.55859 1.3047 1.3438 1.6523 3.1797 3.5859 3.8164 5.7031 0.070313 0.25781 0.14063 0.51562 0.089844 0.59766 0 0-0.046875 0.082031 0.058594 0.46875-0.09375 0.16797-0.070312 0.50781-0.16797 0.67188l-0.14062 0.24609c0.1875-0.32812-0.69531 0.25391-0.09375 0.16406-0.64844 0.17578-1.0703 0.14844-2.082 0.003906-7.375-0.86719-13.023-6.4258-19.98-8.582-0.96094-0.22656-1.6484 0.57812-1.3086 1.3203 1.0938 2.2734 2.4258 4.1367 4.0156 5.9297 0.070312 0.25781 0.17187 0.64453 0.24219 0.90234 1.4297 3.0156 3.3789 5.8906 4.7656 8.9844 1.2578 2.3672 2.6953 6.6953-0.91406 7.457-1.4609 0.25391-3.1602-0.40234-4.625-0.69922-1.8438-0.40625-3.6602-1.2383-5.418-2.3633-1.6289-1.1602-3.2578-2.3164-4.6602-3.6758-0.16406-0.09375-0.16406-0.09375-0.41016-0.23828-0.31641-0.40234-0.67969-0.71875-0.89062-0.73047-1.2734-1.3906-2.8555-2.6328-3.8711-4.0938-0.5-0.83594-2.0312-0.078125-1.4492 0.80469 1.2852 1.9453 2.2969 4.168 3.582 6.1133 0.58594 2.9648 1.5352 6.2461 0.83984 9.3438-0.67188 3.4375-2.6523 4.5938-5.9922 5.0703-3.207 0.44531-6.6719-2.6484-8.6719-4.6758-2.7266-2.668-4.5703-5.1562-6.2695-8.6523-0.09375-0.60156-1.3867-0.25391-1.0977 0.57031 0.56641 1.8594 1.3789 3.8594 2.3594 5.957-0.38672 0.10547-0.28516 0.49219-0.42578 0.73828 0.13672 3.3594 1.2617 6.5273 1.3203 9.8398 0.042969 3.5234-0.60938 7.3047-3.1445 9.9961-2.6211 2.6445-5.3828 3.4531-8.9531 2.8164-3.1836-0.74609-6.5469-2.6875-8.875-4.9062-0.31641-0.40234-0.76172-0.003906-0.53125 0.34766 2.4922 3.0781 4.6055 6.0469 8.4141 7.5938 3.8125 1.543 7.8242 0.46875 11.066-1.9258 3.7227-2.6602 5.4219-6.9297 5.8203-11.406 0.0625-1.0586 0.078125-2.0312-0.070313-3.1016 0.96875 1.543 1.6914 2.9453 2.707 4.4062-0.09375 0.16406-0.074219 0.50391 0.125 0.73047 0.87109 1.707 1.5 3.2695 2.5156 4.7344 1.0625 1.3789 2.0898 2.6289 3.0586 4.1719 1.7578 3.2031 2.4375 6.7656 2.3047 10.406 0.046875 2.7617-0.22656 5.8867-1.8945 8.2031-2.0586 3.1875-6.1211 3.0273-9.1953 1.9102-0.16406-0.09375-0.25781 0.070313-0.09375 0.16406 3.0469 1.5391 6.1133 2.1055 9.2891 0.76953 3.1797-1.3359 5.2266-5.0742 5.8398-8.2227 0.83594-3.3438 0.82813-6.7383 0.17578-9.9609 2.2344 1.6211 4.5664 3.0742 7.0391 4.2852 5.6992 2.6328 13.012 3.793 17.234-2.1914 1.4883-2.2031 1.2305-4.9766 1.125-7.4414-0.32422-0.95312-0.4375-1.8945-0.67969-2.8008 2.8008 1.3984 5.9336 2.2227 8.7148 2.5195 3.9727 0.32031 8.4609-0.25781 12.031-2.4609 3.6289-2.4961 5.8555-6.3516 5.2969-10.504 0.67188 0.16797 1.3867 0.25391 2.1367 0.46875 3.5195 0.71875 7.3281 0.94922 10.832-0.19922 2.9062-1.0586 6.3477-3.2266 6.832-6.3359 2.7695 0.50391 5.5547 0.80078 8.5391 0.55469 3.5859-0.33594 8.2812-2.2188 8.3086-6.25 1.0586 0.0625 2.0312 0.078124 3.0547 0.011718 4.3828-0.20312 10.465-1.832 10.898-6.9414 0.023437-0.42188-0.03125-0.89453-0.34766-1.293 4.3789 0.5625 9.0898 0.54688 12.707-1.7383 1.5312-0.75781 2.4102-2.6562 2.5117-4.3477 0.98438 0.56641 2.0156 1.0547 3.0938 1.457 4.1523 1.5234 8.5742 2.7656 12.816 2.8047 4.875 0.082032 10.496-0.9375 12.855-5.5938 1.0664-2.2266-0.55469-4.9102-3.2109-4.4766z"/>
   </g>
  </g>
  <g clip-path="url(#c)">
   <g clip-path="url(#b)">
    <path d="m467.89 359.49c-1.2734-1.3906-2.8555-2.6328-4.5664-3.8398-1.0664-0.61719-2.2148-1.2773-3.293-1.6836-0.41016-0.23828-0.86719-0.39062-1.2422-0.5 0 0-1.2773-0.62891-1.5703-0.6875-3.4219-1.6484-6.8555-3.8477-10.242-6.1328-6.4766-4.5-12.555-9.3203-18.238-15.008-11.25-11.199-20.262-24.387-32.316-34.953-1.25-1.0547-3.1758 0.57031-2.0156 1.7852 11.777 11.613 18.688 27.305 28.273 40.82 2.8242 3.8203 5.9102 7.5703 9.1836 10.992-2.5352-0.91406-5.1016-1.9609-7.5273-3.25-6.7188-3.332-12.562-7.0352-17.789-12.57-2.2695-2.5117-4.3945-5.2695-6.4844-7.8984-2.457-2.9492-5.1484-5.4883-7.7891-8.1055-5.4375-5.5469-10.973-10.93-16.988-16.043-1.0898-0.95703-2.3984 0.36719-1.5703 1.3906 5.6875 5.6875 10.242 11.82 14.512 18.441 4.2227 6.7031 7.5859 13.566 12.211 19.957 3.5273 4.875 8.207 8.8906 13.492 12.051-0.33984 0.023438-0.84375-0.050781-1.1055 0.019532-0.25781 0.070312-2.5352-0.15234-1.8672 0.015625-1.7617-0.35938-3.6367-0.89844-5.2695-1.293-3.7422-1.2852-5.793-2.4688-9.25-4.2461-3.2109-1.6367-5.7148-4.5-8.3906-7.25-5.5547-5.7227-11.016-11.609-16.957-17.23-6.2266-5.8867-13.133-11.734-19.07-18.117-1.3203-1.3086-3.1758 0.57422-2.0312 2 5.7852 6.8398 11.285 14.172 16.66 21.539 5.1836 6.9297 10.133 14.273 15.094 21.402-2.5586-0.49219-5.3633-1.1289-7.9453-1.9648-6.1602-2.0234-11.562-4.5977-17.023-7.6406-11.496-6.418-19.223-17.66-27.238-27.648-0.67969-0.71875-2.3047 0.20312-1.4258 1.1445 7.7383 11.031 15.453 22.488 24.062 33.145 1.0273 1.25 1.9414 2.3242 3.0977 3.5391-1.0078-0.14453-1.7734-0.14844-2.4531-0.10547-4.9219-0.76172-9.707-2.3203-14.023-3.9375-4.793-2.1133-9.2109-4.8828-13.098-8-4.2148-3.3086-8.4531-6.957-11.926-10.605-0.3125-0.39844-0.9375 0.11328-0.625 0.51562 3.4375 4.2812 6.4844 8.6641 10.387 12.887 3.4141 3.9375 6.9688 7.6328 11.137 11.023-1.1055 0.019531-2.1602-0.042969-3.1836 0.019531-3.7578-0.30859-7.3281-0.94922-10.871-2.0117-0.41016-0.23828-1.0664-0.61719-1.5352-0.55859-0.24609-0.14063-0.50391-0.074219-0.75-0.21484-8.3789-2.5391-15.969-7.5781-20.977-14.625-0.51562-0.625-1.5742 0.074218-1.2266 0.60547 3.7344 5.6562 8.5156 10.824 13.867 15.004-3.1484 0.15234-6.0625 0.65625-9.1172 0.64453-3.2188-0.10938-6.3281-1.3555-8.8711-2.8242-1.2305-0.71094-2.332-1.457-3.7734-2.1797-1.6055-0.81641-3.2578-1.5547-4.6641-2.9102-0.75781-0.76953-2.2344 0.46094-1.2734 1.4492 1.2031 1.1328 2.043 2.7109 3.0586 4.1719 0.96875 1.5469 2.2891 2.8555 3.6602 4.082 2.9375 2.6797 6.5117 4.6367 10.457 5.3828 3.8633 0.69922 7.7305-0.12891 11.551-0.11328 2.6328-0.011719 6.6484 0.23047 9.1719-1.4883 3.4648 1.5664 6.8086 2.4023 10.309 2.7852 2.3594 0.26953 5.0742 0.30469 7.2617-0.074219 1.3984 0.042969 2.3516-0.28516 3.5625-0.67578 0.77734-0.21094 1.3516-0.64062 1.8828-0.99219 2.4375 1.0781 5.3945 2.0195 8.293 2.4922 5 0.80859 11.52 1.0742 15.672-2.3281 1.0312 0.48438 2.0273 0.84375 2.9453 1.1523 3.7422 1.2852 7.7227 2.1602 11.547 2.7305 3.7812 0.65234 8.3477 0.88281 11.766-0.86328 0.21094 0.011719 0.21094 0.011719 0.25781-0.070313 2.8359 1.5273 5.7344 2.7617 8.8047 3.8828 2.3711 0.82031 4.5547 1.207 6.2773 1.4375 2.3125 0.35156 4.8281 0.16406 7.3086-0.15625 4.7852-0.51953 9.3867-2.2383 12.902-5.6758 0.046876-0.082032 0.09375-0.16406 0.14063-0.24609 0.53906 0.20312 0.91406 0.30859 1.3711 0.46484 2.207 0.72656 4.4102 1.4531 6.4414 1.5312 2.3594 0.26953 4.2539-0.16797 6.2344-1.3242 0.59766-0.089844 1-0.40625 1.2852-0.89844 2.1211 1.4414 4.5 2.8164 6.7266 3.8828 5.1602 2.4297 10.25 3.8398 15.453 1.2656 2.793-1.2305 2.9141-4.6602 1.2578-6.7109z"/>
   </g>
  </g>
  <g clip-path="url(#a)">
   <g clip-path="url(#m)">
    <path d="m453.57 522.39c0.039063-5.5547-1.7578-10.969-3.3438-16.367-1.4453-5.6445-2.418-11.348-2.8984-16.766-0.82422-10.32-0.39453-22.43-1.2734-33.219-0.53906-5.8867-0.78125-11.715-1.5781-17.535-0.72656-5.5586-2.2656-11.039-3.4648-16.543-1.2227-5.082-2.3281-9.9844-4.5391-14.871-1.7188-4.6016-4.5664-8.7617-7.6523-12.512-0.875-0.94531-2.207 0.039062-1.6719 1.0039 2.5898 4.2305 3.4023 9.0742 3.9102 14.066 0.21484 4.9336 0.25 9.9883 0.70703 15.062 0.43359 5.5 1.3047 10.812 1.4766 16.383 0.082031 5.7383 0.49219 11.66 0.44141 17.43 0.26562 4.0898 0.41016 8.0039 0.18359 11.809-0.42188-0.027344-1.0469-0.27734-1.668-0.52734-1.6992-0.65234-2.7305-1.1367-4.4414-2.3438-0.41016-0.23828-0.57422-0.33203-0.57422-0.33203-0.24609-0.14062-0.60938-0.46094-0.89063-0.73047-0.066406-0.26172-0.42969-0.57812-0.74609-0.98047-0.16406-0.09375-0.16406-0.09375-0.36328-0.32031 0 0-0.11719-0.17578-0.1875-0.43359-2.3438-3.3242-3.8672-6.9375-5.3906-10.551-1.7578-3.9688-3.4297-7.8867-4.457-11.98-2.3359-8.457-2.7305-17.434-3.9961-26.039-1.4414-9.2539-3.9844-18.484-6.7148-27.391-0.61719-1.7773-3.1914-1.2969-2.625 0.5625 2.0625 9.5 3.1797 19.117 3.2773 28.797 0.42578 9.8711-0.40234 19.453 1.0586 29.047 0.86328 4.7617 2.3008 9.0938 3.9023 13.516 0.46484 1.4688 1.1367 2.9531 1.6953 4.2617-0.62109-0.25-1.2773-0.62891-1.8984-0.87891-3.332-1.8125-5.9141-4.7266-8.1211-7.5312-4.8945-6.1055-8.2344-13.395-10.211-20.77-1.0547-3.6719-1.8008-7.4922-2.4648-11.266-0.52344-4.0195-1.5508-8.1133-2.5273-12.289-0.72266-4.2422-1.4453-8.4883-1.8242-12.754-0.62891-4.4062-1.1719-8.7695-0.53125-13.102 0.11328-1.1367-1.7773-1.4648-1.9688-0.37109-0.85156 4.3203-2.0469 8.6602-2.5273 13.09-0.35938 4.6055-0.089844 9.2461 0.39453 13.898 0.61719 8.7773 1.6016 17.875 3.7109 26.531 1.207 3.9766 2.4727 7.6602 4.207 11.285-2.3086-1.8789-3.5742-2.7188-5.7852-4.7617-1.332-1.0977-2.1641-2.125-3.2734-3.4219-0.5625-0.54297-0.99219-1.1211-1.3789-1.7773-0.28125-0.27344-0.28125-0.27344-0.48047-0.49609-0.11328-0.17969-0.3125-0.40234-0.38281-0.66016-1.8086-2.3594-3.5469-5.2188-4.5234-8.0781-2.6328-7.7539-3.7227-15.715-5.8047-23.477-2.125-8.4453-4.7656-16.75-7.5039-24.895-0.44141-1.1289-2.3086-1.1133-2.3047 0.20312 0.76953 9.0859 1.5547 17.957 2.4062 27.09 0.75391 7.2148 1 15.125 2.6641 22.098 0 0-0.16406-0.09375-0.62109-0.25-1.8164-0.82812-2.0273-0.84375-3.7852-1.9648-0.24609-0.14063-0.49219-0.28516-0.49219-0.28516-0.16406-0.09375-0.28125-0.26953-0.48047-0.49609-0.55859-0.54297-1.1914-1.3438-1.8711-2.0625-1.6562-2.0547-3.1133-4.6445-4.8047-7.5898-1.4453-2.8008-3.3125-5.6289-5-8.5742-3.1367-5.7461-6.2109-11.785-8.9922-17.766-1.5156-3.0625-2.7695-6.1953-4.0703-9.2422-1.4688-3.1445-3.1328-6.5117-3.7891-9.7344-0.085937-1.3633-2.2383-0.85547-1.9375 0.52344 0.59375 3.5156 0.49609 7.2852 0.94922 11.047 0.25391 3.5391 1.0156 7.1484 1.6562 10.582 1.6797 7.3125 4.1055 14.289 7.1406 20.965 0.48828 1.0469 0.94141 1.9648 1.3477 2.9648-0.45703-0.15625-0.91406-0.30859-1.418-0.38281-1.2539-0.28516-2.8242-0.97266-3.3984-1.3047-2.8008-1.3984-4.1953-2.9688-6.25-5.4688-2.3828-2.6875-4.2383-5.7266-6.4453-8.5352-7.6289-10.09-13.531-22.027-16.684-34.566-0.34766-1.293-2.0156-1.0547-2.207 0.039063-0.77344 7.2109-0.57031 14.438 1.125 21.539 0.10547 0.38672 0.125 0.73047 0.27734 1.0352-0.24609-0.14063-0.45703-0.15625-0.91406-0.30859-4.2148-1.2305-8.7617-3.1992-12.402-6.1758-6.4141-5.5625-9.6641-14.328-11.895-22.398-0.3125-1.1641-2.0312-0.84375-1.7656 0.40234 0.53125 4.5742 0.80469 9.2148 1.8086 13.73 1.1523 4.8203 3.7148 9.4727 6.5898 13.211 3.3516 4.2344 8.7461 7.0156 13.785 9.2734 2.2266 1.0664 4.7266 1.8555 7.2383 2.4297 0.41016 0.23828 0.75 0.21484 1.125 0.32031 1.5938 3.1094 3.4766 5.7266 5.3906 8.4727 4.4141 6.3711 8.1328 13.004 15.082 16.688 4.8047 2.6641 11.48 4.5508 17.348 3.6719 0.93359 1.4141 2.0664 3.0508 3.4219 4.4922 5.0039 5.7305 12.02 7.5977 19.309 6.3359 2.1797 3.9922 5.0195 7.6016 8.3867 10.859 2.9375 2.6797 6.1602 4.8672 9.6289 6.4336 3.5508 1.6133 6.9219 2.0273 10.68 2.3398 0.21094 0.011719 0.25781-0.070312 0.55078-0.007812 0.11719 0.17578 0.31641 0.40234 0.43359 0.57812 2.5117 3.418 5.4688 6.4375 9.1133 8.6523 1.7227 0.99609 3.8672 2.0156 5.9219 2.4336 2.2656 0.42969 4.5703 0.22656 6.7109-0.070312 2.9102 3.1016 6.8281 5.0352 10.391 6.4375 2.1094 0.89062 4.1992 1.4414 6.3477 1.6953 0.30078 3.457 0.52344 6.8633 0.91797 10.156 0.5625 5.4648 2.0781 10.605 3.8086 15.762 1.9492 5.7188 4.1641 11.918 8.2695 16.367 2.1016 2.418 6.5586 0.94531 6.4219-2.418z"/>
   </g>
  </g>
  <g clip-path="url(#l)">
   <g clip-path="url(#k)">
    <path d="m505.15 549.54c0.81641-6.5273 1.2109-13.082 1.5586-19.551 0.65234-6.625 0.84375-13.402 1.0742-20.051 0.60938-26.441-1.6133-52.332-7.4062-78.102-4.4531-20.508-10.852-40.496-18.859-59.773-0.28906-0.82422-1.6797-0.3125-1.3867 0.51172 6.2461 24.605 11.023 49.672 13.188 75.094 0.97656 12.703 1.5195 25.594 1.8008 38.551 0.09375 13.289-0.49609 26.621-1.1758 40.117-0.42969 9.2656-1.2109 18.77-2.4062 28.031-0.125 2.1133-0.41797 4.1328-1.1172 5.918-0.26953 2.3594-0.55859 4.3789-0.96875 6.2227-0.53516 1.8789-0.71094 4.0742-1.3984 5.6445-0.51953 0.90234-0.99609 1.7227-1.3516 2.7188-0.32031 1.125-0.45312 1.9258-0.97656 2.8281-1.3242 2.2969 1.0234 4.8555 3.3438 3.6797 1.0938-0.57031 2.2734-1.0938 3.5312-1.5703 1.4375-0.59375 2.3828-2.2344 3.5039-3.2266 0.66406-1.1484 1.8984-1.9648 2.5156-3.0312 0.89844-1.5586 1.6367-3.2109 2.0781-4.9258 2.2695-6.0195 3.3125-12.746 4.4531-19.086z"/>
   </g>
  </g>
  <g clip-path="url(#j)">
   <g clip-path="url(#i)">
    <path d="m484.76 568.95c-2.6562-4.4883-6.1523-8.4766-8.375-13.148-2.4219-4.8984-3.1016-10.539-3.8398-15.891-1.668-11.133-1.2734-23.371-0.94922-35.105 0.30859-5.8359 0.28906-11.863 0.35156-17.844-0.035157-5.8164-0.41016-11.609-0.69922-17.355-0.23047-11.727-0.54297-23.5-1.6172-35.277-0.91406-8.8398-1.8398-17.465-3.9961-26.039-0.93359-4.2578-2.207-8.4922-3.7383-12.66-1.3555-4.2812-3.6172-8.3203-5.75-12.395-0.41797-0.78906-1.8086-0.27734-1.5664 0.62891 1.9258 5.3789 3.0273 11.047 4.2148 16.762 1.1836 5.7148 1.7812 11.309 2.2031 17.02 0.875 11.551 0.4375 23.109-0.015625 34.879-0.60156 11.465-1.5117 23.078-1.9023 34.555-0.33594 11.945-1.2695 23.984-0.89062 36.016 0.71484 18.461 5.6406 39.676 22.797 49.363 2.0977 1.1016 5.0312-1.1406 3.7734-3.5078z"/>
   </g>
  </g>
 </g>
</svg>
