<?xml version="1.0" encoding="UTF-8"?>
<svg fill='black' version='1.1' height='200' width='200' viewBox='125 125 500 500' xmlns='http://www.w3.org/2000/svg'>
 <g>
  <path d="m342.11 365.69c-6.0625 0-10.824 3.1992-10.824 7.2656 0 4.0781 4.7617 7.2773 10.824 7.2773 3.5781 0.19922 7.0586-1.1836 9.5234-3.7812 0.82031-0.98047 1.2773-2.2148 1.2891-3.4961 0-4.0664-4.75-7.2656-10.812-7.2656zm0 12.062c-4.5234 0-8.3438-2.1953-8.3438-4.7969 0-2.5898 3.8164-4.7852 8.3438-4.7852 4.5117 0 8.332 2.1953 8.332 4.7852 0 2.6016-3.8164 4.7969-8.332 4.7969z"/>
  <path d="m411.11 365.7c-2.6055-0.11328-5.1914 0.50781-7.4609 1.8008-1.0117 0.58984-1.8828 1.3945-2.5547 2.3555-0.58594 0.85156-0.91016 1.8555-0.92969 2.8867-0.007812 0.28906 0.007813 0.58203 0.050782 0.86719 0.37109 1.9023 1.5469 3.5469 3.2227 4.5117 2.2188 1.375 4.7773 2.0977 7.3867 2.0977 0.11328 0.007812 0.22656 0.015625 0.33594 0.011719 2.5 0.042969 4.9648-0.58203 7.1406-1.8086 2-1.0156 3.3242-3.0078 3.4844-5.2461 0.074219-4.0781-4.6133-7.3633-10.676-7.4766zm5.9023 10.586v0.003906c-3.8438 2.0156-8.4492 1.9297-12.211-0.23828-1.2148-0.63672-2.0273-1.8438-2.1562-3.2109 0.14062-1.3945 1.0078-2.6172 2.2812-3.2109 1.7852-1 3.8047-1.5039 5.8516-1.4609 0.09375-0.003907 0.1875 0 0.28516 0.011719 4.5234 0.085937 8.293 2.3438 8.2461 4.9453h-0.003906c-0.16406 1.3828-1.0312 2.5781-2.293 3.1641z"/>
  <path d="m412.31 350.03c-0.058594-0.45703-0.15625-0.91016-0.28516-1.3516-0.16406-0.60547-0.38672-1.1953-0.65625-1.7617-2.4648-5.3086-8.5156-7.9336-14.074-6.1016-5.5586 1.832-8.8672 7.5391-7.6875 13.277 1.1758 5.7344 6.4609 9.6758 12.293 9.1719 5.832-0.50781 10.363-5.3008 10.535-11.152 0.011719-0.11328 0.015625-0.22266 0.011719-0.33594 0-0.58594-0.046875-1.168-0.13672-1.7461zm-12.895 3.125h0.003906c-1.7773 0.69141-3.793 0.25-5.1172-1.1211-1.3203-1.3711-1.6875-3.4062-0.92578-5.1523 0.75781-1.7461 2.4961-2.8672 4.4023-2.832 1.9062 0.03125 3.6055 1.207 4.3047 2.9805 0.46094 1.1641 0.44141 2.4648-0.058594 3.6133-0.5 1.1523-1.4375 2.0547-2.6055 2.5117zm8.3789 3.5586 0.003906-0.003906c-1.2891 0.37891-2.6406-0.36328-3.0195-1.6523-0.375-1.293 0.36328-2.6445 1.6562-3.0195 1.2891-0.37891 2.6406 0.36328 3.0195 1.6562 0.375 1.2891-0.36719 2.6406-1.6562 3.0156z"/>
  <path d="m413.24 352.23c-0.20313 0-0.41016-0.023438-0.60938-0.066407-0.77344-0.17187-1.4375-0.66016-1.832-1.3438-0.22266-0.41406-0.070312-0.92969 0.34375-1.1562 0.41406-0.22656 0.93359-0.074218 1.1602 0.33984 0.16016 0.25 0.41797 0.42578 0.70703 0.48828 0.73828 0.03125 1.4531-0.24219 1.9805-0.75391 0.17969-0.14062 0.41016-0.20312 0.63281-0.17188 0.22656 0.027344 0.43359 0.14844 0.57031 0.32812 0.14063 0.17969 0.19922 0.41016 0.16797 0.63672s-0.14844 0.42969-0.33203 0.56641c-0.78125 0.67188-1.7578 1.0703-2.7891 1.1328z"/>
  <path d="m412.04 348.68c-0.83984 0.007812-1.6719-0.14063-2.457-0.4375-0.4375-0.17578-0.64844-0.67188-0.47656-1.1094 0.17578-0.4375 0.66797-0.65234 1.1094-0.48437 2.082 0.79297 4.4336 0.10156 5.7617-1.6875 0.13281-0.18359 0.33203-0.30859 0.55859-0.34375 0.22266-0.035157 0.45312 0.019531 0.63672 0.15625 0.38281 0.27734 0.46484 0.8125 0.1875 1.1953-1.2148 1.7305-3.207 2.7461-5.3203 2.7109z"/>
  <path d="m343.96 347.13c-0.17188-0.4375-0.66406-0.65234-1.1016-0.48438-0.10938 0.046875-0.21875 0.078125-0.33594 0.10156-0.17969 0.0625-0.36719 0.10547-0.55469 0.12109-0.3125 0.57031-0.55078 1.1758-0.72266 1.8008 0.17188 0 0.34766-0.011719 0.50781-0.023438 0.16016-0.011719 0.30859-0.039062 0.47266-0.0625 0.097656-0.011719 0.1875-0.039062 0.27344-0.050781 0.21484-0.042969 0.42578-0.097656 0.63281-0.16016 0.12109-0.035156 0.24219-0.074219 0.35938-0.125 0.4375-0.17969 0.64844-0.67969 0.46875-1.1172zm-2.0469 2.5273 0.003906 0.003906c-0.125-0.066406-0.25781-0.097656-0.39844-0.10156-0.09375 0-0.18359 0.015625-0.27344 0.050781-0.30078 0.67969-0.44531 1.4219-0.42188 2.168v0.27344c0.12109-0.042969 0.23828-0.097656 0.34766-0.16016 0.26953-0.14844 0.51172-0.33594 0.71875-0.55859 0.0625-0.074219 0.125-0.13672 0.17188-0.19922h0.003906c0.074219-0.097656 0.14453-0.20312 0.21094-0.30859 0.10547-0.20312 0.12891-0.4375 0.0625-0.65625-0.070312-0.21875-0.21875-0.40234-0.42188-0.50781zm2.0469-2.5273c-0.17188-0.4375-0.66406-0.65234-1.1016-0.48438-0.10938 0.046875-0.21875 0.078125-0.33594 0.10156-0.17969 0.0625-0.36719 0.10547-0.55469 0.12109-0.3125 0.57031-0.55078 1.1758-0.72266 1.8008 0.17188 0 0.34766-0.011719 0.50781-0.023438 0.16016-0.011719 0.30859-0.039062 0.47266-0.0625 0.097656-0.011719 0.1875-0.039062 0.27344-0.050781 0.21484-0.042969 0.42578-0.097656 0.63281-0.16016 0.12109-0.035156 0.24219-0.074219 0.35938-0.125 0.4375-0.17969 0.64844-0.67969 0.46875-1.1172zm-2.0469 2.5273 0.003906 0.003906c-0.125-0.066406-0.25781-0.097656-0.39844-0.10156-0.09375 0-0.18359 0.015625-0.27344 0.050781-0.30078 0.67969-0.44531 1.4219-0.42188 2.168v0.27344c0.12109-0.042969 0.23828-0.097656 0.34766-0.16016 0.26953-0.14844 0.51172-0.33594 0.71875-0.55859 0.0625-0.074219 0.125-0.13672 0.17188-0.19922h0.003906c0.074219-0.097656 0.14453-0.20312 0.21094-0.30859 0.10547-0.20312 0.12891-0.4375 0.0625-0.65625-0.070312-0.21875-0.21875-0.40234-0.42188-0.50781zm0 0 0.003906 0.003906c-0.125-0.066406-0.25781-0.097656-0.39844-0.10156-0.09375 0-0.18359 0.015625-0.27344 0.050781-0.30078 0.67969-0.44531 1.4219-0.42188 2.168v0.27344c0.12109-0.042969 0.23828-0.097656 0.34766-0.16016 0.26953-0.14844 0.51172-0.33594 0.71875-0.55859 0.0625-0.074219 0.125-0.13672 0.17188-0.19922h0.003906c0.074219-0.097656 0.14453-0.20312 0.21094-0.30859 0.10547-0.20312 0.12891-0.4375 0.0625-0.65625-0.070312-0.21875-0.21875-0.40234-0.42188-0.50781zm2.0469-2.5273c-0.17188-0.4375-0.66406-0.65234-1.1016-0.48438-0.10938 0.046875-0.21875 0.078125-0.33594 0.10156-0.17969 0.0625-0.36719 0.10547-0.55469 0.12109-0.3125 0.57031-0.55078 1.1758-0.72266 1.8008 0.17188 0 0.34766-0.011719 0.50781-0.023438 0.16016-0.011719 0.30859-0.039062 0.47266-0.0625 0.097656-0.011719 0.1875-0.039062 0.27344-0.050781 0.21484-0.042969 0.42578-0.097656 0.63281-0.16016 0.12109-0.035156 0.24219-0.074219 0.35938-0.125 0.4375-0.17969 0.64844-0.67969 0.46875-1.1172zm0 0c-0.17188-0.4375-0.66406-0.65234-1.1016-0.48438-0.10938 0.046875-0.21875 0.078125-0.33594 0.10156-0.17969 0.0625-0.36719 0.10547-0.55469 0.12109-0.3125 0.57031-0.55078 1.1758-0.72266 1.8008 0.17188 0 0.33594-0.011719 0.50781-0.023438 0.16016-0.011719 0.30859-0.039062 0.47266-0.0625 0.097656-0.011719 0.1875-0.039062 0.27344-0.050781 0.21484-0.042969 0.42578-0.097656 0.63281-0.16016 0.12109-0.035156 0.24219-0.074219 0.35938-0.125 0.4375-0.17969 0.64844-0.67969 0.46875-1.1172zm-2.0469 2.5273 0.003906 0.003906c-0.125-0.066406-0.25781-0.097656-0.39844-0.10156-0.09375 0-0.18359 0.015625-0.27344 0.050781-0.30078 0.67969-0.44531 1.4219-0.42188 2.168v0.27344c0.12109-0.042969 0.23828-0.097656 0.34766-0.16016 0.26953-0.14844 0.51172-0.33594 0.71875-0.55859 0.0625-0.074219 0.125-0.13672 0.17188-0.19922h0.003906c0.074219-0.097656 0.14453-0.20312 0.21094-0.30859 0.10547-0.20312 0.12891-0.4375 0.0625-0.65625-0.070312-0.21875-0.21875-0.40234-0.42188-0.50781zm10.426-9.4102 0.003906 0.003906c-4.4688 0-8.5352 2.5859-10.426 6.6328-0.27344 0.57422-0.5 1.1719-0.67188 1.7852-0.097656 0.35547-0.17578 0.71484-0.23438 1.0781-0.125 0.66797-0.1875 1.3516-0.1875 2.0312v0.27344c0.11328 4.6367 2.9922 8.7539 7.3086 10.449 4.3125 1.6953 9.2266 0.64062 12.465-2.6758 3.2383-3.3203 4.1719-8.2539 2.3711-12.527-1.8047-4.2734-5.9883-7.0508-10.625-7.0469zm-1.4883 12.906 0.003906 0.003906c-1.7734 0.69922-3.7969 0.26172-5.1211-1.1094-1.3281-1.3711-1.6992-3.4062-0.94141-5.1562 0.76172-1.75 2.4961-2.8711 4.4062-2.8398 1.9062 0.03125 3.6055 1.207 4.3086 2.9805 0.96094 2.4219-0.22656 5.1641-2.6523 6.125zm8.3672 3.5586h0.003906c-0.94531 0.27734-1.9609-0.046876-2.5781-0.81641-0.61328-0.76953-0.70703-1.832-0.23047-2.6953 0.47656-0.86328 1.4258-1.3516 2.4023-1.2422 0.98047 0.10938 1.7969 0.79688 2.0703 1.7422 0.17969 0.62109 0.10547 1.2852-0.20703 1.8516-0.30859 0.56641-0.83594 0.98438-1.457 1.1602zm-15.262-9.582h0.003906c-0.17188-0.4375-0.66406-0.65234-1.1016-0.48438-0.10938 0.046875-0.21875 0.078125-0.33594 0.10156-0.17969 0.0625-0.36719 0.10547-0.55859 0.12109-0.30859 0.57031-0.55078 1.1758-0.71875 1.8008 0.17188 0 0.34766-0.011719 0.50781-0.023438 0.16016-0.011719 0.30859-0.039062 0.47266-0.0625 0.097656-0.011719 0.1875-0.039062 0.27344-0.050781 0.21484-0.042969 0.42578-0.097656 0.63281-0.16406 0.12109-0.03125 0.24219-0.070313 0.35938-0.12109 0.4375-0.17969 0.64844-0.67969 0.46875-1.1172zm-2.0469 2.5273h0.007813c-0.125-0.0625-0.26172-0.09375-0.39844-0.097656-0.09375 0-0.1875 0.015625-0.27344 0.050781-0.30078 0.67969-0.44531 1.4219-0.42188 2.168v0.27344c0.12109-0.042969 0.23828-0.097656 0.34766-0.16016 0.26953-0.14844 0.51172-0.33594 0.71875-0.55859 0.0625-0.074219 0.125-0.13672 0.17188-0.19922h0.003906c0.074219-0.097656 0.14453-0.20312 0.21094-0.30859 0.10547-0.20312 0.12891-0.4375 0.0625-0.65625-0.070312-0.21875-0.21875-0.40234-0.42188-0.50781zm0 0h0.007813c-0.125-0.0625-0.26172-0.09375-0.39844-0.097656-0.09375 0-0.1875 0.015625-0.27344 0.050781-0.30078 0.67969-0.44531 1.4219-0.42188 2.168v0.27344c0.12109-0.042969 0.23828-0.097656 0.34766-0.16016 0.26953-0.14844 0.51172-0.33594 0.71875-0.55859 0.0625-0.074219 0.125-0.13672 0.17188-0.19922h0.003906c0.074219-0.097656 0.14453-0.20312 0.21094-0.30859 0.10547-0.20312 0.12891-0.4375 0.0625-0.65625-0.070312-0.21875-0.21875-0.40234-0.42188-0.50781zm2.0469-2.5273h0.003906c-0.17188-0.4375-0.66406-0.65234-1.1016-0.48438-0.10938 0.046875-0.21875 0.078125-0.33594 0.10156-0.17969 0.0625-0.36719 0.10547-0.55859 0.12109-0.30859 0.57031-0.55078 1.1758-0.71875 1.8008 0.17188 0 0.34766-0.011719 0.50781-0.023438 0.16016-0.011719 0.30859-0.039062 0.47266-0.0625 0.097656-0.011719 0.1875-0.039062 0.27344-0.050781 0.21484-0.042969 0.42578-0.097656 0.63281-0.16406 0.12109-0.03125 0.24219-0.070313 0.35938-0.12109 0.4375-0.17969 0.64844-0.67969 0.46875-1.1172zm-2.0469 2.5273h0.007813c-0.125-0.0625-0.26172-0.09375-0.39844-0.097656-0.09375 0-0.1875 0.015625-0.27344 0.050781-0.30078 0.67969-0.44531 1.4219-0.42188 2.168v0.27344c0.12109-0.042969 0.23828-0.097656 0.34766-0.16016 0.26953-0.14844 0.51172-0.33594 0.71875-0.55859 0.0625-0.074219 0.125-0.13672 0.17188-0.19922h0.003906c0.074219-0.097656 0.14453-0.20312 0.21094-0.30859 0.10547-0.20312 0.12891-0.4375 0.0625-0.65625-0.070312-0.21875-0.21875-0.40234-0.42188-0.50781zm2.0469-2.5273h0.003906c-0.17188-0.4375-0.66406-0.65234-1.1016-0.48438-0.10938 0.046875-0.21875 0.078125-0.33594 0.10156-0.17969 0.0625-0.36719 0.10547-0.55859 0.12109-0.30859 0.57031-0.55078 1.1758-0.71875 1.8008 0.17188 0 0.34766-0.011719 0.50781-0.023438 0.16016-0.011719 0.30859-0.039062 0.47266-0.0625 0.097656-0.011719 0.1875-0.039062 0.27344-0.050781 0.21484-0.042969 0.42578-0.097656 0.63281-0.16406 0.12109-0.03125 0.24219-0.070313 0.35938-0.12109 0.4375-0.17969 0.64844-0.67969 0.46875-1.1172z"/>
  <path d="m339.83 352.23c-1.0273-0.0625-2.0078-0.46094-2.7891-1.1328-0.37109-0.28906-0.44141-0.82422-0.15625-1.1992 0.28906-0.37109 0.82422-0.44531 1.1992-0.16016 0.53125 0.51562 1.2539 0.78906 1.9961 0.75 0.28125-0.066406 0.52344-0.23438 0.68359-0.47656 0.22266-0.41406 0.74219-0.57422 1.1602-0.34766 0.41406 0.22266 0.57031 0.74219 0.34766 1.1562-0.39453 0.68359-1.0586 1.1719-1.8281 1.3438-0.20312 0.042969-0.40625 0.066407-0.61328 0.066407z"/>
  <path d="m341.04 348.68c-2.1133 0.035156-4.1055-0.98047-5.3203-2.7109-0.27734-0.38281-0.19141-0.91797 0.19141-1.1953 0.38281-0.28125 0.91797-0.19531 1.1953 0.1875 1.3242 1.793 3.6797 2.4805 5.7617 1.6875 0.4375-0.16797 0.93359 0.046874 1.1055 0.48437 0.17578 0.4375-0.035156 0.93359-0.47266 1.1094-0.78516 0.29687-1.6211 0.44531-2.4609 0.4375z"/>
  <path d="m388.02 376.6c-0.20703-0.15234-0.46094-0.23828-0.71875-0.23438-0.13281 0-0.26172 0.023438-0.38672 0.0625l-4.8242 1.5508 0.003906-0.003906c-3.4648 1.1172-7.1875 1.1172-10.652 0l-4.8086-1.5508v0.003906c-0.375-0.12891-0.78516-0.0625-1.1016 0.17188-0.32422 0.23438-0.51953 0.60547-0.52344 1.0039-0.28125 3.293 0.83203 6.5508 3.0664 8.9844 2.2383 2.4336 5.3906 3.8203 8.6953 3.8203s6.457-1.3867 8.6914-3.8203c2.2344-2.4336 3.3477-5.6914 3.0664-8.9844 0-0.39453-0.1875-0.76953-0.50781-1.0039zm-11.246 11.332c-4.7461-0.21484-8.6289-3.8555-9.1484-8.5781l3.0625 0.98047v-0.003906c3.957 1.2852 8.2188 1.2852 12.172 0l3.0625-0.98047v0.003906c-0.52344 4.7188-4.4023 8.3594-9.1484 8.5781z"/>
  <path d="m307.07 323.24h-49.301c-0.125 0-0.26172 0-0.38281 0.011719l-0.003907 0.003906c-4.2734 0.097656-8.3398 1.8633-11.328 4.9219-2.9922 3.0586-4.6641 7.1641-4.6641 11.441v49.305c0.003906 4.3398 1.7305 8.5039 4.8008 11.574 3.0703 3.0703 7.2344 4.7969 11.578 4.8008h49.301c4.3438-0.003906 8.5039-1.7344 11.574-4.8008 3.0703-3.0703 4.7969-7.2344 4.8047-11.574v-49.305c-0.003907-4.3438-1.7305-8.5039-4.8008-11.574-3.0703-3.0703-7.2344-4.7969-11.578-4.8047zm13.898 65.68v0.003906c-0.007812 7.6719-6.2266 13.887-13.898 13.898h-49.301c-7.6719-0.011718-13.891-6.2266-13.898-13.898v-49.305c0.003906-7.6719 6.2227-13.895 13.898-13.898h49.301c7.6758 0.003906 13.895 6.2266 13.898 13.898z"/>
  <path d="m495.64 323.24h-49.305c-4.3438 0.007813-8.5039 1.7344-11.574 4.8047-3.0703 3.0703-4.7969 7.2305-4.8047 11.574v49.305c0.007813 4.3398 1.7344 8.5039 4.8047 11.57 3.0703 3.0703 7.2344 4.8008 11.574 4.8047h49.305c4.3398-0.003906 8.5039-1.7305 11.574-4.8008 3.0703-3.0703 4.7969-7.2344 4.8008-11.574v-49.305c0-4.3438-1.7266-8.5078-4.7969-11.578-3.0703-3.0703-7.2344-4.7969-11.578-4.8008zm13.898 65.684c-0.007812 7.6719-6.2266 13.891-13.898 13.898h-49.305c-7.6719-0.011718-13.887-6.2266-13.898-13.898v-49.305c0.007812-7.6719 6.2266-13.895 13.898-13.898h49.305c7.6758 0 13.895 6.2227 13.898 13.898z"/>
  <path d="m307.07 425.36h-49.301c-4.3438 0.003906-8.5078 1.7305-11.578 4.8008-3.0703 3.0703-4.7969 7.2344-4.8008 11.578v49.305c0.003906 4.3398 1.7305 8.5039 4.8008 11.574 3.0703 3.0703 7.2344 4.7969 11.578 4.8008h49.301c4.3438-0.003906 8.5039-1.7344 11.574-4.8008 3.0703-3.0703 4.7969-7.2344 4.8047-11.574v-49.305c-0.003907-4.3438-1.7305-8.5039-4.8008-11.574-3.0703-3.0703-7.2344-4.7969-11.578-4.8047zm13.898 65.68v0.003906c-0.007812 7.6719-6.2266 13.887-13.898 13.898h-49.301c-7.6719-0.011719-13.891-6.2266-13.898-13.898v-49.305c0.003906-7.6719 6.2227-13.895 13.898-13.898h49.301c7.6758 0.003906 13.895 6.2266 13.898 13.898zm-13.898-65.68h-49.301c-4.3438 0.003906-8.5078 1.7305-11.578 4.8008-3.0703 3.0703-4.7969 7.2344-4.8008 11.578v49.305c0.003906 4.3398 1.7305 8.5039 4.8008 11.574 3.0703 3.0703 7.2344 4.7969 11.578 4.8008h49.301c4.3438-0.003906 8.5039-1.7344 11.574-4.8008 3.0703-3.0703 4.7969-7.2344 4.8047-11.574v-49.305c-0.003907-4.3438-1.7305-8.5039-4.8008-11.574-3.0703-3.0703-7.2344-4.7969-11.578-4.8047zm13.898 65.68v0.003906c-0.007812 7.6719-6.2266 13.887-13.898 13.898h-49.301c-7.6719-0.011719-13.891-6.2266-13.898-13.898v-49.305c0.003906-7.6719 6.2227-13.895 13.898-13.898h49.301c7.6758 0.003906 13.895 6.2266 13.898 13.898z"/>
  <path d="m401.36 425.36h-49.305c-4.3438 0.007812-8.5078 1.7344-11.578 4.8047-3.0703 3.0703-4.7969 7.2305-4.8008 11.574v49.305c0.007813 4.3398 1.7344 8.5039 4.8047 11.574 3.0703 3.0664 7.2305 4.7969 11.574 4.8008h49.305c4.3398-0.003906 8.5039-1.7305 11.574-4.8008 3.0703-3.0703 4.7969-7.2344 4.8008-11.574v-49.305c0-4.3438-1.7266-8.5078-4.7969-11.578-3.0742-3.0703-7.2383-4.7969-11.578-4.8008zm13.895 65.684c-0.007812 7.6719-6.2227 13.887-13.895 13.898h-49.305c-7.6719-0.011719-13.891-6.2266-13.898-13.898v-49.305c0.003906-7.6719 6.2227-13.895 13.898-13.898h49.305c7.6719 0.003906 13.891 6.2266 13.895 13.898zm-13.895-65.684h-49.305c-4.3438 0.007812-8.5078 1.7344-11.578 4.8047-3.0703 3.0703-4.7969 7.2305-4.8008 11.574v49.305c0.007813 4.3398 1.7344 8.5039 4.8047 11.574 3.0703 3.0664 7.2305 4.7969 11.574 4.8008h49.305c4.3398-0.003906 8.5039-1.7305 11.574-4.8008 3.0703-3.0703 4.7969-7.2344 4.8008-11.574v-49.305c0-4.3438-1.7266-8.5078-4.7969-11.578-3.0742-3.0703-7.2383-4.7969-11.578-4.8008zm13.895 65.684c-0.007812 7.6719-6.2227 13.887-13.895 13.898h-49.305c-7.6719-0.011719-13.891-6.2266-13.898-13.898v-49.305c0.003906-7.6719 6.2227-13.895 13.898-13.898h49.305c7.6719 0.003906 13.891 6.2266 13.895 13.898z"/>
  <path d="m495.64 425.36h-49.305c-4.3438 0.007812-8.5039 1.7344-11.574 4.8047-3.0703 3.0703-4.7969 7.2305-4.8047 11.574v49.305c0.007813 4.3398 1.7344 8.5039 4.8047 11.57 3.0703 3.0703 7.2344 4.8008 11.574 4.8047h49.305c4.3398-0.003906 8.5039-1.7305 11.574-4.8008 3.0703-3.0703 4.7969-7.2344 4.8008-11.574v-49.305c0-4.3438-1.7266-8.5078-4.7969-11.578-3.0703-3.0703-7.2344-4.7969-11.578-4.8008zm13.898 65.684c-0.007812 7.6719-6.2266 13.891-13.898 13.898h-49.305c-7.6719-0.011719-13.887-6.2266-13.898-13.898v-49.305c0.007812-7.6719 6.2266-13.895 13.898-13.898h49.305c7.6758 0 13.895 6.2227 13.898 13.898z"/>
  <path d="m533.19 206.98c-4.2539-8.2461-11.883-14.234-20.902-16.414-31.785-9.0508-65.484-9.2969-95.199-9.5195l-8.207-0.0625c-21.41-0.16016-43.539-0.32422-65.309-0.023438-8.8516 0.11328-17.418 0.30859-25.477 0.58203-18.137 0.60938-34.637 1.625-50.445 3.0859l-2.418 0.22266c-13.043 1.1641-27.832 2.4805-36.746 13.5-5.3828 6.9883-8.9531 15.199-10.387 23.902-3.5039 20.148-1.9961 40.848 4.3867 60.277 1.2266 3.8945 2.418 7.1914 3.6562 10.141v214.05c0.007813 5.3672 2.1406 10.516 5.9375 14.312 3.793 3.7969 8.9414 5.9336 14.309 5.9414h93.254c3.4375 6.8867 5.293 14.449 5.4297 22.145-0.13281 1.6562-0.87109 3.2109-2.0703 4.3633 0 0-29.629-14.988-34.242 5.2695-3.1133 13.613 29.219 16.043 37.129 7.4375 3.2148-4.7812 5.1953-10.285 5.7539-16.016 1.168-7.0938 1.4531-14.301 0.85547-21.461-0.050782-0.58203-0.12891-1.1641-0.23438-1.7383h46.152c2.418 8.5039 6.3828 23.902 5.2578 29.469-2.7773 13.676 37.168 19.117 40.094 4.2148 2.9141-14.902-30.41-15.844-31.973-9.1992v0.003906c-0.88281-8.2852-2.4766-16.477-4.7617-24.488h99.961c5.3672-0.007812 10.512-2.1445 14.305-5.9414 3.793-3.8008 5.9258-8.9453 5.9297-14.312v-266.88c2.457-1.9297 4.3789-4.457 5.5781-7.3398 1.9258-4.3281 2.9492-9 3.0117-13.738 0.019532-4.0742-0.87891-8.1055-2.6289-11.789zm-8.4414 299.74v0.003906c-0.003906 4.707-1.875 9.2266-5.2031 12.559s-7.8398 5.207-12.551 5.2188h-260.61c-4.7109-0.007812-9.2266-1.8828-12.559-5.2148-3.332-3.3359-5.2031-7.8516-5.207-12.562v-208.79c2.6172 5.5898 6.707 10.363 11.828 13.809 2.9219 1.7852 6.2852 2.707 9.707 2.668 2.3516-0.019531 4.6914-0.375 6.9414-1.0547 6.0938-1.9336 11.57-5.4453 15.871-10.18h34.105-0.003907c4.3438-0.003907 8.5039-1.7344 11.574-4.8047 3.0703-3.0664 4.7969-7.2305 4.8047-11.57v-23.074c4.1562 0.57422 8.3906-0.027344 12.223-1.7344v24.809c0.007813 4.3398 1.7344 8.5039 4.8047 11.57 3.0703 3.0703 7.2305 4.8008 11.574 4.8047h49.305c4.3398-0.003907 8.5039-1.7344 11.57-4.8047 3.0703-3.0664 4.8008-7.2305 4.8047-11.57v-37.926c0.67578-0.0625 1.3594-0.0625 2.0352 0 3.9922 0.76172 7.5977 2.8789 10.203 6v31.926c0.003906 4.3398 1.7305 8.5039 4.8008 11.574 3.0703 3.0703 7.2344 4.7969 11.574 4.8008h49.293c4.3438-0.003907 8.5078-1.7305 11.578-4.8008 3.0742-3.0703 4.8047-7.2305 4.8125-11.574v-46.008c2.6523 1.4531 5.6758 2.082 8.6875 1.8086 1.4023-0.17188 2.7656-0.58203 4.0312-1.2148zm-249.71-206.02c4.7148-7.2188 7.9336-15.309 9.457-23.793 1.4102-7.2305 3.9258-14.199 7.4531-20.664 1.5117-3.043 4.3008-5.2461 7.6094-6.0156 3.7305-0.33594 6.6953 2.6016 9.8438 5.7266 1.1523 1.1406 2.3438 2.3164 3.582 3.3359 2.3359 1.8945 5.0625 3.25 7.9844 3.9688v23.543c-0.007812 7.6719-6.2266 13.887-13.898 13.898zm63.113-13.898v-26.16c0.65234-0.41016 1.2812-0.85938 1.8828-1.3398 4.1758-3.9141 7.5234-8.6211 9.8594-13.848 0.73047-1.3867 1.4648-2.7773 2.2305-4.1289 3-5.293 7.9961-11.742 14.754-12.348 7.1289-0.64453 12.609 4.8711 18.41 10.723 5.7148 5.7656 11.617 11.715 19.488 11.715h0.27344v0.003906c2.4102-0.14062 4.793-0.58984 7.0898-1.3398 1.0547-0.29688 2.0938-0.59375 3.1133-0.81641v37.539h-0.003906c-0.007812 7.6719-6.2227 13.887-13.895 13.898h-49.305c-7.6719-0.011719-13.891-6.2266-13.898-13.898zm94.293 0v-29.418c1.1641 1.2031 2.3555 2.418 3.5938 3.5195h0.003907c5.9922 5.5742 14.043 8.3945 22.203 7.7734 4.1016-0.37891 8.0312-1.8438 11.383-4.2383 3.3555-2.3945 6.0078-5.6406 7.6953-9.3984 1.1562-3.0586 1.9414-6.2422 2.3438-9.4844 0.27344-1.5977 0.54688-3.25 0.90625-4.8242 0.66406-4.4219 3.2695-8.3125 7.1016-10.613 4.1016-1.7617 9.2344-0.19922 15.695 4.7852l0.50781 0.39844c1.7852 1.3867 3.6836 2.8398 5.6641 4.0898l0.003906 47.41c-0.011719 7.6758-6.2344 13.891-13.91 13.898h-49.293c-7.6719-0.007813-13.891-6.2266-13.898-13.898zm98.09-55.281c-1.6523 4.4297-5.4805 7.6875-10.117 8.6172-5.3945 0.64453-10.289-3.1367-15.027-6.8047l-0.50781-0.38281c-7.2383-5.5898-13.191-7.2539-18.188-5.0938l0.003907-0.003906c-4.6406 2.5195-7.8125 7.0898-8.543 12.32-0.38281 1.6484-0.65625 3.3477-0.92969 4.9844-0.375 3.0469-1.1094 6.0391-2.1836 8.9141-3.1211 6.7852-9.6094 11.406-17.047 12.137-7.4688 0.55078-14.828-2.0391-20.305-7.1523-1.2891-1.1523-2.5781-2.4805-3.832-3.7578-3.4102-4.5234-8.3281-7.6758-13.859-8.8867-2.9023-0.11328-5.8008 0.32031-8.543 1.2773-2.0898 0.69141-4.2617 1.1133-6.457 1.25-7.0547 0-12.348-5.332-17.953-10.984-5.9492-6-12.102-12.211-20.395-11.457-6.1992 0.57031-11.965 5.2695-16.688 13.613-0.78125 1.3633-1.5234 2.7773-2.2695 4.1914h0.003907c-2.1953 4.9219-5.332 9.3672-9.2383 13.078-3.4141 2.668-7.625 4.1172-11.957 4.1133-4.3359 0-8.543-1.4531-11.957-4.125-1.1406-0.94141-2.293-2.0703-3.3984-3.1719h0.003906c-2.7695-3.8164-7.1094-6.1797-11.816-6.4336-4.1211 0.75391-7.6406 3.4102-9.4961 7.1641-3.668 6.6875-6.2812 13.902-7.75 21.387-1.418 8.0977-4.4492 15.828-8.9102 22.734-7.4141 9.8945-21.82 16.512-31.426 10.586l-0.003906 0.003906c-5.2617-3.6289-9.3672-8.6992-11.812-14.605-0.48438-0.99219-0.95312-2.0195-1.4023-3.0859-1.3984-3.3242-2.6289-6.7188-3.6836-10.168-6.2578-19.031-7.7422-39.309-4.3125-59.047 1.3555-8.3086 4.75-16.152 9.8789-22.824 8.2461-10.215 22.477-11.48 35.035-12.594l2.4297-0.21094c15.746-1.4766 32.195-2.4805 50.297-3.0859 8.0352-0.27344 16.586-0.47266 25.426-0.58203 8.7773-0.125 17.629-0.17188 26.457-0.17188 13.031 0 26.047 0.097656 38.805 0.19922l8.1953 0.0625c29.566 0.22266 63.078 0.47266 94.543 9.4219v-0.007813c8.3281 1.9961 15.387 7.5039 19.34 15.102 3.3242 7.5078 3.1719 16.094-0.41016 23.48z"/>
 </g>
</svg>
