<?xml version="1.0" encoding="UTF-8"?>
<svg fill='black' version='1.1' height='200' width='200' viewBox='125 125 500 500' xmlns='http://www.w3.org/2000/svg'>
 <defs>
  <clipPath id="a">
   <path d="m139.21 183h473.58v386h-473.58z"/>
  </clipPath>
 </defs>
 <g clip-path="url(#a)">
  <path d="m612.32 410.57-3.7852-7.5781-0.47656-1.8945 0.94922-2.8438 0.94531-4.7344v-3.3164l-0.47266-0.47266h-0.47266l-0.94922-1.418-0.47266-0.47656-0.47266-1.8945-0.47266-1.418v-1.4219l1.418-1.4219-2.3672-0.47266-5.207-0.94922-1.8945-0.94531v-0.47266h-0.94922l-0.47266 0.47266-3.7891 0.94531h-0.94531l-0.47656-0.47266-0.47266-0.47266-0.94531-1.4219v-0.94531h-0.47656l-0.94531-0.47266 0.94531-1.8945h-1.418l-0.94922-0.47656v-0.94531l0.94922-1.4219-1.8945-2.3672 2.3672-3.7891 1.4219-0.94531 2.3672-2.3711 2.8398-2.3672v-0.94531l1.8945-1.8945 0.47266-1.4219v-0.94531l-8.5234-0.47656-2.8398-0.94531-0.94922-3.3164 1.4219-0.94531-6.1562-9.4727-1.4219-1.8945-2.3672-2.3672h-1.8945l-5.2109 1.4219h-1.418l-0.47656-0.94922v-0.94531l0.47656-1.8945v-0.47266l-0.47656-1.4219-0.47266-0.47266-1.418-0.47656v-1.418l-1.4219 0.47266h-0.94922l-8.9961-0.47266h-0.94922l2.3711 2.8398-0.47656 0.47266-2.3672-2.8398-1.4219-0.47266-10.418 0.47266-1.418-0.94922-2.8438-2.8398h-0.47266l-0.47266-0.47266-1.4219 0.94531v0.47656l-0.47266 0.94531-0.94922 0.94531h-0.47266l-0.94922 0.47656h-0.47266l-0.94531-0.47656-0.94922-0.47266-0.47266-0.47266h-0.94531l0.94531-2.8398 0.47266-1.8945v-2.3711l-1.418-0.47266h-0.47656l-1.418-0.94531h-0.94922l-0.47266-0.47656h0.47266l-2.3672-1.418-1.4219-2.8438-0.47266-0.47266v-1.4219l-0.47266-2.8398 1.8945-1.8945 7.1016-8.0508h0.47656l0.94531-0.47266 1.4219-0.47266 0.94531-0.47656 1.4219-2.3672 1.8945-4.7344 1.4219-1.4219v-0.94531l-0.94922-0.47656h-1.4219l-2.3672 0.47656 4.7383-7.5781 1.8945-4.7383-1.8945-2.3672 0.47266-1.418v-1.8945l0.47266-0.94922 0.94922-0.94531 1.418 1.418 0.94922-1.418 0.47266-1.4219 0.94531-2.3672-0.47266-0.94922v-1.418l-0.47266-0.47656h2.8398l0.94922-0.47266h0.47266l0.94922-0.47266-2.8438-3.3164 0.47266-1.8945 0.47656-0.94531 0.94531-0.94922v-0.94531l-1.4219-2.3672h-3.7891l-1.8906 0.47266-1.4219-0.94922-2.8438-3.7891-1.8945-1.418h-1.418l-2.3672 0.47266-2.8438 0.47266h-2.3672l-0.47266-0.47266-0.94922-0.47266-0.94531-1.4219-0.94922-0.47266-0.94531-0.94922-7.1055-1.8945-2.3672-2.3672-0.47266-4.2617-0.94922-4.2617-0.47266-0.47266-1.8945-2.3672-1.8945-0.94922-0.94531-0.47266-2.8438-0.47266-1.8945 0.94531h-0.47266l-5.207 3.7891-2.8438 0.94531-14.207-0.94531-4.7344 1.4219-2.3711-0.47656v-7.1016l-1.8906-2.8438h-2.3711l-4.7344 0.47656-1.8945-1.4219h-0.47266l-0.47266-0.94531-1.4219-4.7383-0.47266-1.4219-4.2656-4.7344-0.94531-1.8945 0.47266-2.3672v-1.8945l1.4219-3.3164 0.47266-3.3125-1.4219-2.8438-0.94531-1.418-3.7891-2.8438v-0.47266l-1.8945 0.47266-0.94531 1.4219v0.47266l-0.47656 1.4219-0.47266 0.94531-0.47266 0.94922-0.94531 1.8945-0.94922 1.418-0.94531 1.4219-1.8945 2.3672-1.4219 1.8945-1.4219 1.4219-2.8398 0.94531-2.3672-1.418-2.3711-0.94922-1.418-0.47266-0.94922-0.47266h-8.5234l-2.8398-1.4219 0.94531-1.8945 1.4219-0.47266 5.207 2.3672v-1.4219l-0.47266-1.8945-0.47266-0.94531 0.47266-1.8945v-1.4219l0.47266-1.418v-3.3164l-1.418-1.4219-1.4219-1.4219h-0.94922l-0.94531-0.47266-0.94922-0.47266h-1.8906l-3.7891 1.8945-9.4727 11.84-1.4219 0.94531-1.8945 0.47656h-1.8945l-3.7891-0.94922-2.8398 0.47266h-2.3672l-1.4219-0.94531-0.94531-0.47266v-0.94922l0.47266-0.94531 0.94531-2.8438v-2.8398l-0.94531-1.8945-1.4219-0.47266h-0.47266l-3.3164 0.94531-2.3672 0.94922-4.2617 1.418-6.6289 3.7891 1.8945 1.4219-0.47656 1.4219-0.94531 1.418v2.3711l0.94531 0.94531v0.47266l2.8438 3.7891 0.94531 1.4219-0.47266 2.8398v0.94922l-2.3672 0.94531h-5.6836l-0.94922-0.47266-1.418-0.47266-3.3164-1.8945-1.4219-0.47266-3.3125-0.47656 1.8945 2.3711 0.94531 1.8906 0.47266 1.8945-0.47266 4.2656 0.47266 1.418 0.94922 0.94922 4.2617 1.8945-1.8945 3.7891-0.94531 0.94531h-0.47656l-0.47266 0.47266 0.94922-1.418v-2.8438l-0.47656-1.4219-1.418-1.418-2.3711-2.3672-1.8906-2.3711-0.94922-3.3125-0.94531-1.8945-2.3711-2.3672v0.94531l-0.94531 4.2617v0.47266l-0.47266 1.4219-4.7383 6.6289-6.6289 5.2109-14.68 7.5781-5.2109 3.7891-0.47266 0.47266-0.94922 0.47266-1.8945 0.47266-14.68 0.47656-1.4219-0.94922-1.8945-1.8945v-4.2617l-0.47266-2.8398-2.3672-1.4219-15.156-4.7344-2.8398-0.47656h-3.3164l-4.7344 0.94922-2.3672 0.47266-1.4219 0.47266-1.4219 1.4219-0.47266 1.4219v0.47266l0.47266 2.8398v0.94922l-0.47266 0.94531h-0.94531l-4.7383 0.94922-1.418-0.47266h-2.8438l-1.4219-0.94922-1.418-0.47266-0.47656-0.47266-3.3125-3.3164-0.47266-1.4219-0.94922-3.3125v-4.2656l0.47266-5.207-0.47266-2.3672-0.94531-5.2109-27.469 9-24.625 16.574-25.574 14.68-16.574 12.789-4.7383 1.418-2.3672 1.8945 1.4219 3.7891 0.47266 0.47266 0.94531 7.1055v1.4219l1.4219 3.7891 4.2617 5.207 1.8945 2.8438 0.47266 3.7852v0.47656l-0.47266 0.94531-1.8945 1.4219-1.418 0.94531-0.47656 1.8945 0.94922 4.2617 1.418 4.2656v1.418l-0.94531 1.8945v1.4219l0.47266 0.47266 0.94922 0.47266h0.47266v0.47656l0.47266 0.47266 0.47266 1.4219 0.47656 0.94531 0.47266 0.94922 0.94531 0.47266 1.8945 0.47266h0.94922l2.3672-0.47266h0.94531l1.8945 0.94531 0.47656 0.94922 0.47266 1.418 0.94531 1.4219 4.2617 4.2617 0.94922 1.4219 2.3672 4.7344v0.47656l1.8945 1.418 0.47266 0.47656 0.94922 0.47266 8.9961 3.7891v0.47266h0.94922l0.94531 0.47266h0.47266l1.4219-0.94531 2.3672-3.7891 1.4219-2.8438 0.94922-0.94531 1.418-1.4219 1.4219-0.94531 1.4219-0.94922 5.207-1.418 1.4219-0.47656v-0.47266h0.47266l3.3164-0.94531 6.1562-1.8945h0.47266l2.3672 0.94531 2.3711 1.8945 1.8945 3.3164v0.47266l-0.47656 0.47266 0.47656 0.47266 1.418 2.3711 1.4219 3.7852 0.94531 0.94922 1.8945 0.47266 1.4219 0.47266 0.94922 1.4219 0.94531 2.8438 0.47266 1.8945-0.94531 1.418-0.94922 1.8945 0.94922 5.6836 3.3125 10.418 0.47656 6.1562 0.47266 2.3672 0.47266 0.47656 1.4219 1.8945 1.8945 1.418 5.207 2.8438 2.3711 0.47266h1.8945l0.94531-0.47266 1.4219-0.47266 3.7891-1.4219 1.418-0.94922h0.47656l2.3672-2.3672h1.8945l1.418 0.47266h0.47656l0.94531 1.4219-0.47266 1.4219-0.94922 1.8945 1.4219 1.418h8.0508l2.3672 0.47656 2.8438 1.418 2.3672 2.3711 1.8945 3.7891 1.4219 7.5742v9l0.94531 8.0508 4.2617 3.7891 0.47266-1.4219h0.47656l0.94531-0.94531v-0.47656l0.47266-0.94531 2.3711-3.7891 0.94531-0.94922 0.94922-0.47266 0.47266-0.47266 5.6836-0.47266 4.7344 0.94531 2.8398 1.4219 0.94922 0.47266 0.94531 0.94922 1.8945 0.47266 0.47656 0.47266h2.8398l2.3672-1.4219 5.2109-1.8945 1.418-0.47266h0.94922l2.3672 0.94922 4.2617 4.7344 0.94922 0.47266 1.418 0.94922 2.8438 2.3672 0.47266 1.8945 2.3672 5.2109 0.94922 0.47266 1.418 0.47266 0.94922-0.47266v-2.8438l1.8945-0.47266 0.94531 0.47266 0.47656 0.47656 0.94531 0.47266 1.8945 1.4219 0.47266 1.418v1.8945l-0.94531 0.94922h-0.47266l-2.8438 2.3672-0.94531 1.8945v0.47266l-0.94922 1.4219-0.47266 3.3125-0.94922 2.8438-1.418 4.7344v0.47266l-0.47656 3.3164 0.94922 0.47266h0.94531l2.3711-0.94531h1.418l0.94922 0.47266 2.3672 8.0508v0.94922l0.47266 0.94531 0.94922 1.8945v0.94531l-1.4219 0.94922-1.4219 0.47266-0.94531 0.94922-1.8945 0.94531-3.3164 3.3164-0.47266 1.418-0.47266 1.8945 0.47266 0.47656 0.47266 1.418 0.47266 1.4219v2.8398h-0.94531l6.6289 3.7891h0.47656l1.418 0.47656 5.6836-0.94922 3.7891-0.47266 3.3164 0.94531 14.68 4.2656 1.4219 0.47266 3.7891-0.94922 12.785-6.1562 4.2617-2.3672 5.2109-0.94531h0.47266l0.94531-0.94922 0.47656-1.8945 0.94531-2.8398 0.94922-4.2617v-3.7891l-0.47656-0.47656v-3.3125l0.94922-1.4219 13.258-13.262 3.3164-1.418 0.47266 2.8398 1.4219 0.47266 3.7891-0.94531 0.94531 1.8945v3.3164l-0.47266 3.7852-0.47266 1.4219v1.8945l-1.4219-1.4219-0.47266 0.47656-1.8945 3.3125-0.47266 1.4219v5.2109l-1.4219 3.3125-3.7891 8.5234-0.47266 3.3164 1.4219 2.8438 2.8398 0.94531 3.3164 1.4219 1.8945 3.3125v4.2656l-0.47656 0.47266-0.47266 0.94531-0.47266 1.4219v0.94531l-0.47266 0.47656v0.47266l-0.94922 1.4219v1.8945l1.4219 1.8945v8.5234l1.4219 1.418h0.94531l1.8945 0.47656 0.94922-0.47656h1.8945l5.6797-1.8906h1.4219l0.94922-0.47656 0.47266 0.47656 1.8945 0.47266 4.2617 4.2617 2.3672 1.4219 3.7891 0.94531 0.47266 0.47266 1.8945 1.4219 1.8945 2.8398 3.3164 4.7383 0.94531 0.94531 0.94922 0.47656 2.3672 1.8906 2.8398 0.47656 3.3164-0.94922 1.8945-0.47266h2.8398l2.3672 2.8398 2.3711 2.8438 0.94531 2.8398-0.47266 0.47656-0.94922 0.47266-0.47266 2.8398 0.47266 0.94922v0.94531l0.47656 0.94922h2.8398l0.47266-0.94922 0.47656-0.94531 0.47266-0.47656h0.94531l0.94922 0.47656 0.47266 0.47266 3.7891 1.4219 2.3672 1.8945 5.6836 10.891 0.47266 1.8945v1.4219l-0.47266 1.8945v2.3672l0.47266 1.418 2.8438 0.47656 0.94531-0.47656 2.3672-1.418 1.4219-0.94922 1.8945-1.418h0.47266l1.8945-0.94922 4.7344 2.3672 0.94922-0.47266h0.94531v-0.47266h0.47656v-1.4219l1.8945-1.8945 2.8398-1.4219 2.8398 0.47656 2.3711 0.94531 2.8398 0.47266 1.4219-0.47266 2.8398-2.8398h1.4219l2.8398 1.8945h0.47656l1.418 0.47266 2.3672-1.4219 2.8438-3.3125 0.94531-1.4219 0.47656-1.4219-0.94922-0.47266-0.94531-0.47266 1.418-1.4219 0.94922-1.8945 0.47266-1.8945 0.94531-2.3672 0.94922-1.4219 0.94531-0.94531 0.94922-1.8945-0.47266-0.94922-0.47656-1.418-0.94531-0.47656-2.3672-0.47266-0.47266-0.47266-0.47656-0.94922v-1.418l0.47656-0.47656v-2.3672l0.94531-0.94531v-1.8945l-0.94531-0.94922h-2.3711l-0.94531-1.418-1.8945-0.47656-0.47266-0.47266v-2.8398l-0.47656-0.94922-1.8906-4.2617-0.94922-1.4219-1.8945-1.8945h-0.47266l-2.8438-0.94531-0.94531-2.3672-0.47266-0.94922-0.47656-0.94531v-2.3672l0.47656-1.8945 1.418-0.94922-0.94531-0.94531v-0.94922l0.47266-0.47266v-1.4219l3.3164 0.47656-1.4219-1.8945-1.8945-1.4219-0.47266-0.47266-1.4219-0.94922v-0.94531l0.47266-0.47266 1.4219-2.8438 2.8438-4.7344v-0.94922h0.47266v-0.94531l0.47266-0.94922v-0.47266h0.47266l0.47656-0.94531 0.94531-0.94922 1.8945-0.47266 0.47266-0.47266 0.47266-0.47656 1.4219-2.3672-0.47266-0.94531-0.94922-1.4219 0.47656-2.3672 0.47266-0.94922 2.3672-0.94531 0.94922-0.94922v-0.47266l0.47266-1.418v-3.7891l0.47266-0.94922v-0.47266l1.8945-1.4219 0.47266-0.94531 0.47266-0.47656v-1.418l0.47656-0.94922v-1.8945l0.47266-0.94531 0.94531-0.94922 1.4219-1.418 4.2617-1.8945 1.8945-1.8945 0.94922-2.8438v-0.47266l0.47266-1.8945 1.4219-1.8945h0.94531l1.4219-0.47266 1.8945-1.4219 0.94531 0.94922v1.8945l0.94922 1.418 0.94531 0.47656h1.8945l2.8438-0.47656 0.94531-0.47266 0.94531-0.94531h0.94922l1.4219 1.418h0.47266v3.7891l0.47266 0.94922v0.47266l1.8945 0.94922 0.94922-1.4219 0.47266-0.94922-0.47266-1.418-1.4219-0.94922 0.47266-0.94531v-0.94922l0.47266-0.94531v-0.47266l0.94922-0.47656h0.47266l2.3672-0.47266 0.47266-0.47266h0.47656l0.47266-1.8945v-2.3672l-0.47266-1.4219v-0.47266l-1.4219-1.8945 0.94531-1.8945 0.47656-0.47266 2.3672-1.4219 0.47266-0.47266 0.47266-1.4219 2.8438-1.4219h1.8945l2.8398-0.94531 2.3672-1.8945-0.47266-1.8945 0.47266-1.8945 0.94922-1.8945 0.47266-0.47266 0.47266-0.94922 0.94922-0.47266 0.47266-0.47266h1.8945l0.94531 0.47266 1.8945 0.47266 3.3164-0.94531 1.4219-1.4219z"/>
 </g>
</svg>
