<?xml version="1.0" encoding="UTF-8"?>
<svg fill='black' version='1.1' height='200' width='200' viewBox='125 125 500 500' xmlns='http://www.w3.org/2000/svg'>
 <g>
  <path d="m476.4 318.7v-52.094-0.47266-0.94531c0-33.625-27.469-60.617-60.617-60.617-4.7344 0-8.9961 0.47266-13.262 1.4219-14.207-21.312-38.832-34.57-64.879-34.57-33.625 0-62.512 20.836-73.879 51.148-35.992-1.4219-65.828 27.941-65.828 63.461v88.086c0 26.52 19.418 48.777 44.988 53.043v82.875c0 39.309 31.73 71.039 71.039 71.039h91.402c37.414 0 68.195-29.363 71.039-66.301 43.57-0.94531 78.613-36.465 78.613-80.508v-34.57c-0.47656-44.059-35.523-79.578-78.617-80.996zm-250.53 55.406v-88.086c0-19.418 15.629-35.047 35.047-35.047 2.8398 0 5.6836 0.47266 8.9961 1.4219 3.7891 0.94531 8.0508 0.47266 11.367-1.8945s5.6836-5.6836 6.1562-9.4727c4.2617-23.68 25.102-41.203 49.254-41.203 19.418 0 37.414 11.367 45.465 29.363 1.4219 3.3164 4.2617 6.1562 8.0508 7.5781 3.7891 1.4219 7.5781 0.94531 10.891-0.47266 4.2617-1.8945 8.9961-3.3164 13.734-3.3164 17.996 0 32.203 14.68 32.203 32.203 0 17.996-14.68 32.203-32.203 32.203-8.9961 0-17.523-3.7891-23.68-10.418-2.3672-2.8398-6.1562-4.2617-9.9453-4.7344-3.7891 0-7.5781 1.4219-10.418 3.7891-9.4727 8.9961-21.785 13.734-34.57 13.734-8.5234 0-16.574-1.8945-24.152-6.1562-3.3164-1.8945-7.5781-2.3672-11.367-0.94531s-6.6289 4.2617-8.5234 7.5781c-2.3672 5.2109-6.1562 9.9453-10.891 13.734-3.7891 2.8398-5.6836 7.1055-5.6836 11.367v48.777c0 13.734-11.367 25.102-25.102 25.102-13.262-0.003907-24.629-11.371-24.629-25.105zm179.49 178.07h-91.875c-23.68 0-42.621-18.941-42.621-42.621v-85.719c19.891-7.5781 34.098-26.992 34.098-49.727v-42.148c2.3672-2.3672 4.7344-5.2109 7.1055-7.5781 8.0508 2.8398 16.574 4.2617 25.102 4.2617 15.629 0 30.781-4.7344 43.57-13.262 9.9453 7.1055 22.258 10.891 34.57 10.891 11.84 0 23.207-3.3164 32.203-9.4727v193.22c0.46875 23.211-18.945 42.152-42.152 42.152zm120.76-118.39c0 27.941-22.258 50.672-49.727 52.094l0.003906-138.76c27.469 0.94531 49.727 24.152 49.727 52.094z"/>
  <path d="m324.38 410.1c-8.0508 0-14.207 6.1562-14.207 14.207v89.98c0 8.0508 6.1562 14.207 14.207 14.207 8.0508 0 14.207-6.1562 14.207-14.207v-89.98c0-7.5742-6.1562-14.207-14.207-14.207z"/>
  <path d="m391.16 343.8c-8.0508 0-14.207 6.1562-14.207 14.207v156.28c0 8.0508 6.1562 14.207 14.207 14.207s14.207-6.1562 14.207-14.207v-156.28c0-7.5742-6.6289-14.207-14.207-14.207z"/>
 </g>
</svg>
