<?xml version="1.0" encoding="UTF-8"?>
<svg fill='black' version='1.1' height='200' width='200' viewBox='125 125 500 500' xmlns='http://www.w3.org/2000/svg'>
 <defs>
  <clipPath id="a">
   <path d="m182 139.21h388v473.58h-388z"/>
  </clipPath>
 </defs>
 <path d="m448.67 257.89c0.10156-0.019531 10.129-1.5977 16.992 3.1719 0.65234 0.45312 1.4023 0.67188 2.1367 0.67188 1.1914 0 2.3594-0.5625 3.0898-1.6172 1.1836-1.707 0.76172-4.0469-0.94531-5.2305-9.4805-6.5781-22.035-4.5-22.562-4.4062-2.043 0.35547-3.418 2.3008-3.0586 4.3438 0.35938 2.0547 2.3125 3.418 4.3477 3.0664z"/>
 <path d="m368.79 261.06c6.9023-4.7891 16.859-3.1914 16.996-3.1719 2.0586 0.35938 3.9844-1.0195 4.3359-3.0586 0.35156-2.043-1.0156-3.9922-3.0586-4.3438-0.53125-0.09375-13.078-2.1719-22.562 4.4062-1.707 1.1797-2.1289 3.5273-0.94531 5.2305 0.73047 1.0508 1.8984 1.6172 3.0898 1.6172 0.74219-0.003906 1.4883-0.22266 2.1445-0.67969z"/>
 <g clip-path="url(#a)">
  <path d="m566.5 588.94c-0.015625-0.125-0.035156-0.24219-0.0625-0.36328-20.566-113.77-83.715-152.27-122.6-165.22v-25.738c24.898-8.957 44.535-28.48 52.793-42.055 2.2539-3.707 4.3711-8.1719 6.3242-13.242 11.16-0.13281 21.684-8.1875 26.285-20.523 3.7695-10.102 2.6953-20.477-2.0625-28.023 1.25-2.1328 2.3242-4.7031 2.3242-7.6992 0-1.2227-0.12891-2.4297-0.37891-3.6133 4.7383-3.418 7.6641-9.1914 7.6641-15.535 0-2.7969-0.64453-5.5-1.8789-7.9805 4.1094-3.1992 6.6055-8.1211 6.6055-13.434 0-4.4258-1.7031-8.5625-4.6992-11.684 2.2695-2.9844 3.5195-6.6055 3.5195-10.406 0-5.6133-2.7305-10.801-7.1836-14.055 0.56641-1.6406 0.85937-3.3633 0.85937-5.1133 0-8.3203-6.4922-15.172-14.723-15.859 0.050782-0.47656 0.074219-0.95703 0.074219-1.4414 0-7.1016-5.3984-12.977-12.348-13.828-0.085938-9.0664-7.5664-16.414-16.75-16.414-0.81641 0-1.6289 0.0625-2.4297 0.18359-1.5898-5.4648-6.6875-9.4766-12.711-9.4766-1.5352 0-3.0508 0.27344-4.4883 0.80078-2.3359-3.2305-6.1289-5.2539-10.324-5.2539-3.2305 0-6.2578 1.2227-8.5898 3.2188-2.7227-2.7305-6.5938-4.4375-10.695-4.4375-2.6758 0-5.2656 0.76172-7.4766 2.1406-2.4688-2.8906-6.1367-4.6758-10.105-4.6758-2.3516 0-4.5273 0.60937-6.4688 1.7031-1.9414-1.0938-4.1211-1.7031-6.4688-1.7031-3.9727 0-7.6406 1.7852-10.102 4.6758-2.2148-1.3789-4.8008-2.1406-7.4766-2.1406-4.1055 0-7.9766 1.707-10.695 4.4375-2.332-1.9961-5.3555-3.2188-8.5898-3.2188-4.1953 0-7.9922 2.0273-10.324 5.2539-1.4375-0.52734-2.9531-0.80078-4.4883-0.80078-6.0234 0-11.121 4.0078-12.711 9.4766-0.80469-0.12109-1.6172-0.18359-2.4336-0.18359-9.1836 0-16.664 7.3477-16.75 16.414-6.9492 0.84766-12.348 6.7227-12.348 13.828 0 0.48438 0.027343 0.96484 0.074218 1.4414-8.2344 0.6875-14.723 7.5391-14.723 15.859 0 1.75 0.29297 3.4727 0.85938 5.1133-4.4531 3.2539-7.1836 8.4453-7.1836 14.055 0 3.8008 1.25 7.4219 3.5195 10.406-2.9961 3.125-4.6992 7.2617-4.6992 11.684 0 5.3125 2.4961 10.238 6.6055 13.434-1.2383 2.4805-1.8789 5.1836-1.8789 7.9805 0 6.3398 2.9258 12.121 7.6641 15.535-0.25 1.1797-0.37891 2.3906-0.37891 3.6133 0 2.8516 0.94922 5.2617 2.0742 7.2695-5.0039 7.5781-6.1992 18.152-2.3555 28.457 4.5703 12.258 15.547 20.512 26.855 20.641 1.9922 4.9609 4.1445 9.3828 6.4258 13.129 8.2812 13.609 28 33.211 53.164 42.133v25.66c-15.336 5.1094-34.43 14.203-53.223 30.301l-3.3242-3.7227c-11.293-11.941-25.785-20.395-41.559-24.547-0.11328-0.027343-0.21094-0.070312-0.32422-0.085937-7.1875-1.8633-14.633-2.832-22.16-2.832-7.6797 0-15.129 0.98828-22.23 2.832-21.344 5.5312-39.516 18.836-51.242 36.641-0.074219 0.12109-0.16406 0.21875-0.22656 0.34766-8.7734 13.438-13.887 29.422-13.887 46.566 0 20.586 7.3477 39.5 19.574 54.359 0.10156 0.12891 0.18359 0.26562 0.30469 0.37891 9.4688 11.375 21.824 20.312 35.941 25.75 0.10547 0.050782 0.20703 0.082032 0.31641 0.125 8.832 3.3633 18.348 5.3516 28.281 5.7031-0.70703 4.3633-1.3672 8.8047-1.9453 13.383-0.13672 1.0703 0.19531 2.1445 0.91016 2.957s1.7383 1.2734 2.8203 1.2734h297.17c1.0781 0 2.1094-0.46094 2.8203-1.2734 0.71094-0.8125 1.043-1.8867 0.91016-2.957-0.86719-6.8008-1.9023-13.301-3.0391-19.625zm-236.82-38.945c1.9961 4.3203 4.6211 7.9648 8.1328 9.8906 3.0977 1.7031 8.2305 2.8555 15.109-1.2656 21.309-12.777 70.613-2.7891 97.223 14.02 15.555 9.8164 31.641 4.9336 44.133-3.5781-2.8242 3.0312-6.293 5.9414-10.535 8.3438-12.008 6.8047-27.34 8-45.672 3.6094-0.16406-0.050781-0.34375-0.09375-0.51953-0.125-3.1875-0.77734-6.4648-1.7305-9.832-2.8438-72.371-24.008-93.195 8.6914-94.047 10.09-0.35156 0.57813-0.54297 1.2461-0.54688 1.9297l-0.082032 15.219h-5.8438zm116.06 11.555c0.72656 0.007813 1.4414 0.019531 2.1914 0.019531 12.957 0 29.934-1.3438 50.477-5.6719-9.7539 9.2227-27.164 21.176-44.25 10.387-2.6289-1.6602-5.4805-3.2266-8.418-4.7344zm-28.496 21.117c-32.23 4.582-64.324 16.031-76.672 20.754l0.066407-12.113c3.3633-4.1836 22.727-24.086 76.605-8.6406zm19.281 5.707c20.152 4.793 37.246 3.3164 50.918-4.4219 8.957-5.0703 14.93-11.988 18.828-18.234l1.7773 39.566-150.3-0.007812c19.715-6.6602 51.121-15.73 78.777-16.902zm75.16-69.652c-0.09375-2.0742-1.9062-3.7383-3.9258-3.5859-2.0742 0.089844-3.6797 1.8477-3.5859 3.9258l1.2383 27.535c-50.5 12.172-81.168 5.7891-85.195 4.8281-26.031-7.6992-54.746-9.0977-71.168 0.75-4.6211 2.7734-6.8828 1.5312-7.6172 1.125-6.9805-3.8281-10.062-23.195-10.363-34.512-0.007812-0.21875-0.097656-0.41016-0.14062-0.61719-0.050781-0.23828-0.066406-0.47656-0.15625-0.69922-0.09375-0.23438-0.24609-0.42188-0.38281-0.62891-0.12891-0.19141-0.23438-0.39453-0.39453-0.5625-0.17188-0.17578-0.38672-0.29688-0.58984-0.4375-0.19141-0.13281-0.35938-0.28125-0.57031-0.375-0.24219-0.10547-0.50781-0.13672-0.76562-0.19141-0.19922-0.042969-0.375-0.13672-0.58594-0.14844-0.03125-0.003906-0.054688 0.015625-0.085938 0.011719-0.03125 0-0.050781-0.015625-0.082031-0.015625-0.035156 0-0.066406 0-0.10156 0.003906-0.16797 0.003906-0.30859 0.082031-0.46875 0.10938-0.29297 0.046875-0.57422 0.078125-0.84375 0.19141-0.24219 0.097657-0.4375 0.25-0.64844 0.39844-0.17188 0.12109-0.35156 0.21484-0.50781 0.35938-0.22266 0.21094-0.37891 0.46094-0.54688 0.72266-0.10156 0.15234-0.21875 0.29297-0.29297 0.46094-0.11328 0.25-0.14844 0.52734-0.20703 0.80078-0.039062 0.18359-0.13281 0.34766-0.14062 0.54688l-3.1289 69.609c-23.215 6.7109-38.98 1.2227-44.48-1.3477 2.9609-15.617 6.7266-29.781 11.152-42.547 19.98-1.1406 28.656-15.027 36.395-30.457 6.9688-13.898 1.1797-28.25-1.5742-33.699 5.6094-6.8633 11.398-12.875 17.246-18.16 0.15625-0.10156 0.33594-0.14844 0.47656-0.27734 0.15234-0.14063 0.23438-0.32422 0.35938-0.48047 18.344-16.348 37.145-25.508 52.246-30.633 2.8672 5.8633 10.25 17.023 24.961 17.023 7.1992 0 12.637-2.6797 16.656-6.0977 9.75 4.7266 48.707 25.098 67.738 57.082 0.67578 1.1406 1.9062 1.8359 3.2305 1.8359h22.012c13.484 22 24.848 50.348 31.723 86.844-5.3281 2.4922-20.504 7.6758-43.758 0.91797zm-321.61-7.4688 4.1562 2.5625 11.539 34.988-1.8398 4.5078c-8.375-12.047-13.379-26.5-13.855-42.059zm11.719-43.461 7.3359 0.5 0.96484 21.348-13.559 16.766-6.2617-3.8633c1.0312-12.668 5.1172-24.465 11.52-34.75zm10.922 78.059-11.125-33.73 13.633-16.859 19.883 6.3672 10.992 33.352-12.258 16.629zm33.02-100.11 20.516 7.5859v20.504l-28.832 20.648-19.863-6.3672-0.97266-21.48zm48.543 0.003907 29.406 21.055c-7.3633 7.8984-14.508 17.023-21.18 27.605l-28.73-20.582v-20.504zm22.496 64.859c-6.6641 13.297-13.062 23.797-26.793 25.98 4.9453-12.883 10.562-24.277 16.617-34.375 0.046875-0.054687 0.11719-0.074219 0.15625-0.13672 0.10938-0.14844 0.13672-0.33203 0.22266-0.48828 3.1328-5.1836 6.375-10.035 9.707-14.551 2.1758 5.582 4.4375 14.902 0.089844 23.57zm-63.781 21.285-10.48-31.812 27.5-19.695 28.289 20.262 0.30859 0.22266c-5.3789 9.2773-10.383 19.59-14.875 31.027h-30.742zm-0.81641 7.5156h28.75c-3.7891 10.59-7.1719 22.043-9.9883 34.539l-18.965 0.03125-12.031-17.961zm-0.875 42.086 18.062-0.027343c-0.41016 2.0352-0.8125 4.0977-1.1953 6.1875-7.1172-0.16016-14.008-1.2266-20.555-3.1094zm270.71-88.434h-15.066c-19.465-31.168-55.211-50.938-67.801-57.203 1.3281-1.8711 2.3281-3.6602 3.0391-5.125 22.934 7.7773 54.395 24.879 79.828 62.328zm0.17969-173.89c-3.0352 8.1523-9.5312 13.914-16.5 15.273 3.7812-11.984 6.7461-26.516 8.6016-42.516 8.6289 4.2812 12.141 15.879 7.8984 27.242zm-217.52-52.242c0-3.1055 1.3672-5.4141 2.5156-6.8086 0.74609-0.91016 1.0312-2.1211 0.75-3.2656-0.27344-1.1484-1.0742-2.1016-2.1562-2.5703-3.543-1.5391-5.8359-4.9844-5.8359-8.7695 0-3.3281 1.75-6.3711 4.6914-8.1406 1.0586-0.64062 1.7383-1.7578 1.8086-2.9922 0.074219-1.2344-0.46094-2.4297-1.4375-3.1914-2.4648-1.9297-3.8828-4.7617-3.8828-7.7695 0-3.9297 2.3789-7.5078 6.0664-9.1133 1.0195-0.44531 1.7852-1.3164 2.1016-2.3789s0.14844-2.2148-0.46484-3.1367c-0.90234-1.3672-1.3789-2.9375-1.3789-4.5391 0-5.5859 5.5039-10.07 11.562-7.8359 1.5547 0.58203 3.3008 0.058594 4.3008-1.2656 0.99609-1.3281 1.0117-3.1445 0.03125-4.4805-0.8125-1.1133-1.2422-2.3984-1.2422-3.7188 0-3.5352 2.9453-6.4141 6.5664-6.4141 0.50391 0 1.0469 0.082032 1.7188 0.26172 1.332 0.35547 2.75-0.035156 3.707-1.0391 0.94922-1 1.2773-2.4375 0.84766-3.7539-0.33984-1.0312-0.49219-1.8984-0.49219-2.7305 0-4.9922 4.1406-9.0508 9.2344-9.0508 1.3867 0 2.7812 0.34375 4.1406 1.0195 1.2539 0.62891 2.7461 0.46094 3.8828-0.36328 1.1367-0.82812 1.707-2.25 1.4961-3.6328-0.039062-0.24609-0.085937-0.48438-0.085937-0.73828 0-3.0742 2.5586-5.5742 5.7109-5.5742 1.7031 0 2.9492 0.75 3.6953 1.3828 0.99219 0.83984 2.3477 1.1055 3.5781 0.70703 1.2383-0.39453 2.1797-1.4023 2.4961-2.6602 0.57422-2.2891 2.6484-3.8867 5.043-3.8867 2.3555 0 4.5508 1.5 5.2148 3.5703 0.039063 0.11719 0.12891 0.19922 0.17188 0.3125 0.10156 0.24219 0.22266 0.45312 0.37109 0.66406 0.13672 0.19531 0.27734 0.36719 0.44531 0.53516 0.17188 0.16797 0.35938 0.3125 0.56641 0.44531 0.20703 0.13672 0.41406 0.24609 0.64453 0.33594 0.12109 0.050781 0.21094 0.14062 0.33984 0.17578 0.16797 0.050781 0.33984 0.046875 0.51172 0.070313 0.10156 0.015624 0.19531 0.035156 0.30078 0.042968 0.074218 0.003906 0.14844 0.03125 0.22656 0.03125 0.34766 0 0.6875-0.070312 1.0156-0.16406 0.042969-0.011719 0.085937 0 0.12891-0.015625 0.007813-0.003907 0.011719-0.007813 0.019531-0.011719 0.4375-0.14453 0.82813-0.375 1.1836-0.66016 0.11719-0.09375 0.19922-0.20703 0.30078-0.30859 0.21094-0.21484 0.39844-0.44141 0.55078-0.70312 0.089843-0.15234 0.15625-0.30859 0.22656-0.47266 0.054688-0.13672 0.14453-0.24609 0.18359-0.38672 0.74609-2.6211 3.7695-4.6758 6.8789-4.6758 2.1367 0 4.1484 1.0352 5.3789 2.7734 0.83984 1.1836 2.2773 1.7734 3.7109 1.5312 1.4297-0.24609 2.5859-1.293 2.9766-2.6875 0.67578-2.4453 2.9453-4.1523 5.5117-4.1523 1.5273 0 2.832 0.50781 3.8945 1.5 0.15625 0.14844 0.35547 0.21484 0.53125 0.33203 0.21484 0.14453 0.41016 0.30469 0.64453 0.39844 0.23047 0.089844 0.46094 0.11328 0.70312 0.15625 0.23828 0.046875 0.46094 0.11719 0.70312 0.11719 0.24219 0 0.46484-0.066407 0.70312-0.11719 0.24219-0.046875 0.47656-0.066406 0.70312-0.15625 0.23047-0.09375 0.42578-0.25391 0.64062-0.39844 0.17578-0.11719 0.375-0.17969 0.53516-0.33203 1.0469-0.99219 2.3555-1.5 3.8789-1.5 2.5625 0 4.832 1.707 5.5156 4.1484 0.39062 1.3945 1.5508 2.4375 2.9766 2.6875 1.4453 0.24609 2.8711-0.34766 3.7109-1.5312 1.2305-1.7383 3.2383-2.7734 5.3789-2.7734 3.1094 0 6.125 2.0547 6.8789 4.6758 0.042968 0.14453 0.12891 0.25391 0.18359 0.38672 0.066406 0.16406 0.13672 0.32031 0.22656 0.47266 0.15625 0.26172 0.34766 0.49219 0.55469 0.70703 0.10156 0.10547 0.18359 0.21484 0.30078 0.30859 0.35547 0.28516 0.74609 0.51953 1.1836 0.66016 0.007813 0.003906 0.011719 0.007812 0.019532 0.011719 0.046875 0.015625 0.089844 0.003906 0.13672 0.015625 0.32813 0.09375 0.66406 0.16406 1.0156 0.16406 0.070312 0 0.14844-0.027344 0.21875-0.03125 0.10547-0.007812 0.20312-0.027344 0.30859-0.042968 0.16797-0.023438 0.33984-0.023438 0.50781-0.070313 0.12891-0.039063 0.22266-0.12891 0.34375-0.17578 0.22656-0.089844 0.42969-0.19531 0.63672-0.32812 0.21484-0.14062 0.40625-0.28125 0.58203-0.45703 0.16406-0.15625 0.30078-0.32813 0.4375-0.51953 0.14844-0.21484 0.27344-0.43359 0.37891-0.67578 0.050781-0.11328 0.13672-0.19141 0.17188-0.3125 0.66406-2.0703 2.8594-3.5703 5.2148-3.5703 2.3945 0 4.4688 1.5977 5.043 3.8828 0.31641 1.2578 1.2539 2.2656 2.4922 2.6641 1.2422 0.39453 2.5859 0.13281 3.5781-0.70703 0.74609-0.63281 1.9961-1.3828 3.6992-1.3828 3.1445 0 5.7109 2.5 5.7109 5.5742 0 0.25-0.050781 0.49219-0.097656 0.8125-0.21094 1.3828 0.37109 2.7695 1.5039 3.5977 1.1328 0.82812 2.6328 0.95312 3.8867 0.32812 1.3594-0.67969 2.75-1.0195 4.1406-1.0195 5.0898 0 9.2344 4.0586 9.2344 9.0508 0 0.83203-0.15625 1.6953-0.49219 2.7344-0.42578 1.3125-0.097657 2.75 0.85156 3.75 0.94531 1.0039 2.375 1.3906 3.707 1.0352 0.66797-0.17969 1.2148-0.26172 1.7188-0.26172 3.6211 0 6.5664 2.8789 6.5664 6.4141 0 1.3242-0.42969 2.6055-1.2422 3.7148-0.98047 1.3359-0.96875 3.1602 0.027344 4.4844 0.99609 1.3242 2.7422 1.8438 4.3008 1.2656 6.0664-2.2383 11.566 2.25 11.566 7.8359 0 1.6016-0.47656 3.1719-1.3789 4.5391-0.61328 0.92578-0.78125 2.0742-0.46484 3.1367 0.31641 1.0625 1.0859 1.9375 2.1016 2.3789 3.6836 1.6055 6.0664 5.1836 6.0664 9.1133 0 3.0117-1.4141 5.8438-3.8828 7.7695-0.97266 0.76172-1.5117 1.9531-1.4375 3.1914 0.074218 1.2344 0.75 2.3516 1.8125 2.9922 2.9336 1.7695 4.6914 4.8164 4.6914 8.1406 0 3.7852-2.293 7.2266-5.8359 8.7695-1.082 0.46875-1.8789 1.4219-2.1562 2.5703-0.27734 1.1445 0.003906 2.3555 0.75 3.2656 1.1484 1.3945 2.5156 3.7031 2.5156 6.8086 0 4.5352-2.4805 8.7031-6.168 10.379-1.8633 0.84375-2.7109 3.0195-1.9102 4.9023 0.52734 1.2305 0.78906 2.5312 0.78906 3.8672 0 0.51953-0.10938 1.0547-0.26953 1.6133-1.7461-1.375-3.6836-2.5391-5.8359-3.3867-1.0195-0.39844-2.1484-0.71875-3.3828-0.98047-4.3242-2.5586-8.4883-15.395-8.4883-23.492 0-3.3633 1.1133-6.6133 3.2227-9.4062 0.91797-1.2148 0.85938-2.8398 0.085938-4.1484-0.77344-1.3086-2.4141-1.9961-3.918-1.793-0.54688 0.078125-1.0859 0.16406-1.6484 0.16406-7.707 0-13.98-6.1602-13.98-13.73 0-2.6172 0.77734-5.1836 2.25-7.4219 0.89844-1.3633 0.8125-3.1484-0.21094-4.4219-1.0195-1.2695-2.7383-1.7383-4.2695-1.1523-1.3359 0.51172-2.6797 0.76562-3.9961 0.76562-5.6836 0-11.031-8.1055-11.031-14.395 0-0.15625-0.070312-0.29297-0.089843-0.44531-0.03125-0.25781-0.066407-0.50781-0.15234-0.75391-0.078125-0.23047-0.1875-0.42969-0.30469-0.63672-0.12109-0.20703-0.23828-0.40234-0.39844-0.58984-0.16797-0.19922-0.36328-0.35156-0.57422-0.51562-0.12109-0.09375-0.20312-0.22266-0.33984-0.30078-0.070313-0.042969-0.15234-0.042969-0.22656-0.078125-0.22266-0.11328-0.45312-0.17578-0.70312-0.24609-0.25-0.066406-0.49609-0.13672-0.75-0.14844-0.078125-0.003907-0.14844-0.046875-0.22656-0.046875-0.15234 0-0.28125 0.066406-0.43359 0.085937-0.26562 0.03125-0.52344 0.066407-0.77344 0.15625-0.22656 0.078125-0.42578 0.18359-0.62891 0.30469-0.21094 0.12109-0.40625 0.23828-0.58984 0.39844-0.19922 0.17188-0.35547 0.36719-0.51953 0.57812-0.089844 0.12109-0.21875 0.19922-0.29688 0.33594-1.6211 2.7578-4.6406 4.4727-7.8867 4.4727-5.0977 0-9.4023-4.0781-9.4023-8.9023 0-2.0781-1.6836-3.7578-3.7578-3.7578s-3.7578 1.6797-3.7578 3.7578c0 7.957-7.7852 9.6289-14.316 9.6289-6.7227 0-12.801-4.6094-14.133-10.715-0.042969-0.1875-0.15234-0.33203-0.22266-0.50391-0.10156-0.26563-0.17969-0.53906-0.33984-0.76953-0.14453-0.21875-0.33984-0.375-0.52344-0.55469-0.15625-0.15625-0.29297-0.33203-0.47656-0.45703-0.27344-0.1875-0.58594-0.29688-0.90625-0.40625-0.13281-0.046876-0.23828-0.14063-0.375-0.16797-0.019532-0.003907-0.035156 0.003906-0.050782 0-0.29297-0.0625-0.60156-0.03125-0.91016-0.019531-0.19922 0.007812-0.40234-0.027344-0.59375 0.011718-0.027344 0.007813-0.050781-0.003906-0.078125 0-0.21484 0.046875-0.38281 0.17188-0.57812 0.25391-0.23438 0.09375-0.47656 0.16016-0.6875 0.30078-0.21875 0.14844-0.37891 0.34375-0.55859 0.52734-0.15625 0.16016-0.33594 0.29687-0.46484 0.48437-0.16406 0.24609-0.25 0.52344-0.35547 0.79688-0.0625 0.16406-0.17188 0.30078-0.21484 0.47656-1.1289 4.9727-5.8906 8.5859-11.32 8.5859-4.8789 0-9.6484-2.2422-11.348-5.3359-0.082032-0.15234-0.22656-0.25-0.32813-0.38281-0.15234-0.21094-0.30469-0.41797-0.5-0.58984-0.18359-0.16016-0.38281-0.27734-0.59375-0.39844-0.20703-0.12109-0.39844-0.24219-0.62891-0.32422-0.25391-0.09375-0.51953-0.125-0.78906-0.15625-0.15625-0.019532-0.29688-0.09375-0.46094-0.09375-0.058594 0-0.11328 0.03125-0.17188 0.035156-0.26172 0.011718-0.51172 0.085937-0.76953 0.15234-0.23828 0.0625-0.46875 0.10937-0.68359 0.21484-0.058594 0.03125-0.125 0.027344-0.17969 0.054688-0.15234 0.082031-0.24609 0.22266-0.38281 0.32422-0.21094 0.15625-0.41797 0.30469-0.59375 0.5-0.16016 0.18359-0.27734 0.38281-0.39844 0.59375-0.12109 0.20703-0.24609 0.40234-0.32422 0.62891-0.089844 0.25-0.12109 0.50781-0.15234 0.76953-0.023437 0.16406-0.097656 0.3125-0.097656 0.48047 0 6.9023-7.3438 13.93-14.551 13.93-1.668 0-3.2852-0.30469-4.7969-0.90625-0.24219-0.09375-0.48828-0.089843-0.73828-0.13281-0.21875-0.042969-0.42187-0.13281-0.64844-0.13281-0.011719 0-0.023437 0.007813-0.039063 0.007813-0.40234 0.003906-0.78125 0.10547-1.1562 0.23438-0.089843 0.03125-0.19531 0.023437-0.28125 0.058594-0.30078 0.12891-0.54687 0.34375-0.80859 0.54687-0.12109 0.09375-0.26953 0.14844-0.37891 0.26172-0.10547 0.10547-0.16016 0.25391-0.25 0.37109-0.21094 0.26953-0.42578 0.53906-0.55469 0.85547-0.003906 0.011718-0.015625 0.019531-0.019531 0.03125-0.085938 0.22266-0.078125 0.44531-0.12109 0.67188-0.050781 0.24219-0.14453 0.45703-0.14453 0.71484 0 8.7344-7.4883 15.844-16.688 15.844-0.1875 0-0.34766 0.078126-0.53125 0.10938-0.28906 0.042968-0.57422 0.0625-0.85156 0.17187-0.28516 0.11328-0.51953 0.30078-0.76562 0.47656-0.14062 0.10156-0.30469 0.14844-0.43359 0.26953-0.011719 0.011719-0.015626 0.03125-0.03125 0.042969-0.24609 0.23828-0.41406 0.53516-0.58594 0.83203-0.074219 0.12891-0.19141 0.23828-0.25 0.37109-0.066406 0.15234-0.0625 0.33203-0.10938 0.49609-0.085937 0.3125-0.18359 0.62109-0.1875 0.94141 0 0.019531-0.011719 0.035156-0.011719 0.050781 0 0.18359 0.078125 0.34375 0.10547 0.51953 0.042969 0.29297 0.0625 0.58594 0.17578 0.86719 0.10938 0.27344 0.28906 0.49609 0.45703 0.73438 0.10547 0.14844 0.15625 0.32812 0.28906 0.46094 1.793 1.8906 2.7773 4.3594 2.7773 6.9492 0 5.7305-4.3789 10.223-9.9648 10.223-0.15234 0-0.28516 0.066406-0.43359 0.085937-0.26172 0.03125-0.51562 0.066406-0.76953 0.15234-0.25 0.085937-0.45703 0.20703-0.67969 0.33984-0.13281 0.078126-0.28125 0.10547-0.41016 0.20313-0.0625 0.050781-0.09375 0.125-0.15234 0.17578-0.19922 0.17188-0.35156 0.375-0.51172 0.58984-0.14062 0.1875-0.28125 0.35938-0.38281 0.56641-0.10156 0.20703-0.15234 0.42969-0.21875 0.65234-0.070312 0.25-0.13672 0.49609-0.15234 0.75781-0.003906 0.082031-0.046874 0.14844-0.046874 0.23438 0 0.15625 0.070312 0.29297 0.089843 0.44531 0.03125 0.25391 0.066407 0.50391 0.14844 0.75 0.085937 0.25 0.20703 0.46875 0.34375 0.69141 0.078125 0.13281 0.10547 0.28125 0.19922 0.40625 1.0469 1.3594 1.9219 2.832 2.5977 4.3945 0.78906 1.8086 1.9805 4.5469 1.6719 7.918-0.30078 3.3203-1.9375 5.8203-3.2305 7.3594-0.94141 0.23438-1.832 0.49219-2.6328 0.80859-1.9805 0.77734-3.7734 1.8242-5.4141 3.0547-0.10156-0.4375-0.16016-0.85938-0.16016-1.2812 0-1.3359 0.26562-2.6367 0.78906-3.8711 0.79688-1.8789-0.050781-4.0547-1.9102-4.8984-3.7031-1.668-6.1836-5.8438-6.1836-10.383zm6.5312 52.242c-4.2227-11.316-0.75-22.867 7.8008-27.184 1.8594 15.586 5.0352 30.262 9.1211 42.551-7.1367-1.4141-13.906-7.2773-16.922-15.367zm32.656 32.488c-8.207-13.484-14.949-37.734-17.727-63.578 1.9297-2.3711 4.2852-6.207 4.7422-11.266 0.48047-5.293-1.3086-9.3984-2.2695-11.613-0.15234-0.34766-0.35547-0.67578-0.52344-1.0234 6.7539-2.4375 11.492-8.8477 11.492-16.641 0-2.2891-0.44531-4.5195-1.2891-6.5977 8.7852-2.2812 15.617-9.1992 17.441-17.875 0.96094 0.13672 1.9258 0.26953 2.9102 0.26953 8.7031 0 17.027-6.1484 20.434-13.988 3.7891 2.4414 8.4727 3.5859 12.512 3.5859 5.8867 0 11.266-2.6836 14.812-6.8945 4.0117 5.4922 10.637 9.0547 17.977 9.0547 8.2344 0 14.527-2.4766 18.203-6.8047 3.1055 3.6797 7.7656 6.082 13.039 6.082 3.1406 0 6.1602-0.91406 8.7539-2.5117 2.6562 7.3984 8.875 13.91 16.418 14.316-0.35937 1.543-0.54687 3.1289-0.54687 4.7305 0 10.434 7.6484 19.137 17.695 20.91-0.95703 2.5508-1.4531 5.2461-1.4531 8 0 6.4297 3.1016 22.543 10.605 28.816-2.9141 26.891-9.1797 50.336-16.891 63.016-10.18 16.727-38.992 43.266-73.359 43.266-7.2031 0-14.152-1.2422-20.762-3.2812-0.33594-0.17578-0.69531-0.27344-1.0781-0.34375-24.066-7.7852-43.23-26.637-51.137-39.629zm73.359 50.785c6.582 0 12.965-0.94141 19.102-2.5312v25.5c-0.53516 1.3984-2.2695 5.4336-5.6875 8.9609-0.046875 0.042968-0.082031 0.078125-0.12891 0.125-3.0352 3.0898-7.3555 5.7305-13.293 5.7305-12.773 0-18.09-12.172-19.094-14.812v-25.469c6.1289 1.5703 12.512 2.4961 19.102 2.4961zm-88.699 52.578 3.2617 3.6523c-0.9375 0.87891-1.8711 1.75-2.8047 2.668l-30.832-22.07-1.1758-4.6367c11.926 4.2109 22.812 11.152 31.551 20.387zm-39.926-22.84 1.7734 7-20.359 7.5234-20.359-7.5234 1.7617-6.957c5.9805-1.4102 12.184-2.2344 18.598-2.2344 6.3047-0.007812 12.539 0.75781 18.586 2.1914zm-45.566 2.5117-1.1562 4.5703-30.23 21.66-4.8164-0.32422c9.2539-11.73 21.766-20.793 36.203-25.906zm-33.762 125.41 2.7266-6.6641 21.004 5.7188 11.945 17.828-5.6641 4.6836c-11.66-4.793-21.898-12.25-30.012-21.566zm65.289 34.508c4.8086 2.0234 13.016 4.5352 24.172 4.5352 6.2148 0 13.391-0.85547 21.344-2.9414l-0.40625 9.0703-46.746-0.003906c0.5-3.6289 1.0547-7.1719 1.6367-10.66zm241.02 10.66-0.40625-9.0664c8.1484 2.1484 15.445 3.0312 21.703 3.0312 10.652 0 18.445-2.3125 23.078-4.2188 0.55469 3.3594 1.0898 6.7617 1.5703 10.258h-45.945z"/>
 </g>
 <path d="m379.8 280.63c-7.6758 0-13.688 4.9492-13.688 11.27 0 2.0781 1.6836 3.7578 3.7578 3.7578s3.7578-1.6797 3.7578-3.7578c0-1.7695 2.6367-3.75 6.1719-3.75 3.5312 0 6.1719 1.9805 6.1719 3.75 0 2.0781 1.6836 3.7578 3.7578 3.7578s3.7578-1.6797 3.7578-3.7578c-0.003907-6.3164-6.0156-11.27-13.688-11.27z"/>
 <path d="m416.41 312.08c5 0 10.617-1.5469 16.348-5.875 1.6562-1.2461 1.9844-3.6094 0.73828-5.2617-1.25-1.6562-3.6016-1.9922-5.2656-0.73438-12.508 9.4336-22.594 0.62891-23.043 0.22656-1.5312-1.3906-3.8984-1.2969-5.2969 0.23047-1.4102 1.5234-1.3125 3.9023 0.21484 5.3125 3.0469 2.7969 9.0117 6.1016 16.305 6.1016z"/>
 <path d="m451.52 295.66c4.2109 0 7.6172-3.3633 7.6172-7.5117 0-4.1484-3.4141-7.5117-7.6172-7.5117-4.2109 0-7.6172 3.3633-7.6172 7.5117-0.003907 4.1484 3.4062 7.5117 7.6172 7.5117z"/>
</svg>
