<?xml version="1.0" encoding="UTF-8"?>
<svg fill='black' version='1.1' height='200' width='200' viewBox='125 125 500 500' xmlns='http://www.w3.org/2000/svg'>
 <g>
  <path d="m425.53 209.76c0.21484 0.82813 1.3438 1.2891 1.3008 2.1484-0.035156 0.70312-0.82812 1.0664-1.3047 1.582 0.43359 0.30469 0.87109 0.60938 1.3047 0.91016 0.55078 0.38281 1.1719 0.78516 1.8359 0.69141 0.52734-0.074219 0.95313-0.44531 1.3477-0.80078 0.24609-0.21875 0.50781-0.48437 0.5-0.81641-0.019531-0.61328-0.95703-0.91016-0.93359-1.5234 0.019531-0.48047 0.60938-0.69922 1.0859-0.73828 0.48047-0.035157 1.0508-0.0625 1.3008-0.47266 0.13672-0.22266 0.12891-0.50391 0.10156-0.76172-0.078125-0.73828-0.30078-1.4609-0.65234-2.1172-0.054687-0.10547-0.12891-0.21875-0.24609-0.23828-0.17188-0.03125-0.29688 0.15625-0.38672 0.30469-0.65234 1.0898-2.125 1.6094-3.3164 1.168-0.37109-0.13672-0.73047-0.35547-1.125-0.33984-0.47266 0.023438-0.89062 0.44141-0.91406 0.91406z" />
  <path d="m589.87 407.96c-0.64063-2.5312-2.7852-4.3633-4.875-5.9258-0.37109-0.27734-0.75-0.55469-1.0195-0.92969-0.54297-0.75781-0.55078-1.8008-0.23828-2.6797s0.90625-1.625 1.5039-2.3398c0.38281-0.45703 0.78125-0.92188 0.97656-1.4805 0.19531-0.55859 0.17188-1.168 0.14844-1.7617-0.074219-1.7227-0.14844-3.4414-0.21875-5.1641-0.011719-0.26953-0.023437-0.55078-0.13281-0.79688-0.39062-0.89453-1.6406-0.88672-2.6055-0.72656l-0.12109-0.97656c-0.34766-0.63672-0.71094-1.3125-0.67578-2.0352 0.03125-0.72266 0.62891-1.4766 1.3477-1.3906 0.28516-0.89453-0.35156-1.9688-1.2734-2.1484-0.82422-0.16016-1.8594 0.25-2.418-0.37891-0.38672-0.43359-0.36328-1.2344-0.91016-1.4414-0.58203-0.21875-1.2188 0.5-1.7891 0.26172-0.20703-0.085938-0.34375-0.28125-0.5-0.44531-0.84766-0.90234-2.3008-0.92578-3.4688-0.51953-1.168 0.40625-2.1836 1.1602-3.3203 1.6562-0.19531 0.085937-0.41406 0.16406-0.61719 0.10156-0.19531-0.058594-0.32812-0.23047-0.4375-0.40234-0.49609-0.78125-0.71875-1.7148-1.2383-2.4766-0.51953-0.76562-1.5391-1.3438-2.3633-0.92188-0.54688-0.58984 0.22656-1.7383 0.98047-1.4531 0.29688-0.67188 0.070313-1.5586-0.55078-1.9531-0.62109-0.39453-1.5625-0.19531-1.918 0.45312-0.33594-0.50391-0.67969-1.0312-0.75-1.6328-0.070312-0.60156 0.23047-1.293 0.8125-1.457 0.17188-0.046876 0.35547-0.050782 0.51953-0.12109 0.66016-0.28516 0.44141-1.2695 0.10938-1.9062 0.55859-0.20703 1.1172-0.41016 1.6758-0.61719l1.0352 0.90234c0.23047-1.2578 0.45703-2.5117 0.6875-3.7695 0.046875-0.25391 0.10156-0.53125 0.29297-0.70703 0.40234-0.375 1.0391-0.074219 1.5898-0.015626 1.3242 0.14844 2.2773-1.2031 2.9141-2.375 0.51953-0.96094 1.0469-1.9336 1.3281-2.9883 0.15625-0.58203 0.19922-1.2969-0.25781-1.6875-0.64453-0.55469-1.5977-0.011719-2.4141 0.22266-1.3203 0.37891-2.7266-0.14844-3.9414-0.79297-0.51562-0.27344-1.1289-0.57812-1.6523-0.32422-0.82422 0.39844-0.97266 1.9531-1.875 1.8047-0.68359-0.10938-0.71875-1.0898-0.50391-1.7461 0.21484-0.66016 0.41797-1.543-0.17188-1.9062 0.73828-0.035156 1.3164-0.89062 1.0703-1.5898-0.24609-0.69922-1.2266-1.0078-1.8281-0.57031 0.27734-0.78125-0.070313-1.6523-0.54688-2.332-0.47656-0.67969-1.0898-1.2695-1.4453-2.0195-0.54297-1.1484-0.41016-2.5078-0.82031-3.7148-0.41016-1.2031-1.8984-2.2578-2.9023-1.4766 0.082031-1.0117-0.25-2.0547-0.90625-2.832l-0.46875 0.30469c-2.0117 1.4102-4.9922 1.2266-6.8164-0.41797-0.15625-0.14062-0.3125-0.3125-0.3125-0.52344 0-0.61719 1.2109-0.60938 1.25-1.2266 0.011718-0.16016-0.070313-0.3125-0.16016-0.44531-0.92969-1.418-2.7344-2.0664-4.4297-2.0117-0.98047 0.03125-2.0156 0.25-2.9102-0.15625-0.71875-0.32812-1.2539-1.0312-2.0273-1.2031-1.0508-0.23438-2 0.58984-2.8711 1.2188s-2.2266 1.0508-2.9102 0.22266c-0.19922-0.24219-0.31641-0.57422-0.59766-0.71484-0.27734-0.13672-0.61328-0.035156-0.92188-0.082031-1.1367-0.16797-1.1211-1.9688-2.082-2.5977-0.82422 0.50781-1.6484 1.0156-2.4727 1.5234-0.17969 0.10938-0.39062 0.22656-0.59375 0.16797-0.18359-0.054687-0.30078-0.23828-0.46484-0.33594-0.73828-0.4375-1.3125 0.96484-2.1641 1.0859-0.33984-0.33594-0.67969-0.67578-1.0156-1.0117-0.25781 0.26172-0.51562 0.51953-0.77344 0.78125-1.1133-0.13281-1.918-1.0703-2.6992-1.875-0.78125-0.80078-1.8516-1.5781-2.9258-1.2617-1.5469 0.45312-1.6445 2.5586-2.3555 4.0078-1.6797 0.007813-3.3594 0.015625-5.043 0.023438l-0.03125-0.011719c0.92969-2.5234 1.5547-5.4688 0.21875-7.8008-0.48828-0.85156-1.2031-1.5469-1.8711-2.2656-2.5547-2.7422-4.6562-6.4766-3.707-10.102 0.27344-1.043 0.81641-2.0469 1.6641-2.7148 0.84766-0.66797 2.0273-0.96094 3.0469-0.60156l0.75-0.59375c1.8906-3.7148 3.7812-7.4297 5.6719-11.141-0.53125-0.71484-1.2734-1.2734-2.1055-1.5938 0.53516-1.9766 1.7227-3.7695 3.3359-5.0312 0.33203-0.26172 0.69141-0.50781 0.92188-0.86719 0.16406-0.25781 0.25-0.55859 0.33594-0.85156 0.28125-0.99219 0.5625-1.9844 0.84375-2.9727 0.097656-0.33984 0.19141-0.71875 0.03125-1.0352-0.38672-0.76953-1.6055-0.30078-2.3828-0.67578 0.89844-2 1.6094-4.082 2.1289-6.2148 1.1836-0.085938 2.3672-0.16797 3.5469-0.25391-0.17969-1.5859-0.48828-3.1602-0.92188-4.6992 0.86328 0.15625 1.7617 0.3125 2.6094 0.082032 0.84766-0.23438 1.6211-0.98047 1.5781-1.8555-0.042969-0.9375-0.92188-1.582-1.7148-2.082 0.31641-0.84766 1.0859-1.5117 1.9766-1.6992 1.1953-0.25 2.7617 0.19141 3.418-0.83984 0.48047-0.75391 0.039062-1.7461-0.49609-2.4609-1.832-2.4531-4.8164-4.0039-7.875-4.0977l-0.92578-0.24219c-0.066406-0.92188-0.13281-1.8398-0.19922-2.7617-0.019531-0.25781-0.042969-0.53125-0.18359-0.75-0.16406-0.25391-0.45312-0.39062-0.72656-0.51172-1.6406-0.73828-3.5039-1.4883-5.1797-0.83203-0.61328 0.24219-1.2109 0.67188-1.8594 0.57422-0.35547-0.050781-0.67188-0.25781-0.97266-0.45703-4.457-2.9453-9.293-5.3086-14.352-7.0195-0.21875-0.074219-0.45703-0.16406-0.55078-0.37109-0.074218-0.16406-0.039062-0.35547 0-0.53516l0.53125-2.4648c0.11328-0.51562 0.22266-1.0586 0.082032-1.5703-0.16016-0.58594-0.62109-1.0312-1.0703-1.4414-2.375-2.168-4.8984-4.1719-7.5547-5.9844-2.0039 1.2422-3.9219 2.6172-5.7422 4.1133-0.42969 0.35156-0.86719 0.71875-1.3945 0.88281-0.46484 0.14453-0.96094 0.12109-1.4492 0.09375l-7.0703-0.38281c-0.21875-0.011719-0.45703-0.019531-0.63672 0.10938-0.30859 0.22266-0.26172 0.68359-0.34375 1.0547-0.25781 1.1562-1.7734 1.4023-2.9609 1.4023-2.9453-0.003907-5.8945-0.007813-8.8398-0.015626l-0.054688-0.55469c-0.30078-3.0742-0.60547-6.1484-0.90625-9.2188-0.94141 0.11328-1.8438 0.54297-2.5234 1.207-0.33594-0.71484-0.71094-1.4648-1.3867-1.8711-0.67578-0.40625-1.7383-0.26172-2.0195 0.47266-1.375-5.332-5.9531-9.1328-8.8984-13.781-0.29688-0.46875-0.58984-0.98438-0.57422-1.5391 0.011719-0.51172 0.28125-0.97656 0.54688-1.4102 0.85938-1.4219 1.7656-2.8477 2.2188-4.4453 0.45312-1.5977 0.39062-3.4336-0.58203-4.7812-1.293-1.7969-3.7344-2.2383-5.9297-2.543-0.30859-0.042969-0.64844-0.082031-0.91406 0.078125-0.23438 0.14062-0.36719 0.39844-0.48828 0.64844-1.4375 2.9844-2.875 5.9688-4.3125 8.9531-0.51562 1.0742-1.0508 2.1719-1.918 2.9883-0.86719 0.81641-2.1484 1.3047-3.2695 0.90625l-0.51953-0.11328c-2.4609-1.1797-5.0703-2.043-7.75-2.5586-0.96875-0.1875-1.9727-0.32812-2.9414-0.13672-1.7969 0.35938-3.1602 1.7773-4.75 2.6875-0.15234 0.085937-0.32812 0.17188-0.49609 0.125-0.13281-0.039063-0.22656-0.14844-0.30859-0.25781-1.1523-1.5625-0.51562-4.1484 1.2734-4.8984 1.4023-0.58984 3.2578-0.17578 4.2891-1.293 0.54297-0.58984 0.67188-1.4414 0.74219-2.2383 0.19922-2.2461 0.13281-4.5156-0.19531-6.75-0.078125-0.53906-0.19141-1.1133-0.55859-1.5117-0.26562-0.28906-0.64062-0.45312-1.0039-0.60156-1.6719-0.67187-3.4336-1.1133-5.2266-1.3086-0.45703-0.050781-0.93359-0.078125-1.3594 0.097656-0.61328 0.26172-0.96875 0.89062-1.2969 1.4727-2.5625 4.4922-6.3867 8.2578-10.922 10.746-0.23438 0.12891-0.48828 0.25781-0.75391 0.25391-0.25391-0.007812-0.48828-0.13281-0.71094-0.25781-1.7539-0.98438-3.5039-1.9688-5.2578-2.9531l-0.63672 0.54688c-2.2852 1.2461-5.0156 1.6445-7.5625 1.1016 0.27734-2.2461 0.39844-4.5078 0.36328-6.7695-0.003907-0.27344-0.019532-0.57031-0.20313-0.76953-0.30469-0.33203-0.84375-0.20312-1.2656-0.050781-3.25 1.1875-6.5 2.375-9.7461 3.5586-0.99609 0.36328-2.0391 0.76172-2.7227 1.5703-1.2578 1.4922-0.83203 3.7109-0.46875 5.6328 0.65625 3.4648 0.86719 7.0156 0.62891 10.531-1.7227 0.34375-3.4805 0.6875-5.2266 0.48828-1.7461-0.20313-3.5078-1.043-4.3828-2.5664-0.62109-1.0781-0.96094-2.6055-2.1797-2.8594-0.46094-0.097656-0.9375 0.035156-1.3906 0.17969-2.4844 0.78516-4.8711 1.8828-7.082 3.2578-1.1367 0.70703-2.3711 1.8789-1.957 3.1523 0.11719 0.36328 0.37109 0.71484 0.29688 1.0898-0.054688 0.29297-0.29688 0.51172-0.52734 0.70312-6.9375 5.8555-14.402 11.086-22.27 15.609l-0.14844 0.82422c-2.6289 1.4336-5.2578 2.8633-7.8828 4.2969-1.0039 0.54687-2.0586 1.1094-3.2031 1.1523s-2.4023-0.60547-2.6562-1.7227c-0.15625-0.68359-0.003907-1.5859-0.61719-1.9258-0.33984-0.19141-0.76172-0.089844-1.1367 0.011718-1.9023 0.52344-3.8008 1.0508-5.7031 1.5742-0.46484 0.12891-1.0195 0.23828-1.3906-0.074219-0.23437-0.19922-0.32031-0.51562-0.39453-0.81641-0.53906-2.1445-1.0742-4.2891-1.6133-6.4297-0.10938-0.44531-0.23047-0.90234-0.51172-1.2617-0.44922-0.57031-1.2148-0.76953-1.9219-0.9375-1.8945-0.44531-3.7891-0.89062-5.6836-1.3359-0.53516-0.125-1.1016-0.26953-1.4922-0.66016-0.45312-0.45703-0.5625-1.1445-0.79688-1.7461-0.53906-1.3633-1.8984-2.3633-3.3594-2.4727l-0.59375-0.11328c-1.7656-0.60547-3.8633-0.085937-5.1445 1.2734-0.94141 1-2.0117 2.5625-3.25 1.9766-0.42969-0.20312-0.69922-0.63281-1.0234-0.98438-1.293-1.418-3.7617-1.5273-5.1758-0.23047-0.30469 0.27734-0.56641 0.625-0.63672 1.0312-0.042968 0.25391-0.007812 0.51562 0.027344 0.77344 0.20312 1.4531 0.40625 2.9062 0.60547 4.3594-3.125 1.1094-6.8203 2.1523-9.5586 0.28125-0.97656-0.66797-1.6953-1.6367-2.3945-2.5898-1.8398-2.4961-3.7695-5.3125-3.4453-8.3984 0.12891-1.2227 0.61328-2.3984 0.64062-3.6289 0.046875-2.2578-1.4297-4.2305-2.8359-6l-0.23047-0.42188c-6.1211 2.9141-12.586 5.1055-19.219 6.5117l-0.27344-0.25781c-0.070312-0.76563-0.13672-1.5273-0.20703-2.293-0.89844 0.36719-1.8281-0.94531-2.7461-0.625-0.69141 0.24219-0.76563 1.1875-0.64844 1.9102s0.25 1.5977-0.3125 2.0703c-0.30469 0.25781-0.72656 0.30469-1.125 0.35547-4.9609 0.61719-9.4414 3.1797-13.727 5.7539-1.6445 0.98828-3.293 1.9922-4.75 3.2383-2.0039 1.7148-3.6133 3.8711-5.7109 5.4688-1.1602 0.88281-2.4453 1.5781-3.7266 2.2695-3.5977 1.9453-7.1953 3.8906-10.793 5.832l-0.14453-0.12891c-1.5742 0.95312-3.0859 2.0039-4.5273 3.1445-0.28516 0.22656-0.58203 0.47266-0.71875 0.8125-0.11328 0.28906-0.097656 0.61328-0.082032 0.92188 0.050782 0.92578 0.10156 1.8555 0.15234 2.7812-0.39453 0.097656-0.78516-0.21094-0.98438-0.56641s-0.28125-0.76562-0.48438-1.1172c-0.44531-0.77734-1.4219-1.1211-2.3164-1.0586s-1.7227 0.46484-2.5156 0.88281c-5.1211 2.7109-9.6797 6.5117-15.113 8.5273l-0.16797 0.078125c1.4023 3.6797 2.4258 7.5078 3.0508 11.398v0.16016c-0.33594 1.1211-0.67188 2.2461-1.0078 3.3672-0.054688 0.17969-0.10938 0.36719-0.058594 0.55078 0.066406 0.25391 0.3125 0.41406 0.53125 0.5625 2.6797 1.8086 3.8594 5.0938 4.8789 8.1641 0.15625 0.46875 0.3125 0.98047 0.15234 1.4453-0.16016 0.46875-0.78516 0.79297-1.1641 0.47656 0.375 0.95312-0.12109 2.1562-1.0547 2.5742-0.59375 0.26172-1.3242 0.25-1.8008 0.69141-0.46484 0.42969-0.50781 1.207-0.17578 1.7461 0.33203 0.53906 0.96875 0.84375 1.6016 0.88672-0.625 3.3242-1.25 6.6445-1.8789 9.9648l0.35938 0.68359c1.4648 0.19141 2.168 1.8594 2.5859 3.2773 0.40234 1.3516 0.80078 2.7031 1.2031 4.0547 1.8984-1.1719 4.2695-1.5469 6.4375-1.0273 1.3828 0.33203 2.832 1.2266 3.0234 2.6367 0.12891 0.94531-0.32422 2.0273 0.23828 2.8008 0.30859 0.42188 0.83203 0.60938 1.2773 0.87891 1.2383 0.74219 1.9023 2.1367 2.8086 3.2578 0.48437 0.60156 1.0547 1.1367 1.4453 1.8047 0.88672 1.5195 0.67969 3.4102 0.44922 5.1562l0.23828 0.38672c3.4062-0.10547 6.0625 3.2148 9.4492 3.5859 0.35547 0.039063 0.74219 0.054687 1.0234 0.27734 0.16016 0.125 0.26562 0.30859 0.36719 0.48438 0.5 0.86328 1 1.7266 1.5039 2.5898 0.6875 0.082031 1.3906 0.050781 2.0703-0.10156-0.25781-1.0312 0.070313-2.1914 0.82813-2.9375 0.41406-0.40625 0.94141-0.69141 1.3125-1.1328 0.95703-1.1328 0.61328-2.832 0.21875-4.2617 4.6445-0.054688 8.1289-4.7383 12.746-5.2188 1.25-0.12891 2.5508 0.054687 3.7305-0.375 1.1914-0.43359 2.0938-1.4453 3.2578-1.957 1.7148-0.75391 3.9023-0.22266 5.0781 1.2305 0.45703 0.56641 0.77344 1.25 1.3242 1.7266l1.3477-0.32812c0.69922 2.2344 1.4727 4.4453 2.3164 6.6289-0.49609 0.625-0.99609 1.2461-1.4922 1.8711 0.089844 0.875 0.76953 1.6055 1.5742 1.9648 0.80078 0.35938 1.707 0.40625 2.5859 0.37109 0.79687-0.03125 1.5898-0.12109 2.375-0.26953l1.3906 3.9062c0.25391 0.71875 0.51563 1.4609 0.47656 2.2227s-0.44922 1.5586-1.168 1.8125c-0.45703 0.16406-1.0352 0.12891-1.3242 0.51562-0.14063 0.1875-0.17188 0.42969-0.20313 0.66016-0.12891 1.0234-0.25781 2.0469-0.38672 3.0703l0.28906 0.12109c0.49609 1.418 0.99219 2.8359 1.4883 4.25 0.97266 2.7734 1.9531 5.5938 2.0859 8.5312 0.11719 2.5898-0.39062 5.3711 0.86328 7.6406 0.67969 1.2305 1.8633 2.1797 3.2109 2.5781 0.78516 0.23047 1.625 0.28516 2.3672 0.62891 0.49609 0.23047 0.92969 0.57422 1.3555 0.91797 1.2109 0.97656 2.4219 1.9531 3.6367 2.9297 1.3281-0.39844 2.5508-1.1367 3.5195-2.1289 0.19141-0.19531 0.38281-0.40625 0.63281-0.51562 0.28125-0.125 0.59766-0.10547 0.90234-0.085938 1.1602 0.078126 2.3242 0.15234 3.4844 0.23047-0.15625-1.5195-0.015625-3.4141 1.3711-4.0508 1.0742-0.49219 2.3125 0.074219 3.3594 0.62891 0.51562 0.27344 1.043 0.55859 1.4023 1.0195 0.35938 0.46094 0.49609 1.1445 0.16406 1.625-0.89453 0.054687-1.7812 0.23437-2.6289 0.52734 0.125 1.2852 0.35938 2.5625 0.69531 3.8086l0.92188-0.17578c1.0195-0.41406 2.0352-0.82422 3.0547-1.2344 0.38281-0.15625 0.77344-0.3125 1.1875-0.35156 0.72656-0.066406 1.4258 0.24219 2.0898 0.54297 0.96094 0.4375 2.0195 0.97266 2.3516 1.9766 0.63672-0.80859 1.0508-1.7695 1.4102-2.7344 1.5977 2.6133 3.6289 4.9648 5.9844 6.9219l0.50781 8.2148c0.074219 1.2266 0.15234 2.4688-0.0625 3.6797-0.21484 1.2109-0.75 2.4062-1.6992 3.1836l0.015625 0.53125c0.79688 0.62109 1.668 1.3711 1.7148 2.3828 0.023437 0.52734-0.1875 1.0352-0.34766 1.5391-0.17188 0.53906-0.28906 1.1133-0.16797 1.668 0.10156 0.45312 0.35547 0.85547 0.60547 1.2461 1.2031 1.8867 2.4023 3.7695 3.6055 5.6562 0.085937 0.13672 0.1875 0.28125 0.33984 0.32031 0.10156 0.027344 0.21094 0.003907 0.3125-0.023437 0.32422-0.078125 0.66016-0.16016 0.92578-0.35938 0.26563-0.19922 0.44531-0.55469 0.34375-0.87109-0.074218-0.22656-0.26562-0.38672-0.38672-0.58984-0.22266-0.37891-0.14844-0.91016 0.17578-1.2109 0.074219-0.070313 0.16797-0.12891 0.26953-0.12891 0.097656 0 0.1875 0.058593 0.26172 0.12109 0.48828 0.40234 0.85547 1.1328 1.4883 1.0781 0.35156-0.03125 0.63281-0.32422 0.76562-0.65625 0.12891-0.32813 0.14062-0.69141 0.16406-1.043 0.11719-1.668 0.61328-3.3086 1.4336-4.7656 0.082031-0.14453 0.17578-0.29688 0.32422-0.375 0.12891-0.066406 0.27734-0.070313 0.42188-0.070313 1.1797-0.007812 2.3555-0.019531 3.5352-0.027343l0.44531-0.40625c1.375 0.64453 2.9844 0.23437 4.5 0.3125 2.4258 0.12109 4.7305 1.6289 5.8203 3.7969 0.14453 0.28906 0.27344 0.59766 0.5 0.82813 0.41406 0.42578 1.082 0.51172 1.6562 0.36719 0.57422-0.14062 1.082-0.47656 1.5742-0.80859 1.0391-0.69531 2.0742-1.3906 3.1133-2.0859 0.64844-0.43359 1.4102-0.88672 2.1562-0.66406 0.61719 0.1875 1.0742 0.80859 1.7148 0.84766 0.31641 0.019531 0.62109-0.11328 0.91016-0.23828 1.1523-0.50781 2.3008-1.0156 3.4531-1.5195 0.14062-0.0625 0.29687-0.125 0.44922-0.097656 0.16016 0.03125 0.28516 0.15625 0.39844 0.27344 1.4102 1.4609 2.9961 2.7539 4.7109 3.8398 0.26172 0.16406 0.53516 0.33594 0.69922 0.59766 0.14844 0.24219 0.1875 0.53125 0.22266 0.8125 0.085938 0.67969 0.17188 1.3594 0.25781 2.0391l0.25781 0.37891c1.1719-0.058594 2.3398-0.11719 3.5117-0.17578 0.58203 1.082 0.33594 2.4102 0.61719 3.6055 0.1875 0.79297 0.60547 1.5039 1.0195 2.207l2.6055 4.4141c0.74219-0.21094 1.457-0.53516 2.1055-0.95703-0.74609-0.75391-1.0781-1.8125-1.3828-2.8281-0.10156-0.33594-0.19531-0.71484-0.023438-1.0156 0.29297-0.51172 1.1172-0.37109 1.5156 0.066406 0.39453 0.4375 0.53516 1.043 0.84375 1.5469 0.46484 0.75781 1.293 1.2422 2.1523 1.4766s1.7617 0.24609 2.6523 0.25781c-0.49219 1.1641-0.98438 2.332-1.4766 3.4961-0.074218 0.17578-0.15234 0.35547-0.29688 0.48047-0.13672 0.11719-0.31641 0.17188-0.49609 0.19531-0.70313 0.09375-1.4844-0.20703-2.1016 0.15234-0.31641 0.18359-0.51562 0.50391-0.72266 0.80469-0.51953 0.74609-1.1523 1.4102-1.8711 1.9648-0.41406 0.32031-0.86328 0.60938-1.1914 1.0195-0.32812 0.41016-0.51562 0.98047-0.31641 1.4648l-0.035156 0.47266c0.27734 0.11328 0.24219 0.51563 0.15625 0.80078-0.34375 1.1562-0.6875 2.3086-1.0312 3.4648-0.0625 0.21094-0.125 0.4375-0.0625 0.65234 0.050782 0.17188 0.17578 0.30859 0.29688 0.4375l1.9219 2.0508c-1.3164 0.94141-2.6367 1.8828-3.9531 2.8242-0.097656 0.070313-0.20312 0.14844-0.24609 0.26172-0.070313 0.17969 0.039062 0.375 0.14453 0.53906 0.80078 1.2539 1.6055 2.5117 2.4102 3.7656 0.58203-0.51953 1.1641-1.043 1.7461-1.5625 0.10547-0.09375 0.22266-0.19531 0.36328-0.21875 0.14062-0.023438 0.28125 0.027343 0.41016 0.082031 1.0977 0.43359 2.1914 0.86328 3.2891 1.2969 0.13672 0.054687 0.28125 0.11328 0.375 0.22656 0.10938 0.13281 0.13281 0.32031 0.12891 0.49609-0.023437 1.043-0.73828 2.0234-0.5625 3.0508 0.054687 0.32812 0.19531 0.62891 0.33594 0.92969 1.0117 2.1562 2.0234 4.3125 3.0312 6.4688-1.1641 0.74219-2.3281 1.4844-3.4883 2.2266-0.26953 0.17188-0.54297 0.34766-0.84766 0.4375-0.87891 0.26562-1.8398-0.1875-2.7344 0.019531l-0.55078 0.31641c-1.7539 0.625-2.8359 2.3633-3.6562 4.0391-0.13281 0.26562-0.26172 0.53906-0.30469 0.83203-0.17969 1.1445 0.88672 2.043 1.6484 2.918 0.15234 0.17578 0.29688 0.36328 0.37109 0.58203 0.33203 0.98438-0.86719 1.8438-0.98047 2.875-0.019532 0.16797-0.003906 0.35547 0.10547 0.48438 0.085938 0.10156 0.21094 0.15625 0.33203 0.20703 0.84766 0.34375 1.7305 0.60547 2.6289 0.77344 0.33984 0.066406 0.69531 0.11719 0.99219 0.29688 0.26562 0.15625 0.46875 0.40234 0.67187 0.63281 0.67969 0.78906 1.418 1.5312 2.2031 2.2188 0.25391 0.22266 0.53906 0.45312 0.875 0.49219 0.30469 0.035157 0.60547-0.089843 0.88672-0.21094 3.0938-1.3477 6.3594-2.7695 9.7109-2.3711l0.52734-0.48438c0.55078 1.0898 1.5703 1.8516 2.5547 2.5742 0.30859 0.22656 0.61719 0.45312 0.96875 0.59766 0.92188 0.38672 1.9688 0.16406 2.9688 0.1875 2.8203 0.074219 5.1562 2.0977 7.7344 3.2461 0.25781 0.11328 0.52734 0.22266 0.80859 0.23047 0.29297 0.007813 0.58203-0.089843 0.85938-0.1875 0.67188-0.23828 1.3438-0.47656 2.0117-0.71484 0.81641-0.28906 1.6484-0.58984 2.3164-1.1367 1.2383-1.0195 1.9062-2.8711 3.4727-3.207 0.91406-0.19531 1.9219 0.20703 2.7773-0.16406 0.38672-0.16797 0.69141-0.47266 0.98828-0.76953 0.57812-0.58203 1.1523-1.1602 1.7305-1.7422 0.21875-0.21875 0.45703-0.44922 0.76562-0.48828 0.25391-0.03125 0.50391 0.078125 0.74609 0.16016 2.9219 0.97656 5.9883-1.9805 8.9922-1.293 0.82031-2.8672 1.1289-5.3516 2.9609-8.2188 0.21094-0.33203 0.44922-0.6875 0.41406-1.0781-0.03125-0.33594-0.25781-0.61719-0.47266-0.875-0.50781-0.60547-1.0117-1.207-1.5195-1.8086-0.21484-0.25391-0.4375-0.53125-0.47266-0.86328-0.023437-0.23828 0.054688-0.47656 0.13672-0.70312 0.59766-1.7266 1.2695-3.5547 2.7305-4.6484 0.95312-0.71484 2.1328-1.0352 3.2188-1.5156 1.0859-0.48438 2.1719-1.2383 2.5078-2.3789 0.14844-0.50391 0.14062-1.0508 0.34766-1.5312 0.65625-1.5078 2.9258-1.5352 3.9102-2.8516 0.36328-0.48828 0.50781-1.1016 0.80078-1.6367 0.625-1.1523 1.8516-1.8203 3.0117-2.4258 0.48047 1.4219 1.9531 2.4414 3.4531 2.3906 0.31641-0.011718 0.66406-0.058593 0.93359 0.11328 0.21875 0.14062 0.33203 0.39062 0.43359 0.62891 0.39062 0.91797 0.78125 1.832 1.168 2.75 0.11328 0.26562 0.22656 0.55859 0.14453 0.83594-0.12109 0.40625-0.59766 0.57812-0.88281 0.89062-0.82031 0.89844 0.19141 2.2539 0.36328 3.457 0.125 0.87891-0.27734 1.8125-1.0039 2.3281-0.82812-0.22656-1.5078-1.4258-2.2266-0.96094-0.36719 0.23828-0.38281 0.76562-0.32031 1.2031 0.14844 1.0469 0.42578 2.3086-0.36719 3.0078-0.35156 0.3125-0.84375 0.41797-1.2344 0.68359-0.72656 0.48828-1.0078 1.457-0.91016 2.3281 0.097656 0.87109 0.50391 1.6719 0.90625 2.4531l-0.26953 0.60938c-0.47656 2-0.95703 4-1.4336 6-0.19922 0.83594-0.40625 1.6875-0.88281 2.4062-0.47656 0.71484-1.2773 1.2734-2.1367 1.2148 0.085937 1.4023 0.17578 2.8086 0.26172 4.2109 0.015626 0.26562 0.039063 0.54688 0.19922 0.76172 0.20312 0.26953 0.56641 0.34766 0.89453 0.40625 1.168 0.21484 2.332 0.42578 3.5 0.64062 0.34766 0.0625 0.70313 0.13281 0.99609 0.32813 0.23047 0.15625 0.40234 0.38672 0.57031 0.61328 1.0156 1.3594 2.0273 2.7148 3.043 4.0742 0.22656 0.30469 0.46094 0.62109 0.53906 0.99219 0.085938 0.40234-0.019531 0.81641-0.12109 1.2109l-1.0664 4.082c-0.28906 1.1055-0.67188 2.332-1.6875 2.8594-0.27344 0.14062-0.60547 0.25-0.73438 0.53125-0.097656 0.21875-0.035156 0.47266 0.035156 0.69922 0.52344 1.7344 1.2617 3.4062 2.1992 4.957 0.20703 0.34375 0.42969 0.69922 0.46094 1.0977 0.027343 0.36328-0.10547 0.71875-0.23828 1.0625-0.68359 1.7734-1.3672 3.5469-2.0547 5.3164 1.4688 0.046875 2.9375 0.070313 4.4062 0.070313 2.7383 0.003906 5.7578-0.17578 7.7383-2.0664l1.2461-0.39063c2.6836 2.8359 5.3711 5.6719 8.0547 8.5078 0.27344 0.28906 0.55859 0.58594 0.93359 0.72266 0.47266 0.17578 0.99609 0.0625 1.5 0.054688 1.5195-0.023438 2.9141 0.96484 3.7539 2.2305 0.83984 1.2656 1.2109 2.7773 1.4922 4.2695 0.066406 0.34375 0.12891 0.70312 0.32031 1 0.52734 0.83203 1.7031 0.84766 2.6875 0.82812 0.98438-0.019532 2.1953 0.17188 2.5195 1.1016 0.14453 0.41406 0.0625 0.89844 0.28125 1.2812 0.22656 0.39453 0.70703 0.55859 1.1445 0.69141 3.9844 1.207 7.9727 2.4141 11.957 3.6211 0.51172 0.15625 1.0352 0.31641 1.4688 0.63281 0.42188 0.3125 0.72656 0.75391 1.0234 1.1875 0.56641 0.82812 1.1289 1.6562 1.6953 2.4883-0.76562 0.17188-1.1836 1.0547-1.1523 1.8398s0.38281 1.5156 0.62891 2.2617c0.30078 0.92188 0.44531 1.8984 0.41797 2.8672l2.9922-0.94922c-0.054688-0.70312-0.015625-1.4141 0.11719-2.1055 1.2852-0.11328 2.6484-0.21094 3.793 0.37891 2.1758 1.1211 2.5625 4.1133 4.3008 5.8359l0.12109 0.17188c0.54297 2.1133 1.9844 3.9805 3.8906 5.0391-1.0781 1.0977-0.24609 3.332 1.2852 3.4609-0.58203 1.2461-1.1602 2.4883-1.7422 3.7344-0.15625 0.33203-0.31641 0.6875-0.28125 1.0547 0.035156 0.35938 0.25 0.66797 0.45703 0.96094l2.1719 3.0625c0.90625-1.5312 2.3047-3.293 4.043-2.9023 0.5 0.11328 0.98047 0.41016 1.4922 0.33984 0.70312-0.09375 1.1094-0.8125 1.6055-1.3164 1.1797-1.1992 3.0547-1.2773 4.7383-1.2773 0.76562 0 1.582 0.015625 2.2109 0.45312 0.62891 0.4375 0.88672 1.4688 0.30469 1.9609l0.18359 0.57422c-0.10938 0.066407-0.082031 0.24609 0.019531 0.32422 0.10156 0.078125 0.23828 0.078125 0.36719 0.078125 0.70703-0.003906 1.4102-0.011718 2.1172-0.015625l0.23047-0.5625c-0.36719-1.0859-0.89844-2.1133-1.5703-3.0391 0.99219-1.5 2.2617-2.875 3.8945-3.6328 1.6289-0.75781 3.6602-0.80859 5.1562 0.1875 0.49219 0.32812 0.9375 0.76953 1.5156 0.90625 1.1133 0.26562 2.4141-0.66797 3.3477-0.007812 0.28906 0.20312 0.47266 0.53125 0.76562 0.73047 0.76953 0.52734 1.8906-0.13281 2.1797-1.0195 0.28906-0.88672 0.007812-1.8438-0.27344-2.7305 0.89844-0.24219 1.957-0.45703 2.6875 0.11719 0.28906 0.22656 0.48828 0.55078 0.73828 0.82422 1.1367 1.2344 3.3789 1.4258 3.875 3.0273 0.57422-2.0469 2.4531-3.668 4.5625-3.9297 0.27344-0.035156 0.57031-0.054687 0.77344-0.24219 0.23438-0.21875 0.25781-0.57422 0.26172-0.89453 0.023437-1.6836 0.019531-3.4766-0.90234-4.8867l0.70312 0.1875c0.65625-2.293 1.3164-4.5859 1.9727-6.8828 0.31641 0.375 0.95312 0.30469 1.3242-0.019531 0.37109-0.32422 0.54297-0.8125 0.70312-1.2773 0.46094-1.3594 0.91797-2.7188 1.3789-4.082 0.074219-0.21875 0.14844-0.46094 0.050781-0.67188-0.089844-0.19531-0.29688-0.30469-0.49219-0.39453-1.6367-0.78516-3.2734-1.5664-4.9062-2.3516-0.14844-1.2109 0.59375-2.3281 1.2109-3.3828 0.61719-1.0547 1.1445-2.3711 0.58203-3.457-0.46875-0.90625-1.5586-1.3203-2.5781-1.3906-1.0195-0.070312-2.043 0.12109-3.0586 0.058594 0.49219-1.5 0.77344-3.1094 0.50391-4.6641-0.40234-2.3125-1.957-4.2305-3.457-6.0391-0.45312-0.54297-0.91797-1.1016-1.543-1.4375-1.0586-0.57422-2.3477-0.41406-3.5391-0.23828l-0.38672 0.18359c0.023437-1.3711-0.72266-2.6133-1.2461-3.8789s-0.78906-2.8398 0.070312-3.9102c0.3125-0.39062 0.75-0.67188 1.0391-1.082 0.86328-1.2266 0.0625-2.9414 0.38281-4.4062 1.0586-0.011719 2.3047-0.33594 2.668-1.332 0.34766-0.94922-0.36719-2.0234-1.293-2.4336-0.92578-0.41016-1.9805-0.33203-2.9922-0.25-0.51953-0.85938-0.28516-1.9922 0.23047-2.8516s1.2773-1.5391 1.8984-2.3281c1.4531-1.8555 2.0625-4.2188 2.6367-6.5039 1.8281 0.51953 3.9492-0.97656 4.0664-2.875 0.62109-0.003906 1.2461-0.011719 1.8711-0.015625l0.73828-0.5625c0.21094-0.86719-0.03125-1.832-0.62891-2.4922-0.35156-0.39063-0.8125-0.67578-1.1367-1.0898-0.32422-0.41406-0.47656-1.043-0.14062-1.4492 0.44922-0.54688 1.3477-0.27734 2-0.54297 0.58984-0.23828 0.90234-0.87109 1.1602-1.4531 0.32031-0.71875 0.64063-1.4375 0.96094-2.1562 0.30469-0.67969 0.60547-1.4805 0.26172-2.1406-0.13672-0.26172-0.35938-0.46484-0.50781-0.72266-0.17969-0.3125-0.23047-0.6875-0.22266-1.0469 0.035156-1.3516 0.94531-2.6367 2.2109-3.1172 0.27734-0.10547 0.58984-0.1875 0.76953-0.42188 0.16406-0.21094 0.1875-0.49219 0.20312-0.75781 0.089844-1.4219 0.17578-2.8438 0.26562-4.2656l0.11328-0.62891c2.1523-1.4883 4.4648-2.7461 6.8828-3.75 0.46484-2.2383 0.92969-4.4766 1.3906-6.7148 0.054687-0.25781 0.11328-0.52734 0.27734-0.73047 0.1875-0.23047 0.48047-0.33984 0.76172-0.44141l5.4414-1.9648c-0.070312 3.2578 3.0273 6.2227 6.2773 6.0156 0.33984-1.2734 0.81641-2.7148 2.0312-3.2188 0.73828-0.30859 1.6484-0.16016 2.2383 0.37891 0.58984 0.53906 0.82422 1.4414 0.55078 2.1953-0.36328 1-1.5195 1.9922-0.92969 2.8828 0.19531 0.29688 0.54297 0.45313 0.87109 0.59375 1.0234 0.44141 2.0469 0.88281 3.0703 1.3203 0.32812-0.84375 0.65234-1.6914 0.98047-2.5352l0.65625 0.074219c-0.70312-0.73047-1.4023-1.457-2.1055-2.1875-0.18359-0.19141-0.375-0.39453-0.41406-0.65625-0.050781-0.30859 0.12891-0.60547 0.3125-0.85938 1.3086-1.7969 3.4102-2.9922 5.6211-3.1953 0.17578-1.4609-0.03125-2.9648-0.5625-4.3398-0.34375-0.89062-0.82812-1.75-0.93359-2.6992-0.10156-0.94922 0.32031-2.0547 1.2344-2.3359 0.8125-0.25 1.832 0.19141 2.4688-0.37109 0.37891-0.33203 0.44531-0.88281 0.625-1.3555 0.49609-1.2969 1.8672-2 3.125-2.582 1.1016-0.51172 2.2031-1.0234 3.3047-1.5352l-0.10938-0.87109c0.9375-2.2852 1.8789-4.5703 2.8203-6.8555 0.28516-0.69141 0.58594-1.4062 1.1367-1.9102 0.55469-0.50391 1.4375-0.72656 2.0586-0.30859 0.47656 0.32031 0.67578 0.90625 0.98828 1.3867 1.082 1.6445 3.8828 1.6953 5.0273 0.089844 0.30859-0.43359 0.54688-0.98828 1.0508-1.1602 0.57812-0.20312 1.2031 0.20312 1.8086 0.125 1.1016-0.14453 1.3945-1.6094 1.1289-2.6641zm-192.06 1.0781c-22.805-15.316-39.035-30.258-50.078-44.156l31.953 0.17188c0.65625 0.023438 1.207-0.29297 1.5703-0.79297l2.2383-3.0547 2.7461 3.5117c0.46484 0.59375 1.2344 0.86328 1.9688 0.69141 0.73438-0.17578 1.3008-0.75781 1.4531-1.5l5.2852-26.098 5.4102 52.094c0.097657 0.95703 0.88672 1.6953 1.8477 1.7344h0.078125c0.92969 0 1.7344-0.66016 1.9023-1.582l5.4922-29.633 0.93359 3.4023c0.23047 0.83594 0.98828 1.418 1.8516 1.4219l34.973 0.20312c-11.027 13.738-27.137 28.48-49.625 43.586zm52.605-47.434-36.461-0.21094-2.7383-9.9492c-0.23047-0.83984-1.0703-1.4219-1.9414-1.4219-0.93359 0-1.7344 0.66406-1.9023 1.582l-4.5508 24.57-5.332-51.355c-0.097656-0.95312-0.875-1.6875-1.832-1.7344-0.94922-0.050781-1.8008 0.61328-1.9883 1.5469l-6.9648 34.395-1.7344-2.2188c-0.375-0.47656-0.87109-0.75391-1.5547-0.74219-0.60547 0.007812-1.1719 0.30469-1.5312 0.79297l-3.168 4.3164-33.957-0.18359c-45.891-62.406 13.793-101.88 53-55.074h0.10156c39.332-46.949 99.285-7.0742 52.555 55.688z"/>
 </g>
</svg>
