<?xml version="1.0" encoding="UTF-8"?>
<svg fill='black' version='1.1' height='200' width='200' viewBox='125 125 500 500' xmlns='http://www.w3.org/2000/svg'>

 <defs>
  <clipPath id="c">
   <path d="m139.21 139.21h229.79v473.58h-229.79z"/>
  </clipPath>
  <clipPath id="b">
   <path d="m383 169h229.79v443.79h-229.79z"/>
  </clipPath>
  <clipPath id="a">
   <path d="m475 139.21h47v46.789h-47z"/>
  </clipPath>
 </defs>
 <g clip-path="url(#c)">
  <path d="m336.61 311.09-35.191-15.641 0.52734-1.5742c3.5234-10.574 5.3125-21.59 5.3125-32.734 0-15.984-3.7773-31.996-10.93-46.293l-0.58594-1.1719c6.7891-3.1992 11.512-10.09 11.512-18.082 0-3.0859-0.73047-6.1797-2.1094-8.9414l-2.8359-5.668c3.0352-2.7969 4.9453-6.7852 4.9453-11.223v-15.277c0-8.4219-6.8555-15.277-15.277-15.277h-76.383c-8.4219 0-15.277 6.8555-15.277 15.277v15.277c0 4.4375 1.9141 8.4258 4.9453 11.223l-2.832 5.668c-1.3828 2.7617-2.1133 5.8555-2.1133 8.9414 0 7.9922 4.7227 14.883 11.516 18.082l-0.58594 1.1719c-7.1484 14.297-10.93 30.305-10.93 46.293 0 11.145 1.7891 22.16 5.3125 32.734l0.52734 1.5742-35.191 15.641c-19.289 8.5742-31.754 27.754-31.754 48.859v214.65c0 21.059 17.133 38.191 38.191 38.191h152.77c21.059 0 38.191-17.133 38.191-38.191v-214.65c0-21.105-12.465-40.285-31.754-48.859zm-49.16-22.047-0.97656 2.9336h-65.371l-0.97656-2.9336c-3.0078-9.0156-4.5312-18.402-4.5312-27.902 0-13.625 3.2227-27.273 9.3164-39.461l3.043-6.0898h51.664l3.043 6.0859c6.0938 12.188 9.3164 25.836 9.3164 39.461 0.003907 9.5039-1.5195 18.891-4.5273 27.906zm-67.133-104h66.941l4.2227 8.4453c0.32812 0.65234 0.5 1.3828 0.5 2.1094 0 2.6016-2.1172 4.7188-4.7188 4.7188h-66.945c-2.6055 0-4.7227-2.1172-4.7227-4.7188 0-0.73047 0.17188-1.457 0.49609-2.1094zm-4.7227-30.555h76.383l0.007813 15.277h-0.007813-76.383zm134.33 297.9-27.391 27.387v-54.777zm-42.668 38.191h-30.555v-76.383h30.555zm-45.828 0h-15.277v-76.383h15.277zm-30.555 0h-30.555v-76.383h30.555zm-45.828-10.805-27.391-27.387 27.391-27.391zm-30.555-8.9453 50.305 50.305h-50.305zm71.91 50.305-15.277-15.277h85.332l-15.277 15.277zm126.69-50.305v50.305h-50.305zm0-36.883-50.305-50.305h50.305zm-71.91-50.305 15.277 15.277h-85.332l15.277-15.277zm-126.69 50.305v-50.305h50.305zm175.68 163.57h-152.77c-12.637 0-22.914-10.281-22.914-22.914v-38.191h198.6v38.191c0 12.633-10.281 22.914-22.914 22.914zm22.914-229.15h-198.6v-8.4062c0-15.078 8.9023-28.777 22.68-34.898l40.047-17.805h73.141l40.047 17.801c13.777 6.125 22.68 19.824 22.68 34.898z"/>
 </g>
 <g clip-path="url(#b)">
  <path d="m612.79 299.62c0-12.078-5.75-23.387-15.277-30.547v-0.007812c0-7.4336-2.1445-14.375-5.832-20.25 3.7539-5.168 5.832-11.422 5.832-17.941 0-16.848-13.707-30.555-30.555-30.555-0.44141 0-0.88672 0.011719-1.3242 0.03125 0.85547-2.3984 1.3242-4.9805 1.3242-7.668 0-12.637-10.281-22.914-22.914-22.914-12.637 0-22.914 10.281-22.914 22.914 0 11.492 8.5039 21.035 19.551 22.664-0.35938 0.60156-0.70312 1.2148-1.0234 1.8438-3.4922-1.0391-7.1523-1.5938-10.891-1.5938-5.2695 0-10.477 1.0938-15.277 3.1914-4.8008-2.0977-10.008-3.1914-15.277-3.1914-5.2695 0-10.477 1.0938-15.277 3.1914-4.8008-2.0977-10.008-3.1914-15.273-3.1914-12.078 0-23.387 5.75-30.547 15.277h-0.007813c-2.9648 0-5.8516 0.35156-8.625 0.99219-2.8555-9.4023-11.605-16.27-21.93-16.27-12.637 0-22.914 10.281-22.914 22.914 0 10.324 6.8672 19.074 16.27 21.93-0.64062 2.7734-0.99219 5.6602-0.99219 8.625v0.007812c-9.5273 7.1602-15.277 18.465-15.277 30.547 0 17.926 12.414 32.996 29.094 37.09l-12.051 60.254c-1.1719 5.8672-1.7695 11.875-1.7695 17.855 0 45.211 33.129 82.824 76.383 89.855v48.039c-30.746 2.8125-61.105 11.797-61.105 29.531 0 10.07 9.3594 17.984 27.816 23.52 15.121 4.5312 35.082 7.0312 56.207 7.0312s41.086-2.4961 56.207-7.0352c18.457-5.5352 27.816-13.449 27.816-23.52 0-17.734-30.359-26.719-61.105-29.531v-48.039c43.254-7.0312 76.383-44.645 76.383-89.855 0-5.9805-0.59375-11.988-1.7695-17.855l-12.051-60.254c16.68-4.0898 29.098-19.16 29.098-37.086zm-30.555-15.277c0 4.2109-3.4258 7.6367-7.6367 7.6367-4.2109 0-7.6367-3.4258-7.6367-7.6367 0-4.2109 3.4258-7.6367 7.6367-7.6367 4.2109 0 7.6367 3.4258 7.6367 7.6367zm-45.832-91.66c0-4.2109 3.4258-7.6367 7.6367-7.6367 4.2109 0 7.6367 3.4258 7.6367 7.6367 0 4.2109-3.4258 7.6367-7.6367 7.6367-4.207 0-7.6367-3.4258-7.6367-7.6367zm30.555 22.914c8.4219 0 15.277 6.8555 15.277 15.277 0 2.3125-0.52734 4.5547-1.5 6.5859-6.1133-4.1523-13.484-6.5859-21.414-6.5859h-0.007813c-1.8125-2.4102-3.8906-4.5781-6.1797-6.4727 2.4688-5.2227 7.8164-8.8047 13.824-8.8047zm-160.41 30.555c-4.2109 0-7.6367-3.4258-7.6367-7.6367 0-4.2109 3.4258-7.6367 7.6367-7.6367 4.2109 0 7.6367 3.4258 7.6367 7.6367v0.023437c-2.8828 2.168-5.4453 4.7344-7.6133 7.6133h-0.023437zm22.914 68.746c0-4.2109 3.4258-7.6367 7.6367-7.6367 4.2109 0 7.6367 3.4258 7.6367 7.6367 0 4.2109-3.4258 7.6367-7.6367 7.6367-4.207 0-7.6367-3.4258-7.6367-7.6367zm138.87 22.914 4.3633 21.82c-1.2852 1.1172-2.4297 2.2578-3.5039 3.332-3.7461 3.7461-5.582 5.4023-9.8789 5.4023-4.293 0-6.1328-1.6562-9.8789-5.4023-4.1641-4.168-9.8711-9.875-20.672-9.875s-16.508 5.707-20.676 9.875c-3.7461 3.7461-5.582 5.4023-9.875 5.4023-4.293 0-6.1289-1.6562-9.875-5.4023-4.1719-4.168-9.8789-9.875-20.68-9.875-10.801 0-16.508 5.707-20.676 9.875-3.7461 3.7461-5.582 5.4023-9.875 5.4023s-6.1289-1.6562-9.875-5.4023c-1.0742-1.0742-2.2188-2.2148-3.5039-3.332l4.3633-21.82zm-77.758 168.05h15.277v53.469c0 4.2109-3.4258 7.6367-7.6367 7.6367s-7.6367-3.4258-7.6367-7.6367zm76.359 76.383c-1.5391 4.3242-24.434 15.277-68.723 15.277-44.285 0-67.18-10.953-68.723-15.277 1.2109-3.3516 16.156-11.551 47.473-14.352 3.4023 8.4062 11.645 14.352 21.25 14.352 9.6094 0 17.848-5.9453 21.25-14.352 31.312 2.8008 46.262 11 47.473 14.352zm-60.465-91.66h-16.516c-41.777 0-75.762-33.988-75.762-75.766 0-4.9766 0.49609-9.9766 1.4727-14.859l4.5273-22.645c3.8398 3.2734 9.0117 6.3281 16.914 6.3281 10.801 0 16.508-5.707 20.676-9.875 3.7461-3.7461 5.582-5.4023 9.875-5.4023 4.293 0 6.1289 1.6562 9.875 5.4023 4.168 4.168 9.875 9.875 20.68 9.875 10.801 0 16.512-5.707 20.68-9.875 3.7461-3.7461 5.582-5.4023 9.875-5.4023s6.1289 1.6562 9.8789 5.4023c4.168 4.168 9.875 9.875 20.68 9.875 7.9062 0 13.074-3.0586 16.918-6.332l4.5273 22.645c0.97656 4.8828 1.4727 9.8828 1.4727 14.859-0.007813 41.781-33.996 75.77-75.773 75.77zm68.129-168.05h-115.89c0.84766-2.3906 1.3125-4.9609 1.3125-7.6367 0-12.637-10.281-22.914-22.914-22.914-12.637 0-22.914 10.281-22.914 22.914 0 2.3125 0.34766 4.543 0.98828 6.6523-9.4023-2.8594-16.266-11.605-16.266-21.93 0-8.2422 4.4688-15.891 11.66-19.957l4.4727-2.5273-0.65625-5.0977c-0.13281-1.0391-0.19922-2.0117-0.19922-2.9688 0-12.637 10.281-22.914 22.914-22.914 0.95703 0 1.9297 0.066406 2.9688 0.19922l5.0977 0.65625 2.5273-4.4727c4.0703-7.1953 11.715-11.664 19.961-11.664 4.0195 0 7.9805 1.0625 11.449 3.0703l3.8242 2.2148 3.8242-2.2148c3.4766-2.0078 7.4336-3.0703 11.453-3.0703 4.0195 0 7.9805 1.0625 11.449 3.0703l3.8242 2.2148 3.8242-2.2148c3.4766-2.0078 7.4375-3.0703 11.457-3.0703 8.2422 0 15.891 4.4688 19.957 11.66l2.5273 4.4727 5.0977-0.65625c1.0391-0.13281 2.0117-0.19922 2.9688-0.19922 10.324 0 19.07 6.8633 21.93 16.266-2.1055-0.64062-4.3359-0.98828-6.6484-0.98828-12.637 0-22.914 10.281-22.914 22.914 0 12.637 10.281 22.914 22.914 22.914 9.9531 0 18.441-6.3789 21.598-15.262 0.85547 2.418 1.3203 4.9883 1.3203 7.625-0.003906 12.637-10.285 22.914-22.918 22.914z"/>
 </g>
 <path d="m498.21 246.15c-12.637 0-22.914 10.281-22.914 22.914 0 12.637 10.281 22.914 22.914 22.914 12.637 0 22.914-10.281 22.914-22.914 0.003906-12.633-10.277-22.914-22.914-22.914zm0 30.555c-4.2109 0-7.6367-3.4258-7.6367-7.6367 0-4.2109 3.4258-7.6367 7.6367-7.6367 4.2109 0 7.6367 3.4258 7.6367 7.6367 0.003907 4.2109-3.4258 7.6367-7.6367 7.6367z"/>
 <g clip-path="url(#a)">
  <path d="m498.21 185.04c12.637 0 22.914-10.281 22.914-22.914 0.003906-12.637-10.277-22.918-22.914-22.918-12.637 0-22.914 10.281-22.914 22.914 0 12.637 10.281 22.918 22.914 22.918zm0-30.555c4.2109 0 7.6367 3.4258 7.6367 7.6367s-3.4258 7.6367-7.6367 7.6367c-4.2109 0-7.6367-3.4258-7.6367-7.6367s3.4258-7.6367 7.6367-7.6367z"/>
 </g>
 <path d="m437.11 200.32c12.637 0 22.914-10.281 22.914-22.914 0-12.637-10.281-22.914-22.914-22.914-12.637 0-22.914 10.281-22.914 22.914 0 12.637 10.277 22.914 22.914 22.914zm0-30.551c4.2109 0 7.6367 3.4258 7.6367 7.6367 0 4.2109-3.4258 7.6367-7.6367 7.6367s-7.6367-3.4258-7.6367-7.6367c-0.003906-4.2109 3.4258-7.6367 7.6367-7.6367z"/>
</svg>
