<?xml version="1.0" encoding="UTF-8"?>
<svg fill='black' version='1.1' height='200' width='200' viewBox='125 125 500 500' xmlns='http://www.w3.org/2000/svg'>
 <path d="m493.25 299.75-68.555 39.828c-1.9336-4.0859-4.3398-7.8984-7.1523-11.371l69.473-40.363c1.5391 4.2734 3.6406 8.2734 6.2344 11.906zm-232.44-11.156c-1.5469 4.2656-3.6562 8.2578-6.2578 11.887l68.465 39.562c1.8945-4.1016 4.2656-7.9375 7.0469-11.434zm118.79 19.062v-64.645c-1.9805 0.26953-3.9766 0.46094-6.0273 0.46094-2.2344 0-4.4102-0.21875-6.5547-0.53906v64.887c2.2773-0.28125 4.5977-0.44531 6.9531-0.44531 1.8984-0.003906 3.7734 0.089844 5.6289 0.28125zm46.488 76.43c-1.6719 4.207-3.8359 8.1602-6.4258 11.793l48.613 28.082c1.6055-4.2422 3.8398-8.1758 6.6094-11.684zm-104.34-0.22656-49.242 28.605c2.7578 3.5195 4.9727 7.457 6.5703 11.707l49.043-28.492c-2.5703-3.6484-4.7188-7.6094-6.3711-11.82zm-84.402 11.523-10.945-75.797c-3.7891 0.9375-7.7227 1.4922-11.801 1.4922-0.52734 0-1.0391-0.0625-1.5625-0.082031l11.043 76.504c4.1953-1.3516 8.6406-2.0898 13.266-2.1172zm0.26172 88.648c-9.2578 0-17.863-2.8633-24.984-7.7383l-37.266 111.81h41.191l25.039-104.27c-1.3125 0.11328-2.6406 0.19922-3.9805 0.19922zm176.46 57.73c0-6.875-1.7227-13.34-4.7344-19.016l69.246-51.629c-3.1875-3.1445-5.9102-6.7656-8.0312-10.758l-65.707 48.984-15.828-91.895c-4.793 1.3398-9.8398 2.0703-15.055 2.0703-5.6641 0-11.129-0.85156-16.293-2.4219l-15.895 92.699-65.344-48.715c-2.1914 3.9531-4.9727 7.5195-8.2148 10.617l69.117 51.535c-2.8633 5.5547-4.5078 11.844-4.5078 18.527 0 6.4844 1.5586 12.582 4.2539 18.02h-15.836v28.895h103.55v-28.895h-14.984c2.6992-5.4375 4.2578-11.539 4.2578-18.02zm95.539-57.902c-1.1758 0-2.3242-0.085937-3.4766-0.17578l25.07 104.41h41.195l-37.426-112.28c-7.1914 5.0586-15.922 8.0469-25.363 8.0469zm-247.72-225.35 75.18-34.32c-2.5234-3.6758-4.5-7.7422-5.8242-12.094l-74.773 34.125c2.3359 3.793 4.168 7.9062 5.418 12.289zm148.43-34.691 75.547 34.484c1.1992-4.3906 2.9961-8.5273 5.2891-12.34l-75.156-34.305c-1.2812 4.3672-3.1992 8.4688-5.6797 12.16zm111.7 173.36 11.082-76.75c-4.6094-0.015626-9.0547-0.69922-13.289-1.9102l-11.102 76.898c0.29688-0.003907 0.59375-0.046875 0.89453-0.046875 4.3086 0.003906 8.4727 0.65234 12.414 1.8086zm-284.45 80.508c20.852 0 37.758-16.902 37.758-37.758 0-20.855-16.906-37.758-37.758-37.758-20.855 0-37.762 16.902-37.762 37.758 0 20.852 16.906 37.758 37.762 37.758zm271.75 0c20.855 0 37.762-16.902 37.762-37.758 0-20.855-16.906-37.758-37.762-37.758-20.852 0-37.758 16.902-37.758 37.758 0 20.852 16.906 37.758 37.758 37.758zm-295.49-163.05c23.703 0 42.906-19.215 42.906-42.91 0-23.699-19.203-42.91-42.906-42.91-23.699 0-42.906 19.215-42.906 42.91 0 23.695 19.207 42.91 42.906 42.91zm159.62-76.664c20.855 0 37.758-16.906 37.758-37.762 0-20.852-16.902-37.758-37.758-37.758s-37.758 16.906-37.758 37.758c0 20.855 16.902 37.762 37.758 37.762zm159.62 76.664c23.703 0 42.91-19.215 42.91-42.91 0-23.699-19.207-42.91-42.91-42.91-23.699 0-42.902 19.215-42.902 42.91 0 23.695 19.203 42.91 42.902 42.91zm-159.62 98.973c27.488 0 49.773-22.285 49.773-49.773 0-27.488-22.293-49.773-49.773-49.773s-49.773 22.281-49.773 49.773c0 27.492 22.289 49.773 49.773 49.773z"/>
</svg>
