<?xml version="1.0" encoding="UTF-8"?>
<svg fill='black' version='1.1' height='200' width='200' viewBox='125 125 500 500' xmlns='http://www.w3.org/2000/svg'>
 <g>
  <path d="m417 286.7c1.1445 0.125 2.3203 0.17578 3.5 0.22656 2.2539 0.085937 4.3828 0.17187 6 0.87109 3.6484 1.5859 7.2031 2.1484 10.664 2.1484 3.6758 0 7.2383-0.63672 10.676-1.3477 1.3438-0.28516 2.5547-0.73437 3.7305-1.168 1.6289-0.60547 3.0195-1.2266 4.457-1.0898 1.6133-0.074219 2.8047-1.1719 2.8438-2.7031 0.035156-1.5312-1.1719-2.8047-2.7031-2.8438-2.5156-0.039063-4.6367 0.73438-6.5312 1.4375-1.0273 0.38672-2 0.74219-2.9336 0.94141-6.0391 1.2578-11.957 2.1719-17.988-0.45703-2.5742-1.1172-5.3281-1.2227-7.9961-1.3242-1.043-0.042969-2.0898-0.078125-3.1055-0.19141-1.5078-0.21094-2.8984 0.92969-3.0625 2.4492-0.17578 1.5117 0.92578 2.8828 2.4492 3.0508z"/>
  <path d="m470.07 205.68c0.80859 2.418 3.1016 2.7383 4.5547 2.7383 0.31641 0 0.59375 0.55078 0.80469 0.53906 0.19531-0.007812 0.38672 0.55078 0.5625 0.55078h0.078124c1.5156 0 2.7578-1.7891 2.7734-3.3164 0.019531-1.5312-1.2109-3.0742-2.7422-3.0938-0.29687 0-0.63672-0.13281-0.97266-0.10938-0.046875 0-0.097656-0.066406-0.15234-0.0625-1.6211-4.9727-2.6875-9.8789-0.26953-14.676 0.6875-1.3672 0.14062-3.0508-1.2305-3.7461-1.3711-0.69531-3.0391-0.14844-3.7266 1.2266-3.5469 7.043-1.6914 13.988 0.32031 19.949z"/>
  <path d="m415 204.53c0.23438 0 0.47266-0.03125 0.71484-0.09375 1.4805-0.39062 2.3633-1.9141 1.9727-3.3945-0.94531-3.5586 0.46875-6.1562 4.2109-7.7305 7.8164-3.2734 9.3906-9.793 9.8906-15.109 0.14453-1.5273-0.97656-2.8789-2.5039-3.0234-1.5078-0.125-2.8789 0.98047-3.0195 2.5039-0.55469 5.9141-2.3164 8.7578-6.5078 10.516-6.3203 2.6523-9.0977 7.9844-7.4297 14.266 0.32031 1.25 1.4414 2.0664 2.6719 2.0664z"/>
  <path d="m459.81 452.54c-7.7266-1.8438-14.27-0.20312-19.461 4.8555-0.32031 0.03125-0.64453 0.0625-0.93359 0.11719-1.5039 0.30859-2.3086 1.7578-2.0039 3.2578 0.26562 1.3086 1.543 2.207 2.8633 2.207 0.1875 0 0.38281-0.019531 0.57031-0.058593 0.75391-0.058594 2.0195-0.16016 3.0039-1.1758 3.9102-4.043 8.5781-5.2539 14.684-3.8047 1.4922 0.35547 2.9844-0.57031 3.3398-2.0625 0.35547-1.4883-0.57031-2.9883-2.0625-3.3359z"/>
  <path d="m400.67 473.96c-0.375-2.2891-1.625-3.8711-2.6289-5.1406-0.875-1.1016-1.3672-1.7617-1.3828-2.5039-0.03125-1.5312-1.2109-2.6875-2.832-2.7188-1.5312 0.035156-2.75 1.2969-2.7188 2.832 0.050781 2.6523 1.457 4.418 2.582 5.8438 0.84766 1.0664 1.3672 1.7617 1.5039 2.5859 0.15625 0.94141 0.36328 1.8789 0.57031 2.8203 0.37891 1.6797 0.73047 4.125 0.71875 5.6719-0.007813 1.5273 1.2227 3.6445 2.7578 3.6445h0.019531c1.5234 0 2.7656-2.0859 2.7734-3.6133 0.015625-2.1758-0.42578-4.582-0.85156-6.4883-0.19141-0.83984-0.375-2.0977-0.51172-2.9336z"/>
  <path d="m432.58 250.62c0.046875 1.5312 1.3477 2.7109 2.8594 2.6914 1.5742-0.050782 3.2266 0.24609 4.9648 0.56641 1.7969 0.32422 3.6523 0.66406 5.6328 0.66406 0.33203 0 0.66406-0.011718 1.0078-0.03125 4.8555-0.28516 5.6445-3.543 5.6836-5.4648 0.03125-1.5312-1.2031-2.6367-2.7383-2.6719-1.3398 0.035156-2.625 1.1562-2.8203 2.5469-0.11328 0.019531-0.26562 0.035156-0.45703 0.042969-1.6953 0.10547-3.457-0.21875-5.3086-0.55078-1.9453-0.35938-3.957-0.69531-6.1328-0.66016-1.5352 0.058594-2.7383 1.3359-2.6914 2.8672z"/>
  <path d="m427.81 365.84c-1.332-0.76953-3.0156-0.3125-3.7773 1.0156-0.054688 0.054687-0.35156 0.23828-0.82031 0.18359-0.50391-0.019531-0.82813-0.20703-0.80469-0.12109-0.14453-0.41016 0.070312-1.4844 0.35547-1.8281 1.2773-0.75781 1.7344-2.3984 1.0156-3.7148-0.73438-1.3477-2.4258-1.8438-3.7656-1.1055-1.5156 0.82812-2.625 2.5234-3.0352 4.6523-0.40625 2.0977-0.035156 4.0391 1.0156 5.3203 1.2188 1.4805 3.2031 2.3555 5.293 2.3555 0.20703 0 0.41797-0.011718 0.625-0.03125 2.1602-0.17969 3.957-1.2461 4.9219-2.9297 0.75781-1.3281 0.30859-3.0312-1.0234-3.7969z"/>
  <path d="m425.29 228.05c0.84375-0.62109 1.4336-0.51563 3.4102 0.16797 1.2031 0.41406 2.6289 0.91016 4.2578 0.91016 0.43359 0 0.87891-0.035156 1.3438-0.11719 1.5078-0.26172 2.5156-1.707 2.25-3.2148-0.26562-1.5039-1.7109-2.5117-3.2148-2.2461-0.76953 0.13672-1.7227-0.19531-2.8281-0.57422-2.0781-0.72266-5.2266-1.7969-8.5078 0.60547-1.2305 0.91016-1.5 2.6445-0.59375 3.8828 0.91406 1.2305 2.6523 1.4844 3.8828 0.58594z"/>
  <path d="m298.77 446.22c-1.2383 0.97656-2.4844 1.9531-3.7188 2.9648-2.9531 2.3945-4.9648 5.2812-6.9102 8.0703-0.84766 1.2148-1.6992 2.4375-2.6406 3.625-0.94922 1.2031-0.74609 2.9492 0.45703 3.8984 0.51172 0.40234 1.1172 0.59766 1.7188 0.59766 0.81641 0 1.6289-0.36328 2.1797-1.0508 1.0117-1.2852 1.9297-2.5938 2.8398-3.8945 1.8047-2.5898 3.5117-5.0352 5.8594-6.9414 1.2188-0.99219 2.4375-1.9531 3.6562-2.9102 2.6562-2.0938 5.4062-4.2617 8.0273-6.6602 16.824-15.398 39.586-25.926 60.117-34.203 0.44531 0.53906 0.88281 1.1211 1.3242 1.7461 0.60547 0.86328 1.2969 1.5898 2 2.2773-1.3203 0.53516-2.6602 1.0312-3.9727 1.5742-9.3281 3.8555-17.902 9.1367-26.199 14.242-3.8242 2.3555-7.6562 4.7109-11.57 6.9453-4.5703 2.6094-9.3828 5.6719-13.645 10.418-1.5469 1.7227-3.0664 3.5352-4.5898 5.3555l-1.3711 1.6328c-0.99609 1.1758-2 2.2891-2.9961 3.3984-1.9062 2.1133-3.875 4.3008-5.707 6.8516-0.89453 1.2461-0.60547 2.9805 0.63672 3.875 0.48828 0.35156 1.0547 0.52344 1.6172 0.52344 0.86328 0 1.7148-0.39844 2.2578-1.1562 1.6484-2.3047 3.4336-4.2812 5.3203-6.375 1.0352-1.1562 2.0781-2.3086 3.1172-3.5352l1.3828-1.6445c1.4844-1.7734 2.9648-3.5352 4.4688-5.2148 3.7344-4.1602 8.0977-6.9297 12.262-9.3086 3.9688-2.2617 7.8555-4.6523 11.73-7.0391 8.1055-4.9922 16.492-10.152 25.406-13.832 1.8203-0.75 3.6836-1.4531 5.5195-2.1914-0.79687 0.9375-1.5391 1.8789-2.2031 2.8359-21.566 13.332-40.176 30.23-53.305 48.805-0.88281 1.25-0.58984 2.9805 0.66406 3.8672 0.48828 0.34375 1.0469 0.51172 1.6016 0.51172 0.87109 0 1.7266-0.40625 2.2695-1.1719 11.145-15.766 26.402-30.301 44.098-42.379-2.6719 8.5703-1.8555 16.629-1.4492 20.637 0.085937 0.85547 0.16406 1.5078 0.16016 1.9141-0.023438 1.5703-0.0625 4.4883 2.0742 6.8789 0.54688 0.61328 1.3086 0.92969 2.0703 0.92969 0.47656 0 0.9375-0.16797 1.3672-0.41406-3.3711 2.5547-4.3164 6.8047-4.9883 9.918l-0.21875 0.99219c-0.93359 4.1641-0.74219 8.9883 0.54687 13.945 1.2305 4.7422 3.1562 8 6.0508 10.254 1.7773 1.3828 2.2617 3.0078 1.9219 6.4258l-0.23438 2.1211c-0.51172 4.4023-1.0352 8.957 0.78906 13.762 1.3516 3.5508 3.4766 6.3984 5.5352 9.1562l2.1055 2.8711c3.9414 5.4453 7.6094 10.648 9.8125 16.652-1.2227 0.85937-2.3359 1.7969-3.4102 2.7344-0.875 0.75391-1.7422 1.5156-2.6797 2.2031l-1.207 0.88672c-1.7461 1.293-3.3945 2.5117-5.1406 3.5664-4.7578 2.8867-7.5625 6.8867-8.3984 11.879-4.2344 1.293-8.6953 0.96484-13.27 0.45703-1.9727-0.22656-4.6562-0.24609-7.7852 1.4727-0.88672 0.48828-1.4336 1.4219-1.4336 2.4297 0 1.3945-0.015624 2.8281-0.03125 4.2773-0.035156 3.6328-0.070312 7.3906 0.097657 11.184 0.089843 2.0117 1.2266 6.7539 9.8398 7.2812 2.9961 0.16797 5.8945-0.097656 8.7031-0.37109 1.668-0.15625 3.332-0.31641 5.0078-0.375 10.762-0.35938 21.754 0.22656 32.383 0.78906l4.6406 0.24219c2.9453 0.16016 5.8906 0.011718 8.7383-0.125 3.0742-0.15234 5.9883-0.28516 8.8672-0.085938 2.7734 0.19531 5.5547 0.375 8.332 0.55078 7.957 0.51562 16.188 1.043 24.227 1.9219 1.8281 0.19531 3.6602 0.27734 5.4609 0.27734 3.5664 0 7.0195-0.31641 10.102-0.66406 4.8086-0.53516 5.5078-4.8164 5.8828-7.1133 0.078126-0.48438 0.15234-0.95703 0.26172-1.3867 0.45703-1.7695 0.42188-3.4609 0.38672-5.0898-0.019531-0.875-0.042969-1.7578 0.039062-2.625 0.17969-1.8711-0.48828-4.0469-1.8789-5.5703-1.7812-1.9492-4.4922-3.418-7.2656-3.418h-0.039062c-3.0234 0-5.668-0.042968-8.2266-0.75781 3.4062-9.6797 1-17.996-7.2852-25.008-0.80469-0.67969-1.5586-1.0469-2.2812-1.3945 1.1445-4.4336 3.1562-8.4961 5.3086-12.809 0.52344-1.0391 1.0391-2.0625 1.5469-3.1094 3.332-6.8789 6.5508-14.305 6.0938-22.859-0.21484-4.0039-1.4141-7.5938-2.5742-11.07-0.57031-1.707-1.1406-3.4102-1.5781-5.1562-0.26953-1.0703-0.17969-1.1641 0-1.375 6.2266-7.2617 5.3477-15.77 3.8867-22.367-1.2305-5.5664-2.1641-11.023-0.023438-16.492 1.9062-4.8789 2.582-9.9922 3.2383-14.938l0.34766-2.5781c1.7617-12.504 2.8164-22.16 3.4219-31.305 0.054687-0.83984 0.15234-1.6875 0.24609-2.5469 0.41406-3.6914 0.88672-8.1914-1.7266-12.289 0.76172-1.4805 2.0039-2.7773 3.3359-4.125 1.6602-1.6797 3.3789-3.4141 4.4922-5.7969 5.1797-11.105 7.1406-21.379 5.9922-31.406-0.64844-5.6875-0.98437-11.223 1.9766-16.406 1.5312-2.6836 2.2109-5.6797 2.7227-8.5234 1.7578-9.7461 1.8438-10.664-0.09375-18.102-1.9336-7.4531-6.0391-12.125-12.547-14.285-3.7344-1.2344-6.5898-2.4961-8.9922-3.9688-4.8594-2.9922-8.2852-6.0234-9.2031-11.102-0.21094-1.1719-0.19922-2.4727-0.17969-3.8398 0.027344-2.3477 0.054688-4.9766-1.0781-7.5938 1.418-2.5547 2.8477-5.1094 4.2773-7.6562 1.4727-2.6289 2.9453-5.2617 4.4023-7.8906 0.03125-0.054687 0.035156-0.10547 0.0625-0.16016 7.5781-0.29297 10.555-3.1211 11.82-11.113 0.25-1.582 0.62109-3.207 1.6367-4.3867 2.9766-3.4492 3.1758-7.3789 3.0117-10.418-0.054688-1.0195 0.035156-2.1289 0.13672-3.3008l0.10547-1.3555c0.078125-1.1055 0.22266-2.2305 0.36719-3.3594 0.46875-3.6602 1.0039-7.8086-0.69531-11.668-1.2734-2.9062-1.8398-5.8281-1.8906-9.7695-0.10547-7.8828-6.0508-14.711-14.133-16.227-0.45703-0.085938-0.94531-0.14062-1.4375-0.19531-1.9297-0.21484-2.0469-0.35156-2.2695-0.97656-2.8242-7.9414-9.5312-11.719-15.445-15.051l-2.2969-1.3164c-0.46094-0.26953-0.92188-0.42188-1.4023-0.55078-0.54688-1.0195-1.7031-1.6445-2.9141-1.4258-1.0469 0.17578-1.8203 0.9375-2.1367 1.875-0.96094 0.30078-1.9805 0.64844-2.9453 1.2969-1.8008 1.2188-3.2148 1.2695-5.3945 0.22656-4.8945-2.332-9.1133 0.55469-11.918 2.4844-1.3711 0.94531-2.5156 2.1172-3.6211 3.2461-0.24609 0.25391-0.52344 0.52344-0.78125 0.78125-2.8359-0.27344-5.5273 0.59375-7.832 2.6953-5.2969 4.8477-8.2969 11.004-11.199 16.957l-0.5625 1.1562c-1.793 3.6719 0.31641 6.7539 1.0156 7.7734 1.0156 1.4727 1.3281 3.0273 1.5312 5.2148 0.32422 3.5547 0.26953 7.0625 0.21094 10.781l-0.042968 3.1641c-0.007813 1.0508-0.54297 2.3008-1.6367 3.8164-3.1367 4.3555-4.082 8.0156-2.8867 11.207 1.082 2.8789 3.9336 4.9258 8.3281 6.168 0.097656 0.62891 0.23828 1.2852 0.44922 1.9688 1.3086 4.2734 2.0703 8.668 2.8789 13.32 0.34375 1.9844 0.6875 3.9648 1.0781 5.9336 0.023437 0.10547 0.050781 0.22656 0.085937 0.35547-1.7969 2.832-1.9531 5.8906-2.0898 8.625-0.097657 1.9023-0.1875 3.6914-0.82422 5.168-0.73438 1.7109-0.91016 1.7266-1.6445 1.8008-6.2227 0.64844-11.707 3.1133-16.703 5.6758-2.8633 1.4688-6.0156 2.0703-9.3516 2.7031l-2.25 0.4375c-9.5742 1.9492-15.824 7.1562-19.105 15.914-1.9609 5.25-5.3789 9.8164-8.9961 14.652-0.79688 1.0625-1.5898 2.125-2.3711 3.1914-1.4727 2.0273-3.1094 3.9023-4.8398 5.8906-2.3867 2.7383-4.8555 5.5703-6.8711 8.8398-2.1172 3.418-2.5391 6.7227-1.25 9.832 0.95312 2.293 1.8594 4.6133 2.7656 6.9297 2.8906 7.3906 5.8789 15.031 10.43 22 2.7031 4.1406 6.0586 7.2539 10.539 9.8008l1.1719 0.66406c3.5508 1.9961 6.8516 3.9688 8.8906 7.1406-0.64453 0.80859-1.375 1.5977-2.1758 2.4062-1.3594 1.3672-2.7656 2.7812-3.875 4.6445-3.418 5.7227-2.2617 11.098 3.1641 14.766-20.344 8.3164-42.539 18.891-59.332 34.254-2.4883 2.25-5.0352 4.2617-7.7344 6.3867zm103.05-43.32c-4.9688 1.8555-10.02 3.7461-15.082 5.6797 0.082031-1.5039 0.20703-3.0117 0.36719-4.5469 3.1016-0.86328 6.2109-1.6875 9.2812-2.4805 2.5117-0.64844 5.0156-1.2969 7.4961-1.9688 2.1836-0.58984 4.5469-0.66016 7.0469-0.73438 0.58203-0.019531 1.168-0.039062 1.7578-0.0625-3.6172 1.375-7.2344 2.7617-10.867 4.1133zm-19.422-6.7305c-0.12109 1.1836-0.25391 2.3711-0.39062 3.5508-2.5781 0.76953-5.1367 1.6172-7.668 2.5273 0.082032-0.21875 0.17578-0.42969 0.25-0.65234 1.5586-4.5469 3.6953-6.4609 8.0469-6.8672-0.070312 0.48828-0.1875 0.92969-0.23828 1.4414zm-3.75 14.648c-0.9375-0.85937-1.8203-1.668-2.4258-2.543-0.16016-0.22656-0.32031-0.41406-0.48047-0.63281 1.8555-0.67969 3.7344-1.3164 5.6367-1.9141-0.14453 1.668-0.23438 3.3555-0.25781 5.0586-0.58984 0.23047-1.168 0.46484-1.7578 0.69531-0.23828-0.21484-0.47266-0.44141-0.71484-0.66406zm97.824 167.43c1.1797 0 2.4531 0.52344 3.1641 1.3047 0.18359 0.20312 0.49219 0.60156 0.45703 1-0.10547 1.0859-0.085937 2.1875-0.066406 3.2734 0.03125 1.3164 0.054688 2.5586-0.21094 3.5859-0.15234 0.58594-0.25781 1.2266-0.36719 1.8867-0.39453 2.418-0.59375 2.4414-1.0195 2.4922-4.3398 0.48828-9.4414 0.91406-14.344 0.38281-8.1641-0.87891-16.453-1.4219-24.473-1.9336-2.7695-0.17578-5.5391-0.35938-8.3008-0.54688-1.168-0.082031-2.3398-0.11328-3.5-0.11328-2.0352 0-4.0508 0.097657-6.0234 0.19531-2.8359 0.13281-5.5156 0.26562-8.1836 0.125l-4.6328-0.24219c-10.746-0.57031-21.848-1.1523-32.859-0.79688-1.7852 0.0625-3.5625 0.23047-5.3438 0.39453-2.7148 0.26172-5.2773 0.50781-7.8438 0.35156-0.75781-0.042969-4.5547-0.35938-4.625-1.9844-0.16406-3.6445-0.125-7.3242-0.09375-10.887 0.007812-0.84766 0.015625-1.6875 0.023437-2.5156 0.92969-0.27734 1.8945-0.34375 3.0664-0.21094 5.1992 0.57812 10.695 0.97656 16.137-0.85547 1.7227 1.1836 3.9102 1.5703 6.5039 1.1445 1.1484-0.18359 2.3633-0.11719 3.6602-0.066406 0.82422 0.039063 1.6445 0.070313 2.4727 0.066406 3.6797-0.046875 7.457 0.10547 11.113 0.25 6.2305 0.25 12.672 0.51953 19.105-0.19141 1.3906-0.125 2.9766 0.27734 4.6562 0.73047 2.668 0.71875 5.8867 1.5898 9.2969 0.24219 1.832 1.0234 3.6953 0.99609 5.1992 0.99609l16.266-0.011719c1.0859 0 2.207-0.082031 3.3242-0.16797 2.1367-0.16016 4.1562-0.31641 5.6562 0.22656 3.625 1.2891 7.2891 1.8867 11.508 1.8867 0.09375-0.011719 0.21484-0.023438 0.27734-0.011719zm-53.832-73.602c-0.24219-1.2383-0.44531-2.4961-0.64844-3.7539-0.88672-5.5312-1.8906-11.754-6.418-16.715l1.7109-17.809c1.4023-1.7109 2.4414-3.5742 3.4531-5.3828 0.97656-1.7578 1.9336-3.4219 3.1445-4.8125 1.8438 2.168 3.0156 5.0781 3.5781 9.0742 0.78516 5.5898 1.7656 12.547 4.207 18.992 0.56641 1.4922 0.50391 2.5195-0.23828 3.7773-5.8672 9.9609-5.8594 20.711-4.9766 30.84 0.53516 6.1289 2.0625 12.059 3.5352 17.785 0.70703 2.7461 1.418 5.4961 2.0117 8.2617 0.63281 2.9297 0.58984 5.7773-0.14844 9.2344-0.84766 4.0234-0.6875 7.9492-0.53125 11.754 0.0625 1.4922 0.085937 2.9844 0.082031 4.4727-1.3789 0.26562-2.8906-0.070313-5.0156-0.64453-0.10938-0.03125-0.23047-0.058594-0.33984-0.089844 1.7422-6.1953-0.97266-11.52-4.293-16.387-1.1914-1.7422-1.3672-3.2656-1.2734-5.3203 0.17578-3.7852 0.88281-7.6719 1.5742-11.434l0.43359-2.3945c1.8906-10.676 1.9414-20.312 0.15234-29.449zm50.395-106.94c-0.10547 0.94531-0.21094 1.8828-0.26953 2.8008-0.59375 9.0039-1.6406 18.535-3.3789 30.902l-0.35547 2.625c-0.64062 4.832-1.2422 9.3906-2.9062 13.645-2.707 6.9219-1.5977 13.535-0.23047 19.711 1.7812 8.0352 0.98047 13.285-2.6758 17.547-0.28125 0.32812-0.43359 0.66016-0.625 0.98828-1.7266 0.035157-3.3828 0.25781-4.9531 0.55469l-0.89453 0.16797c-4.0898 0.72266-7.4102 0.53125-10.445-0.59766-1.4336-0.52734-3.0312 0.19531-3.5703 1.6289-0.53516 1.4375 0.19141 3.0352 1.6289 3.5742 2.4492 0.91406 5.0625 1.3672 7.8984 1.3672 1.7305 0 3.5469-0.17188 5.4609-0.51172l0.94141-0.17578c1.1953-0.22656 2.3359-0.38672 3.4492-0.45703 0.46094 1.8125 1.043 3.5938 1.6406 5.3672 1.0898 3.2734 2.125 6.3633 2.2969 9.6211 0.38672 7.2383-2.4023 13.66-5.5469 20.145-0.5 1.0234-1.0078 2.0508-1.5195 3.0703-2.3164 4.6445-4.7148 9.4414-5.9648 14.809-0.042969 0.19531-0.046876 0.38281-0.066407 0.56641-0.59375 0.34375-1.0938 0.75-1.4883 1.1367-1.0938 1.0703-1.1211 2.8281-0.050781 3.9258 1.0703 1.0938 2.8281 1.1289 3.9258 0.050781 0.40234-0.38672 0.62891-0.60547 2 0.54688 6.7891 5.75 8.4609 11.844 5.4258 19.746-1.3867-0.054688-2.7812 0.039062-4.1523 0.14062-0.98047 0.078126-1.957 0.15234-2.9102 0.15234l-16.324 0.83203c-1.2148 0.023437-1.9922 0.50781-2.4258 0.50781h-0.007812c0.003906-3.6992-0.015625-4.0117-0.082031-5.6055-0.14844-3.6211-0.28906-7.457 0.41797-10.797 0.88672-4.1953 0.93359-8.0742 0.14062-11.758-0.61328-2.8398-1.3359-5.7656-2.0664-8.5781-1.4844-5.7617-2.8867-11.258-3.3828-16.934-0.80469-9.207-0.84766-18.941 4.2344-27.562 1.5938-2.7031 1.8008-5.5156 0.64453-8.5703-2.0586-5.4297-2.9492-11.039-3.8984-17.805-0.77734-5.5469-2.6953-9.6992-5.6992-12.766 0.042969-0.29688 0.070313-0.58203 0.089844-0.83203 0.25-2.6758 0.55469-5.3438 0.86328-8.0156 1.0195-8.9258 2.0742-18.152 1.0625-27.492-0.16406-1.5195-1.5234-2.6367-3.0586-2.4609-1.5234 0.16797-2.625 1.5352-2.4609 3.0586 0.94531 8.7227-0.027344 17.242-1.0625 26.262-0.30469 2.6602-0.60547 5.3203-0.875 8.1953-2.8047 2.2344-4.457 5.2031-5.9297 7.8477-1.0469 1.8789-2.0312 3.6523-3.3242 5.0703-0.40625 0.44531-0.65625 1.0078-0.71484 1.6094l-1.9219 19.973c-0.082031 0.84766 0.23047 1.6875 0.84766 2.2734 4.0078 3.8164 4.8516 9.0391 5.7383 14.57 0.21484 1.3164 0.42578 2.6367 0.67969 3.9336 1.6523 8.457 1.5977 17.43-0.17188 27.418l-0.42969 2.3672c-0.72266 3.9375-1.4648 8.0156-1.6562 12.172-0.11719 2.5195 0.054687 5.5195 2.2305 8.707 3.125 4.582 4.7461 8.3203 3.2969 12.438-0.25781 0.011719-0.51953-0.007812-0.78125 0.027344-6.0234 0.65234-12.254 0.39844-18.277 0.16016-3.7305-0.14844-7.5859-0.30859-11.426-0.25391-0.69922 0.023437-1.4141-0.027344-2.1211-0.058594-1.4453-0.070312-3.0938-0.15234-4.8203 0.12891-1.1797 0.19531-1.8398 0.070313-2.2773-0.16016 0.63281-3.25 2.4141-5.7695 5.6914-7.7578 1.9648-1.1836 3.793-2.543 5.5664-3.8516l1.1797-0.87109c1.0547-0.76953 2.0508-1.625 3.0391-2.4844 1.625-1.4141 3.1602-2.7461 4.9336-3.5508 1.3945-0.63672 2.0078-2.2812 1.375-3.6758-0.25-0.55078-0.6875-0.9375-1.1758-1.2148-2.457-6.9141-6.5977-12.762-10.668-18.391l-0.73828-1.0195c-0.46484-0.64453-0.94141-1.2852-1.418-1.9219-1.9141-2.5547-3.7188-4.9805-4.793-7.8047-1.3438-3.5352-0.91797-7.2383-0.46094-11.152l0.24609-2.207c0.35938-3.5469 0.22266-8.0508-4.0273-11.363-1.8789-1.4648-3.1797-3.7734-4.0898-7.2695-1.0742-4.1055-1.2422-8.0273-0.50391-11.328l0.22656-1.0352c1.0273-4.7812 1.8906-7.0898 5.3398-7.625 1.5117-0.23437 2.5508-1.6523 2.3164-3.168-0.23438-1.5117-1.6445-2.5352-3.168-2.3164-1.7812 0.27734-3.1914 0.86328-4.3672 1.6211 1.0469-1.0273 1.1289-2.6953 0.14062-3.8047-0.52734-0.59375-0.69141-1.3477-0.66406-3.1133 0.007813-0.53906-0.074219-1.4141-0.1875-2.5508-0.52734-5.1641-1.5781-15.965 4.668-25.695 4.3828-2.668 8.8516-5.2383 13.465-7.5859 6.0234-3.0547 12.078-6.0664 18.129-9.0703l5.3047-2.6367c1.1133-0.55469 2.1719-1.0625 3.2422-1.4219 0.27734 0.38672 0.52734 0.78906 0.83203 1.1523 2.3203 2.7695 4.7422 4.1289 7.5039 4.1289 1.6758 0 3.4727-0.50391 5.4492-1.4922l4.3359-2.1797c4.6836-2.3555 9.3672-4.707 14.078-7.0078l1.2266-0.62109c1.4023-0.73047 2.6172-1.3594 3.8672-1.4336 4.3945-0.26953 7.7344-2.5625 10.68-4.5898 1.7031-1.168 3.332-2.2812 5.0547-2.9688 1.3164 2.3906 1.0117 5.1719 0.65625 8.3281zm-1.6914-218.67c5.4961 1.0273 9.5352 5.5938 9.6055 10.844 0.0625 4.668 0.78906 8.3477 2.3594 11.93 1.0781 2.4531 0.6875 5.5039 0.26953 8.7344-0.16016 1.2383-0.31641 2.4766-0.39844 3.6875l-0.10156 1.2617c-0.10938 1.3086-0.22656 2.6641-0.14844 4.0703 0.16406 3.0469-0.32031 4.9336-1.6719 6.4961-1.9258 2.2344-2.5547 4.8672-2.9141 7.1445-0.80078 5.043-1.5078 6.2148-5.5508 6.4375-0.10156-1.2656-0.21094-2.5352-0.33594-3.8008-0.45312-4.4766-0.875-8.707-0.17578-12.887 1.2305-7.3555-0.28906-13.129-4.7969-18.16-2.5664-2.8594-3.4141-5.7891-2.7461-9.5 0.64062-3.5352 1.6836-6.9062 2.7852-10.477 0.60547-1.9648 1.2031-3.9922 1.7539-6.0469 0.37891 0.058593 0.73828 0.10547 1.0469 0.13672 0.34766 0.03125 0.69531 0.066406 1.0195 0.12891zm-61.539 44.402c-0.9375 1.1367-1.8242 2.4219-2.4336 3.918-2.0664-0.68359-3.4062-1.5664-3.7812-2.5547-0.47266-1.2617 0.30859-3.3984 2.1914-6.0156 1.7891-2.4844 2.668-4.7812 2.6875-7.0195l0.039063-3.1172c0.0625-3.6992 0.125-7.5273-0.23047-11.379-0.26953-2.9453-0.79688-5.4062-2.4844-7.8555-0.97656-1.4297-0.76953-1.8516-0.60156-2.1914l0.56641-1.1562c2.7969-5.7422 5.4375-11.164 9.957-15.293 0.875-0.79688 1.7266-1.207 2.6484-1.3086-0.17578 1.1641-0.66016 2.418-1.3594 4.0508-0.61719 1.4336-1.2539 2.9141-1.6406 4.5703-0.34766 1.4961 0.58594 2.9844 2.0742 3.3281 0.21094 0.050781 0.42188 0.074219 0.62891 0.074219 1.2617 0 2.4062-0.86719 2.6992-2.1445 0.27344-1.1719 0.78906-2.3711 1.332-3.6367 1.0156-2.3633 2.1523-5 1.8789-8.0352 0.19141-0.19531 0.38281-0.38672 0.57031-0.58203 1.0078-1.0234 1.875-1.918 2.8008-2.5547 2.6484-1.8125 4.5195-2.9453 6.3711-2.0469 3.9727 1.9062 7.4414 1.7031 10.891-0.62891 0.46875-0.31641 1.2422-0.54297 2.0664-0.78906 0.33594-0.10156 0.66406-0.21484 1-0.32031 0.16406 0.042969 0.3125 0.078125 0.4375 0.10156l2.375 1.3516c5.5625 3.1289 10.816 6.0898 12.941 12.074 0.23047 0.65625 0.53125 1.1797 0.85938 1.6523-0.59375 2.4102-1.2969 4.7734-2.0664 7.25-1.1016 3.5703-2.2422 7.2578-2.9453 11.129-0.10938 0.625-0.18359 1.2383-0.23828 1.8438-3.9766 0.58203-7.0781-0.625-9.6328-3.8086-1.0938-1.3594-2.2031-2.3828-3.2969-3.1875l0.10547-0.38672c1.5703-5.5234 3.3438-11.789-0.875-18.125-0.84766-1.2812-2.5664-1.6211-3.8477-0.77344-1.2773 0.84766-1.6211 2.5664-0.77344 3.8438 2.7422 4.1172 1.625 8.3477 0.24609 13.207-0.70703-0.10547-1.3945-0.15234-2.0391-0.11719-0.31641-0.86328-0.5-1.7539-0.64062-2.7344-0.22266-1.5117-1.625-2.543-3.1484-2.3477-1.5156 0.22656-2.5664 1.6328-2.3477 3.1484 0.19922 1.3672 0.51562 2.9336 1.2266 4.5898-2.0273 2.9492-4.7344 5.6289-8.7305 8.5586-5.7773 4.2383-6.2461 5.6367-4.1172 12.605l5.2852-1.6836c-0.5-1.6328-1.0625-3.4844-0.94531-3.8867 0.15625-0.43359 1.9688-1.7656 3.0547-2.5586 4.6172-3.3906 7.7656-6.5469 10.176-10.113 1.5586-0.20312 3.7227 0.19922 6.3359 3.4375 3.2344 4.0234 7.2734 6.0508 12.051 6.0508 0.77344 0 1.5703-0.070312 2.3828-0.17578 0.66406 2.4219 1.9297 4.6836 3.8359 6.8086 3.3359 3.7266 4.4023 7.9023 3.457 13.539-0.11719 0.70312-0.15625 1.4062-0.22656 2.1055-1.6797-0.35156-3.2695-0.69922-4.6953-1.3945-3.0781-1.5039-5.9883-0.76172-8.3281-0.16797-1.0547 0.26172-2.0508 0.51953-2.918 0.53906-0.77344 0.023438-1.4336 0.26172-1.9688 0.50781-0.78906-0.80859-2.0234-1.0859-3.1133-0.59766-1.3086 0.57813-1.8984 2.043-1.4766 3.375-1.5469 2.875-1.3242 5.875-1.1289 8.3281 0.054687 0.67969 0.10938 1.3594 0.12891 2.1367 0.027344 1.2656 0.054688 2.6953 0.28906 4.125 0.22656 1.3594 1.4023 2.3242 2.7344 2.3242 0.15234 0 0.30469-0.011719 0.45703-0.035156 1.5117-0.24609 2.5352-1.6758 2.2852-3.1875-0.17188-1.0352-0.19531-2.207-0.22266-3.4531-0.015625-0.77734-0.078125-1.5664-0.14062-2.3555-0.16797-2.0859-0.21484-3.5547 0.29688-4.8125 0.77734-0.13672 1.4375-0.42969 1.875-0.64844 0.14453-0.074219 0.28516-0.15234 0.14453-0.15625 1.4805-0.046876 2.8828-0.39844 4.1172-0.71094 2.043-0.51953 3.3594-0.80078 4.5352-0.23047 2.1055 1.0273 4.1875 1.4648 6.2031 1.8906 0.25391 0.054688 0.50391 0.11719 0.75781 0.17578 0.089844 2.2305 0.30469 4.4336 0.51953 6.6016 0.15625 1.5703 0.31641 3.1367 0.41797 4.6992 0.0625 0.92578-0.050781 1.1758-0.25781 1.5547-1.457 2.6289-2.9297 5.25-4.3945 7.8711-1.4727 2.6289-2.9453 5.2617-4.4062 7.8906-0.066407 0.11328-0.11719 0.25781-0.17969 0.38672-1.3242 0.24609-2.5664 0.59375-3.6797 1.1641-4.6719 2.418-9.8555 2.5742-14.75 2.4102-7.7227-0.28906-12.98-2.082-17.051-5.8242-1.9258-1.7617-4.0938-2.6953-5.9961-3.3086-0.019531-0.054688-0.039063-0.125-0.058594-0.17578-0.38281-1.9297-0.71875-3.875-1.0547-5.8125-0.80078-4.6172-1.6289-9.3906-3.0391-13.992-0.82031-2.6914-0.13281-4.1719 1.6094-6.2891 0.35938-0.42969 0.92188-0.87109 1.5156-1.3359l0.76953-0.60547c3.4844-2.8516 4.5703-6.793 3.2148-11.727-0.24609-0.89062-0.52344-1.7812-0.79297-2.6719l-0.375-1.2266c-0.44141-1.4688-1.9883-2.3086-3.457-1.8633-1.4648 0.44141-2.3008 1.9883-1.8594 3.457l0.38281 1.2617c0.25781 0.84375 0.51953 1.6836 0.75 2.5234 0.94922 3.4648-0.10156 4.9023-1.3828 5.9531l-0.66406 0.52344c-0.76562 0.58984-1.6367 1.2656-2.3828 2.1719zm-42.387 170.21c0.76562-1.2812 1.875-2.3984 3.0508-3.5859 0.80078-0.80469 1.5938-1.668 2.3594-2.5938 0.38672 0.082032 0.74609 0.125 1.0195 0.16016 0.19531 0.023438 0.39844 0.027344 0.39453-0.015624 0.48047 0.33203 1.0273 0.49219 1.5742 0.49219 0.87891 0 1.75-0.41797 2.2852-1.1992 0.87109-1.2617 0.55078-2.9922-0.71094-3.8594-1.0469-0.72266-2.1797-0.84766-2.9297-0.93359-0.066406-0.007813-0.13281-0.015626-0.19531-0.023438-2.7031-5.2383-7.4961-7.9375-11.738-10.32l-1.1523-0.65234c-3.6875-2.0938-6.4336-4.6445-8.6367-8.0156-4.2383-6.4844-6.9922-13.527-9.9062-20.988-0.92188-2.3516-1.8438-4.7031-2.8086-7.0352-0.36719-0.875-0.67188-2.332 0.84375-4.7852 1.7852-2.8789 3.9961-5.4258 6.3359-8.1094 1.7344-1.9922 3.5273-4.0469 5.1445-6.2656 0.76172-1.0469 1.543-2.0898 2.3242-3.1367 3.6953-4.9375 7.5156-10.039 9.7539-16.031 2.625-7.0117 7.2539-10.84 15.02-12.418l2.1797-0.42188c3.5781-0.68359 7.2734-1.3867 10.852-3.2227 4.5156-2.3164 9.4297-4.5391 14.742-5.0898 4.1562-0.42969 5.418-3.375 6.1719-5.1289 1.0312-2.3945 1.1562-4.8828 1.2734-7.0859 0.089844-1.7617 0.19922-3.3359 0.69922-4.7266 1.5039 0.53125 2.625 1.1602 3.5156 1.9766 6.5469 6.0078 14.445 7.043 20.598 7.2734 0.93359 0.035156 1.8711 0.058594 2.8242 0.058594 4.8164 0 9.8281-0.57031 14.672-3.0781 0.47266-0.24219 0.99219-0.42578 1.5547-0.57031 0.26562 1.2383 0.27734 2.5938 0.25781 4.0977-0.019531 1.5742-0.035157 3.1953 0.26953 4.8906 1.3672 7.5391 6.707 11.73 11.758 14.84 2.7734 1.7109 6.0039 3.1445 10.152 4.5156 4.7031 1.5664 7.457 4.7734 8.9219 10.41 1.6758 6.4336 1.6758 6.4336 0 15.719-0.48828 2.7188-1.0273 4.9102-2.0781 6.7539-3.7891 6.6328-3.3945 13.41-2.6719 19.785 1.0234 8.9805-0.77734 18.277-5.5078 28.43-0.70703 1.5117-2.0156 2.8398-3.4062 4.2422-1.5781 1.5938-3.3281 3.3672-4.4805 5.7188-2.8984 0.84375-5.2578 2.4688-7.5547 4.043-2.6953 1.8516-5.0195 3.4531-7.875 3.6211-2.4258 0.14844-4.375 1.1562-6.0898 2.0469l-1.0977 0.55859c-4.7305 2.3086-9.4336 4.6719-14.141 7.0352l-4.332 2.1797c-2.9297 1.4609-4.1484 1.2266-6.2148-1.2422-0.38281-0.45312-0.70312-0.95703-1.0391-1.4453 0.99219-0.72266 1.4453-2.0078 0.98438-3.2031-0.43359-1.1289-1.5273-1.7734-2.6719-1.7422 0.042969-0.23047 0.039062-0.46094 0.023438-0.70312 0.089843-0.14453 0.1875-0.27734 0.25-0.44531 0.69922-1.8789 2.3438-3.1094 4.3867-3.2891 3.332-0.28125 6.125-1.2578 8.3477-2.9336 0.078126-0.03125 0.38672-0.035156 0.59375-0.039063 0.39844-0.011718 0.80078-0.03125 1.2109-0.085937 1.5156-0.21875 2.5664-1.625 2.3477-3.1445-0.21875-1.5117-1.6406-2.5508-3.1406-2.3477-0.18359 0.027343-0.37109 0.027343-0.55078 0.03125-0.88281 0.023437-2.3672 0.058593-3.8594 1.1953-0.81641 0.61719-1.8867 1.0273-3.0742 1.3398 0.68359-1.4141 1.7266-2.6328 3.2578-3.625 3.4922-2.2734 6.5898-3.7461 10.188-3.4688 3.2188 0.22266 7.8906-0.10938 11.25-5.7695 1.0156-1.7148 2.3438-3.3242 3.75-5.0352 1.4883-1.8125 3.0312-3.6875 4.3086-5.8281 0.042969-0.078125 0.10156-0.14844 0.15234-0.21484 5.0938-0.75 7.7734-4.9375 8.6719-6.3438 1.7734-2.7695 4.3516-4.0078 8.082-5.5703 1.4141-0.59375 2.0781-2.2188 1.4844-3.6289-0.59375-1.4141-2.2109-2.0781-3.6289-1.4844-1.0117 0.42188-2.0586 0.87109-3.1016 1.375-0.26562-1.7734-0.12109-3.6562 0.10547-5.5938l0.22656-1.9258c0.71484-6.0234 1.457-12.254 1.1484-18.52-0.16797-3.3359-0.19531-6.6719-0.23047-9.9961-0.015625-1.6328-0.03125-3.2656-0.0625-4.8945-0.03125-1.5352-1.3516-2.7656-2.8281-2.7227-1.5312 0.03125-2.7539 1.2969-2.7227 2.8281 0.03125 1.6172 0.042968 3.2305 0.0625 4.8477 0.035156 3.4062 0.066406 6.8125 0.23437 10.223 0.28516 5.7969-0.42578 11.797-1.1133 17.59l-0.23047 1.9297c-0.33984 2.8945-0.52344 6.2031 0.52734 9.4531-0.94531 0.86719-1.8398 1.8711-2.625 3.1055-1.3125 2.0586-2.6211 3.1875-4.0977 3.6406-0.71875-3.0938-0.42188-6.375-0.058594-9.8125l0.25391-2.4375c0.60547-5.6367 1.2891-12.008-2.5742-17.848 0.058594-0.31641 0.11328-0.63281 0.13672-0.95312l0.21484-3.0859c0.40234-5.9805 0.78516-11.625 2.0742-17.23 0.34375-1.4922-0.58984-2.9805-2.0781-3.3242-1.4922-0.35938-2.9844 0.58594-3.3242 2.0781-1.3867 6.0352-1.8008 12.168-2.207 18.102l-0.15625 1.9766c-1.3438 0.11719-2.7773-0.13672-4.3828-0.4375-0.97656-0.17969-1.9453-0.35547-2.9219-0.45703l-1.6953-0.17969c-1.3828-0.15234-2.7773-0.30859-4.1719-0.40234-1.5078-0.070313-2.8555 1.0391-2.9648 2.5703-0.10547 1.5273 1.043 2.8516 2.5703 2.9648 1.3203 0.09375 2.6484 0.24219 3.9609 0.38672l1.7227 0.1875c0.82422 0.085937 1.6523 0.24219 2.4844 0.39453 1.4648 0.26953 3.0508 0.5625 4.7266 0.5625 0.44531 0 0.89453-0.039063 1.3516-0.085937 2.7656 4.1875 2.2656 9.0508 1.7148 14.195l-0.25781 2.4414c-0.46484 4.4023-0.92578 8.9453 0.6875 13.574-1.0547 1.7344-2.3633 3.3398-3.7578 5.0352-1.4766 1.793-3.0039 3.6523-4.2383 5.7305-1.4922 2.5117-3.0273 3.2734-6.0781 3.0625-5.4805-0.42578-9.7852 1.8555-13.621 4.3555-3.625 2.3594-5.7773 5.7656-6.418 9.8203-2.3945 1.1719-4.2969 3.1875-5.2656 5.7852-0.035156 0.10156-0.023437 0.20703-0.046874 0.3125-1.8516 0.37891-3.8555 0.45312-5.957 0.51562-2.7109 0.078126-5.5156 0.16797-8.332 0.92578-2.4648 0.66797-4.9453 1.3086-7.4375 1.9492-2.3945 0.61719-4.8125 1.2539-7.2383 1.9102 0.050781-0.45703 0.10547-0.91016 0.15234-1.3672 0.40625-4.0742 1.6367-6.8945 4.1211-9.4453 1.457-1.5039 1.9492-3.3711 1.3516-5.125-0.33203-0.99219-0.34766-2.1953-0.36328-3.4648-0.015624-1.3594-0.035156-2.9023-0.46094-4.4375-0.1875-0.67969-0.30859-1.4023-0.42578-2.1328-0.23047-1.3789-0.52344-3.1016-1.2969-4.707l3.4141-5.1328c1.7148-2.5898 4.8984-7.4062 1.5742-12.93-0.074219-0.11719-0.015625-0.60547 0.03125-1.0039 0-0.011719 0.039062-0.35938 0.039062-0.37109 0.72656-7.1055 2.4102-12.871 5.1484-17.621 0.37891-0.65625 0.64844-1.2695 0.87109-1.8672 5.3789-0.38672 11.016-1.3125 17.207-2.8789 1.4883-0.37891 2.3867-1.8867 2.0078-3.3711-0.37891-1.4844-1.8828-2.3906-3.3711-2.0117-5.6797 1.4375-10.832 2.2969-15.738 2.6836-0.375-1.1211-0.92969-2.1602-1.5273-3.1602-0.30469-0.50391-0.67188-0.96094-1.0586-1.4102-0.61719-0.73437-0.61328-0.77734-0.58594-0.96484 0.98437-6.4648 0.50391-12.941 0.082031-18.66-0.10938-1.5234-1.4648-2.6055-2.9727-2.5586-1.5273 0.10938-2.6758 1.4453-2.5625 2.9766 0.38672 5.2578 0.80469 11.195 0.019532 16.879-3.5625 1.6211-6.332 4.168-8.8242 6.707-3.9023 3.9727-7.3867 7.1719-10.84 9.9844-1.6211-1.0352-3.0625-2.4102-4.5625-3.8984-1.1406-1.1289-2.2773-2.2539-3.5273-3.2656l-0.32813-0.26953c-1.2109-1-2.8281-2.4141-5.4102-2.2344-1.5312 0.074219-2.7109 1.375-2.6367 2.9062 0.074218 1.5312 1.3867 2.7852 2.9062 2.6367 0.36719-0.011719 0.75391 0.26562 1.6172 0.97656l0.36328 0.30078c1.0977 0.89062 2.1055 1.8984 3.1133 2.8945 1.7969 1.7852 3.6562 3.6289 6.0156 4.9961 0.074219 0.12109 0.16016 0.57422 0.22266 0.87109 0.12891 0.64062 0.28906 1.4375 0.69141 2.2422 3.418 6.8359 6.082 14.199 8.1406 22.512 0.61719 2.4727 1.9297 4.2109 3.7031 4.8945 1.7656 0.67969 2.1172 1.8477 2.6016 4.7656 0.15625 0.9375 0.31641 1.8555 0.55469 2.7188 0.23047 0.83203 0.24609 1.8867 0.25391 3.0039 0.015625 1.4414 0.035157 3.0586 0.51562 4.7266-1.668 1.7227-2.9297 3.5664-3.8477 5.6367-7.7305 0.14062-12.324 3.4375-14.809 10.68-0.13281 0.38672-0.30078 0.76953-0.45312 1.1562-2.8984-1.9844-3.3438-4.1758-1.4688-7.3125zm27.434-72.172c0.125 0.15234 0.25391 0.32422 0.36719 0.45703 0.18359 0.22266 0.38672 0.43359 0.52734 0.67578 1.3672 2.2812 1.5977 3.0703 0.49609 4.9844-3.1328 5.4414-5.0508 11.93-5.8906 20.125-0.12891 1.1016-0.31641 2.7656 0.73047 4.5039 1.1602 1.9297 0.82422 3.5664-1.4492 7.0078l-2.8242 4.2383c-0.19531-0.085937-0.35938-0.19922-0.57031-0.27734-0.078125-0.074218-0.3125-0.41797-0.49609-1.1562-2.1562-8.7109-4.957-16.445-8.5664-23.66-0.070313-0.14062-0.14844-0.52734-0.21094-0.84375-0.015625-0.070312-0.035156-0.16016-0.050781-0.23047 3.7305-3.0156 7.4648-6.4297 11.645-10.688 1.9766-2.0195 3.9648-3.8789 6.293-5.1367z"/>
  <path d="m276.2 471.59c-0.67188 0.91406-1.6836 1.8047-2.7539 2.75-1.6562 1.4648-3.3672 2.9766-4.4258 5.0352-0.69922 1.3633-0.16016 3.0352 1.2031 3.7344 0.40234 0.21094 0.83984 0.30859 1.2656 0.30859 1.0078 0 1.9805-0.54688 2.4727-1.5078 0.57812-1.125 1.832-2.2344 3.1602-3.4062 1.2344-1.0938 2.5156-2.2266 3.5391-3.6055 0.91016-1.2305 0.65234-2.9727-0.58203-3.8828-1.2227-0.91797-2.9688-0.65234-3.8789 0.57422z"/>
  <path d="m293.55 481.53c-0.39062 0.58203-0.72656 1.2422-1.0547 1.9141-0.33203 0.68359-0.75 1.5312-1.0859 1.7188-1.3359 0.74609-1.8164 2.4375-1.0703 3.7773 0.51172 0.90625 1.4531 1.4219 2.4219 1.4219 0.45703 0 0.92578-0.10938 1.3555-0.35547 1.8477-1.0312 2.6875-2.7461 3.3594-4.1172 0.21484-0.4375 0.41797-0.875 0.67188-1.2578 0.1875-0.28125 0.48047-0.59375 0.78125-0.94141 1.3516-1.5312 3.3945-3.8477 2.4844-6.6719-0.46875-1.457-2.0195-2.2539-3.4961-1.7852-1.3477 0.4375-2.1328 1.8008-1.8711 3.1602-0.21484 0.42578-0.89453 1.1953-1.2812 1.6328-0.47656 0.54297-0.91406 1.0586-1.2148 1.5039z"/>
  <path d="m314.64 483.02c-0.49219 1.4883-2.4141 3.0469-4.1094 4.4219-0.55078 0.44922-1.082 0.875-1.5586 1.2969-1.1562 1.0117-1.2656 2.7656-0.25391 3.918 0.54688 0.625 1.3125 0.94531 2.0859 0.94531 0.64844 0 1.3008-0.23047 1.8281-0.69141 0.42578-0.375 0.89844-0.75391 1.3906-1.1562 2.1758-1.7695 4.8867-3.957 5.8906-7.0039 0.47656-1.4531-0.3125-3.0234-1.7695-3.5-1.4688-0.49609-3.0273 0.3125-3.5039 1.7695z"/>
  <path d="m260.11 502.43c0.59766-0.64453 1.0742-1.293 1.5234-1.918 0.19922-0.27344 0.38672-0.54297 0.59766-0.80469 0.24219-0.30078 0.48828-0.58203 0.73047-0.86328 1.0391-1.1992 2.3359-2.6953 2.9062-5.0625 0.35938-1.4883-0.5625-2.9883-2.0508-3.3438-1.5039-0.34766-2.9883 0.5625-3.3477 2.0547-0.24219 1.0039-0.74609 1.6211-1.6992 2.7188-0.29297 0.33594-0.58594 0.67578-0.87109 1.0273-0.26172 0.32812-0.51562 0.67578-0.76953 1.0312-0.31641 0.44531-0.64844 0.91016-1.0781 1.3672-1.0469 1.1211-0.98438 2.875 0.13672 3.9219 0.53516 0.50391 1.2148 0.74609 1.8945 0.74609 0.74219 0.003907 1.4805-0.28906 2.0273-0.875z"/>
  <path d="m279.39 505.63c-0.24609 1.5117 0.77734 2.9414 2.2891 3.1875 0.15234 0.027344 0.30469 0.035157 0.45312 0.035157 1.3359 0 2.5117-0.96484 2.7344-2.3281 0.085937-0.53906 0.66797-1.5625 1.1367-2.3867 1.2188-2.1523 2.7344-4.8359 1.3984-7.5977-0.66406-1.375-2.3398-2.0391-3.7305-1.3672-1.3789 0.66406-1.9805 2.25-1.3086 3.625 0.011719 0.47266-0.73828 1.8008-1.1914 2.5977-0.75391 1.3438-1.5312 2.7227-1.7812 4.2344z"/>
  <path d="m298.75 515.16c0.31641 0.11328 0.64062 0.17188 0.95703 0.17188 1.1328 0 2.1914-0.69531 2.6055-1.8164 0.23047-0.63281 1.2578-1.7109 2.082-2.5742 1.8516-1.9375 3.9414-4.1367 3.6172-7.0156-0.17187-1.5195-1.5703-2.6602-3.0664-2.4961-1.5234 0.17578-2.6211 1.4961-2.4492 3.0195-0.10156 0.54297-1.3672 1.8711-2.125 2.668-1.3008 1.3672-2.6445 2.7773-3.2734 4.4883-0.52344 1.4297 0.21094 3.0312 1.6523 3.5547z"/>
 </g>
</svg>
