<?xml version="1.0" encoding="UTF-8"?>
<svg width="752pt" height="752pt" version="1.1" viewBox="0 0 752 752" xmlns="http://www.w3.org/2000/svg">
 <defs>
  <clipPath id="a">
   <path d="m240 139.21h372.79v473.58h-372.79z"/>
  </clipPath>
 </defs>
 <g clip-path="url(#a)">
  <path d="m429.9 266.77c11.41-8.0352 18.543-21.25 18.543-35.652v-30.191c0-34.02-27.691-61.711-61.73-61.711-34.039 0-61.727 27.691-61.727 61.727v12.078c0 18.383 8.1992 35.414 21.637 46.93h-2.1758c-57.332 0-103.98 46.648-103.98 103.98 0 18.395 0 37.426 4.9141 52.137 6.1289 18.383 19.152 27.691 38.715 27.691 1.5703 0 3.1367-0.13281 4.6758-0.37109v5.0469c0 27.484 18.617 54.344 29.73 67.898 2.207 2.6953 2.2656 6.4961 0.14844 9.2344-11.16 14.371-29.863 43.852-29.863 79.812 0 4.0859 3.3164 7.3984 7.3984 7.3984h132.81c2.9609 0 5.6367-1.7617 6.8086-4.4844l25.367-59.199c7.7109-17.996 8.5547-38.125 2.3516-56.695-0.015626-0.058593-0.03125-0.10547-0.058594-0.16406l-11.379-31.699c10.98-5.2852 20.098-13.363 27.246-24.27 0.75391-1.168 1.4961-2.3516 2.207-3.582 0.80078 0.3125 1.6133 0.60547 2.4141 0.93359 0.91797 0.38672 1.8789 0.5625 2.8281 0.5625 2.9023 0 5.668-1.7148 6.8359-4.5742 1.5703-3.7734-0.23828-8.1094-4.0117-9.6641-0.5625-0.23828-1.1406-0.42969-1.7031-0.66406 5.875-15.258 8.8516-33.785 8.8516-55.363 0-43.523-26.965-81.961-66.836-97.156zm17.641 276.51-23.441 54.715h-37.68l24.121-56.281c8.582-20.039 9.5156-42.445 2.6211-63.121l-3.8789-11.648c2.4414 0.60547 4.9883 0.97656 7.6211 0.97656 7.5781 0 14.652-0.82812 21.223-2.4258l11.367 31.672c5.0156 15.109 4.3203 31.477-1.9531 46.113zm8.582-118.63c3.7148 0.88672 7.4141 1.9258 11.086 3.0352-9.7812 15.094-25.527 25.426-50.316 25.426-9.2344 0-16.754-7.5195-16.754-16.754 0-9.2344 6.9414-16.145 15.688-16.695 3.8047 0.058594 7.6211 0.19141 11.395 0.48828 0.19141 0 0.38672 0.015625 0.5625 0.015625 3.832 0 7.0742-2.9609 7.3711-6.8359 0.3125-4.0703-2.7383-7.6211-6.8242-7.9336-3.4922-0.26562-7.0312-0.39844-10.551-0.48828-0.29688-0.03125-0.59375-0.089844-0.90234-0.089844-0.35547 0-0.71094 0.042969-1.0664 0.058594-0.94531 0-1.8945-0.058594-2.8398-0.058594-1.2578 0-2.4414 0.33984-3.4766 0.90234-13.836 3.3281-24.168 15.789-24.168 30.637 0 2.1758 0.22266 4.293 0.63672 6.3477v0.14844c0.03125 0.69531 0.11719 1.3906 0.33984 2.0859l12.773 38.332c5.7422 17.227 4.9727 35.918-2.1914 52.613l-26.625 62.113h-66.434c2.3086-28.238 17.258-51.488 26.445-63.34 6.3789-8.2266 6.2305-19.609-0.38672-27.676-9.8555-12.031-26.371-35.652-26.371-58.531v-11.973c9.6211-8.4492 13.129-22.852 7.6367-35.473-0.16406-0.38672-0.32422-0.76953-0.50391-1.1562-4.543-10.625-7.1484-19.285-7.1484-23.828 0-15.895 12.934-28.812 28.812-28.812 4.0859 0 7.3984-3.3164 7.3984-7.3984 0-4.0859-3.3164-7.3984-7.3984-7.3984-24.051 0-43.613 19.566-43.613 43.613 0 3.375 0.71094 7.5625 2.1016 12.492 1.4805 5.2695 3.7305 11.41 6.7617 18.395 3.1953 7.3555 0.69531 15.805-5.5508 19.758-0.03125 0.015626-0.058594 0.042969-0.089844 0.058594-0.48828 0.3125-0.99219 0.59375-1.5234 0.82812-2.0586 0.94531-4.1875 1.4219-6.3633 1.4219-25.129 0-28.605-19.504-28.812-60.812v-4.2344c0-49.18 40.004-89.18 89.18-89.18h24.152c4.0859 0 7.3984-3.3164 7.3984-7.3984v-3.1094c0-3.1367-1.9844-5.9336-4.9297-6.9688-18.707-6.6172-31.285-24.402-31.285-44.25v-12.078c0-25.883 21.059-46.93 46.93-46.93 25.871 0 46.93 21.059 46.93 46.93v30.191c0 12.164-7.7266 23.074-19.211 27.141-2.9609 1.0508-4.9297 3.8477-4.9297 6.9688v5.1484c0 3.375 2.2773 6.3203 5.5508 7.1641 39.383 10.137 66.879 45.656 66.879 86.371 0 16.77-1.9258 34.867-7.9492 50.348-4.7656-1.5234-9.5898-2.8711-14.445-4.0273-3.9805-0.93359-7.9609 1.5078-8.9102 5.4922-0.94531 3.9805 1.5078 7.9609 5.4922 8.9102zm87.109 28.191c3.1094 2.6484 3.4766 7.3242 0.8125 10.434-1.4648 1.7148-3.5352 2.5898-5.625 2.5898-1.7031 0-3.4023-0.57812-4.8086-1.7773-7.3984-6.3203-15.363-12.105-23.648-17.195-3.4766-2.1328-4.5742-6.6875-2.4414-10.184 2.1328-3.4922 6.6875-4.5742 10.184-2.4414 8.9375 5.4922 17.539 11.723 25.527 18.559zm38.434 58c-1.2148 0.73828-2.5469 1.0938-3.8633 1.0938-2.4844 0-4.9141-1.2578-6.3203-3.5352-5.0781-8.2891-10.863-16.234-17.195-23.633-2.6484-3.1094-2.293-7.7852 0.8125-10.434 3.1094-2.6484 7.7695-2.293 10.434 0.8125 6.8242 7.9922 13.066 16.574 18.559 25.516 2.1328 3.4766 1.0508 8.0352-2.4414 10.184zm19.27 57.082c-3.3438 0-6.3789-2.293-7.1914-5.6836-2.25-9.457-5.2695-18.809-8.9961-27.793-1.5703-3.7734 0.23828-8.1094 4.0117-9.6641 3.7734-1.5703 8.1094 0.23828 9.6641 4.0117 4.0117 9.707 7.2812 19.816 9.707 30.027 0.94531 3.9805-1.5078 7.9609-5.4922 8.9102-0.57812 0.13281-1.1562 0.20703-1.7148 0.20703zm12.641 37.473c0 4.0859-3.3164 7.3984-7.3984 7.3984-4.0859 0-7.3984-3.3164-7.3984-7.3984 0-4.7344-0.17578-9.5312-0.53125-14.238-0.3125-4.0703 2.7383-7.6211 6.8242-7.9336 4.0703-0.3125 7.6211 2.7539 7.9336 6.8242 0.38672 5.0781 0.57813 10.242 0.57813 15.348z"/>
 </g>
</svg>
