<?xml version="1.0" encoding="UTF-8"?>
<svg fill='white' version='1.1' height='200' width='200' viewBox='125 125 500 500' xmlns='http://www.w3.org/2000/svg'>
 <g>
  <path d="m590.59 553.59h-7.3984l-0.003906-162.06c0.035156-40.746-11.902-80.602-34.32-114.62-22.422-34.023-54.336-60.715-91.793-76.758 1.6094-12.691-2.9258-25.387-12.207-34.184-8.0703-7.6758-18.781-11.953-29.918-11.953s-21.848 4.2773-29.918 11.953l-9.0352 8.6914-9.0273-8.6953c-8.0703-7.6719-18.781-11.953-29.918-11.953-11.137 0-21.848 4.2812-29.918 11.953-9.2852 8.7969-13.82 21.492-12.211 34.184-37.461 16.035-69.383 42.727-91.805 76.75-22.422 34.027-34.352 73.891-34.312 114.64v162.06h-7.3984c-4.0859 0-7.3984 3.3125-7.3984 7.3984v29.602c0 1.9609 0.77734 3.8438 2.1641 5.2305 1.3906 1.3867 3.2734 2.168 5.2344 2.168h73.996c1.9648 0 3.8438-0.78125 5.2344-2.168 1.3867-1.3867 2.168-3.2695 2.168-5.2305v-29.602c0-1.9609-0.78125-3.8438-2.168-5.2305-1.3906-1.3867-3.2695-2.168-5.2344-2.168h-7.3984v-151.47c0-70.34 43.082-132.43 105.29-152.57l33.332 32.109c1.6016 1.5352 3.3164 2.9414 5.1289 4.2148 2.5508 1.7852 5.9453 1.7852 8.4922 0 1.8164-1.2734 3.5312-2.6797 5.1289-4.2188l33.332-32.098v0.003906c23.625 7.7891 44.879 21.461 61.758 39.73 28.07 30.105 43.531 70.176 43.531 112.83v151.47h-7.3984c-4.0898 0-7.4023 3.3125-7.4023 7.3984v29.602c0 1.9609 0.78125 3.8438 2.168 5.2305s3.2695 2.168 5.2344 2.168h73.996c1.9609 0 3.8438-0.78125 5.2305-2.168s2.168-3.2695 2.168-5.2305v-29.602c0-1.9609-0.78125-3.8438-2.168-5.2305s-3.2695-2.168-5.2305-2.168zm-362.59 29.598h-59.199v-14.797h59.199zm-14.801-181.07v151.47h-29.598v-162.06c-0.039063-37.613 10.902-74.418 31.48-105.9 20.578-31.484 49.902-56.273 84.367-71.332 2.0273 3.7266 4.6172 7.1172 7.6758 10.059l14.23 13.703c-64.262 24.461-108.16 90.117-108.16 164.06zm162.79-131.99-58.598-56.434v0.003907c-5.1055-4.8164-8-11.523-8-18.539 0-7.0195 2.8945-13.727 8-18.539 5.3125-5.0195 12.348-7.8164 19.656-7.8164s14.34 2.7969 19.656 7.8164l14.16 13.637c2.8633 2.7578 7.3984 2.7578 10.266 0l14.16-13.637c5.3125-5.0195 12.344-7.8125 19.652-7.8125s14.34 2.793 19.652 7.8125c5.1055 4.8125 8 11.52 8 18.539 0 7.0156-2.8945 13.723-8 18.539zm115.29 9.0586c-16.82-18.152-37.57-32.219-60.668-41.113l14.246-13.715c3.0586-2.9375 5.6484-6.3242 7.6758-10.051 34.465 15.062 63.785 39.852 84.363 71.332s31.52 68.281 31.488 105.89v162.06h-29.602v-151.47c0-46.414-16.867-90.07-47.504-122.93zm91.902 304h-59.195v-14.797h59.199z"/>
  <path d="m272.41 398.2v37h-7.3984c-4.0898 0-7.4023 3.3125-7.4023 7.3984v44.398c-0.003907 5.7461 2.2227 11.27 6.2109 15.406 3.9883 4.1406 9.4258 6.5703 15.168 6.7773 5.7422 0.21094 11.34-1.8125 15.621-5.6484 4.0664 3.6484 9.3359 5.6641 14.797 5.6641 5.4648 0 10.734-2.0156 14.801-5.6641 2.9609 2.6641 6.5898 4.4766 10.496 5.25 3.9102 0.76953 7.9531 0.46484 11.703-0.875v45.688c-9.8086 0.011719-19.215 3.9141-26.148 10.848-6.9375 6.9375-10.84 16.344-10.852 26.152 0 1.9609 0.78125 3.8438 2.168 5.2305 1.3906 1.3867 3.2695 2.168 5.2344 2.168h103.59c1.9648 0 3.8477-0.78125 5.2344-2.168 1.3867-1.3867 2.168-3.2695 2.168-5.2305-0.011719-9.8086-3.9141-19.215-10.852-26.152-6.9336-6.9336-16.34-10.836-26.148-10.848v-45.688c3.75 1.3398 7.793 1.6445 11.703 0.875 3.9102-0.77344 7.5352-2.5859 10.496-5.25 4.0664 3.6484 9.3359 5.6641 14.801 5.6641 5.4609 0 10.73-2.0156 14.797-5.6641 4.2812 3.8359 9.8789 5.8594 15.621 5.6484 5.7422-0.20703 11.18-2.6367 15.168-6.7773 3.9883-4.1367 6.2148-9.6602 6.2109-15.406v-44.398c0-1.9609-0.78125-3.8438-2.168-5.2305-1.3867-1.3867-3.2695-2.168-5.2305-2.168h-7.3984l-0.003906-51.797c0.003906-1.9648-0.77734-3.8477-2.168-5.2344 2.9766-6.2227 2.8906-13.473-0.23047-19.621-3.1211-6.1523-8.9258-10.5-15.703-11.766-6.7812-1.2695-13.762 0.6875-18.895 5.293-5.1367-4.6016-12.117-6.5547-18.895-5.2852-6.7734 1.2695-12.578 5.6133-15.699 11.762-3.1211 6.1484-3.2109 13.395-0.23828 19.617-1.3906 1.3867-2.1719 3.2695-2.168 5.2344v7.3984h-16.07c2.2109-6.2422 1.5195-13.145-1.8867-18.824-3.4062-5.6797-9.168-9.5391-15.719-10.527-6.5469-0.98828-13.191 1.0039-18.121 5.4219-4.9297-4.418-11.578-6.4023-18.125-5.418-6.543 0.98828-12.309 4.8516-15.715 10.527s-4.0977 12.578-1.8867 18.82h-23.473c-4.0859 0-7.3984 3.3125-7.3984 7.3984zm139.32 184.99h-86.258c1.5352-4.3242 4.3711-8.0664 8.1172-10.719 3.7461-2.6484 8.2227-4.0742 12.812-4.0781h44.398c4.5898 0.003907 9.0664 1.4297 12.812 4.0781 3.7461 2.6523 6.582 6.3945 8.1172 10.719zm-50.527-29.598v-45.688c4.7812 1.7188 10.016 1.7188 14.797 0v45.688zm103.6-66.598h-0.003906c0 4.0859-3.3125 7.4023-7.3984 7.4023-4.0859 0-7.3984-3.3164-7.3984-7.4023 0-4.0859-3.3164-7.3984-7.4023-7.3984-4.0859 0-7.3984 3.3125-7.3984 7.3984 0 4.0859-3.3125 7.4023-7.3984 7.4023-4.0898 0-7.4023-3.3164-7.4023-7.4023 0-4.0859-3.3125-7.3984-7.3984-7.3984s-7.3984 3.3125-7.3984 7.3984c0 4.0859-3.3125 7.4023-7.4023 7.4023-4.0859 0-7.3984-3.3164-7.3984-7.4023 0-4.0859-3.3125-7.3984-7.3984-7.3984-4.0898 0-7.4023 3.3125-7.4023 7.3984 0 4.0859-3.3125 7.4023-7.3984 7.4023-4.0859 0-7.3984-3.3164-7.3984-7.4023 0-4.0859-3.3125-7.3984-7.4023-7.3984-4.0859 0-7.3984 3.3125-7.3984 7.3984 0 4.0859-3.3125 7.4023-7.3984 7.4023-4.0859 0-7.4023-3.3164-7.4023-7.4023 0-4.0859-3.3125-7.3984-7.3984-7.3984s-7.3984 3.3125-7.3984 7.3984c0 4.0859-3.3125 7.4023-7.4023 7.4023-4.0859 0-7.3984-3.3164-7.3984-7.4023 0-4.0859-3.3125-7.3984-7.3984-7.3984-4.0859 0-7.4023 3.3125-7.4023 7.3984 0 4.0859-3.3125 7.4023-7.3984 7.4023-4.0859 0-7.3984-3.3164-7.3984-7.4023v-36.996h192.39zm-44.402-96.195v44.398h-14.797v-44.398zm14.801 44.398v-44.398h14.801v44.398zm7.3984-73.996c2.9922 0 5.6914 1.8008 6.8359 4.5664 1.1484 2.7656 0.51562 5.9492-1.6016 8.0664-2.1172 2.1133-5.3008 2.7461-8.0664 1.6016s-4.5664-3.8438-4.5664-6.8359c0.003906-4.0859 3.3164-7.3945 7.3984-7.3984zm-29.598 0c2.9922 0 5.6914 1.8008 6.8359 4.5664 1.1445 2.7656 0.51172 5.9492-1.6055 8.0664-2.1133 2.1133-5.2969 2.7461-8.0625 1.6016s-4.5664-3.8438-4.5664-6.8359c0.003907-4.0859 3.3125-7.3945 7.3984-7.3984zm-22.199 73.996h-44.398v-29.598h44.398zm-37-59.199c2.9961 0 5.6914 1.8047 6.8398 4.5703 1.1445 2.7656 0.51172 5.9453-1.6055 8.0625-2.1172 2.1172-5.3008 2.75-8.0664 1.6055-2.7617-1.1445-4.5664-3.8438-4.5664-6.8359 0.003906-4.0859 3.3164-7.3945 7.3984-7.4023zm-37 7.3984 0.003907 0.003906c0-2.9922 1.8008-5.6914 4.5664-6.8359 2.7656-1.1484 5.9492-0.51562 8.0664 1.6016 2.1133 2.1172 2.7461 5.3008 1.6016 8.0664-1.1445 2.7617-3.8438 4.5664-6.8359 4.5664-4.0859-0.003906-7.3945-3.3164-7.3984-7.3984zm14.801 22.199v29.598l-44.398 0.003907v-29.598z"/>
 </g>
</svg>
