<?xml version="1.0" encoding="UTF-8"?>
<svg fill='white' version='1.1' height='200' width='200' viewBox='125 125 500 500' xmlns='http://www.w3.org/2000/svg'>
 <path d="m332.64 330.07c-14.445 4.9531-25.43 17.305-28.664 32.242-0.41797 1.918 0.80078 3.8086 2.7188 4.2227 0.25 0.058594 0.50781 0.082032 0.75391 0.082032 1.6367 0 3.1055-1.1367 3.4648-2.8008 2.7148-12.516 11.922-22.875 24.031-27.023 1.8555-0.63281 2.8477-2.6562 2.207-4.5117-0.63672-1.8594-2.6562-2.8516-4.5117-2.2109zm78.957-15.355c-13.383 0-27.727 8.5273-35.391 17.816-7.5352-9.9375-22.723-17.816-35.695-17.816-29.285 0-53.113 23.832-53.113 53.121 0 59.492 83.723 93.922 87.289 95.355 0.42578 0.17188 0.875 0.26172 1.3242 0.26172s0.89844-0.089843 1.3242-0.26172c3.5664-1.4336 87.262-35.859 87.262-95.34 0.050782-14.156-5.4336-27.488-15.438-37.527-10.02-10.066-23.367-15.609-37.562-15.609zm-35.582 141.32c-10.656-4.6367-81.512-37.371-81.512-88.203 0-25.375 20.637-46.02 46.008-46.02 12.219 0 27.902 9.0781 32.27 18.684 0.55469 1.2227 1.7539 2.0273 3.0938 2.0781 1.3828 0.125 2.6016-0.65234 3.25-1.832 4.9453-8.9375 19.875-18.934 32.469-18.934 12.301 0 23.855 4.8008 32.539 13.516 8.6602 8.6953 13.406 20.23 13.363 32.5 0.003906 50.848-70.828 83.578-81.48 88.211zm177.82-158.84c-0.55859-2.2461-2.2383-5.3008-7.0312-7.0898-17.254-6.4414-65.055 8.1836-94.73 28.977-1.6055 1.1289-1.9922 3.3438-0.87109 4.9492 0.69141 0.98438 1.793 1.5117 2.9141 1.5117 0.69922 0 1.4141-0.20703 2.0352-0.64453 30.078-21.078 74.367-33.293 88.168-28.141 1.5234 0.56641 2.4102 1.293 2.6289 2.1562 0.082031 0.32812-0.28516 1.2852-1.6211 2.6016-5.1602 5.0859-17.586 9.1484-23.34 7.6289-1.8867-0.50781-3.8398 0.625-4.3438 2.5195s0.625 3.8438 2.5195 4.3438c5.0312 1.3359 11.914 0.10938 18.125-2.2891 1.8477 2.5469 1.0742 3.9102 0.76562 4.4141-3.3359 5.5273-20.828 8.8242-34.125 4.6211-1.8867-0.58594-3.8633 0.45313-4.4531 2.3203-0.59375 1.8711 0.44531 3.8633 2.3164 4.457 4.6133 1.4531 10.027 2.1875 15.449 2.1875 2.4258 0 4.832-0.17969 7.1836-0.47266 0.375 3.5078-1.2734 4.6836-1.9883 5.1719-7.4453 5.0156-29.465-0.53125-32.848-3.3477-1.5078-1.2539-3.75-1.0547-5.0039 0.45312-1.2539 1.5117-1.0547 3.75 0.45312 5.0039 2.6484 2.2031 11.012 5.1797 19.922 6.4219-0.46094 2.8125-2 3.793-3.2578 4.2656-6.3594 2.4102-20.23-3.0625-25.574-10.102-1.1797-1.5586-3.418-1.8711-4.9766-0.68359-1.5625 1.1836-1.8711 3.4141-0.6875 4.9766 5.457 7.1875 17.688 13.488 27.527 13.488 2.2305 0 4.3398-0.32031 6.2148-1.0312 2.7617-1.043 6.9844-3.75 7.8086-10.352 0.23828 0 0.47656 0.027344 0.71094 0.027344 5.2617 0 10.188-0.89453 13.664-3.2383 2.4688-1.668 6.0195-5.375 5.0039-12.457 5.7227-1.6133 10.441-4.2617 12.73-8.043 1.3125-2.1719 2.6172-6.1992-0.39844-11.148 2.1797-1.2734 4.1172-2.6562 5.5703-4.082 3.9102-3.8281 4.082-7.2109 3.5391-9.375zm-278.98 41.93c-5.332 7.0273-19.18 12.508-25.57 10.102-1.2539-0.47656-2.793-1.457-3.2539-4.2734 8.9141-1.2422 17.277-4.2188 19.918-6.4219 1.5078-1.2539 1.7109-3.4961 0.45312-5.0039-1.2539-1.5-3.4922-1.7109-5.0039-0.45312-3.3828 2.8242-25.406 8.3594-32.844 3.3477-0.71484-0.48438-2.3633-1.6562-1.9844-5.168 2.3477 0.29297 4.7539 0.47266 7.1758 0.47266 5.418 0 10.836-0.73438 15.445-2.1875 1.8711-0.59375 2.9062-2.5859 2.3203-4.457-0.59375-1.8711-2.5781-2.9062-4.457-2.3203-13.297 4.1992-30.777 0.89844-34.121-4.6211-0.30469-0.49609-1.0742-1.8672 0.76172-4.4062 6.1992 2.4023 13.082 3.6289 18.133 2.2773 1.8945-0.50391 3.0195-2.4492 2.5195-4.3438-0.50391-1.8945-2.4453-3.0352-4.3438-2.5195-5.7266 1.5117-18.168-2.5391-23.332-7.625-1.3398-1.3164-1.7031-2.2773-1.625-2.6016 0.21484-0.86328 1.0977-1.5859 2.6289-2.1602 13.82-5.1602 58.094 7.0625 88.168 28.141 0.62109 0.4375 1.332 0.64453 2.0352 0.64453 1.1172 0 2.2227-0.52734 2.9141-1.5117 1.1289-1.6055 0.73438-3.8203-0.87109-4.9492-29.66-20.789-77.465-35.41-94.727-28.984-4.7969 1.7891-6.4727 4.8438-7.0391 7.0938-0.53906 2.1641-0.36328 5.5469 3.5273 9.3828 1.4531 1.4297 3.3906 2.8125 5.5664 4.0859-3.0117 4.9492-1.7109 8.9727-0.39453 11.148 2.2891 3.7773 7.0078 6.4258 12.73 8.043-1.0117 7.0781 2.5352 10.789 5.0039 12.457 3.4766 2.3438 8.3984 3.2383 13.656 3.2383 0.23828 0 0.48438-0.027344 0.71484-0.027344 0.82812 6.6016 5.0547 9.3125 7.8086 10.352 1.875 0.71094 3.9844 1.0312 6.2148 1.0312 9.8398 0 22.074-6.2969 27.523-13.488 1.1836-1.5625 0.88281-3.7891-0.6875-4.9766-1.5508-1.1836-3.7812-0.88281-4.9648 0.68359z"/>
</svg>
