<?xml version="1.0" encoding="UTF-8"?>
<svg fill='white' version='1.1' height='200' width='200' viewBox='125 125 500 500' xmlns='http://www.w3.org/2000/svg'>
 <path d="m549.16 379.63v-115.29c0-1.9609-0.78125-3.8438-2.168-5.2305-1.3906-1.3906-3.2695-2.168-5.2344-2.168h-98.711c5.5625-8.5273 7.8594-18.773 6.4688-28.855-1.3867-10.082-6.3711-19.328-14.031-26.031-7.6602-6.7031-17.48-10.414-27.66-10.453-11.125 0.046876-21.777 4.5195-29.598 12.43l-2.2227 1.7773-1.9258-1.9258h0.003906c-7.8242-7.9102-18.473-12.383-29.598-12.43-10.195 0.007813-20.039 3.7031-27.715 10.406-7.6797 6.7031-12.668 15.961-14.051 26.059-1.3789 10.102 0.94531 20.355 6.543 28.875h-99.008c-4.0898 0-7.4023 3.3125-7.4023 7.3984v115.44c-11.324 1.0508-21.852 6.2891-29.516 14.691-7.6641 8.4062-11.914 19.367-11.922 30.742v92.938c0 1.9648 0.78125 3.8477 2.168 5.2344s3.2695 2.168 5.2305 2.168h34.039v27.602c0 1.9609 0.78125 3.8438 2.168 5.2305s3.2695 2.168 5.2344 2.168h33.152-0.003906c1.9609 0 3.8438-0.78125 5.2344-2.168 1.3867-1.3867 2.1641-3.2695 2.1641-5.2305v-27.602h250.41v27.602c0 1.9609 0.78125 3.8438 2.168 5.2305 1.3867 1.3867 3.2695 2.168 5.2344 2.168h33.148c1.9648 0 3.8438-0.78125 5.2344-2.168 1.3867-1.3867 2.168-3.2695 2.168-5.2305v-27.602h34.035c1.9648 0 3.8477-0.78125 5.2344-2.168s2.168-3.2695 2.168-5.2344v-92.938c-0.007812-11.375-4.2578-22.336-11.926-30.742-7.6641-8.4023-18.188-13.641-29.512-14.691zm-224.29-165.16c5.0898-5.1758 12.051-8.082 19.312-8.0664 7.2812-0.019532 14.266 2.8867 19.387 8.0664l7.3984 7.3984v0.003907c2.8867 2.8672 7.5469 2.8672 10.434 0l7.4023-7.4023c5.0273-5.0859 11.863-7.9844 19.016-8.0664 7.2617 0.007812 14.227 2.8984 19.359 8.0391 5.1289 5.1406 8.0078 12.109 8 19.375-0.007813 7.2617-2.9023 14.227-8.0469 19.355l-51.133 51.203-51.203-51.203c-5.168-5.1172-8.0742-12.082-8.0742-19.352 0-7.2695 2.9062-14.234 8.0742-19.352zm-2.3672 57.273 48.32 48.32h-0.003907c2.8867 2.8711 7.5469 2.8711 10.434 0l48.32-48.32h104.78v107.67h-18.352v-53.797c0-1.9609-0.78125-3.8438-2.168-5.2305-1.3867-1.3906-3.2695-2.168-5.2305-2.168h-107.74c-4.0859 0-7.3984 3.3125-7.3984 7.3984v53.797h-34.926v-53.797c0-1.9609-0.78125-3.8438-2.168-5.2305-1.3867-1.3906-3.2695-2.168-5.2344-2.168h-107.74c-4.0859 0-7.3984 3.3125-7.3984 7.3984v53.797h-18.352v-107.67zm21.238 107.66-92.945 0.003906v-46.398h92.941zm157.46 0-92.941 0.003906v-46.398h92.938zm-294.14 14.801h337.87c8.1836 0 16.031 3.2539 21.816 9.0391 5.7891 5.7852 9.0391 13.637 9.0391 21.82v0.51953-0.003906c-7.5391 4.25-13.352 11.004-16.426 19.094-4.0703 7.8438-6.8828 12.578-10.73 12.578-3.8477 0-6.6602-4.7344-10.73-12.578-4.8086-9.1758-10.73-20.57-23.828-20.57-13.098-0.003906-19.09 11.098-23.898 20.496-4.0703 7.8438-6.8086 12.801-10.582 12.801-3.7734 0-6.5859-4.7344-10.73-12.578-4.7344-9.1758-10.73-20.57-23.828-20.57-13.098-0.003906-19.164 10.949-23.898 20.348-4.0703 7.8438-6.8086 12.578-10.73 12.578s-6.5859-4.7344-10.73-12.578c-4.7344-9.3984-10.656-20.57-23.68-20.57s-19.164 11.172-23.898 20.57c-4.0703 7.8438-6.8086 12.578-10.73 12.578s-6.6602-4.7344-10.73-12.578c-4.7344-9.1758-10.73-20.57-23.828-20.57s-19.016 11.172-23.824 20.57c-4.0703 7.8438-6.8086 12.801-10.582 12.801s-6.5859-4.7344-10.656-12.578c-4.7344-9.1758-10.73-20.57-23.828-20.57-13.098-0.003906-19.164 10.949-23.898 20.348-4.1445 7.8438-6.8828 12.801-10.73 12.801-3.8477 0-6.5859-4.7344-10.656-12.578-3.0469-8.1445-8.8594-14.957-16.426-19.242v-0.51953 0.003906c0-8.1836 3.25-16.035 9.0352-21.82 5.7891-5.7852 13.637-9.0391 21.82-9.0391zm28.934 151.32h-18.355v-20.125h18.352zm298.36 0h-18.355v-20.125h18.352zm7.3984-35h-365.55v-65.117c1.0352 1.7031 2.0703 3.6992 3.2578 5.9922 4.8047 9.1758 10.727 20.797 23.824 20.797 13.098 0 19.016-11.395 23.828-20.57 4.0703-7.8438 6.8086-12.578 10.73-12.578 3.9219 0 6.5859 4.7344 10.656 12.578 4.7344 8.9492 10.727 20.57 23.898 20.57s19.09-11.395 23.828-20.57c4.0703-7.8438 6.8086-12.578 10.73-12.578s6.5859 4.7344 10.73 12.578c4.7344 9.1758 10.73 20.57 23.828 20.57 13.098 0 19.09-11.395 23.828-20.57 4.0703-7.8438 6.8086-12.578 10.73-12.578s6.6602 4.7344 10.73 12.578c4.7344 9.1758 10.73 20.57 23.828 20.57s19.09-11.395 23.828-20.57c4.0703-7.8438 6.8086-12.578 10.73-12.578s6.5859 4.7344 10.73 12.578c4.5039 8.9492 10.422 20.57 23.668 20.57s19.09-11.395 23.828-20.57c4.0703-7.8438 6.8086-12.578 10.73-12.578s6.6602 4.7344 10.73 12.578c4.8086 9.1758 10.73 20.57 23.828 20.57s19.09-11.395 23.828-20.57c1.1836-2.293 2.293-4.293 3.3281-6.0664v65.191z"/>
</svg>
