<?xml version="1.0" encoding="UTF-8"?>
<svg fill='white' version='1.1' height='200' width='200' viewBox='125 125 500 500' xmlns='http://www.w3.org/2000/svg'>
 <path d="m350.86 501.82c-1.3633 2.3516-4.3711 3.1602-6.7305 1.8047l-3.8594-2.2305h0.003906c-2.3398-1.3711-3.1367-4.3711-1.7773-6.7227 1.3555-2.3477 4.3516-3.1602 6.707-1.8203l3.8594 2.2188c1.1328 0.65625 1.9609 1.7383 2.2969 3.0039 0.33594 1.2656 0.15625 2.6133-0.5 3.7461zm-19.586 8.5742c-0.62109-1.1914-1.707-2.0781-2.9961-2.4531-1.293-0.375-2.6797-0.20312-3.8438 0.46875s-2.0039 1.7891-2.3242 3.0977c-0.31641 1.3047-0.089843 2.6836 0.62891 3.8203l2.2188 3.8477h0.003906c0.88281 1.5195 2.5117 2.457 4.2695 2.457 0.86719 0.003906 1.7188-0.22656 2.4688-0.66406 2.3555-1.3633 3.1602-4.3789 1.793-6.7383zm-25.762 3.2969v-0.003906c-2.7227 0-4.9336 2.2109-4.9336 4.9336v4.4492c0 2.7266 2.2109 4.9336 4.9336 4.9336 2.7266 0 4.9336-2.207 4.9336-4.9336v-4.4492c0-1.3086-0.51953-2.5625-1.4453-3.4883-0.92578-0.92578-2.1797-1.4453-3.4883-1.4453zm-19.023-5.0898 0.003906-0.003906c-2.3594-1.3633-5.375-0.55859-6.7383 1.7969l-2.2188 3.8477h-0.003906c-1.3633 2.3555-0.55859 5.3711 1.7969 6.7383 0.74609 0.4375 1.5977 0.67188 2.4648 0.67188 1.7656 0 3.3906-0.94141 4.2734-2.4688l2.2188-3.8477c1.3633-2.3555 0.5625-5.3711-1.793-6.7383zm-20.719-15.738-3.8477 2.2188c-2.3594 1.3633-3.1719 4.3789-1.8086 6.7422 1.3633 2.3633 4.3828 3.1719 6.7422 1.8125l3.8477-2.2188v-0.003906c2.3633-1.3594 3.1758-4.3789 1.8125-6.7422s-4.3828-3.1719-6.7422-1.8086zm1.6992-17.207c0-1.3086-0.51953-2.5664-1.4453-3.4883-0.92578-0.92578-2.1797-1.4453-3.4883-1.4453h-4.4414c-2.7227 0-4.9297 2.207-4.9297 4.9336 0 2.7227 2.207 4.9297 4.9297 4.9297h4.4414c1.3086 0 2.5625-0.51953 3.4883-1.4414 0.92578-0.92578 1.4453-2.1797 1.4453-3.4883zm-1.6484-17.215v-0.003906c2.3633 1.3633 5.3828 0.55078 6.7461-1.8086 1.3594-2.3633 0.55078-5.3828-1.8125-6.7461l-3.8477-2.2188c-2.3633-1.3633-5.3828-0.55078-6.7422 1.8086-1.3633 2.3633-0.55469 5.3828 1.8086 6.7461zm13.93-17.543 0.003906-0.003906c0.88281 1.5234 2.5117 2.4609 4.2695 2.457 0.86719 0.003906 1.7188-0.22266 2.4688-0.66016 2.3555-1.3672 3.1562-4.3828 1.793-6.7383l-2.2188-3.8477c-1.418-2.2305-4.3438-2.9492-6.6328-1.625-2.2891 1.3242-3.125 4.2148-1.9023 6.5586zm55.871-128.7 0.003906-0.003907c-6.4141-4.1445-13.176-7.7266-20.207-10.703-13.695-6.2266-27.863-12.648-21.488-30.172 1.3398-4.2656 4.7227-7.582 9.0195-8.832 6.6562-1.125 13.492 0.36328 19.078 4.1562 1.5-6.5898 5.4766-12.344 11.109-16.074 3.9961-2.0117 8.7344-1.8984 12.629 0.29688 16.605 8.4375 10.656 22.812 4.9336 36.711-3.1133 6.9766-5.6055 14.215-7.4492 21.629-0.50781 2.25-2.5078 3.8477-4.8125 3.8477-1.0117 0.007812-2-0.29688-2.832-0.86719zm-0.27734-11.84 0.003906-0.003906c1.7891-5.6328 3.8594-11.172 6.207-16.594 6.5508-15.785 7.3789-20.254-0.26562-24.145-1.0742-0.75-2.4688-0.86328-3.6523-0.29297-4.4727 4.2148-7.168 9.9844-7.5352 16.121-0.27344 1.7227-1.4375 3.1719-3.0586 3.8125-1.6172 0.64063-3.457 0.38281-4.8359-0.6875-4.2266-3.6758-9.4297-6.0469-14.977-6.8242-0.52344-0.011719-1.0469 0.054687-1.5508 0.19531-0.82031 0.23828-1.7461 0.73828-2.4648 2.7148-2.9609 8.0508 0.71094 10.734 16.301 17.82l-0.003906-0.003906c5.4023 2.3711 10.684 5.0117 15.816 7.9141zm-12.699 35.035 0.007812-0.003906c0.74219 1.8828 2.5625 3.1211 4.5859 3.1172 0.61719 0.003907 1.2305-0.11328 1.8047-0.34375l36.75-14.504h0.003906c2.4766-1.0352 3.6719-3.8633 2.6836-6.3594-0.98438-2.5-3.7891-3.75-6.3047-2.8164l-36.75 14.504h-0.003907c-1.2266 0.47656-2.2109 1.4258-2.7383 2.6328-0.52344 1.2109-0.54297 2.5781-0.054688 3.8008zm-0.69141 21.805 0.007813-0.003907c0.74219 1.8828 2.5625 3.1172 4.5859 3.1172 0.62109 0 1.2383-0.11328 1.8164-0.33203l52.812-20.848c1.2461-0.46484 2.25-1.4062 2.7891-2.6172s0.57031-2.5859 0.082031-3.8203c-0.48438-1.2344-1.4492-2.2188-2.668-2.7344-1.2227-0.51563-2.5977-0.51563-3.8242-0.003907l-52.863 20.867c-1.2188 0.48438-2.1953 1.4336-2.7109 2.6406-0.51953 1.2109-0.53125 2.5742-0.039063 3.7891zm196.64 175.42c0.45312 1.2344 0.39062 2.5938-0.16406 3.7852-0.55469 1.1875-1.5625 2.1055-2.793 2.5508-0.54688 0.19922-1.1211 0.30078-1.6992 0.29688-2.0664 0-3.9141-1.2891-4.6289-3.2266l-4.0625-11.258c-0.18359-0.49609-0.28906-1.0195-0.30469-1.5508l-2.2188-72.082h-0.003906c-0.23438-7.5195-2.3867-14.855-6.2539-21.312-10.082-16.773-28.613-47.172-34.027-54.266v0.003906c-3.3203-4.4766-7.7031-8.0508-12.75-10.41l12.531 31.758c0.48047 1.2148 0.45703 2.5703-0.058594 3.7695-0.51953 1.2031-1.4961 2.1523-2.7148 2.6367l-19.465 7.6953c0.98047 2.8984 1.7539 5.8672 2.3086 8.8789 1.0469 4.1172 0.72266 8.4648-0.92188 12.379-1.6445 3.918-4.5234 7.1914-8.1953 9.3281-3.6406 1.3906-10.852 1.9727-18.637-9.668v-0.003906c-7.3711-10.543-14.098-21.523-20.137-32.883l-2.6719-5.082c-9.3828-17.867-15.539-28.613-21.586-26.836-0.53125 0.15625-2.1914 0.65234-3.582 3.7188h-0.003906c-2.9883 11.324-1.6875 23.352 3.6523 33.773 7.4609 20.617 12.43 42.051 14.797 63.844l2.0508 12.824c3.3945 20.719 24.578 37.621 31 42.328h0.003906c2.6562 1.957 4.8906 4.4336 6.5586 7.2812l10.23 17.363 0.003907 0.003906c1.3828 2.3477 0.60156 5.375-1.75 6.7578-2.3477 1.3828-5.3711 0.60156-6.7578-1.7461l-10.23-17.363v-0.003906c-1.0039-1.6992-2.3477-3.1758-3.9453-4.3398-9.1953-6.7383-31.008-24.992-34.887-48.68l-1.1055-6.9062-0.29688 0.42578c-4.0977 5.9219-10.84 9.4609-18.047 9.4609-4.3125-0.015625-8.4062-1.9141-11.207-5.1953-2.8008-3.2812-4.0273-7.6211-3.3633-11.883l3.3555-21.043-31.719 12.551-0.003906-0.003907c-0.57422 0.22656-1.1875 0.34375-1.8047 0.34375-2.0234 0-3.8438-1.2344-4.5859-3.1172l-77.945-197.57c-0.48047-1.2188-0.46094-2.5742 0.058594-3.7773 0.51953-1.1992 1.4961-2.1445 2.7148-2.625l144.52-56.949c1.2148-0.48828 2.5742-0.46875 3.7695 0.058594 1.1992 0.51953 2.1445 1.4961 2.625 2.7148l60.816 154.09c10.129 1.9648 19.129 7.7305 25.148 16.113 7.0156 9.1445 31.848 50.496 34.672 55.184l-0.003907-0.003906c4.7305 7.8984 7.3672 16.875 7.6562 26.078l2.1992 71.285zm-144.57-70.633c-1.2812-7.9727-2.625-15.855-4.1328-23.324l-12.512 4.9336-4.2617 26.828c-0.22656 1.4102 0.17578 2.8516 1.1016 3.9375 0.92578 1.0898 2.2852 1.7148 3.7148 1.7148 3.9648 0 7.6758-1.9492 9.9336-5.207zm56.75-47.359-12.57 4.9336c1.3711 2.082 2.832 4.3125 4.5391 6.9062 3.3555 5.0234 5.9805 6.3125 6.9062 5.918 1.6953-0.65234 3.7109-5.418 2.8828-11.098v0.003906c-0.4375-2.2461-1.0234-4.457-1.7578-6.6211zm20.461-18.695-74.348-188.36-135.28 53.426 74.352 188.45 51.797-20.504v0.003906c-1.5391-6.8945-3.7188-13.629-6.5117-20.117-6.6211-12.98-7.9414-28.02-3.6797-41.953 1.7344-4.332 5.3008-7.668 9.7383-9.1055 14.246-4.2812 22.582 11.602 33.152 31.699l2.6523 5.0508c3.1953 6.0273 5.6641 10.41 9.6406 16.773l19.219-7.6055c0.050782 0 0.089844-0.070312 0.14844-0.089844h0.11719zm37.875-120.16h0.003907c1.3086 0 2.5625-0.51953 3.4883-1.4453s1.4453-2.1797 1.4453-3.4883v-2.5859c0-2.7227-2.207-4.9297-4.9336-4.9297-2.7227 0-4.9336 2.207-4.9336 4.9297v2.5859c-0.007813 1.3164 0.50781 2.582 1.4336 3.5156 0.92578 0.93359 2.1875 1.457 3.5 1.457zm17.758 7.3398h0.007812c1.3008 0 2.5469-0.51172 3.4727-1.4297l1.8438-1.8359c0.95313-0.91406 1.5-2.1758 1.5156-3.5 0.015624-1.3242-0.50391-2.5977-1.4336-3.5352-0.93359-0.9375-2.207-1.4609-3.5273-1.4531-1.3242 0.007812-2.5898 0.54688-3.5117 1.4922l-1.8438 1.8359c-1.4141 1.4102-1.8359 3.5352-1.0742 5.3789 0.76172 1.8438 2.5625 3.0469 4.5586 3.0469zm9.9453 7.8945h-2.5938 0.003906c-2.7227 0-4.9336 2.207-4.9336 4.9336 0 2.7227 2.2109 4.9336 4.9336 4.9336h2.5977c2.7227 0 4.9297-2.2109 4.9297-4.9336 0-2.7266-2.207-4.9336-4.9297-4.9336zm-11.566 28.012c0.92188 0.91406 2.1719 1.4297 3.4727 1.4297 1.9961 0 3.7969-1.2031 4.5586-3.0508 0.76172-1.8438 0.33594-3.9648-1.0742-5.375l-1.8438-1.8359h-0.003906c-0.89453-1.0508-2.1914-1.6797-3.5742-1.7305-1.3789-0.046875-2.7188 0.48047-3.6875 1.4648-0.97266 0.98438-1.4844 2.3281-1.418 3.7109 0.066406 1.3789 0.71094 2.668 1.7734 3.5508zm-16.094 9.5391c1.3086 0 2.5664-0.51953 3.4883-1.4453 0.92578-0.92578 1.4453-2.1797 1.4453-3.4883v-2.5938c0-2.7266-2.207-4.9336-4.9336-4.9336-2.7227 0-4.9336 2.207-4.9336 4.9336v2.5938c0 2.7109 2.1875 4.9102 4.8945 4.9336zm-21.262-18.359-1.8242 1.8359v-0.003906c-1.8711 1.9375-1.8438 5.0117 0.058594 6.918 1.9062 1.9023 4.9805 1.9297 6.918 0.058594l1.8242-1.8359c0.95312-0.91797 1.4961-2.1797 1.5078-3.5039 0.007813-1.3242-0.51172-2.5977-1.4453-3.5312-0.9375-0.9375-2.2109-1.457-3.5312-1.4453-1.3242 0.011719-2.5859 0.55469-3.5078 1.5078zm-6.4414-9.3047h2.5938c2.7266 0 4.9336-2.2109 4.9336-4.9336 0-2.7266-2.207-4.9336-4.9336-4.9336h-2.5938c-2.7227 0-4.9336 2.207-4.9336 4.9336 0 2.7227 2.2109 4.9336 4.9336 4.9336zm6.4414-19.18c0.92188 0.94922 2.1836 1.4922 3.5078 1.5039 1.3203 0.011718 2.5938-0.50781 3.5312-1.4453 0.93359-0.93359 1.4531-2.207 1.4453-3.5312-0.011718-1.3203-0.55469-2.5859-1.5078-3.5039l-1.8242-1.8359c-1.9375-1.8672-5.0117-1.8438-6.918 0.0625-1.9023 1.9023-1.9297 4.9766-0.058594 6.9141z"/>
</svg>
